<?xml version="1.0" encoding="UTF-8"?>
<svg version="1.1" xmlns="http://www.w3.org/2000/svg" width="1024" height="1024">
<path d="M0 0 C0.69954678 -0.00297112 1.39909355 -0.00594224 2.11983871 -0.0090034 C4.47622604 -0.01771055 6.83256268 -0.01920044 9.18896484 -0.02069092 C10.87431955 -0.02531823 12.55967321 -0.03034278 14.24502563 -0.03573608 C18.83687804 -0.04888372 23.4287158 -0.05531142 28.02058411 -0.05974674 C30.89486894 -0.06267797 33.76914979 -0.06678322 36.64343262 -0.07125092 C45.65096264 -0.08494153 54.65848354 -0.0945965 63.66602325 -0.09845281 C74.03361378 -0.10291619 84.40107132 -0.12037699 94.76862144 -0.1494534 C102.79605561 -0.17117665 110.8234527 -0.18116298 118.85091591 -0.18249393 C123.63692967 -0.18353578 128.4228187 -0.18930842 133.20880127 -0.20731354 C137.72649936 -0.2239755 142.24398153 -0.22586332 146.76169968 -0.21717453 C148.40540527 -0.21641332 150.04912332 -0.22062312 151.69279861 -0.23063278 C182.7990845 -0.40868896 212.84227034 8.17289503 235.64990234 30.07794189 C248.72647333 43.8596221 256.71960402 59.58301772 260.27490234 78.14044189 C260.50113281 79.3141333 260.50113281 79.3141333 260.73193359 80.51153564 C261.05708947 82.73560183 261.19279798 84.89283492 261.27490234 87.14044189 C261.32646484 88.43079346 261.37802734 89.72114502 261.43115234 91.05059814 C262.05104859 114.36229803 256.98869115 137.45359303 240.56396484 154.98809814 C232.97829533 162.12069866 224.1258157 167.72187092 215.27490234 173.14044189 C215.60490234 173.80044189 215.93490234 174.46044189 216.27490234 175.14044189 C217.49177734 175.49106689 218.70865234 175.84169189 219.96240234 176.20294189 C238.47054821 182.09856364 255.39647857 198.8928253 264.83349609 215.32403564 C278.27311628 241.58410652 279.78461535 272.98451856 271.65380859 301.18731689 C267.19055088 314.60106763 260.60999409 326.54385126 251.27490234 337.14044189 C250.55689453 337.95770752 249.83888672 338.77497314 249.09912109 339.61700439 C223.7513212 366.58669276 183.68986045 375.02061777 148.18409729 376.31351089 C138.41675682 376.58973224 128.64282501 376.54380826 118.87263584 376.51048684 C114.67866168 376.49894206 110.484696 376.50329612 106.29071045 376.50523376 C99.27840089 376.50610768 92.2661897 376.49521196 85.25390625 376.47662354 C77.16516016 376.45530356 69.07655605 376.45198637 60.98778749 376.45818549 C53.14902275 376.46388291 45.31030757 376.45823963 37.47154999 376.44701195 C34.15593289 376.44238779 30.8403463 376.44148235 27.52472687 376.44359779 C23.63381074 376.44548486 19.7430389 376.43734497 15.85215569 376.4215374 C14.4295785 376.41730977 13.00698663 376.41643372 11.5844059 376.4192276 C-3.11854098 376.44372023 -3.11854098 376.44372023 -9.72509766 373.14044189 C-10.8117309 369.88054216 -10.85154578 367.51320721 -10.85373211 364.08213139 C-10.85695656 362.80718565 -10.860181 361.53223992 -10.86350316 360.21865946 C-10.86203188 358.79570065 -10.86046415 357.37274194 -10.85881042 355.94978333 C-10.86067759 354.44449222 -10.86297792 352.93920159 -10.86567575 351.43391174 C-10.87181175 347.28683228 -10.87165805 343.13977293 -10.87048137 338.99268997 C-10.87027782 334.52431861 -10.87579173 330.05595379 -10.88053894 325.58758545 C-10.88885573 316.82955628 -10.89159424 308.07153385 -10.89215132 299.31350107 C-10.89262596 292.19737699 -10.89467809 285.08125514 -10.89785194 277.96513176 C-10.90666105 257.80491986 -10.91127088 237.6447133 -10.91052147 217.48449946 C-10.91048151 216.39699318 -10.91044156 215.3094869 -10.91040039 214.18902588 C-10.91035951 213.10019723 -10.91031863 212.01136859 -10.91027651 210.88954514 C-10.90986989 193.23557847 -10.91944287 175.58163313 -10.93353876 157.92767263 C-10.94788664 139.81571806 -10.95480983 121.7037739 -10.95394498 103.5918135 C-10.95361248 93.41725924 -10.95638286 83.24272733 -10.96712303 73.06817818 C-10.97620714 64.40675353 -10.97842053 55.74536135 -10.97161361 47.08393402 C-10.96833789 42.66223807 -10.96832942 38.24060451 -10.97696686 33.81891441 C-10.98478653 29.77437875 -10.98344724 25.72995542 -10.97468273 21.68542265 C-10.97313768 20.21909774 -10.97500134 18.75276463 -10.9805428 17.28644938 C-10.98755804 15.29917528 -10.98114019 13.31186715 -10.97398663 11.32459354 C-10.97420399 10.21895528 -10.97442136 9.11331701 -10.97464532 7.97417456 C-10.72520636 5.14167627 -10.28500513 3.49692777 -8.72509766 1.14044189 C-5.81035849 -0.31692769 -3.25675683 0.00770145 0 0 Z M75.47412109 58.37481689 C74.77487015 58.38982239 74.0756192 58.40482788 73.35517883 58.42028809 C70.38961166 58.57899875 68.53966768 58.95097214 66.1068573 60.69192505 C63.61270882 64.02550296 63.72776303 66.93368463 63.7890625 70.93487549 C63.78526581 71.71586105 63.78146912 72.49684662 63.77755737 73.30149841 C63.77015341 75.88103516 63.79153509 78.45944286 63.81396484 81.03887939 C63.81634998 82.83482735 63.81725444 84.63077783 63.81674194 86.42672729 C63.81986993 90.19115824 63.83643193 93.95520834 63.86328125 97.71954346 C63.8972121 102.53701247 63.90491113 107.35406208 63.90339088 112.17163658 C63.90393576 115.88119486 63.91492257 119.59066206 63.92939377 123.30018997 C63.93574452 125.07593726 63.93969662 126.85169483 63.94118118 128.62745285 C63.94553534 131.11421885 63.96308279 133.60054778 63.984375 136.08721924 C63.98346863 136.81677322 63.98256226 137.54632721 63.98162842 138.29798889 C64.03527655 142.60000574 64.56184047 146.17960328 66.27490234 150.14044189 C69.21422693 151.61010419 72.18541909 151.29640618 75.40820312 151.30157471 C76.143573 151.30653961 76.87894287 151.31150452 77.63659668 151.31661987 C80.08114555 151.33127426 82.52562916 151.33805495 84.97021484 151.34356689 C86.67780559 151.34932318 88.38539633 151.35508085 90.09298706 151.36083984 C93.68601787 151.37136423 97.27902625 151.377195 100.87207031 151.38067627 C105.43305154 151.38611224 109.9937268 151.41002729 114.55461311 151.43864822 C118.09126581 151.45747476 121.62784845 151.46249108 125.16454697 151.46401215 C126.842738 151.46700304 128.5209289 151.47490787 130.19906998 151.48819733 C148.30357215 151.62113102 167.57349227 150.38344048 181.27490234 137.14044189 C191.83120081 125.29068393 193.3068074 111.56748498 192.45507812 96.32794189 C191.5864456 85.78194265 185.96735375 76.95145408 178.36865234 69.76934814 C166.17516904 60.28300013 151.36444056 58.7032397 136.41943359 58.59356689 C135.02380395 58.57408674 133.62818891 58.55353425 132.23258972 58.53198242 C129.32574357 58.48998352 126.41900188 58.45720032 123.51196289 58.4319458 C119.84196954 58.39984526 116.17249538 58.34999238 112.50279427 58.29421234 C93.9859506 58.00826169 93.9859506 58.00826169 75.47412109 58.37481689 Z M66.27490234 210.14044189 C64.60815269 212.88549646 64.02379947 214.96456679 64.01420593 218.15641785 C64.00712112 218.94562119 64.00003632 219.73482452 63.99273682 220.54794312 C63.99521423 221.40467621 63.99769165 222.2614093 64.00024414 223.144104 C63.99513321 224.05349228 63.99002228 224.96288055 63.98475647 225.89982605 C63.97085656 228.90587953 63.97181752 231.91170385 63.97412109 234.91778564 C63.97023445 237.00759466 63.96589985 239.09740288 63.96113586 241.18721008 C63.95367284 245.56772421 63.9539656 249.94815774 63.95922852 254.32867432 C63.96502391 259.94217748 63.94809072 265.55535078 63.92488384 271.1687994 C63.91015227 275.48478626 63.90927401 279.80069358 63.91239357 284.11670113 C63.91188009 286.1863527 63.90663739 288.2560087 63.89658165 290.32563591 C63.88424558 293.21977046 63.89099201 296.11326102 63.90258789 299.00738525 C63.89494415 299.86209412 63.88730042 300.71680298 63.87942505 301.59741211 C63.9200099 306.18006192 64.06592875 309.56836899 67.27490234 313.14044189 C71.1112407 314.50678516 75.13864419 314.27303767 79.18212891 314.28570557 C80.19564926 314.29074348 80.19564926 314.29074348 81.22964478 314.29588318 C83.45829121 314.30535912 85.68686202 314.30733567 87.91552734 314.30841064 C89.48191355 314.31162932 91.04829946 314.31499384 92.61468506 314.3184967 C95.90312392 314.32448231 99.19153655 314.32633757 102.47998047 314.32574463 C106.64500086 314.3256439 110.80984731 314.33920493 114.97482681 314.35651684 C118.21641776 314.36777965 121.45796884 314.3696594 124.69957733 314.3691349 C126.23179464 314.37029718 127.7640136 314.37461731 129.29621124 314.38246727 C151.32039125 314.48460018 174.37381166 313.00739842 191.58740234 297.57794189 C202.07022604 286.32914987 204.88835904 272.21599009 204.52099609 257.36309814 C203.87955626 243.12058084 197.59163462 230.86818946 187.27490234 221.14044189 C175.06057225 210.91236735 158.73194291 208.97311362 143.34130859 208.52716064 C141.66422569 208.47116951 141.66422569 208.47116951 139.95326233 208.41404724 C128.21621614 208.05303831 116.47859331 207.95431947 104.73657227 207.95513916 C101.15483478 207.952906 97.57338458 207.93450861 93.99169922 207.91583252 C91.6785492 207.9129052 89.36539777 207.91091599 87.05224609 207.90997314 C85.999077 207.90278763 84.9459079 207.89560211 83.86082458 207.88819885 C74.85007512 207.77961504 74.85007512 207.77961504 66.27490234 210.14044189 Z " fill="#CACBCA" transform="translate(383.72509765625,306.85955810546875)"/>
<path d="M0 0 C4.39002633 0.00229152 8.78004891 -0.00124395 13.17007446 -0.00397992 C21.74037318 -0.00839717 30.31066307 -0.00747922 38.88096212 -0.00456728 C45.85534597 -0.00229694 52.82972737 -0.00200775 59.80411148 -0.0030911 C60.80165748 -0.00324433 61.79920349 -0.00339756 62.82697815 -0.00355544 C64.85431785 -0.00387521 66.88165755 -0.00419942 68.90899725 -0.00452803 C87.863936 -0.00737105 106.81886989 -0.00411449 125.77380784 0.00127234 C141.98816945 0.00573792 158.2025239 0.00496417 174.41688538 0.00035357 C193.3069011 -0.00501544 212.19691258 -0.00709503 231.08692896 -0.00403416 C233.10688376 -0.00371566 235.12683856 -0.00340129 237.14679337 -0.0030911 C238.14029857 -0.00293682 239.13380378 -0.00278255 240.1574152 -0.0026236 C247.11096538 -0.00176531 254.06451284 -0.00320643 261.01806259 -0.00557065 C269.51009838 -0.00839485 278.00212494 -0.00757576 286.49415968 -0.00228991 C290.81515954 0.00031231 295.13614409 0.00141233 299.45714378 -0.00193906 C329.15671284 -0.02294136 329.15671284 -0.02294136 343.78959656 0.56849933 C345.19136581 0.62503187 345.19136581 0.62503187 346.62145364 0.68270648 C376.67337522 2.09788335 404.13931658 14.85500072 424.96473694 36.64634967 C445.55806589 60.50310233 452.46235811 87.64319668 452.36323547 118.67711139 C452.3655464 120.27994116 452.36872713 121.88276988 452.37268996 123.48559642 C452.38095982 127.84239712 452.37694867 132.19910905 452.37071753 136.55590987 C452.36616171 141.27309434 452.3731922 145.99026434 452.37867737 150.70744586 C452.38753982 159.92961429 452.38566344 169.15175005 452.37985209 178.37391973 C452.37532317 185.87340348 452.374728 193.37287812 452.37689972 200.87236285 C452.37720619 201.94241561 452.37751265 203.01246836 452.3778284 204.11494696 C452.3784679 206.28918672 452.37911633 208.46342647 452.37977359 210.63766623 C452.38546766 230.99392972 452.37893349 251.35017515 452.36817285 271.70643568 C452.35923819 289.14800459 452.36079049 306.58954687 452.37001038 324.03111529 C452.38072933 344.31783049 452.38491842 364.60452988 452.37878585 384.89124751 C452.37814879 387.05719383 452.37752005 389.22314016 452.37689972 391.38908648 C452.37659117 392.45459007 452.37628262 393.52009366 452.37596472 394.61788523 C452.37424265 402.10261733 452.37714232 409.58733935 452.38185883 417.07206988 C452.38748574 426.20165694 452.38591327 435.33120963 452.37529734 444.46079278 C452.37006493 449.11291749 452.36794212 453.76498505 452.37459564 458.41710925 C452.38060794 462.68565672 452.37719408 466.9540947 452.36664054 471.22263241 C452.36442868 472.75674791 452.36549215 474.2908729 452.37039211 475.82498217 C452.4104322 489.41649705 451.61816697 503.00762433 447.54676819 516.06822467 C447.29064758 516.89958941 447.03452698 517.73095416 446.77064514 518.58751178 C441.56843091 534.61179487 433.01151367 547.30526787 421.10926819 559.13072467 C420.59364319 559.69275592 420.07801819 560.25478717 419.54676819 560.83384967 C400.46589937 581.36652373 370.56468543 590.57044067 343.33091736 591.69977069 C342.35161534 591.74074321 341.37231333 591.78171573 340.36333549 591.82392985 C325.64528196 592.36829002 310.91297852 592.28032471 296.18715692 592.27610838 C291.66488362 592.27590152 287.14261641 592.28144978 282.62034607 592.28616595 C273.79250521 592.29441059 264.96467104 592.29721792 256.13682665 592.29777833 C248.95271151 592.29825622 241.76859855 592.30032448 234.5844841 592.30347896 C214.15077636 592.31226677 193.71707384 592.316901 173.28336419 592.31614848 C172.18580021 592.31610853 171.08823622 592.31606857 169.95741272 592.3160274 C168.85848709 592.31598652 167.75956146 592.31594564 166.62733506 592.31590352 C148.81746389 592.31549705 131.00761385 592.32507186 113.1977488 592.33916577 C94.84662706 592.35357187 76.49551561 592.36043371 58.14438808 592.35957199 C47.86718085 592.3592416 37.58999582 592.36191937 27.31279373 592.37275004 C18.5653517 592.38191077 9.81794195 592.3839848 1.07049717 592.37724062 C-3.38026804 592.37400397 -7.83097154 592.37381372 -12.28173065 592.38259387 C-31.25055774 592.41778711 -49.99879958 592.11547082 -68.89073181 590.13072467 C-68.89073181 589.47072467 -68.89073181 588.81072467 -68.89073181 588.13072467 C-69.90006775 588.01857623 -70.90940369 587.90642779 -71.94932556 587.79088092 C-94.80635185 583.96249891 -117.15029742 566.69017792 -130.69541931 548.48619342 C-145.5250103 527.4799092 -151.32124454 504.81700861 -151.01573181 479.31822467 C-151.00566833 477.83580893 -150.99654851 476.35338648 -150.98838806 474.87095904 C-150.96667257 471.29073792 -150.93233427 467.71077659 -150.89073181 464.13072467 C-151.55073181 463.80072467 -152.21073181 463.47072467 -152.89073181 463.13072467 C-152.56073181 462.80072467 -152.23073181 462.47072467 -151.89073181 462.13072467 C-151.79292568 459.50719168 -151.76078755 456.91000056 -151.77047729 454.28602862 C-151.76962287 453.45424621 -151.76876845 452.62246381 -151.76788813 451.76547587 C-151.76623073 448.95637727 -151.77175899 446.14733737 -151.77720642 443.3382442 C-151.77748827 441.33313761 -151.77733061 439.32803091 -151.77676392 437.32292438 C-151.77647579 431.8601375 -151.78237539 426.39737238 -151.78933787 420.93459058 C-151.79557141 415.22912621 -151.7961753 409.5236614 -151.79736328 403.81819415 C-151.80047753 393.00221854 -151.80869134 382.18625299 -151.81871277 371.37028182 C-151.82986197 359.07269755 -151.83538284 346.77511282 -151.84040821 334.47752476 C-151.8501435 310.9358857 -151.86559599 287.39425401 -151.88606972 263.85262191 C-151.88857391 260.94532163 -151.89073181 258.0380262 -151.89073181 255.13072467 C-151.89434623 253.1518255 -151.89799425 251.17292638 -151.90185165 249.19402766 C-152.07672196 158.48023154 -152.07672196 158.48023154 -151.6822052 126.36192584 C-151.65499504 123.9959433 -151.63405096 121.62987865 -151.62001038 119.26378131 C-151.38790243 83.76188859 -141.38686543 54.66266747 -115.89073181 29.13072467 C-82.83538453 -1.04797055 -42.03381892 -0.03255118 0 0 Z M-98.89073181 48.13072467 C-99.52623962 48.62185748 -100.16174744 49.11299029 -100.81651306 49.61900592 C-113.29297525 59.43972449 -120.27945488 76.60250022 -124.45323181 91.50572467 C-124.70202087 92.37970904 -124.95080994 93.25369342 -125.20713806 94.15416217 C-127.21081002 102.87872234 -127.0370257 111.62118393 -127.03117371 120.51852679 C-127.03376002 122.09311473 -127.03677391 123.66770202 -127.04017711 125.24228841 C-127.04821931 129.55819926 -127.05003513 133.87409345 -127.05077457 138.19001091 C-127.05263001 142.84941186 -127.06017987 147.50880427 -127.06690979 152.16820025 C-127.08047448 162.35242629 -127.08651509 172.53664838 -127.09092045 182.72088194 C-127.09368636 189.08508759 -127.09792438 195.44929172 -127.10242462 201.81349635 C-127.11461549 219.44831854 -127.12491475 237.08313953 -127.12829971 254.71796584 C-127.12851928 255.84600343 -127.12873885 256.97404101 -127.12896506 258.13626156 C-127.12918334 259.26693903 -127.12940162 260.3976165 -127.12962651 261.56255692 C-127.13006997 263.85359005 -127.13051654 266.14462318 -127.13096619 268.43565631 C-127.13118762 269.57207848 -127.13140905 270.70850065 -127.13163719 271.87935985 C-127.13558262 290.28081905 -127.15302969 308.68223858 -127.17632571 327.08368247 C-127.20007283 345.99477693 -127.21250311 364.90585151 -127.21366763 383.81696111 C-127.21458257 394.42726184 -127.22028904 405.0375109 -127.23848724 415.64779735 C-127.25393372 424.6853295 -127.258982 433.72279402 -127.25074914 442.76033687 C-127.24685853 447.36598052 -127.24769397 451.97148815 -127.26180649 456.57711482 C-127.27464149 460.80474689 -127.2732648 465.03214208 -127.26121578 469.25977428 C-127.25927523 470.77799944 -127.26225986 472.29624196 -127.27106014 473.81444287 C-127.40812214 499.08827766 -120.77002668 523.11215362 -102.66026306 541.45103717 C-87.32984502 556.28413558 -67.42546976 565.24011906 -45.87210274 565.26215243 C-45.18618187 565.26420507 -44.50026101 565.2662577 -43.79355466 565.26837254 C-41.49618642 565.27402487 -39.19887847 565.27258747 -36.90150452 565.27116656 C-35.23718442 565.27375123 -33.57286495 565.27676468 -31.90854633 565.28016996 C-27.33535174 565.28823162 -22.76217285 565.29002908 -18.188972 565.29076743 C-13.25620574 565.2926195 -8.32344759 565.30016773 -3.39068604 565.30690265 C7.3968779 565.32048177 18.18443812 565.32651037 28.97200918 565.33091331 C35.71108294 565.33367711 42.45015527 565.33791478 49.18922806 565.34241748 C67.85594785 565.35461086 86.52266649 565.36490922 105.18939018 565.36829257 C106.38403702 565.36851214 107.57868386 565.3687317 108.80953211 565.36895792 C110.0070101 565.3691762 111.20448809 565.36939448 112.43825328 565.36961937 C114.8647244 565.37006283 117.29119551 565.3705094 119.71766663 565.37095904 C120.92127563 565.37118047 122.12488464 565.3714019 123.36496665 565.37163004 C142.85360398 565.37557531 162.34220387 565.39302074 181.83082674 565.41631857 C201.85039513 565.44005739 221.86994475 565.45249562 241.88952744 565.45366049 C253.12524907 565.45457596 264.36092193 565.46029582 275.5966301 565.4784801 C285.16746824 565.49391543 294.73824255 565.49898142 304.30909078 565.490742 C309.18800473 565.4868473 314.06679027 565.48770708 318.94568825 565.50179935 C323.421917 565.51460963 327.89792178 565.51327876 332.37415053 565.50120863 C333.98393781 565.49926387 335.59374135 565.50227283 337.20350586 565.511053 C350.74186646 565.58015385 364.3076805 564.48281499 376.85926819 558.94322467 C377.56188782 558.64206744 378.26450745 558.34091022 378.98841858 558.03062701 C389.55946055 553.33533359 399.168908 546.57047858 407.10926819 538.13072467 C407.43926819 537.14072467 407.76926819 536.15072467 408.10926819 535.13072467 C408.83114319 534.45009967 409.55301819 533.76947467 410.29676819 533.06822467 C422.69756492 521.0247996 427.05317841 500.90375398 427.48958492 484.21327758 C427.51808296 481.33061702 427.50926213 478.44892702 427.49694824 475.56619525 C427.50113153 473.94915241 427.50661445 472.3321125 427.51326805 470.71507794 C427.52761106 466.31424264 427.52351318 461.91359638 427.51610124 457.51275122 C427.511344 452.74982743 427.52390191 447.98694305 427.53411865 443.22403216 C427.55126237 433.90947249 427.55215585 424.59498041 427.54690575 415.28040906 C427.54285441 407.70463668 427.54431903 400.12888418 427.54965401 392.55311275 C427.55040243 391.4724005 427.55115085 390.39168826 427.55192195 389.27822715 C427.55345353 387.08232932 427.55499187 384.8864315 427.55653692 382.69053368 C427.57024604 362.12532887 427.56483553 341.56016218 427.55335171 320.99495826 C427.54342186 302.20984174 427.55635856 283.42482375 427.5802859 264.63972243 C427.60470973 245.31819837 427.61427665 225.99672015 427.60763317 206.67518097 C427.60414814 195.840821 427.60632558 185.00653676 427.6238842 174.17218852 C427.63864733 164.94891297 427.63918811 155.72576648 427.62181329 146.50249334 C427.61333454 141.80348504 427.6110767 137.10470689 427.62646484 132.40571094 C427.6404159 128.09188202 427.63541686 123.77847818 427.61622561 119.4646732 C427.61249692 117.91636051 427.61529549 116.3680129 427.62583726 114.81973162 C427.71339302 100.95848738 426.22242044 86.01063003 419.35926819 73.69322467 C419.01637756 73.04547076 418.67348694 72.39771686 418.32020569 71.73033404 C407.41455136 51.65039751 390.12814114 36.8960225 368.31239319 29.91588092 C355.90490553 26.33297004 343.91255262 25.98291208 331.08113098 25.9970119 C329.46143105 25.99514136 327.84173156 25.99283969 326.22203279 25.99014658 C321.79083118 25.98405228 317.35964851 25.98415937 312.92844367 25.98534095 C308.14166459 25.98554556 303.3548915 25.98002051 298.56811523 25.97528338 C289.19741363 25.9669894 279.82671832 25.96422911 270.45601335 25.96367101 C262.83671012 25.96319527 255.21740896 25.96113767 247.59810638 25.95797038 C225.98045744 25.9491674 204.36281345 25.94455047 182.7451627 25.94530085 C181.58060559 25.94534081 180.41604849 25.94538077 179.21620178 25.94542193 C177.46722542 25.94548326 177.46722542 25.94548326 175.68291619 25.94554581 C156.7881112 25.94595224 137.89332613 25.93638277 118.9985269 25.92228357 C99.58226823 25.90790994 80.16601927 25.90101392 60.74975514 25.90187734 C49.85510621 25.90220896 38.96047818 25.89947729 28.06583405 25.88869929 C18.7900226 25.87958134 9.51424154 25.8774297 0.23842755 25.88420872 C-4.49036983 25.88746731 -9.21910898 25.88755451 -13.94790077 25.87885547 C-18.28442759 25.87096035 -22.62085029 25.87245247 -26.95737466 25.8811396 C-28.5185532 25.88266797 -30.07973964 25.88088368 -31.64090887 25.87527952 C-57.1933416 25.789695 -79.16970915 31.2020592 -98.89073181 48.13072467 Z " fill="#C8C8C8" transform="translate(360.89073181152344,201.8692753314972)"/>
<path d="M0 0 C4.39002633 0.00229152 8.78004891 -0.00124395 13.17007446 -0.00397992 C21.74037318 -0.00839717 30.31066307 -0.00747922 38.88096212 -0.00456728 C45.85534597 -0.00229694 52.82972737 -0.00200775 59.80411148 -0.0030911 C60.80165748 -0.00324433 61.79920349 -0.00339756 62.82697815 -0.00355544 C64.85431785 -0.00387521 66.88165755 -0.00419942 68.90899725 -0.00452803 C87.863936 -0.00737105 106.81886989 -0.00411449 125.77380784 0.00127234 C141.98816945 0.00573792 158.2025239 0.00496417 174.41688538 0.00035357 C193.3069011 -0.00501544 212.19691258 -0.00709503 231.08692896 -0.00403416 C233.10688376 -0.00371566 235.12683856 -0.00340129 237.14679337 -0.0030911 C238.14029857 -0.00293682 239.13380378 -0.00278255 240.1574152 -0.0026236 C247.11096538 -0.00176531 254.06451284 -0.00320643 261.01806259 -0.00557065 C269.51009838 -0.00839485 278.00212494 -0.00757576 286.49415968 -0.00228991 C290.81515954 0.00031231 295.13614409 0.00141233 299.45714378 -0.00193906 C329.15671284 -0.02294136 329.15671284 -0.02294136 343.78959656 0.56849933 C345.19136581 0.62503187 345.19136581 0.62503187 346.62145364 0.68270648 C376.67337522 2.09788335 404.13931658 14.85500072 424.96473694 36.64634967 C435.22164022 48.52866385 447.4466911 65.54175997 448.29676819 81.69322467 C448.20395569 82.89978717 448.20395569 82.89978717 448.10926819 84.13072467 C446.10926819 83.13072467 446.10926819 83.13072467 444.84754944 79.55259967 C444.3697642 77.99608078 443.89468107 76.43873083 443.42176819 74.88072467 C438.14581194 58.43148716 429.10814671 43.66722936 416.10926819 32.13072467 C415.34614319 31.43720904 414.58301819 30.74369342 413.79676819 30.02916217 C389.89727681 9.33049553 362.018949 3.96333846 331.29676819 3.9970119 C329.65284168 3.99513899 328.00891561 3.99283639 326.36499023 3.99014658 C321.89000815 3.98408191 317.4150449 3.9841558 312.94005966 3.98534095 C308.09745247 3.98554631 303.25485112 3.98001354 298.4122467 3.97528338 C288.94229887 3.96700661 279.47235727 3.96422993 270.00240612 3.96367101 C262.30218607 3.96319462 254.60196806 3.96113377 246.90174866 3.95797038 C225.04201849 3.94917347 203.18229321 3.94454973 181.32256126 3.94530085 C179.55795775 3.94536079 179.55795775 3.94536079 177.75770569 3.94542193 C176.57985819 3.94546281 175.40201069 3.9455037 174.18847084 3.94554581 C155.0909638 3.94595245 135.99347646 3.93637587 116.89597511 3.92228357 C97.25920092 3.90790823 77.62243633 3.90101396 57.98565674 3.90187734 C46.97200182 3.90220882 35.95836757 3.89948326 24.94471741 3.88869929 C15.57097375 3.87957927 6.19726016 3.87743154 -3.17648602 3.88420872 C-7.95404823 3.88746576 -12.73155282 3.88756005 -17.5091095 3.87885547 C-21.89113252 3.87095388 -26.27305255 3.87245895 -30.65507317 3.8811396 C-32.23159774 3.88266652 -33.80813013 3.88088929 -35.38464546 3.87527952 C-45.39611143 3.8420435 -54.99498539 4.62588892 -64.89073181 6.13072467 C-67.88850473 6.49311491 -70.88766347 6.81461221 -73.89073181 7.13072467 C-73.89073181 7.79072467 -73.89073181 8.45072467 -73.89073181 9.13072467 C-74.92907166 9.42463092 -74.92907166 9.42463092 -75.98838806 9.72447467 C-88.32088178 13.49409067 -99.29178369 19.17519197 -109.03526306 27.66197467 C-110.89073181 29.13072467 -110.89073181 29.13072467 -112.89073181 29.13072467 C-112.89073181 29.79072467 -112.89073181 30.45072467 -112.89073181 31.13072467 C-113.97500116 32.1150474 -115.11138595 33.04210488 -116.26573181 33.94322467 C-124.5526686 41.04631334 -130.52898959 50.0889386 -135.89073181 59.50572467 C-136.26447937 60.15919879 -136.63822693 60.81267291 -137.02330017 61.48594928 C-139.29752111 65.62123137 -140.75419036 69.54904196 -141.89073181 74.13072467 C-142.55073181 74.13072467 -143.21073181 74.13072467 -143.89073181 74.13072467 C-143.39907126 68.72938335 -141.98034713 64.63531673 -139.32823181 59.88072467 C-138.96963074 59.22741168 -138.61102966 58.57409869 -138.24156189 57.90098834 C-123.99089282 32.46293638 -100.79899008 13.28122376 -72.78526306 4.84166217 C-49.32615858 -1.76669648 -24.16167593 -0.01871091 0 0 Z " fill="#BBBABA" transform="translate(360.89073181152344,201.8692753314972)"/>
<path d="M0 0 C2.73481445 2.38803683 3.9184886 4.73316007 5.3125 8.0625 C9.61439833 17.79298432 15.22223334 25.83649563 22 34 C22.63808594 34.83273437 23.27617187 35.66546875 23.93359375 36.5234375 C38.66229666 54.17560696 64.54242453 65.0719499 87 68 C99.31468088 69.00532013 111.75600895 68.70153088 124.10000384 68.6648711 C129.11608353 68.65551598 134.1320657 68.6752157 139.14811707 68.69119263 C147.81566934 68.71491425 156.48307953 68.72067133 165.15065956 68.71384621 C177.68213105 68.70400509 190.21344613 68.72184836 202.74489226 68.74621352 C223.08164068 68.78501344 243.41834404 68.80176074 263.75512695 68.80444336 C283.49766345 68.80709527 303.24014736 68.82025518 322.98266602 68.84741211 C324.20181701 68.84908549 325.420968 68.85075887 326.67706297 68.85248295 C332.79384911 68.86094309 338.91063493 68.86960839 345.02742064 68.87837565 C395.68493779 68.95071875 446.34243519 68.98718977 497 69 C497 69.66 497 70.32 497 71 C478.02443491 72.08210032 459.07619632 72.15082335 440.07788873 72.14538372 C435.55561544 72.14517685 431.03334822 72.15072511 426.51107788 72.15544128 C417.68323702 72.16368592 408.85540285 72.16649325 400.02755846 72.16705366 C392.84344332 72.16753156 385.65933036 72.16959981 378.47521591 72.17275429 C358.04150817 72.1815421 337.60780565 72.18617633 317.174096 72.18542381 C316.07653202 72.18538386 314.97896803 72.1853439 313.84814453 72.18530273 C312.7492189 72.18526185 311.65029327 72.18522097 310.51806687 72.18517885 C292.7081957 72.18477238 274.89834567 72.19434719 257.08848061 72.2084411 C238.73735887 72.2228472 220.38624742 72.22970904 202.03511989 72.22884732 C191.75791266 72.22851693 181.48072763 72.2311947 171.20352554 72.24202538 C162.45608352 72.25118611 153.70867376 72.25326013 144.96122898 72.24651595 C140.51046377 72.2432793 136.05976027 72.24308905 131.60900116 72.2518692 C112.64017407 72.28706244 93.89193224 71.98474615 75 70 C75 69.34 75 68.68 75 68 C73.99066406 67.88785156 72.98132813 67.77570313 71.94140625 67.66015625 C49.08571386 63.83199766 26.65150802 46.53872185 13.16015625 28.28515625 C0 9.5451325 0 9.5451325 0 0 Z " fill="#BFBFBF" transform="translate(217,722)"/>
<path d="M0 0 C136.62 0 273.24 0 414 0 C410.01769268 3.98230732 403.40275721 3.12510567 398.04738235 3.12584114 C397.38075852 3.12729458 396.71413469 3.12874802 396.02731013 3.13024551 C393.80165105 3.13388434 391.57606137 3.13042894 389.35040283 3.12698364 C387.73527896 3.1281363 386.12015536 3.1297248 384.5050323 3.13171089 C380.07266044 3.13588444 375.64031013 3.13382239 371.20793819 3.13072467 C366.42525525 3.1284627 361.64257601 3.13195421 356.8598938 3.13470459 C347.4917914 3.13915312 338.123697 3.13818976 328.75559428 3.13529195 C321.14000764 3.13303379 313.52442325 3.13272719 305.90883636 3.13381577 C304.28311053 3.13404561 304.28311053 3.13404561 302.62454174 3.13428011 C300.42275153 3.13459983 298.22096131 3.13492405 296.01917109 3.1352527 C275.36743049 3.13810494 254.71569432 3.13482475 234.06395444 3.12945233 C216.35122782 3.12498705 198.63850775 3.12575845 180.92578125 3.13037109 C160.35425291 3.13572571 139.78272846 3.13782762 119.21119952 3.13475883 C117.01627525 3.13444029 114.82135097 3.13412591 112.6264267 3.13381577 C111.00654898 3.13358435 111.00654898 3.13358435 109.35394646 3.13334826 C101.75125521 3.13248559 94.14856642 3.13394068 86.54587555 3.13629532 C77.27503543 3.13910347 68.00420377 3.13833372 58.73336461 3.13301457 C54.00497632 3.13039089 49.27660213 3.12934986 44.54821396 3.13266373 C40.21545096 3.13565431 35.88271506 3.133988 31.5499545 3.12868617 C29.98672158 3.12757372 28.42348634 3.12812702 26.86025491 3.13056196 C7.74927128 3.15803454 7.74927128 3.15803454 2 2 C1.34 1.34 0.68 0.68 0 0 Z " fill="#BDBDBE" transform="translate(304,767)"/>
<path d="M0 0 C0.67431706 -0.00320648 1.34863412 -0.00641296 2.04338503 -0.0097166 C4.31940223 -0.01806597 6.59515964 -0.01207516 8.87118149 -0.00622082 C10.51300218 -0.00923931 12.15482147 -0.01312727 13.79663825 -0.01781338 C18.32155456 -0.02814224 22.84639208 -0.02589912 27.371315 -0.02163279 C32.24685914 -0.01917418 37.12238387 -0.02816928 41.99792099 -0.03567028 C51.55775241 -0.04844653 61.11755578 -0.05020708 70.6773943 -0.04787002 C78.45132091 -0.04608884 86.22523899 -0.04783222 93.99916458 -0.05209446 C95.65727535 -0.05298724 95.65727535 -0.05298724 97.34888332 -0.05389806 C99.59447275 -0.0551098 101.84006218 -0.05632394 104.08565161 -0.05754044 C125.16861032 -0.06842864 146.25155306 -0.06624829 167.33451268 -0.06015559 C186.60739059 -0.05499346 205.88021785 -0.066221 225.15308574 -0.08525381 C244.94316511 -0.1046473 264.73322054 -0.11288504 284.52330947 -0.10913056 C295.63328449 -0.10721976 306.74321648 -0.10969363 317.85318375 -0.1238451 C327.31872645 -0.13577961 336.78419968 -0.13714112 346.24974337 -0.12505493 C351.07585268 -0.11917886 355.90183505 -0.11803125 360.72793579 -0.13005733 C365.15489361 -0.14095994 369.5816192 -0.13776104 374.00856635 -0.12379565 C375.60159967 -0.12116055 377.19465145 -0.12347751 378.78766659 -0.13153151 C392.7910353 -0.19735794 412.8430068 0.02443448 423.42580795 10.25447559 C419.25336222 9.65309783 415.47380929 8.67625211 411.48830795 7.31697559 C398.686682 3.32387674 385.76941849 2.95745341 372.4744072 2.97600269 C370.81566328 2.9709876 369.1569218 2.9651083 367.49818367 2.95844996 C362.98283317 2.94278264 358.46754512 2.93922667 353.95217073 2.93780136 C349.06689043 2.93408391 344.18164346 2.91891694 339.2963829 2.90518665 C330.84648684 2.88298324 322.39660274 2.86792849 313.94668388 2.85781956 C301.72973489 2.84319353 289.51282762 2.81764582 277.2959032 2.78948827 C257.47162146 2.74409138 237.6473337 2.7074473 217.82302475 2.67635059 C198.57301399 2.6461359 179.32301795 2.61177226 160.07302475 2.57185841 C158.88515437 2.56939686 157.69728398 2.56693531 156.47341753 2.56439917 C150.51383247 2.552024 144.55424759 2.53956758 138.59466279 2.52707076 C89.20506509 2.42360938 39.81544901 2.33437112 -9.57419205 2.25447559 C-5.95297603 -0.15966842 -4.31033774 0.00309835 0 0 Z " fill="#B9B8B8" transform="translate(318.57419204711914,225.7455244064331)"/>
<path d="M0 0 C0.66 0.33 1.32 0.66 2 1 C2 71.62 2 142.24 2 215 C1.34 215.33 0.68 215.66 0 216 C-0.18291844 205.41690343 -0.34724672 194.83357191 -0.5 184.25 C-0.51187725 183.42745979 -0.5237545 182.60491959 -0.53599167 181.75745392 C-1.01784436 147.96340228 -1.0863574 114.17208962 -1.0625 80.375 C-1.06164398 79.15557205 -1.06078796 77.9361441 -1.05990601 76.67976379 C-1.04940746 62.76740321 -1.03186039 48.85506019 -1.00672913 34.94271851 C-1.00071575 31.41936824 -1.00098745 27.89818247 -1.03515625 24.375 C-1.09528417 16.18914732 -0.98476948 8.14193339 0 0 Z " fill="#BEBEBE" transform="translate(210,429)"/>
<path d="M0 0 C66.66 0 133.32 0 202 0 C202 0.66 202 1.32 202 2 C182.59100966 3.35219213 163.17228167 3.06119871 143.73072553 2.93239641 C138.90098314 2.90134673 134.07121011 2.87597315 129.24143982 2.84970093 C121.1533642 2.80480676 113.06532633 2.75534732 104.97729492 2.703125 C95.63676875 2.6428764 86.29622229 2.5901699 76.95562989 2.54135668 C67.93152696 2.49400966 58.9074636 2.44121937 49.88340569 2.38599777 C46.05621032 2.36268252 42.22901143 2.34129865 38.40179634 2.32149124 C33.9060746 2.29799075 29.41040724 2.26973119 24.9147377 2.23780251 C23.26760431 2.22686865 21.62045912 2.21757056 19.97330666 2.21003914 C17.72344584 2.19948018 15.47370396 2.18295906 13.22389221 2.16494751 C11.96618798 2.15719614 10.70848375 2.14944477 9.41266727 2.14145851 C6.19022974 2.00788522 3.16389724 1.60793691 0 1 C0 0.67 0 0.34 0 0 Z " fill="#AFAFAF" transform="translate(512,791)"/>
<path d="M0 0 C0.66 0 1.32 0 2 0 C1.99777939 1.04125534 1.99555878 2.08251068 1.99327087 3.15531921 C1.97299685 12.96942853 1.95800729 22.7835336 1.94818783 32.59765911 C1.94296985 37.64315857 1.93589184 42.68864113 1.92456055 47.73413086 C1.91369319 52.60353067 1.90771498 57.47291421 1.90512276 62.34232521 C1.90327546 64.19985014 1.89966818 66.05737419 1.89426994 67.9148922 C1.88700848 70.51709287 1.88601122 73.11922637 1.88647461 75.72143555 C1.88287933 76.4889212 1.87928406 77.25640686 1.87557983 78.04714966 C1.88281381 81.8026958 1.90812431 85.3862002 3 89 C6.13601313 90.56800657 9.49305776 90.17984636 12.93798828 90.20532227 C13.75758026 90.21522186 14.57717224 90.22512146 15.42160034 90.23532104 C18.13780808 90.26697533 20.85403332 90.29170897 23.5703125 90.31640625 C25.4507595 90.33697239 27.33120183 90.35796877 29.2116394 90.37937927 C34.16656731 90.4346351 39.12153717 90.48402888 44.07653809 90.53222656 C49.13049057 90.58241598 54.18438194 90.63811539 59.23828125 90.69335938 C69.15880199 90.80098388 79.07937574 90.90241931 89 91 C89 91.33 89 91.66 89 92 C84.01242811 92.81103442 79.16478325 93.15752158 74.10864258 93.17700195 C72.9755793 93.18685875 72.9755793 93.18685875 71.81962585 93.19691467 C69.34459307 93.21647021 66.86962009 93.22826329 64.39453125 93.23828125 C63.5454035 93.24235678 62.69627575 93.2464323 61.82141685 93.25063133 C57.33643214 93.27140504 52.85147733 93.28575038 48.36645508 93.29516602 C43.73597315 93.30628007 39.1059652 93.34076143 34.47565174 93.38033772 C30.90947055 93.40644354 27.3434042 93.41485189 23.77713585 93.41844749 C22.0694727 93.42332029 20.36181492 93.434954 18.65424538 93.45348549 C16.27016515 93.47777452 13.88733929 93.47693263 11.50317383 93.4699707 C10.79919464 93.48278076 10.09521545 93.49559082 9.36990356 93.50878906 C5.97897393 93.4726582 4.28856577 93.22836015 1.59355164 91.09562683 C-1.39362891 87.16728491 -1.14187351 83.8784521 -1.12939453 79.10961914 C-1.13114685 78.29484604 -1.13289917 77.48007294 -1.13470459 76.64060974 C-1.13911713 73.93877044 -1.13618693 71.23699625 -1.1328125 68.53515625 C-1.13348578 66.66190071 -1.134456 64.78864525 -1.13571167 62.91539001 C-1.13718789 58.98533295 -1.13503676 55.05529858 -1.13037109 51.12524414 C-1.12467778 46.08330761 -1.12795078 41.04142435 -1.13394356 35.99948978 C-1.13755456 32.12967018 -1.13640802 28.25986324 -1.13381577 24.39004326 C-1.13314779 22.53086783 -1.13397042 20.67169126 -1.13629532 18.81251717 C-1.13883022 16.21490555 -1.13496917 13.61738054 -1.12939453 11.01977539 C-1.13141876 10.24824127 -1.13344299 9.47670715 -1.13552856 8.68179321 C-1.12292875 5.51813847 -1.00812653 3.02437958 0 0 Z " fill="#BDBDBD" transform="translate(447,367)"/>
<path d="M0 0 C2.73481445 2.38803683 3.9184886 4.73316007 5.3125 8.0625 C9.61439833 17.79298432 15.22223334 25.83649563 22 34 C22.63808594 34.83273437 23.27617187 35.66546875 23.93359375 36.5234375 C38.62329489 54.12886382 64.56884342 65.14392068 87 68 C94.12462139 68.57757527 101.27889278 68.71994204 108.42382812 68.81201172 C109.10158295 68.82080353 109.77933777 68.82959534 110.47763062 68.83865356 C112.33674663 68.85823171 114.19597198 68.86647899 116.05517578 68.87402344 C119 69 119 69 122 70 C122 70.66 122 71.32 122 72 C106.21960788 72.28207255 90.71093237 71.48238659 75 70 C75 69.34 75 68.68 75 68 C73.99066406 67.88785156 72.98132813 67.77570313 71.94140625 67.66015625 C49.08571386 63.83199766 26.65150802 46.53872185 13.16015625 28.28515625 C0 9.5451325 0 9.5451325 0 0 Z " fill="#BBBBBB" transform="translate(217,722)"/>
<path d="M0 0 C0.33 0 0.66 0 1 0 C0.0200488 19.27237365 -12.33450497 38.03529959 -26 51 C-26.46277344 51.50660156 -26.92554688 52.01320313 -27.40234375 52.53515625 C-40.4522738 66.54229389 -58.93063124 74.7108506 -77 80 C-78.03640625 80.309375 -78.03640625 80.309375 -79.09375 80.625 C-81.50988024 81.10030431 -83.78985435 81.09487034 -86.25 81.0625 C-87.58804688 81.04896484 -87.58804688 81.04896484 -88.953125 81.03515625 C-89.62859375 81.02355469 -90.3040625 81.01195312 -91 81 C-88.71186498 78.71186498 -87.6642001 78.5196687 -84.5625 77.8515625 C-83.21865234 77.54992187 -83.21865234 77.54992187 -81.84765625 77.2421875 C-79.98068368 76.83754873 -78.11350299 76.43386873 -76.24609375 76.03125 C-49.77854857 70.08264098 -27.48798876 53.43906324 -12.875 30.8125 C-7.08414674 21.17624713 -3.37574165 10.68984857 0 0 Z " fill="#BABAB9" transform="translate(808,710)"/>
<path d="M0 0 C6.0369096 0.49294676 10.69185236 1.79874222 16.125 4.4375 C16.85855713 4.79021973 17.59211426 5.14293945 18.34790039 5.50634766 C39.53026526 16.03911652 56.59099568 33.69075399 65 56 C65.78113493 59.50877364 66 62.38922482 66 66 C63.49672084 63.49672084 63.26647879 61.66594675 62.375 58.25 C56.22811872 37.82794389 40.59888277 21.02106715 22 11 C14.83498589 7.20396604 7.58992115 3.85461636 0 1 C0 0.67 0 0.34 0 0 Z " fill="#BFBEBE" transform="translate(575,313)"/>
<path d="M0 0 C0.33 0 0.66 0 1 0 C0.55431066 6.88418616 -0.91069279 12.07516017 -3.9375 18.25 C-4.33646484 19.07483887 -4.73542969 19.89967773 -5.14648438 20.74951172 C-8.92527622 28.29681098 -13.42047516 34.66648531 -19 41 C-20.07701172 42.22589844 -20.07701172 42.22589844 -21.17578125 43.4765625 C-29.29561606 52.11594799 -40.88675178 60.73280953 -52 65 C-54.30859375 64.6484375 -54.30859375 64.6484375 -56 64 C-55.02160156 63.50371094 -54.04320312 63.00742187 -53.03515625 62.49609375 C-45.41858704 58.5730256 -38.60172332 54.5035399 -32 49 C-31.25363281 48.45859375 -30.50726562 47.9171875 -29.73828125 47.359375 C-21.51328681 41.3826388 -15.79027637 33.89622754 -11 25 C-10.278125 23.96875 -9.55625 22.9375 -8.8125 21.875 C-7.06766994 19.10733853 -6.3780999 17.21384912 -6 14 C-5.34 14 -4.68 14 -4 14 C-3.79503906 13.15695312 -3.59007812 12.31390625 -3.37890625 11.4453125 C-3.10949219 10.34960938 -2.84007812 9.25390625 -2.5625 8.125 C-2.29566406 7.03445313 -2.02882813 5.94390625 -1.75390625 4.8203125 C-1 2 -1 2 0 0 Z " fill="#BFBEBE" transform="translate(654,603)"/>
<path d="M0 0 C27.39 0 54.78 0 83 0 C78.66126934 3.25404799 76.59918931 3.40365267 71.50927734 3.28051758 C70.76088089 3.27441467 70.01248444 3.26831177 69.2414093 3.26202393 C66.77248219 3.23788524 64.30452346 3.1917179 61.8359375 3.14453125 C60.12010038 3.12156612 58.40424873 3.0996641 56.68838501 3.07878113 C53.09542358 3.03175471 49.50283064 2.97425574 45.91015625 2.90893555 C41.29879266 2.82559458 36.68746741 2.76456433 32.07567406 2.71085072 C28.53432493 2.66779942 24.99317883 2.61488301 21.45201492 2.55875206 C19.75114373 2.5326281 18.0502297 2.50915657 16.34928513 2.48835182 C13.97654689 2.4574753 11.60439274 2.41379809 9.23193359 2.36645508 C8.52540146 2.35958176 7.81886932 2.35270844 7.09092712 2.34562683 C2.2287664 2.2287664 2.2287664 2.2287664 0 0 Z " fill="#BBBABA" transform="translate(453,621)"/>
<path d="M0 0 C0.33 0.66 0.66 1.32 1 2 C2.216875 2.350625 3.43375 2.70125 4.6875 3.0625 C25.34523586 9.64285643 42.34950101 28.48828113 52.0703125 47.04296875 C53.70788902 50.50253356 54.13555507 52.38188659 53 56 C52.53851562 54.99582031 52.07703125 53.99164062 51.6015625 52.95703125 C40.51488751 29.45455161 23.06958967 12.55471372 -1.5 3.25 C-2.655 2.8375 -3.81 2.425 -5 2 C-5 1.67 -5 1.34 -5 1 C-3.35 0.67 -1.7 0.34 0 0 Z " fill="#BFBFBE" transform="translate(599,480)"/>
<path d="M0 0 C2.71206591 2.34444228 2.97631458 2.78613457 3.3984375 6.59765625 C3.41144043 8.0859012 3.40216974 9.57444626 3.375 11.0625 C3.36557373 11.85744873 3.35614746 12.65239746 3.34643555 13.47143555 C2.93801175 30.01178582 -0.14704488 48.8637729 -11 62 C-11.99 62 -12.98 62 -14 62 C-13.43732422 61.26910156 -13.43732422 61.26910156 -12.86328125 60.5234375 C-2.69069313 46.43043129 -0.79531158 30.20377166 -0.375 13.3125 C-0.33632813 12.02666016 -0.29765625 10.74082031 -0.2578125 9.41601562 C-0.1644731 6.27747832 -0.07868924 3.13893294 0 0 Z " fill="#BFBFBE" transform="translate(642,391)"/>
<path d="M0 0 C0.33 0 0.66 0 1 0 C1.15855469 1.07636719 1.31710938 2.15273438 1.48046875 3.26171875 C4.76741213 24.34424638 13.01784433 40.96943672 28 56 C28.60199219 56.60457031 29.20398438 57.20914063 29.82421875 57.83203125 C30.40623047 58.41017578 30.40623047 58.41017578 31 59 C30.67 59.66 30.34 60.32 30 61 C16.59124452 50.29491729 7.09355686 36.36041076 2 20 C1.68933594 19.07058594 1.37867188 18.14117188 1.05859375 17.18359375 C-0.86528225 10.98060342 -1.15343872 6.39634199 0 0 Z " fill="#BBBBBB" transform="translate(234,690)"/>
<path d="M0 0 C10.40600985 1.48657284 16.88609902 7.0075729 23.5 14.96875 C29.9565209 23.71195539 31.35020084 33.29116082 31.25 43.9375 C31.25773438 44.78634766 31.26546875 45.63519531 31.2734375 46.50976562 C31.27085937 47.31994141 31.26828125 48.13011719 31.265625 48.96484375 C31.26336914 49.6930835 31.26111328 50.42132324 31.25878906 51.17163086 C31 53 31 53 29 55 C28.98541748 54.38592285 28.97083496 53.7718457 28.95581055 53.13916016 C28.88038055 50.30054015 28.78404224 47.46297742 28.6875 44.625 C28.66494141 43.65949219 28.64238281 42.69398438 28.61914062 41.69921875 C28.13781344 28.65962781 24.31395494 18.77323664 14.75 9.75 C10.25016167 5.91708831 5.40158997 3.3455756 0 1 C0 0.67 0 0.34 0 0 Z " fill="#C1C1C0" transform="translate(547,368)"/>
<path d="M0 0 C0.33 0.99 0.66 1.98 1 3 C0.40832031 3.44730469 -0.18335938 3.89460937 -0.79296875 4.35546875 C-6.09441853 8.3845789 -6.09441853 8.3845789 -10.9375 12.9375 C-11.9584375 13.9584375 -11.9584375 13.9584375 -13 15 C-13.66 15 -14.32 15 -15 15 C-15.25136719 15.53109375 -15.50273437 16.0621875 -15.76171875 16.609375 C-17.30328087 19.58551386 -19.04704198 22.40096259 -20.8125 25.25 C-21.34327148 26.10791138 -21.34327148 26.10791138 -21.88476562 26.9831543 C-24.57658456 31.33039285 -27.28240723 35.66883653 -30 40 C-30.33 39.34 -30.66 38.68 -31 38 C-25.10482735 22.63308551 -13.73859531 8.95995346 0 0 Z " fill="#BBBABA" transform="translate(270,241)"/>
<path d="M0 0 C0.99 0.495 0.99 0.495 2 1 C2.47070312 3.66455078 2.47070312 3.66455078 2.78125 7.1953125 C2.90113281 8.46890625 3.02101562 9.7425 3.14453125 11.0546875 C3.26385526 12.4113852 3.3823378 13.76815716 3.5 15.125 C3.73158774 17.75348892 3.97294043 20.38055749 4.21875 23.0078125 C4.32123047 24.17973145 4.42371094 25.35165039 4.52929688 26.55908203 C5.02444359 30.17868668 5.99328195 33.49354109 7 37 C7 38.32 7 39.64 7 41 C6.34 41 5.68 41 5 41 C4.34964629 38.48025747 3.70462507 35.95934065 3.0625 33.4375 C2.88009766 32.73302734 2.69769531 32.02855469 2.50976562 31.30273438 C0.57527272 23.67028056 -0.14480336 16.41930506 -0.0625 8.5625 C-0.05798828 7.73556641 -0.05347656 6.90863281 -0.04882812 6.05664062 C-0.03715811 4.03772854 -0.01922718 2.01885426 0 0 Z " fill="#BFBFBF" transform="translate(210,680)"/>
<path d="M0 0 C0.66 0 1.32 0 2 0 C4.97502556 11.9277769 7.02764827 23.05952689 7.1875 35.375 C7.20071289 36.06601807 7.21392578 36.75703613 7.22753906 37.46899414 C7.23310016 41.25007986 6.81910163 43.71687529 5 47 C4.95512451 46.16452637 4.91024902 45.32905273 4.86401367 44.46826172 C4.68823484 41.29548667 4.50240974 38.1234853 4.31030273 34.95166016 C4.19093249 32.93304519 4.08260684 30.9137866 3.97460938 28.89453125 C3.48496056 20.94263449 2.46213372 13.53595461 0.61450195 5.79736328 C0 3 0 3 0 0 Z " fill="#BFBFBE" transform="translate(653,537)"/>
<path d="M0 0 C3.61419447 1.34320637 6.96652969 3.01083115 10.36914062 4.81835938 C18.72580778 9.2204596 26.76983628 11.98421712 36 14 C36 14.99 36 15.98 36 17 C23.19573935 15.25669691 10.23104301 9.90014452 0 2 C0 1.34 0 0.68 0 0 Z " fill="#BBBBBB" transform="translate(266,751)"/>
<path d="M0 0 C12.37420751 -0.69460208 28.70917957 0.8964257 39.125 8.1875 C40.053125 9.0846875 40.053125 9.0846875 41 10 C36.95570924 9.41714633 33.34492868 8.48762582 29.5 7.125 C19.93173127 4.07295619 9.94202354 3.16193301 0 2 C0 1.34 0 0.68 0 0 Z " fill="#BEBEBD" transform="translate(701,226)"/>
<path d="M0 0 C-2.79054689 2.28643268 -5.1662202 3.5683085 -8.625 4.5703125 C-9.49640625 4.82683594 -10.3678125 5.08335937 -11.265625 5.34765625 C-12.16796875 5.60417969 -13.0703125 5.86070312 -14 6.125 C-14.90234375 6.38925781 -15.8046875 6.65351562 -16.734375 6.92578125 C-27.75023984 10.13602588 -27.75023984 10.13602588 -32.75 10.0625 C-33.54921875 10.05347656 -34.3484375 10.04445313 -35.171875 10.03515625 C-35.77515625 10.02355469 -36.3784375 10.01195312 -37 10 C-34.11338201 7.11338201 -30.68961247 6.95198418 -26.8125 6.1875 C-19.24182132 4.62223166 -12.10305508 2.50015148 -4.84375 -0.14453125 C-2 -1 -2 -1 0 0 Z " fill="#BEBEBE" transform="translate(597,669)"/>
<path d="M0 0 C8.63935785 1.06878654 16.32486961 5.40457819 22 12 C22.99 13.07507813 22.99 13.07507813 24 14.171875 C30.7277089 21.52429972 30.7277089 21.52429972 32 25 C31.67 25.99 31.34 26.98 31 28 C28.02162237 25.44710489 26.70605768 22.48629178 25 19 C24.34 18.34 23.68 17.68 23 17 C22.319375 16.0925 21.63875 15.185 20.9375 14.25 C15.50588729 7.71932196 7.73837262 4.10998427 0 1 C0 0.67 0 0.34 0 0 Z " fill="#C0C0C0" transform="translate(553,518)"/>
<path d="M0 0 C6.28700813 -0.14402509 12.07166441 0.31178631 18.25 1.4375 C19.41402344 1.63956055 19.41402344 1.63956055 20.6015625 1.84570312 C24.41182557 2.51217405 28.21122207 3.21951175 32 4 C32 4.66 32 5.32 32 6 C20.97742485 4.81314769 9.98164244 3.5225286 -1 2 C-0.67 1.34 -0.34 0.68 0 0 Z " fill="#C0C0BF" transform="translate(542,307)"/>
<path d="M0 0 C0.66 0 1.32 0 2 0 C1.8831456 1.50065654 1.75597952 3.0005103 1.625 4.5 C1.55539063 5.3353125 1.48578125 6.170625 1.4140625 7.03125 C0.99376973 10.04466983 0.25918892 12.90433848 -0.50537109 15.84570312 C-1.35033719 19.52585162 -1.72849005 23.24940584 -2.125 27 C-2.21136719 27.77472656 -2.29773438 28.54945313 -2.38671875 29.34765625 C-2.59600552 31.23123721 -2.79870627 33.11554808 -3 35 C-3.33 35 -3.66 35 -4 35 C-4.48454241 22.61724958 -3.66493304 11.86194847 0 0 Z " fill="#BCBCBB" transform="translate(215,277)"/>
<path d="M0 0 C9.19639968 4.10400079 20.11333119 13.42841956 24.21484375 22.765625 C24.60349609 23.87164062 24.60349609 23.87164062 25 25 C21.49994656 23.83331552 21.06610844 23.00153926 19 20.0625 C15.34423352 15.18294815 11.12130789 11.27628317 6.55078125 7.26171875 C4.27577684 5.24452495 2.08540288 3.21238292 0 1 C0 0.67 0 0.34 0 0 Z " fill="#BEBDBD" transform="translate(751,241)"/>
<path d="M0 0 C0.66 0.33 1.32 0.66 2 1 C0.33333333 2.66666667 -1.33333333 4.33333333 -3 6 C-3.721875 6.763125 -4.44375 7.52625 -5.1875 8.3125 C-7 10 -7 10 -9 10 C-9 10.66 -9 11.32 -9 12 C-11.07888712 13.47686988 -13.13283374 14.81395738 -15.3125 16.125 C-16.20485352 16.68380859 -16.20485352 16.68380859 -17.11523438 17.25390625 C-21.61661516 20 -21.61661516 20 -25 20 C-25 19.34 -25 18.68 -25 18 C-23.30961298 16.95531036 -21.56894455 15.99184776 -19.8125 15.0625 C-12.42869622 10.90856033 -6.30263271 5.62154176 0 0 Z " fill="#BEBDBD" transform="translate(767,740)"/>
<path d="M0 0 C-2.40342408 2.40342408 -3.26559788 2.33998969 -6.5703125 2.6328125 C-7.46621094 2.71660156 -8.36210938 2.80039062 -9.28515625 2.88671875 C-10.22230469 2.96535156 -11.15945313 3.04398438 -12.125 3.125 C-13.54232422 3.25455078 -13.54232422 3.25455078 -14.98828125 3.38671875 C-17.32492418 3.59914083 -19.6619967 3.80321542 -22 4 C-22 3.34 -22 2.68 -22 2 C-26.62 2 -31.24 2 -36 2 C-36 1.67 -36 1.34 -36 1 C-23.9934657 0.38678934 -12.02556648 -0.184693 0 0 Z " fill="#BFBFBE" transform="translate(558,679)"/>
<path d="M0 0 C4.08651458 3.44602333 5.74398911 7.28289052 7.6875 12.125 C7.9956665 12.87966553 8.30383301 13.63433105 8.62133789 14.41186523 C10.81155295 19.9947312 11.90422901 24.96642785 12 31 C11.34 30.67 10.68 30.34 10 30 C9.3445232 27.93822753 8.77689063 25.84831881 8.25 23.75 C6.50200863 17.28110769 4.16583122 11.65467603 1.171875 5.64453125 C0 3 0 3 0 0 Z " fill="#BFBEBE" transform="translate(776,266)"/>
<path d="M0 0 C0.66 0 1.32 0 2 0 C1.53068713 5.47765173 0.04644453 9.40333118 -2.8125 14.125 C-3.15603516 14.71925781 -3.49957031 15.31351563 -3.85351562 15.92578125 C-5.97335358 19.52910806 -8.31349189 22.80033865 -11 26 C-11.66 25.67 -12.32 25.34 -13 25 C-12.48050781 24.20078125 -11.96101562 23.4015625 -11.42578125 22.578125 C-6.79680442 15.28812822 -3.04374018 8.12151826 0 0 Z " fill="#BCBCBC" transform="translate(783,712)"/>
<path d="M0 0 C0 3 0 3 -1.2578125 4.54296875 C-5.6489412 8.41046913 -10.27403412 11.55492619 -15.3125 14.5 C-15.92303223 14.86246826 -16.53356445 15.22493652 -17.16259766 15.59838867 C-18.73029575 16.48339354 -20.36289566 17.25113398 -22 18 C-22.99 17.67 -23.98 17.34 -25 17 C-24.49138428 16.69819824 -23.98276855 16.39639648 -23.45874023 16.08544922 C-21.11414224 14.68886002 -18.77585165 13.28202063 -16.4375 11.875 C-15.63763672 11.400625 -14.83777344 10.92625 -14.01367188 10.4375 C-8.89519152 7.34552003 -4.43580668 4.01306537 0 0 Z " fill="#BDBDBC" transform="translate(620,462)"/>
<path d="M0 0 C0.66 0.33 1.32 0.66 2 1 C4.66034359 11.10930564 2.7783089 22.70130551 2 33 C1.67 33 1.34 33 1 33 C0.96241577 31.97229492 0.96241577 31.97229492 0.92407227 30.92382812 C0.80714393 27.7824065 0.68486126 24.64121452 0.5625 21.5 C0.52318359 20.42234375 0.48386719 19.3446875 0.44335938 18.234375 C0.25770751 13.55023571 0.04838726 8.92695614 -0.59765625 4.28125 C-0.73042969 3.1984375 -0.86320313 2.115625 -1 1 C-0.67 0.67 -0.34 0.34 0 0 Z " fill="#C1C0C0" transform="translate(809,287)"/>
<path d="M0 0 C0.33 0 0.66 0 1 0 C1 8.58 1 17.16 1 26 C0.34 26.33 -0.32 26.66 -1 27 C-1.19613594 23.97950658 -1.38214855 20.95894342 -1.5625 17.9375 C-1.61857422 17.08994141 -1.67464844 16.24238281 -1.73242188 15.36914062 C-2.02000027 10.40362039 -1.97980799 5.88606236 -1 1 C-0.67 0.67 -0.34 0.34 0 0 Z " fill="#BFBFBF" transform="translate(211,400)"/>
<path d="M0 0 C-1.03640625 0.48210937 -2.0728125 0.96421875 -3.140625 1.4609375 C-4.51043032 2.09892902 -5.88022123 2.73695148 -7.25 3.375 C-7.93191406 3.69210938 -8.61382812 4.00921875 -9.31640625 4.3359375 C-9.98027344 4.6453125 -10.64414062 4.9546875 -11.328125 5.2734375 C-12.29202148 5.71961426 -12.29202148 5.71961426 -13.27539062 6.17480469 C-14.64152297 6.82847504 -15.97618566 7.5478593 -17.296875 8.2890625 C-19 9 -19 9 -22 8 C-20.129287 6.86788566 -18.25321809 5.74461905 -16.375 4.625 C-15.33085937 3.99851563 -14.28671875 3.37203125 -13.2109375 2.7265625 C-4.74573864 -1.82528409 -4.74573864 -1.82528409 0 0 Z " fill="#BCBBBB" transform="translate(294,232)"/>
<path d="M0 0 C0.99 0.33 1.98 0.66 3 1 C-10.62640449 12 -10.62640449 12 -15 12 C-13.64557928 7.93673785 -11.76266773 7.47457213 -8.0625 5.4375 C-3.74187431 3.10282924 -3.74187431 3.10282924 0 0 Z " fill="#C0C0BF" transform="translate(573,605)"/>
<path d="M0 0 C0.66 0 1.32 0 2 0 C0.66090112 5.4903054 -1.90695293 9.20717643 -6 13 C-8.875 14.4375 -8.875 14.4375 -11 15 C-9.43405073 11.15630634 -6.90538994 8.90538994 -4 6 C-3.278125 4.906875 -2.55625 3.81375 -1.8125 2.6875 C-1.214375 1.800625 -0.61625 0.91375 0 0 Z " fill="#C1C2C1" transform="translate(571,434)"/>
<path d="M0 0 C0.33 0 0.66 0 1 0 C1.33 1.98 1.66 3.96 2 6 C1.34 6 0.68 6 0 6 C-0.12117187 6.78246094 -0.24234375 7.56492187 -0.3671875 8.37109375 C-0.53476563 9.38300781 -0.70234375 10.39492188 -0.875 11.4375 C-1.11863281 12.95150391 -1.11863281 12.95150391 -1.3671875 14.49609375 C-1.57601562 15.32238281 -1.78484375 16.14867187 -2 17 C-2.66 17.33 -3.32 17.66 -4 18 C-4.59244521 11.33499135 -2.48322845 6.13047025 0 0 Z " fill="#BDBDBC" transform="translate(238,282)"/>
<path d="M0 0 C0.33 0 0.66 0 1 0 C2.27947184 6.65941972 1.81115003 10.81546992 -1 17 C-1.33 17 -1.66 17 -2 17 C-1.4618629 11.30948637 -0.8599867 5.65134116 0 0 Z " fill="#C0C0BF" transform="translate(787,694)"/>
<path d="M0 0 C0.33 0 0.66 0 1 0 C1.02721176 1.89575251 1.04649136 3.79161979 1.0625 5.6875 C1.07410156 6.74324219 1.08570313 7.79898438 1.09765625 8.88671875 C1.00865425 11.72410262 0.64939838 14.2438919 0 17 C-0.66 17 -1.32 17 -2 17 C-1.85786703 15.10388566 -1.71113093 13.20811606 -1.5625 11.3125 C-1.48128906 10.25675781 -1.40007813 9.20101562 -1.31640625 8.11328125 C-1.03548319 5.34913703 -0.59843148 2.71054259 0 0 Z " fill="#BDBDBD" transform="translate(657,585)"/>
<path d="M0 0 C2.5497815 4.88529565 4 9.45157389 4 15 C3.34 15 2.68 15 2 15 C-0.10428384 9.87080814 -0.21755666 5.4389165 0 0 Z " fill="#B9B9B8" transform="translate(213,706)"/>
<path d="M0 0 C0 0.33 0 0.66 0 1 C-2.31 1.66 -4.62 2.32 -7 3 C-7.33 4.98 -7.66 6.96 -8 9 C-8.33 9 -8.66 9 -9 9 C-10.32 2.64 -10.32 2.64 -9 0 C-5.88291635 -1.55854182 -3.3141692 -0.68784644 0 0 Z " fill="#C1C1C0" transform="translate(384,308)"/>
<path d="M0 0 C1.0169313 2.65498232 1.13022151 3.69155375 0.00390625 6.359375 C-0.47175781 7.14828125 -0.94742188 7.9371875 -1.4375 8.75 C-2.14712891 9.94882812 -2.14712891 9.94882812 -2.87109375 11.171875 C-3.24363281 11.77515625 -3.61617187 12.3784375 -4 13 C-5 10 -5 10 -4.00390625 7.51953125 C-3.52824219 6.62621094 -3.05257812 5.73289062 -2.5625 4.8125 C-2.08941406 3.91144531 -1.61632812 3.01039063 -1.12890625 2.08203125 C-0.75636719 1.39496094 -0.38382813 0.70789063 0 0 Z " fill="#C2C1C0" transform="translate(586,585)"/>
<path d="M0 0 C0.66 0 1.32 0 2 0 C2.39222105 1.41199578 2.76311059 2.82992764 3.125 4.25 C3.33382812 5.03890625 3.54265625 5.8278125 3.7578125 6.640625 C4.04314411 9.4203071 3.44977894 10.65887549 2 13 C1.66127487 11.58461283 1.32925376 10.16762037 1 8.75 C0.814375 7.96109375 0.62875 7.1721875 0.4375 6.359375 C0 4 0 4 0 0 Z " fill="#C5C5C4" transform="translate(585,547)"/>
<path d="M0 0 C0.66 0.33 1.32 0.66 2 1 C2 5.29 2 9.58 2 14 C1.67 14 1.34 14 1 14 C0.63906896 11.85529407 0.28642411 9.70919203 -0.0625 7.5625 C-0.25972656 6.36753906 -0.45695313 5.17257812 -0.66015625 3.94140625 C-0.77230469 2.97074219 -0.88445313 2.00007813 -1 1 C-0.67 0.67 -0.34 0.34 0 0 Z " fill="#B7B6B6" transform="translate(809,287)"/>
<path d="M0 0 C-2.39763185 2.39763185 -3.33273498 2.34280586 -6.625 2.625 C-7.44226563 2.69976563 -8.25953125 2.77453125 -9.1015625 2.8515625 C-9.72804688 2.90054688 -10.35453125 2.94953125 -11 3 C-11 2.34 -11 1.68 -11 1 C-7.32589215 -0.17571451 -3.83070817 -0.07366746 0 0 Z " fill="#BCBCBC" transform="translate(731,764)"/>
<path d="M0 0 C2.31 1.98 4.62 3.96 7 6 C6.01 6.33 5.02 6.66 4 7 C2 5.1875 2 5.1875 0 3 C0 2.01 0 1.02 0 0 Z " fill="#BDBEBC" transform="translate(447,453)"/>
<path d="M0 0 C1.98 0 3.96 0 6 0 C6 0.33 6 0.66 6 1 C4.02 1 2.04 1 0 1 C0 0.67 0 0.34 0 0 Z " fill="#D0D0CE" transform="translate(513,456)"/>
<path d="M0 0 C1.65 0 3.3 0 5 0 C5 0.33 5 0.66 5 1 C3.35 1 1.7 1 0 1 C0 0.67 0 0.34 0 0 Z " fill="#CFD0CE" transform="translate(469,456)"/>
<path d="M0 0 C1 4 1 4 1 4 Z " fill="#CFCFCF" transform="translate(586,572)"/>
<path d="M0 0 C1 4 1 4 1 4 Z " fill="#CACAC9" transform="translate(786,563)"/>
<path d="M0 0 C1 4 1 4 1 4 Z " fill="#CFCECF" transform="translate(586,563)"/>
<path d="M0 0 C1 4 1 4 1 4 Z " fill="#C8C9C9" transform="translate(786,475)"/>
<path d="M0 0 C4 1 4 1 4 1 Z " fill="#CAC9C9" transform="translate(647,229)"/>
<path d="" fill="#C3C3C3" transform="translate(0,0)"/>
<path d="" fill="#C5C6C6" transform="translate(0,0)"/>
<path d="" fill="#C5C6C5" transform="translate(0,0)"/>
<path d="" fill="#CACACA" transform="translate(0,0)"/>
<path d="" fill="#C9CACA" transform="translate(0,0)"/>
<path d="" fill="#C9CBC9" transform="translate(0,0)"/>
<path d="" fill="#CACACA" transform="translate(0,0)"/>
<path d="" fill="#C8C9C9" transform="translate(0,0)"/>
<path d="" fill="#C7C6C7" transform="translate(0,0)"/>
<path d="" fill="#C9C9C9" transform="translate(0,0)"/>
<path d="" fill="#C5C5C6" transform="translate(0,0)"/>
<path d="" fill="#C8C9C8" transform="translate(0,0)"/>
<path d="M0 0 C3 1 3 1 3 1 Z " fill="#D0D0CF" transform="translate(521,456)"/>
<path d="M0 0 C3 1 3 1 3 1 Z " fill="#D1D1CE" transform="translate(501,456)"/>
<path d="M0 0 C3 1 3 1 3 1 Z " fill="#CECECC" transform="translate(485,456)"/>
<path d="" fill="#C8C8C8" transform="translate(0,0)"/>
<path d="" fill="#C4C3C4" transform="translate(0,0)"/>
<path d="" fill="#C7C9C8" transform="translate(0,0)"/>
<path d="M0 0 C3 1 3 1 3 1 Z " fill="#C8C8C9" transform="translate(696,229)"/>
<path d="M0 0 C3 1 3 1 3 1 Z " fill="#C9C9C9" transform="translate(655,229)"/>
<path d="M0 0 C3 1 3 1 3 1 Z " fill="#CAC8C8" transform="translate(639,229)"/>
<path d="M0 0 C3 1 3 1 3 1 Z " fill="#CCCBCB" transform="translate(391,229)"/>
<path d="M0 0 C3 1 3 1 3 1 Z " fill="#CACACA" transform="translate(335,229)"/>
<path d="M0 0 C3 1 3 1 3 1 Z " fill="#CACAC9" transform="translate(322,229)"/>
<path d="M0 0 C3 1 3 1 3 1 Z " fill="#C0C1C0" transform="translate(306,201)"/>
<path d="M0 0 C2 1 2 1 2 1 Z " fill="#C0C1C1" transform="translate(282,789)"/>
<path d="" fill="#C1C1C0" transform="translate(0,0)"/>
<path d="" fill="#C3C3C1" transform="translate(0,0)"/>
<path d="" fill="#CACACA" transform="translate(0,0)"/>
<path d="" fill="#C3C2C3" transform="translate(0,0)"/>
<path d="" fill="#C9CAC9" transform="translate(0,0)"/>
<path d="" fill="#C3C4C4" transform="translate(0,0)"/>
<path d="" fill="#CACBCA" transform="translate(0,0)"/>
<path d="" fill="#C3C3C4" transform="translate(0,0)"/>
<path d="" fill="#C4C3C3" transform="translate(0,0)"/>
<path d="" fill="#CACAC9" transform="translate(0,0)"/>
<path d="" fill="#C6C7C8" transform="translate(0,0)"/>
<path d="" fill="#C4C3C4" transform="translate(0,0)"/>
<path d="" fill="#C6C4C5" transform="translate(0,0)"/>
<path d="" fill="#C9C8C9" transform="translate(0,0)"/>
<path d="M0 0 C2 1 2 1 2 1 Z " fill="#D0D0CF" transform="translate(450,518)"/>
<path d="M0 0 C2 1 2 1 2 1 Z " fill="#D1D0D0" transform="translate(535,517)"/>
<path d="" fill="#C5C4C5" transform="translate(0,0)"/>
<path d="" fill="#C5C5C5" transform="translate(0,0)"/>
<path d="" fill="#C5C5C4" transform="translate(0,0)"/>
<path d="" fill="#C5C5C5" transform="translate(0,0)"/>
<path d="" fill="#C6C7C6" transform="translate(0,0)"/>
<path d="" fill="#C7C8C7" transform="translate(0,0)"/>
<path d="M0 0 C2 1 2 1 2 1 Z " fill="#D0D0D0" transform="translate(498,456)"/>
<path d="" fill="#C4C5C4" transform="translate(0,0)"/>
<path d="" fill="#C7C9C8" transform="translate(0,0)"/>
<path d="" fill="#C3C3C3" transform="translate(0,0)"/>
<path d="" fill="#C8C5C7" transform="translate(0,0)"/>
<path d="M0 0 C2 1 2 1 2 1 Z " fill="#D1D0D1" transform="translate(484,367)"/>
<path d="" fill="#C4C5C5" transform="translate(0,0)"/>
<path d="" fill="#C8C9C8" transform="translate(0,0)"/>
<path d="" fill="#C9C8C7" transform="translate(0,0)"/>
<path d="" fill="#C8C9C9" transform="translate(0,0)"/>
<path d="M0 0 C2 1 2 1 2 1 Z " fill="#C8C8C8" transform="translate(715,230)"/>
<path d="M0 0 C2 1 2 1 2 1 Z " fill="#C9CACA" transform="translate(712,230)"/>
<path d="M0 0 C2 1 2 1 2 1 Z " fill="#CAC9C9" transform="translate(309,230)"/>
<path d="M0 0 C2 1 2 1 2 1 Z " fill="#C9C8C8" transform="translate(679,229)"/>
<path d="M0 0 C2 1 2 1 2 1 Z " fill="#CAC9C9" transform="translate(663,229)"/>
<path d="M0 0 C2 1 2 1 2 1 Z " fill="#CACAC9" transform="translate(624,229)"/>
<path d="M0 0 C2 1 2 1 2 1 Z " fill="#CACAC9" transform="translate(615,229)"/>
<path d="M0 0 C2 1 2 1 2 1 Z " fill="#CBCBCA" transform="translate(607,229)"/>
<path d="M0 0 C2 1 2 1 2 1 Z " fill="#CCCACB" transform="translate(544,229)"/>
<path d="M0 0 C2 1 2 1 2 1 Z " fill="#CCCCCB" transform="translate(488,229)"/>
<path d="M0 0 C2 1 2 1 2 1 Z " fill="#CBCACB" transform="translate(480,229)"/>
<path d="M0 0 C2 1 2 1 2 1 Z " fill="#CBCBCB" transform="translate(471,229)"/>
<path d="M0 0 C2 1 2 1 2 1 Z " fill="#CCCCCC" transform="translate(456,229)"/>
<path d="M0 0 C2 1 2 1 2 1 Z " fill="#CACACA" transform="translate(416,229)"/>
<path d="M0 0 C2 1 2 1 2 1 Z " fill="#CBCCCB" transform="translate(383,229)"/>
<path d="M0 0 C2 1 2 1 2 1 Z " fill="#CAC9CA" transform="translate(368,229)"/>
<path d="M0 0 C2 1 2 1 2 1 Z " fill="#CACACA" transform="translate(352,229)"/>
<path d="" fill="#444443" transform="translate(0,0)"/>
<path d="" fill="#C0C0C0" transform="translate(0,0)"/>
<path d="" fill="#C5C5C6" transform="translate(0,0)"/>
<path d="" fill="#BFBFBF" transform="translate(0,0)"/>
<path d="" fill="#C2C3C2" transform="translate(0,0)"/>
<path d="" fill="#C3C2C2" transform="translate(0,0)"/>
<path d="" fill="#BEC0BF" transform="translate(0,0)"/>
<path d="" fill="#C3C2C3" transform="translate(0,0)"/>
<path d="" fill="#D0D0CE" transform="translate(0,0)"/>
<path d="" fill="#CCCDCB" transform="translate(0,0)"/>
<path d="" fill="#C2C1C2" transform="translate(0,0)"/>
<path d="" fill="#BEBFBE" transform="translate(0,0)"/>
<path d="" fill="#CACBCA" transform="translate(0,0)"/>
<path d="" fill="#CACBCA" transform="translate(0,0)"/>
<path d="" fill="#CCCCCA" transform="translate(0,0)"/>
<path d="" fill="#C2C2C1" transform="translate(0,0)"/>
<path d="" fill="#C2C1C2" transform="translate(0,0)"/>
<path d="" fill="#C3C5C3" transform="translate(0,0)"/>
<path d="" fill="#C1C3C4" transform="translate(0,0)"/>
<path d="" fill="#BDBFBD" transform="translate(0,0)"/>
<path d="" fill="#BEBFBF" transform="translate(0,0)"/>
<path d="" fill="#C5C6C4" transform="translate(0,0)"/>
<path d="" fill="#C5C5C6" transform="translate(0,0)"/>
<path d="" fill="#CBCCCC" transform="translate(0,0)"/>
<path d="" fill="#CBCBCA" transform="translate(0,0)"/>
<path d="" fill="#CBCBC9" transform="translate(0,0)"/>
<path d="" fill="#CED0CE" transform="translate(0,0)"/>
<path d="" fill="#CDCDCC" transform="translate(0,0)"/>
<path d="" fill="#C6C7C7" transform="translate(0,0)"/>
<path d="" fill="#CACAC9" transform="translate(0,0)"/>
<path d="" fill="#C5C6C6" transform="translate(0,0)"/>
<path d="" fill="#C5C7C6" transform="translate(0,0)"/>
<path d="" fill="#C9CBCB" transform="translate(0,0)"/>
<path d="" fill="#C2C2C1" transform="translate(0,0)"/>
<path d="" fill="#CECCCB" transform="translate(0,0)"/>
<path d="" fill="#C6C6C6" transform="translate(0,0)"/>
<path d="" fill="#C3C2C4" transform="translate(0,0)"/>
<path d="" fill="#C8C8C7" transform="translate(0,0)"/>
<path d="" fill="#C6C7C6" transform="translate(0,0)"/>
<path d="" fill="#CFCECD" transform="translate(0,0)"/>
<path d="" fill="#C7C6C6" transform="translate(0,0)"/>
<path d="" fill="#C2C3C3" transform="translate(0,0)"/>
<path d="" fill="#C9C9C9" transform="translate(0,0)"/>
<path d="" fill="#C8CACA" transform="translate(0,0)"/>
<path d="" fill="#C9CBCA" transform="translate(0,0)"/>
<path d="" fill="#C9CBCA" transform="translate(0,0)"/>
<path d="" fill="#CACBCA" transform="translate(0,0)"/>
<path d="" fill="#C7C5C6" transform="translate(0,0)"/>
<path d="" fill="#C3C4C4" transform="translate(0,0)"/>
<path d="" fill="#C9CBCA" transform="translate(0,0)"/>
<path d="" fill="#C5C4C5" transform="translate(0,0)"/>
<path d="" fill="#C4C2C3" transform="translate(0,0)"/>
<path d="" fill="#CACAC8" transform="translate(0,0)"/>
<path d="" fill="#C4C3C5" transform="translate(0,0)"/>
<path d="" fill="#CAC9C9" transform="translate(0,0)"/>
<path d="" fill="#CACACA" transform="translate(0,0)"/>
<path d="" fill="#C9CBC9" transform="translate(0,0)"/>
<path d="" fill="#CACBCB" transform="translate(0,0)"/>
<path d="" fill="#C5C5C6" transform="translate(0,0)"/>
<path d="" fill="#C6C8C7" transform="translate(0,0)"/>
<path d="" fill="#D4D3D0" transform="translate(0,0)"/>
<path d="" fill="#C5C4C5" transform="translate(0,0)"/>
<path d="" fill="#CACBC9" transform="translate(0,0)"/>
<path d="" fill="#CACACA" transform="translate(0,0)"/>
<path d="" fill="#C4C4C3" transform="translate(0,0)"/>
<path d="" fill="#C6C6C4" transform="translate(0,0)"/>
<path d="" fill="#C6C6C8" transform="translate(0,0)"/>
<path d="" fill="#C5C6C6" transform="translate(0,0)"/>
<path d="" fill="#CACACA" transform="translate(0,0)"/>
<path d="" fill="#C9C9CB" transform="translate(0,0)"/>
<path d="" fill="#D0CFCE" transform="translate(0,0)"/>
<path d="" fill="#CDCECD" transform="translate(0,0)"/>
<path d="" fill="#C9CAC8" transform="translate(0,0)"/>
<path d="" fill="#C8C6C8" transform="translate(0,0)"/>
<path d="" fill="#C7C3C5" transform="translate(0,0)"/>
<path d="" fill="#CACAC9" transform="translate(0,0)"/>
<path d="" fill="#CBCBCC" transform="translate(0,0)"/>
<path d="" fill="#C6C4C6" transform="translate(0,0)"/>
<path d="" fill="#D1CED1" transform="translate(0,0)"/>
<path d="" fill="#CFCFD0" transform="translate(0,0)"/>
<path d="" fill="#CECED0" transform="translate(0,0)"/>
<path d="" fill="#C6C4C4" transform="translate(0,0)"/>
<path d="" fill="#CED0CF" transform="translate(0,0)"/>
<path d="" fill="#C5C6C6" transform="translate(0,0)"/>
<path d="" fill="#CACAC9" transform="translate(0,0)"/>
<path d="" fill="#C6C6C7" transform="translate(0,0)"/>
<path d="" fill="#C6C5C5" transform="translate(0,0)"/>
<path d="" fill="#C9C9C9" transform="translate(0,0)"/>
<path d="" fill="#CBCCCB" transform="translate(0,0)"/>
<path d="" fill="#C5C4C4" transform="translate(0,0)"/>
<path d="" fill="#CAC8C9" transform="translate(0,0)"/>
<path d="" fill="#C7C6C6" transform="translate(0,0)"/>
<path d="" fill="#D2D3D3" transform="translate(0,0)"/>
<path d="" fill="#D4D3D2" transform="translate(0,0)"/>
<path d="" fill="#D2D0D0" transform="translate(0,0)"/>
<path d="" fill="#CFCFCF" transform="translate(0,0)"/>
<path d="" fill="#C4C5C5" transform="translate(0,0)"/>
<path d="" fill="#C8CBC9" transform="translate(0,0)"/>
<path d="" fill="#C6C8C6" transform="translate(0,0)"/>
<path d="" fill="#C9CAC9" transform="translate(0,0)"/>
<path d="" fill="#C5C8C8" transform="translate(0,0)"/>
<path d="" fill="#C9C9CA" transform="translate(0,0)"/>
<path d="" fill="#C8C7C9" transform="translate(0,0)"/>
<path d="" fill="#CACBC9" transform="translate(0,0)"/>
<path d="" fill="#CACAC8" transform="translate(0,0)"/>
<path d="" fill="#C7C7C8" transform="translate(0,0)"/>
<path d="" fill="#C7C8C8" transform="translate(0,0)"/>
<path d="" fill="#C8C9C9" transform="translate(0,0)"/>
<path d="" fill="#CAC9C8" transform="translate(0,0)"/>
<path d="" fill="#C9C8C8" transform="translate(0,0)"/>
<path d="" fill="#C7C6C8" transform="translate(0,0)"/>
<path d="" fill="#D0D1D0" transform="translate(0,0)"/>
<path d="" fill="#C6C6C7" transform="translate(0,0)"/>
<path d="" fill="#C5C5C6" transform="translate(0,0)"/>
<path d="" fill="#D1D1CF" transform="translate(0,0)"/>
<path d="" fill="#D2D0CE" transform="translate(0,0)"/>
<path d="" fill="#C7C6C7" transform="translate(0,0)"/>
<path d="" fill="#C9C9C9" transform="translate(0,0)"/>
<path d="" fill="#CAC9CA" transform="translate(0,0)"/>
<path d="" fill="#D1D1CD" transform="translate(0,0)"/>
<path d="" fill="#C9C9C9" transform="translate(0,0)"/>
<path d="" fill="#C8CAC8" transform="translate(0,0)"/>
<path d="" fill="#CDCDCC" transform="translate(0,0)"/>
<path d="" fill="#C7C6C7" transform="translate(0,0)"/>
<path d="" fill="#C5C5C5" transform="translate(0,0)"/>
<path d="" fill="#C5C6C7" transform="translate(0,0)"/>
<path d="" fill="#C9CAC9" transform="translate(0,0)"/>
<path d="" fill="#CDD0CD" transform="translate(0,0)"/>
<path d="" fill="#CED0CD" transform="translate(0,0)"/>
<path d="" fill="#D0D0CE" transform="translate(0,0)"/>
<path d="" fill="#D1D2CE" transform="translate(0,0)"/>
<path d="" fill="#CFCFCC" transform="translate(0,0)"/>
<path d="" fill="#CECECD" transform="translate(0,0)"/>
<path d="" fill="#D0D1CD" transform="translate(0,0)"/>
<path d="" fill="#D0D0CD" transform="translate(0,0)"/>
<path d="" fill="#D1D1CF" transform="translate(0,0)"/>
<path d="" fill="#D0CECD" transform="translate(0,0)"/>
<path d="" fill="#CDCDCD" transform="translate(0,0)"/>
<path d="" fill="#C6C5C5" transform="translate(0,0)"/>
<path d="" fill="#CBC9CA" transform="translate(0,0)"/>
<path d="" fill="#C5C6C5" transform="translate(0,0)"/>
<path d="" fill="#C9C9C8" transform="translate(0,0)"/>
<path d="" fill="#CACBC9" transform="translate(0,0)"/>
<path d="" fill="#C7C6C6" transform="translate(0,0)"/>
<path d="" fill="#CACAC9" transform="translate(0,0)"/>
<path d="" fill="#CAC9C9" transform="translate(0,0)"/>
<path d="" fill="#C5C6C7" transform="translate(0,0)"/>
<path d="" fill="#CACACA" transform="translate(0,0)"/>
<path d="" fill="#C8C9C9" transform="translate(0,0)"/>
<path d="" fill="#D1D0D0" transform="translate(0,0)"/>
<path d="" fill="#C7C5C6" transform="translate(0,0)"/>
<path d="" fill="#C4C5C4" transform="translate(0,0)"/>
<path d="" fill="#CBCAC9" transform="translate(0,0)"/>
<path d="" fill="#D0D1CF" transform="translate(0,0)"/>
<path d="" fill="#C7C8C8" transform="translate(0,0)"/>
<path d="" fill="#C5C6C6" transform="translate(0,0)"/>
<path d="" fill="#D1D0D1" transform="translate(0,0)"/>
<path d="" fill="#C4C3C2" transform="translate(0,0)"/>
<path d="" fill="#C9C8C8" transform="translate(0,0)"/>
<path d="" fill="#C5C7C7" transform="translate(0,0)"/>
<path d="" fill="#C9C9C9" transform="translate(0,0)"/>
<path d="" fill="#C8CBC9" transform="translate(0,0)"/>
<path d="" fill="#CACAC9" transform="translate(0,0)"/>
<path d="" fill="#C8C7C7" transform="translate(0,0)"/>
<path d="" fill="#C5C7C6" transform="translate(0,0)"/>
<path d="" fill="#C4C3C2" transform="translate(0,0)"/>
<path d="" fill="#C9C9C8" transform="translate(0,0)"/>
<path d="" fill="#C5C5C7" transform="translate(0,0)"/>
<path d="" fill="#C7C7C6" transform="translate(0,0)"/>
<path d="" fill="#CACCCA" transform="translate(0,0)"/>
<path d="" fill="#D0D0CE" transform="translate(0,0)"/>
<path d="" fill="#D2CFD0" transform="translate(0,0)"/>
<path d="" fill="#D0CED0" transform="translate(0,0)"/>
<path d="" fill="#CBCAC9" transform="translate(0,0)"/>
<path d="" fill="#D0CFCF" transform="translate(0,0)"/>
<path d="" fill="#C6C2C4" transform="translate(0,0)"/>
<path d="" fill="#C8C9C7" transform="translate(0,0)"/>
<path d="" fill="#CACAC9" transform="translate(0,0)"/>
<path d="" fill="#C3C4C4" transform="translate(0,0)"/>
<path d="" fill="#D0D0CD" transform="translate(0,0)"/>
<path d="" fill="#C9CAC9" transform="translate(0,0)"/>
<path d="" fill="#C5C3C3" transform="translate(0,0)"/>
<path d="" fill="#D2D1D1" transform="translate(0,0)"/>
<path d="" fill="#CFD0D0" transform="translate(0,0)"/>
<path d="" fill="#D0D0CD" transform="translate(0,0)"/>
<path d="" fill="#C3C1C0" transform="translate(0,0)"/>
<path d="" fill="#C9CAC8" transform="translate(0,0)"/>
<path d="" fill="#C5C4C6" transform="translate(0,0)"/>
<path d="" fill="#C8C9C8" transform="translate(0,0)"/>
<path d="" fill="#C5C7C6" transform="translate(0,0)"/>
<path d="" fill="#C8C9C9" transform="translate(0,0)"/>
<path d="" fill="#C8CBC8" transform="translate(0,0)"/>
<path d="" fill="#CBCBCA" transform="translate(0,0)"/>
<path d="" fill="#C3C2C2" transform="translate(0,0)"/>
<path d="" fill="#C8C8C8" transform="translate(0,0)"/>
<path d="" fill="#C3C2C3" transform="translate(0,0)"/>
<path d="" fill="#C1C1C1" transform="translate(0,0)"/>
<path d="" fill="#C3C2C4" transform="translate(0,0)"/>
<path d="" fill="#CECDCB" transform="translate(0,0)"/>
<path d="" fill="#D2D0CF" transform="translate(0,0)"/>
<path d="" fill="#CFD1CF" transform="translate(0,0)"/>
<path d="" fill="#CECFCD" transform="translate(0,0)"/>
<path d="" fill="#C2C2C3" transform="translate(0,0)"/>
<path d="" fill="#CCCACB" transform="translate(0,0)"/>
<path d="" fill="#CACACA" transform="translate(0,0)"/>
<path d="" fill="#CACACB" transform="translate(0,0)"/>
<path d="" fill="#C8C9C9" transform="translate(0,0)"/>
<path d="" fill="#CCCCCC" transform="translate(0,0)"/>
<path d="" fill="#CBCCCB" transform="translate(0,0)"/>
<path d="" fill="#C9CACA" transform="translate(0,0)"/>
<path d="" fill="#CBCBCC" transform="translate(0,0)"/>
<path d="" fill="#C9CBCB" transform="translate(0,0)"/>
<path d="" fill="#CBCBCA" transform="translate(0,0)"/>
<path d="" fill="#C9CACA" transform="translate(0,0)"/>
<path d="" fill="#CBC9CA" transform="translate(0,0)"/>
<path d="" fill="#C8C9C9" transform="translate(0,0)"/>
<path d="" fill="#C8C8C8" transform="translate(0,0)"/>
<path d="" fill="#C9CAC9" transform="translate(0,0)"/>
<path d="" fill="#CBCACA" transform="translate(0,0)"/>
<path d="" fill="#CBCAC9" transform="translate(0,0)"/>
<path d="" fill="#CBCAC9" transform="translate(0,0)"/>
<path d="" fill="#CBCACB" transform="translate(0,0)"/>
<path d="" fill="#CBCBCA" transform="translate(0,0)"/>
<path d="" fill="#CCCBC9" transform="translate(0,0)"/>
<path d="" fill="#CCCBCA" transform="translate(0,0)"/>
<path d="" fill="#CBCBCB" transform="translate(0,0)"/>
<path d="" fill="#CCCBCA" transform="translate(0,0)"/>
<path d="" fill="#CDCCCC" transform="translate(0,0)"/>
<path d="" fill="#CAC9C9" transform="translate(0,0)"/>
<path d="" fill="#CACBC9" transform="translate(0,0)"/>
<path d="" fill="#CBCAC8" transform="translate(0,0)"/>
<path d="" fill="#CCCCCC" transform="translate(0,0)"/>
<path d="" fill="#CBCBCA" transform="translate(0,0)"/>
<path d="" fill="#CACACA" transform="translate(0,0)"/>
<path d="" fill="#CCC9CA" transform="translate(0,0)"/>
<path d="" fill="#C9CACA" transform="translate(0,0)"/>
<path d="" fill="#CBCACB" transform="translate(0,0)"/>
<path d="" fill="#BFC0BE" transform="translate(0,0)"/>
<path d="" fill="#BEBEBE" transform="translate(0,0)"/>
<path d="" fill="#BFBFBE" transform="translate(0,0)"/>
<path d="" fill="#BCBFBC" transform="translate(0,0)"/>
<path d="" fill="#BFC0C2" transform="translate(0,0)"/>
<path d="" fill="#BDBEBC" transform="translate(0,0)"/>
<path d="" fill="#BFC0BE" transform="translate(0,0)"/>
<path d="" fill="#BFC0BE" transform="translate(0,0)"/>
<path d="" fill="#C1C2BE" transform="translate(0,0)"/>
<path d="" fill="#C1C3BF" transform="translate(0,0)"/>
<path d="" fill="#C0C1C1" transform="translate(0,0)"/>
</svg>
