<?xml version="1.0" encoding="UTF-8"?>
<svg version="1.1" xmlns="http://www.w3.org/2000/svg" width="1024" height="1024">
<path d="M0 0 C0.23478123 8.8849524 -0.39348128 17.59568628 -1.29637146 26.42127991 C-1.53724135 28.77735452 -1.77053253 31.13408036 -2.0020752 33.49108887 C-2.57816123 39.34004365 -3.16678687 45.18772279 -3.75506592 51.03546143 C-4.25362507 55.99627466 -4.74728781 60.95753018 -5.23472595 65.91944885 C-5.46263659 68.21955268 -5.69750594 70.51887271 -5.93273926 72.8182373 C-6.73925379 80.89531326 -7.21472253 88.8741398 -7 97 C-7.66 97 -8.32 97 -9 97 C-8.97728027 98.23432266 -8.95456055 99.46864532 -8.93115234 100.7403717 C-8.93499308 106.58625766 -9.50987056 112.34267882 -10.1015625 118.15405273 C-10.21860535 119.33899323 -10.33564819 120.52393372 -10.45623779 121.74478149 C-10.77552939 124.97033388 -11.09862781 128.19547866 -11.42314911 131.42050815 C-11.76321578 134.81203794 -12.09747636 138.20413911 -12.43212891 141.59620667 C-13.42722019 151.67140538 -14.43206124 161.7456293 -15.43725586 171.81982422 C-16.21913805 179.65754486 -16.99862494 187.49549034 -17.77160454 195.33409458 C-18.10400325 198.70259477 -18.43842433 202.0708681 -18.77764893 205.43868828 C-19.15562508 209.19755576 -19.52763217 212.95697207 -19.8984375 216.71655273 C-20.06675079 218.36662575 -20.06675079 218.36662575 -20.23846436 220.05003357 C-20.85664081 226.39087403 -21.14052082 232.62956003 -21 239 C-21.66 239 -22.32 239 -23 239 C-23.06593102 240.82790321 -23.06593102 240.82790321 -23.13319397 242.69273376 C-23.70503437 257.06645529 -24.9799532 271.32080107 -26.43359375 285.62890625 C-26.67446817 288.03957994 -26.91486031 290.45030186 -27.15480042 292.86106873 C-27.78218206 299.15172087 -28.41599515 305.44170807 -29.05126953 311.73156738 C-29.69240393 318.09083437 -30.32738796 324.45071507 -30.96289062 330.81054688 C-31.790908 339.09091625 -32.62035036 347.37113761 -33.45463657 355.65087795 C-33.66823298 357.77252268 -33.8812723 359.89422357 -34.0937109 362.01598454 C-34.58486416 366.91632148 -35.08396661 371.81550131 -35.60403442 376.71286011 C-35.69813882 377.61307105 -35.79224321 378.51328199 -35.88919926 379.44077206 C-36.06220771 381.09317054 -36.23866074 382.74521451 -36.419631 384.39675999 C-36.96213375 389.62335044 -37.07000074 394.74485573 -37 400 C-37.66 400 -38.32 400 -39 400 C-38.97715942 400.83911171 -38.97715942 400.83911171 -38.95385742 401.69517517 C-38.84300279 409.19977925 -39.53222758 416.54584424 -40.3125 424.00390625 C-40.44758494 425.33563124 -40.58209524 426.66741463 -40.71606445 427.99925232 C-41.13850071 432.18757568 -41.56881004 436.37507013 -42 440.5625 C-42.50027786 445.42533489 -42.99718835 450.28847733 -43.48690796 455.15238762 C-43.68261568 457.08077893 -43.88384007 459.00860785 -44.08520508 460.93641663 C-44.73158774 467.33063571 -45.14510978 473.57327777 -45 480 C-45.66 480 -46.32 480 -47 480 C-46.98558868 480.55736847 -46.97117737 481.11473694 -46.95632935 481.68899536 C-46.85048105 489.24530856 -47.50279316 496.6647263 -48.2421875 504.1796875 C-48.37210875 505.52342922 -48.50183537 506.86718976 -48.63137817 508.21096802 C-48.90212248 511.00654251 -49.17663053 513.80171671 -49.45361328 516.59667969 C-49.80755375 520.17342203 -50.14970008 523.75118594 -50.48882866 527.32935905 C-50.75270079 530.09571956 -51.02387825 532.86132784 -51.29715347 535.62677383 C-51.48903596 537.5850246 -51.67388317 539.54396063 -51.85861206 541.50289917 C-51.97858551 542.691586 -52.09855896 543.88027283 -52.22216797 545.10498047 C-52.3243161 546.14959442 -52.42646423 547.19420837 -52.53170776 548.27047729 C-52.98987409 550.94097935 -53.51183616 552.74499834 -55 555 C-57.88330078 556.33007812 -57.88330078 556.33007812 -61.6953125 557.53125 C-62.40456375 557.75922775 -63.113815 557.98720551 -63.84455872 558.22209167 C-66.26692012 558.99625107 -68.69570932 559.74789014 -71.125 560.5 C-72.88913981 561.058432 -74.65288049 561.61812613 -76.41625977 562.17895508 C-81.47152619 563.78135331 -86.53331275 565.36224037 -91.59661865 566.93902588 C-95.14834207 568.04624433 -98.6986146 569.15801148 -102.24853516 570.27099609 C-114.98551961 574.26433591 -127.72596239 578.24643192 -140.46990395 582.21751213 C-156.51114817 587.21640098 -172.54100799 592.25059823 -188.5625 597.3125 C-189.72766144 597.68059784 -190.89282288 598.04869568 -192.09329224 598.427948 C-211.48323841 604.55586364 -230.86128222 610.72105949 -250.2278595 616.92243958 C-251.96572073 617.47763365 -253.70430192 618.03057994 -255.44364929 618.58110046 C-259.71864615 619.9359423 -263.97562085 621.32669541 -268.21582031 622.78710938 C-269.06355011 623.07229431 -269.91127991 623.35747925 -270.78469849 623.65130615 C-272.37129122 624.18575017 -273.95345242 624.73364621 -275.5295105 625.29840088 C-283.97535325 628.10614745 -291.24885654 626.20564218 -299.4375 623.375 C-301.95109233 622.51188519 -304.44060443 621.72787435 -307 621 C-307.66 621.33 -308.32 621.66 -309 622 C-309 621.01 -309 620.02 -309 619 C-309.61845795 618.8873027 -310.23691589 618.77460541 -310.87411499 618.65849304 C-316.70289006 617.55153613 -322.27922845 616.11420491 -327.9140625 614.26953125 C-328.7469278 614.00208603 -329.57979309 613.73464081 -330.43789673 613.45909119 C-332.23298609 612.88215201 -334.02730928 612.30282441 -335.82092285 611.72131348 C-340.67636113 610.14764503 -345.53791654 608.59303938 -350.3984375 607.03515625 C-351.41437988 606.70897308 -352.43032227 606.38278992 -353.47705078 606.04672241 C-364.32721946 602.56605013 -375.19634338 599.14650689 -386.07147217 595.74472046 C-388.17860736 595.08529239 -390.28542307 594.42484252 -392.39190674 593.76333618 C-395.34909634 592.83470957 -398.30721778 591.90911412 -401.265625 590.984375 C-402.13466461 590.71100815 -403.00370422 590.4376413 -403.89907837 590.1559906 C-407.70008337 588.97172164 -411.48424807 587.85851193 -415.35839844 586.93847656 C-418.32390977 586.17423511 -420.32877166 585.34985086 -423 584 C-424.38558787 583.50766593 -425.78285308 583.04736081 -427.18823242 582.61474609 C-428.00901779 582.36015625 -428.82980316 582.10556641 -429.67546082 581.84326172 C-430.55986343 581.57271973 -431.44426605 581.30217773 -432.35546875 581.0234375 C-433.28172562 580.73694336 -434.20798248 580.45044922 -435.16230774 580.15527344 C-437.1438817 579.54269123 -439.12592771 578.93163425 -441.10839844 578.32196045 C-446.24493338 576.74224788 -451.37814907 575.15181684 -456.51171875 573.5625 C-457.51689545 573.25162445 -458.52207214 572.9407489 -459.55770874 572.62045288 C-467.21935731 570.24868025 -474.86577946 567.83379806 -482.5 565.375 C-483.46719971 565.0641748 -484.43439941 564.75334961 -485.4309082 564.43310547 C-487.17697992 563.87192941 -488.92299771 563.31058553 -490.66894531 562.74902344 C-494.06817482 561.65676997 -497.46908103 560.57127603 -500.875 559.5 C-501.82117188 559.2009375 -502.76734375 558.901875 -503.7421875 558.59375 C-506.09446253 557.87283571 -506.09446253 557.87283571 -509 558 C-509 557.34 -509 556.68 -509 556 C-509.9075 555.9175 -510.815 555.835 -511.75 555.75 C-515.54938483 554.87321888 -516.59667171 554.01239245 -519 551 C-519.7085495 548.22043037 -519.7085495 548.22043037 -520.00769043 544.95095825 C-520.13044814 543.70582584 -520.25320585 542.46069344 -520.37968349 541.17782974 C-520.49758273 539.7958265 -520.61515051 538.41379495 -520.73242188 537.03173828 C-520.86986229 535.56799863 -521.00889073 534.10440735 -521.14937687 532.64095688 C-521.52975955 528.63100764 -521.88780871 524.61932964 -522.24228597 520.60701895 C-522.6252074 516.31777592 -523.02895805 512.03049205 -523.43040466 507.74295044 C-524.11710091 500.37933109 -524.79108768 493.01464077 -525.45626831 485.64904785 C-526.41000247 475.0895862 -527.3832816 464.53200248 -528.36265123 453.97489071 C-528.81137622 449.13776845 -529.25941002 444.30058224 -529.70726013 439.46337891 C-529.79615873 438.50322608 -529.88505733 437.54307326 -529.97664982 436.5538249 C-530.60851372 429.72480626 -531.23664806 422.8954506 -531.8629303 416.06591797 C-534.09117097 391.77129511 -536.35904347 367.48091164 -538.68359375 343.1953125 C-538.75456725 342.45349621 -538.82554074 341.71167993 -538.89866495 340.94738436 C-539.7157841 332.40697711 -540.53463458 323.86673661 -541.35440266 315.32658327 C-542.40940327 304.33480647 -543.46116393 293.34272126 -544.50950813 282.35030746 C-544.8272429 279.02259671 -545.14640443 275.69502509 -545.46568298 272.36746216 C-545.65699106 270.36511706 -545.84804787 268.36274794 -546.03881836 266.36035156 C-546.12729255 265.43302908 -546.21576674 264.5057066 -546.30692196 263.55028343 C-546.87898395 257.48209685 -547.37056737 251.41495994 -547.75953674 245.33197021 C-547.9305029 242.84640553 -547.9305029 242.84640553 -549 240 C-549.20756774 237.16324087 -549.37289449 234.34033039 -549.5 231.5 C-549.75235317 226.36015217 -550.0294716 221.24507557 -550.5625 216.125 C-551.13070103 210.41635528 -551.09002023 204.73128791 -551 199 C-551.99 198.67 -552.98 198.34 -554 198 C-553.34 198 -552.68 198 -552 198 C-552.99 192.06 -552.99 192.06 -554 186 C-554.33 186 -554.66 186 -555 186 C-554.97969727 184.93650833 -554.95939453 183.87301666 -554.93847656 182.77729797 C-554.79669472 171.88985513 -555.41034852 161.21306028 -556.48156738 150.38216209 C-556.75826105 147.58443906 -557.02430872 144.78586148 -557.28808594 141.9868927 C-557.75457883 137.05453916 -558.2299731 132.12309405 -558.70849609 127.19189453 C-559.4755499 119.28622938 -560.23486424 111.37986655 -560.98254395 103.47234535 C-561.24317014 100.73958235 -561.51141757 98.00764428 -561.78027344 95.27568054 C-562.65968283 86.14383269 -563.26251394 77.1836258 -563 68 C-563.66 67.67 -564.32 67.34 -565 67 C-564.98839844 66.40429199 -564.97679687 65.80858398 -564.96484375 65.19482422 C-564.89501548 58.77187019 -565.33721989 52.5094453 -566 46.125 C-566.76028496 38.37739631 -567.29581386 30.78976495 -567 23 C-567.66 22.67 -568.32 22.34 -569 22 C-568.98839844 21.40574219 -568.97679687 20.81148438 -568.96484375 20.19921875 C-568.90227063 14.45143072 -569.2300228 8.86412026 -569.87890625 3.15234375 C-569.91886719 2.44207031 -569.95882812 1.73179687 -570 1 C-568.10480171 -0.89519829 -565.3226541 -0.13144547 -562.79971942 -0.1436913 C-561.89703465 -0.14295448 -560.99434988 -0.14221766 -560.06431103 -0.14145851 C-559.11042444 -0.14460033 -558.15653785 -0.14774214 -557.1737456 -0.15097916 C-553.93484909 -0.16040211 -550.69598588 -0.16262257 -547.45707703 -0.16494751 C-545.12855154 -0.17022381 -542.800027 -0.17593578 -540.47150356 -0.18204916 C-534.71576892 -0.1960037 -528.96003971 -0.20526772 -523.20429314 -0.21260584 C-516.31435857 -0.22164682 -509.42443955 -0.23645196 -502.5345158 -0.25145121 C-489.03283764 -0.28065024 -475.53115401 -0.30410817 -462.02946095 -0.32515697 C-450.21231786 -0.34359155 -438.39517975 -0.36386822 -426.57804298 -0.38599777 C-425.79540629 -0.3874605 -425.0127696 -0.38892324 -424.20641664 -0.39043029 C-421.02972767 -0.39636867 -417.85303871 -0.40231402 -414.67634977 -0.4082709 C-384.84868526 -0.46416607 -355.02101342 -0.51422095 -325.19333445 -0.56168602 C-298.67583568 -0.60392006 -272.15835093 -0.65133766 -245.64086914 -0.703125 C-215.87368671 -0.76124098 -186.10650122 -0.81610771 -156.33930331 -0.86572587 C-153.16733697 -0.87102199 -149.99537064 -0.87632614 -146.82340431 -0.88163376 C-146.04234048 -0.88293783 -145.26127665 -0.8842419 -144.45654422 -0.8855855 C-132.64704221 -0.90536029 -120.83754657 -0.9276292 -109.02805138 -0.9510994 C-95.6015593 -0.97776901 -82.17506644 -1.00085908 -68.74856027 -1.01918437 C-61.89252304 -1.02863437 -55.03649768 -1.03968856 -48.18047142 -1.05528831 C-41.91168675 -1.06938747 -35.64291307 -1.07888604 -29.37411533 -1.08461837 C-27.09885063 -1.08752088 -24.8235874 -1.09214486 -22.54833003 -1.09860714 C-19.46994226 -1.10709999 -16.39161032 -1.10946904 -13.31321239 -1.11022377 C-12.41755112 -1.11416928 -11.52188985 -1.11811479 -10.59908733 -1.12217987 C-9.37116683 -1.12057471 -9.37116683 -1.12057471 -8.11843985 -1.11893713 C-7.06216271 -1.12070726 -7.06216271 -1.12070726 -5.98454664 -1.12251315 C-3.88611432 -0.99296943 -2.01953366 -0.57084581 0 0 Z M-477 99 C-476.00046107 108.05880104 -474.9926923 117.11663753 -473.97441292 126.17335129 C-473.50184063 130.37880152 -473.03210638 134.58452842 -472.56884766 138.79101562 C-472.12165115 142.85069575 -471.66701351 146.9094796 -471.20721054 150.96775055 C-471.03311923 152.51598788 -470.8617086 154.06452907 -470.6930275 155.61336517 C-470.45625602 157.78314858 -470.20996502 159.95165468 -469.96142578 162.12011719 C-469.82374786 163.35477722 -469.68606995 164.58943726 -469.54421997 165.86151123 C-469.05728665 168.66963083 -468.4506111 170.57692982 -467 173 C-465.68 173 -464.36 173 -463 173 C-460.33333333 173 -457.66666667 173 -455 173 C-455 172.34 -455 171.68 -455 171 C-454.28070313 171.32524658 -453.56140625 171.65049316 -452.8203125 171.9855957 C-449.94421335 173.02006523 -447.91106571 173.24491272 -444.875 173.23046875 C-443.44414062 173.22756836 -443.44414062 173.22756836 -441.984375 173.22460938 C-440.99953125 173.21236328 -440.0146875 173.20011719 -439 173.1875 C-437.52273438 173.1865332 -437.52273438 173.1865332 -436.015625 173.18554688 C-431.50374996 173.1581098 -427.42608877 172.89161329 -423 172 C-421.65921199 172.30195432 -420.32611091 172.63900314 -419 173 C-411.38212835 173.40340946 -404.2916389 173.33332445 -397 171 C-396.67 171.66 -396.34 172.32 -396 173 C-395.34 173 -394.68 173 -394 173 C-320.66666667 173 -247.33333333 173 -174 173 C-174.14432559 174.0341079 -174.28865118 175.06821581 -174.43735027 176.13366032 C-174.97937043 180.01862507 -175.52048448 183.9037156 -176.06134319 187.7888422 C-176.29429478 189.46129645 -176.52748286 191.13371777 -176.76092434 192.80610371 C-178.39357754 204.50402765 -179.9658843 216.20270605 -181.3125 227.9375 C-181.48215424 229.36917237 -181.65207886 230.80081272 -181.82226562 232.23242188 C-182.7744533 240.09296437 -182.7744533 240.09296437 -183 248 C-244.66666667 248 -306.33333333 248 -368 248 C-366.97927344 256.58867217 -365.9539243 265.17677591 -364.92260075 273.76418209 C-364.44390894 277.75129124 -363.96683687 281.73858056 -363.4934082 285.72631836 C-363.03681984 289.5717076 -362.57605307 293.41657477 -362.1123333 297.26111031 C-361.93579331 298.73100383 -361.7607827 300.20108184 -361.58729744 301.67133904 C-361.34482786 303.72402307 -361.09702275 305.77599519 -360.84790039 307.82788086 C-360.70800186 308.99814316 -360.56810333 310.16840546 -360.42396545 311.37413025 C-360.27590007 313.9192195 -360.27590007 313.9192195 -359 315 C-358.95936168 316.66617115 -358.957279 318.33388095 -359 320 C-358.34 319.67 -357.68 319.34 -357 319 C-357 319.33 -357 319.66 -357 320 C-302.55 320 -248.1 320 -192 320 C-193.65 332.21 -195.3 344.42 -197 357 C-198.00174515 365.29862195 -199.00197088 373.59294281 -199.94067383 381.89819336 C-200.32688542 385.31475853 -200.71874975 388.73064535 -201.11132812 392.14648438 C-201.3622852 394.34111086 -201.61294935 396.53577087 -201.86328125 398.73046875 C-201.97883865 399.74151169 -202.09439606 400.75255463 -202.2134552 401.79423523 C-202.31744125 402.71573868 -202.42142731 403.63724213 -202.52856445 404.58666992 C-202.66582695 405.79827034 -202.66582695 405.79827034 -202.80586243 407.03434753 C-203.03276225 409.00251668 -203.03276225 409.00251668 -203 411 C-219.55453823 416.15091618 -236.11717246 421.27511133 -252.6875 426.375 C-253.52620636 426.63325562 -254.36491272 426.89151123 -255.22903442 427.15759277 C-256.05136566 427.41077271 -256.8736969 427.66395264 -257.72094727 427.92480469 C-258.52223557 428.17157959 -259.32352386 428.41835449 -260.14909363 428.67260742 C-261.70454707 429.15046355 -263.26053499 429.62658397 -264.8170929 430.10083008 C-267.90536778 431.04196974 -270.98277589 431.99425034 -274.04541016 433.01660156 C-274.88249512 433.29213867 -275.71958008 433.56767578 -276.58203125 433.8515625 C-277.24050049 434.07924316 -277.89896973 434.30692383 -278.57739258 434.54150391 C-287.91854254 436.30938455 -295.90971505 433.54171318 -304.7109375 430.73046875 C-306.12867475 430.28808329 -307.5467835 429.84688685 -308.96524048 429.40681458 C-312.68314822 428.25016065 -316.39622105 427.07871344 -320.1083374 425.90362549 C-324.59512545 424.48607738 -329.08706857 423.08497525 -333.57860756 421.68256855 C-337.07870414 420.58955669 -340.57788528 419.49391245 -344.0743103 418.38920593 C-350.68838896 416.30512144 -357.30496792 414.31659004 -364.02261353 412.58979797 C-366 412 -366 412 -367 411 C-367.26347027 409.51273813 -367.46837851 408.01502855 -367.6484375 406.51538086 C-367.82366943 405.08270119 -367.82366943 405.08270119 -368.00244141 403.62107849 C-368.12538574 402.57952103 -368.24833008 401.53796356 -368.375 400.46484375 C-368.50438965 399.39762589 -368.6337793 398.33040802 -368.76708984 397.23085022 C-369.18210426 393.80020729 -369.59114228 390.3688816 -370 386.9375 C-370.27564394 384.6490406 -370.55168068 382.36062848 -370.828125 380.07226562 C-371.44199521 374.98712568 -372.05202984 369.90154138 -372.65869141 364.8155365 C-373.09587055 361.20914082 -373.54940697 357.60474428 -374 354 C-399.08 354 -424.16 354 -450 354 C-449.19983377 366.31749149 -449.19983377 366.31749149 -448.00024414 378.578125 C-447.90577499 379.41763199 -447.81130585 380.25713898 -447.713974 381.12208557 C-447.40799379 383.83181661 -447.09689518 386.5409259 -446.78515625 389.25 C-446.56703648 391.1623378 -446.34905718 393.07469163 -446.13121033 394.98706055 C-445.67724273 398.96415211 -445.22051102 402.94091454 -444.76196289 406.91748047 C-444.17608284 412.00161852 -443.59890961 417.08670387 -443.02396488 422.17208862 C-442.57765428 426.1085712 -442.12591772 430.04441715 -441.67263603 433.98010254 C-441.45748294 435.85529327 -441.24419549 437.73069909 -441.03285408 439.60632324 C-440.73725946 442.22391072 -440.43413852 444.84052388 -440.12915039 447.45703125 C-440.00203171 448.60420372 -440.00203171 448.60420372 -439.87234497 449.77455139 C-439.32765749 454.36415894 -438.48974033 458.61632367 -437 463 C-432.70606216 466.37450696 -426.02169376 467.31062057 -420.80979919 468.95346069 C-409.34396733 472.56772036 -397.88956802 476.21740065 -386.4375 479.875 C-385.44574768 480.19170654 -384.45399536 480.50841309 -383.43218994 480.8347168 C-378.14885519 482.52194998 -372.86564407 484.20956967 -367.58251953 485.89746094 C-362.02927421 487.67151061 -356.47548749 489.44385949 -350.92158508 491.21585083 C-346.47845711 492.63376016 -342.03570937 494.05285816 -337.5930481 495.472229 C-335.48550623 496.1453297 -333.37782504 496.81799438 -331.26998901 497.49017334 C-328.29156417 498.44009429 -325.31369698 499.39174562 -322.3359375 500.34375 C-320.9168383 500.79586349 -320.9168383 500.79586349 -319.46907043 501.2571106 C-314.66766801 502.7940455 -309.88569501 504.3728547 -305.12207031 506.0234375 C-303.69829575 506.51293884 -303.69829575 506.51293884 -302.24575806 507.0123291 C-300.45781185 507.62984747 -298.6728505 508.25610923 -296.89169312 508.89294434 C-288.08201367 511.92871747 -281.69187226 510.9141262 -272.98046875 508.1328125 C-271.99254333 507.82625732 -271.00461792 507.51970215 -269.98675537 507.20385742 C-266.71733161 506.18693683 -263.45247295 505.15611261 -260.1875 504.125 C-257.90140475 503.41039375 -255.61502233 502.69670562 -253.32836914 501.98388672 C-248.45909029 500.46491592 -243.59146474 498.94077886 -238.72460938 497.4140625 C-231.42382717 495.12595235 -224.11263076 492.87226627 -216.79916954 490.62506485 C-212.79535031 489.39438285 -208.79246239 488.16067472 -204.7895174 486.92715263 C-201.54352454 485.92703843 -198.29715063 484.92820119 -195.04989624 483.93218994 C-191.4159169 482.81623962 -187.78391853 481.69405908 -184.15234375 480.5703125 C-183.06411316 480.23765381 -181.97588257 479.90499512 -180.85467529 479.56225586 C-179.36221283 479.09855591 -179.36221283 479.09855591 -177.83959961 478.62548828 C-176.53931068 478.22488693 -176.53931068 478.22488693 -175.2127533 477.81619263 C-172.7632689 477.01008179 -172.7632689 477.01008179 -170 475 C-167.92719576 474.53324777 -165.85304023 474.07179595 -163.77294922 473.63867188 C-158.10789755 472.33388449 -152.59526566 470.52214454 -147.0625 468.75 C-145.83208984 468.38003906 -144.60167969 468.01007813 -143.33398438 467.62890625 C-142.16287109 467.25121094 -140.99175781 466.87351562 -139.78515625 466.484375 C-138.72176025 466.15147461 -137.65836426 465.81857422 -136.56274414 465.47558594 C-133.81011332 464.22724271 -133.81011332 464.22724271 -132.91493225 461.53773499 C-131.74542886 457.01565909 -131.25530227 452.56223255 -130.79833984 447.9206543 C-130.69369101 446.91388988 -130.58904217 445.90712545 -130.48122215 444.86985302 C-130.134766 441.52192916 -129.79791883 438.17310845 -129.4609375 434.82421875 C-129.2172226 432.45331246 -128.97284461 430.08247424 -128.72784424 427.71170044 C-128.20736598 422.66426223 -127.6908639 417.61643976 -127.17755127 412.56826782 C-125.97054496 400.7012468 -124.74289963 388.83635291 -123.51705551 376.97126579 C-123.10923089 373.02204198 -122.70218216 369.0727387 -122.29519653 365.12342834 C-120.22639598 345.06926894 -118.08381326 325.02419523 -115.86551666 304.98605728 C-115.54627156 302.1010284 -115.22808803 299.21588283 -114.9098835 296.33073902 C-114.23313874 290.19512918 -113.55490837 284.05968459 -112.87597656 277.92431641 C-111.54097033 265.85374406 -110.21281599 253.78246532 -108.90350342 241.70907593 C-108.639092 239.27855862 -108.37292094 236.84823194 -108.10479736 234.41812134 C-107.74247645 231.13338316 -107.38612013 227.84805025 -107.03125 224.5625 C-106.87255936 223.143144 -106.87255936 223.143144 -106.71066284 221.69511414 C-106.25358952 217.40665373 -105.95344456 213.21729924 -105.99804688 208.90234375 C-105.99869141 207.61457031 -105.99933594 206.32679688 -106 205 C-105.67 204.67 -105.34 204.34 -105 204 C-104.7726385 202.68102005 -104.60469875 201.35170828 -104.46214294 200.02088928 C-104.32124741 198.7357972 -104.32124741 198.7357972 -104.17750549 197.42474365 C-104.07824265 196.47770569 -103.9789798 195.53066772 -103.87670898 194.55493164 C-103.76927368 193.563134 -103.66183838 192.57133636 -103.55114746 191.54948425 C-103.19521623 188.25348315 -102.84560409 184.95684393 -102.49609375 181.66015625 C-102.25125374 179.37947354 -102.00605588 177.09882922 -101.76051331 174.81822205 C-101.24597093 170.03086877 -100.73428223 165.24322236 -100.22485352 160.45532227 C-99.57060258 154.30644137 -98.91164537 148.15807736 -98.25085354 142.00989628 C-97.62273738 136.16431327 -96.99675791 130.31850213 -96.37109375 124.47265625 C-96.19066434 122.7887765 -96.19066434 122.7887765 -96.00658989 121.07087898 C-95.66785495 117.90553042 -95.33061454 114.74002656 -94.99389648 111.57446289 C-94.89260941 110.62944916 -94.79132233 109.68443542 -94.68696594 108.71078491 C-94.59585541 107.85123703 -94.50474487 106.99168915 -94.41087341 106.10609436 C-94.33105445 105.35705369 -94.25123549 104.60801302 -94.16899776 103.83627415 C-93.96945144 101.97540851 -93.96945144 101.97540851 -94 100 C-103.55121681 99.10719739 -113.02198708 98.85922959 -122.60993958 98.87974548 C-124.14733561 98.87930846 -125.68473157 98.87843114 -127.22212714 98.87715632 C-131.41134759 98.87493716 -135.60054212 98.878897 -139.78975928 98.88393438 C-144.32058877 98.88827603 -148.85141694 98.88678983 -153.38224792 98.8860321 C-161.22049617 98.88550922 -169.05873605 98.88863142 -176.89698219 98.89426994 C-188.22959795 98.90241685 -199.56220968 98.90500343 -210.89482804 98.90625793 C-229.28381018 98.90844345 -247.67278786 98.91508995 -266.06176758 98.92456055 C-283.91886371 98.93374762 -301.77595862 98.94082212 -319.63305664 98.94506836 C-321.28571608 98.94546244 -321.28571608 98.94546244 -322.97176258 98.94586449 C-328.49935068 98.94716958 -334.0269388 98.94843328 -339.55452693 98.94967639 C-385.3696877 98.96003341 -431.18484362 98.97763809 -477 99 Z " fill="#FEFEFE" transform="translate(797,302)"/>
<path d="M0 0 C1.21563377 -0.00043808 1.21563377 -0.00043808 2.45582581 -0.00088501 C5.11795999 0.00050141 7.77980961 0.01603004 10.44189453 0.03173828 C12.29419807 0.03547086 14.14650359 0.03831668 15.99880981 0.04031372 C20.8617096 0.0479309 25.72448894 0.06756291 30.58734131 0.08972168 C35.55446748 0.11022141 40.52161321 0.11932426 45.48876953 0.12939453 C55.22580999 0.15081065 64.96272963 0.18597715 74.69970703 0.22705078 C74.69970703 11.11705078 74.69970703 22.00705078 74.69970703 33.22705078 C70.87688627 34.18275597 67.90228643 34.35616585 63.98486328 34.35986328 C63.33327744 34.36082001 62.68169159 34.36177673 62.01036072 34.36276245 C60.62938338 34.36344187 59.24840281 34.3616042 57.86743164 34.35742188 C55.80037819 34.35214817 53.73354992 34.35733399 51.66650391 34.36376953 C43.30213652 34.36753336 35.02838489 34.01040152 26.69970703 33.22705078 C26.36970703 34.21705078 26.03970703 35.20705078 25.69970703 36.22705078 C24.70970703 36.55705078 23.71970703 36.88705078 22.69970703 37.22705078 C23.61147705 37.67508057 24.52324707 38.12311035 25.46264648 38.5847168 C28.90071735 40.27624617 32.33457692 41.97618313 35.76733398 43.6784668 C37.24311646 44.40889486 38.71997641 45.13715069 40.19799805 45.86303711 C72.32953872 61.65096605 72.32953872 61.65096605 77.14111328 75.50830078 C78.43753062 81.81813621 77.86427472 87.80833326 75.07470703 93.60205078 C67.53006043 101.94087071 60.91133004 105.14745018 49.69970703 106.22705078 C46.97563365 106.31452503 44.2783033 106.36422614 41.55541992 106.35644531 C40.78532593 106.35819763 40.01523193 106.35994995 39.22180176 106.36175537 C36.70529859 106.3661167 34.18886702 106.36325829 31.67236328 106.35986328 C29.91499315 106.36053748 28.15762311 106.36150848 26.4002533 106.36276245 C22.73305363 106.36423124 19.06587845 106.36210944 15.39868164 106.35742188 C10.68853617 106.3516955 5.97844732 106.35502702 1.26830387 106.36099434 C-2.35265027 106.36459698 -5.97359083 106.36346326 -9.59454536 106.36086655 C-11.33256601 106.36019797 -13.07058788 106.36102328 -14.8086071 106.3633461 C-17.22636091 106.36587092 -19.64402082 106.36203585 -22.06176758 106.35644531 C-22.78431229 106.35846954 -23.50685699 106.36049377 -24.251297 106.36257935 C-29.18602398 106.34131977 -29.18602398 106.34131977 -30.30029297 105.22705078 C-30.34804256 102.55307359 -30.3432617 99.89981818 -30.30029297 97.22705078 C-30.25215317 92.4522774 -30.21798981 87.78171076 -30.86279297 83.03955078 C-31.27496416 79.44777322 -31.10850429 76.72929986 -30.30029297 73.22705078 C-24.91833311 72.3222303 -19.75559977 72.09400636 -14.30419922 72.12939453 C-13.47065414 72.13080948 -12.63710907 72.13222443 -11.77830505 72.13368225 C-9.13976311 72.1392391 -6.50130887 72.15178338 -3.86279297 72.16455078 C-2.06396608 72.16957137 -0.26513784 72.17413329 1.53369141 72.17822266 C5.92239661 72.18919435 10.31103699 72.20642882 14.69970703 72.22705078 C14.09610352 71.96601563 13.4925 71.70498047 12.87060547 71.43603516 C-22.9328137 55.84796627 -22.9328137 55.84796627 -28.15966797 43.13720703 C-28.59757193 41.51497192 -28.95758872 39.87203116 -29.30029297 38.22705078 C-29.96029297 37.89705078 -30.62029297 37.56705078 -31.30029297 37.22705078 C-31.8431227 26.83286667 -30.86980188 17.2178581 -24.03857422 8.94580078 C-17.23628141 2.21993823 -9.42482083 -0.08981591 0 0 Z M17.69970703 33.22705078 C17.36970703 33.88705078 17.03970703 34.54705078 16.69970703 35.22705078 C19.71002447 36.16128723 20.56620971 36.27154989 23.69970703 35.22705078 C23.36970703 34.56705078 23.03970703 33.90705078 22.69970703 33.22705078 C21.04970703 33.22705078 19.39970703 33.22705078 17.69970703 33.22705078 Z " fill="#FDFDFD" transform="translate(616.30029296875,159.77294921875)"/>
<path d="M0 0 C1.7554713 0.00747498 3.51095103 0.01316196 5.26643372 0.01715088 C9.8516101 0.03230847 14.43626691 0.07150305 19.02124023 0.1159668 C24.5413057 0.16439263 30.06154643 0.18250064 35.58176422 0.20578003 C43.93637951 0.2443618 52.28985833 0.32108321 60.64453125 0.390625 C60.64453125 11.610625 60.64453125 22.830625 60.64453125 34.390625 C55.26527344 34.37322266 55.26527344 34.37322266 49.77734375 34.35546875 C46.31559335 34.34767673 42.85384391 34.34160079 39.39208984 34.33569336 C36.98062708 34.33065526 34.56916739 34.32382466 32.15771484 34.31518555 C28.69758346 34.30309713 25.23749235 34.29739156 21.77734375 34.29296875 C20.69397736 34.28780746 19.61061096 34.28264618 18.49441528 34.27732849 C17.49352875 34.27725296 16.49264221 34.27717743 15.46142578 34.27709961 C14.57762238 34.274879 13.69381897 34.27265839 12.78323364 34.27037048 C10.5917635 34.25188556 10.5917635 34.25188556 8.64453125 35.390625 C9.53269531 35.82890625 10.42085937 36.2671875 11.3359375 36.71875 C14.91086206 38.48951148 18.47578266 40.27968915 22.03759766 42.07666016 C23.84574593 42.98801565 25.65542646 43.89633499 27.46630859 44.80224609 C59.61898585 60.93465566 59.61898585 60.93465566 65.64453125 73.390625 C67.69467902 79.90210063 67.45252842 86.39485481 64.70703125 92.640625 C61.21236757 98.95484688 56.02393971 101.97127345 49.51953125 104.703125 C43.53079199 106.13521482 37.65951127 106.5372432 31.52197266 106.52001953 C30.74227112 106.52177185 29.96256958 106.52352417 29.15924072 106.52532959 C26.60483519 106.52969986 24.05049988 106.52682896 21.49609375 106.5234375 C19.71487413 106.52411152 17.93365461 106.52508236 16.1524353 106.52633667 C12.43218097 106.52780674 8.71195074 106.52567978 4.99169922 106.52099609 C0.21314409 106.51527425 -4.56535518 106.51859761 -9.34390831 106.52456856 C-13.01547675 106.52817161 -16.68703179 106.5270372 -20.35860062 106.52444077 C-22.12174104 106.52377207 -23.88488267 106.52459792 -25.6480217 106.52692032 C-28.10180673 106.52944532 -30.55549925 106.52560959 -33.00927734 106.52001953 C-33.74274384 106.52204376 -34.47621033 106.52406799 -35.23190308 106.52615356 C-40.24120077 106.50489298 -40.24120077 106.50489298 -41.35546875 105.390625 C-41.44389705 102.94258733 -41.47082847 100.52217706 -41.453125 98.07421875 C-41.45211792 97.42650513 -41.45111084 96.7787915 -41.45007324 96.1114502 C-41.44482718 93.68365721 -41.430866 91.25588939 -41.41796875 88.828125 C-41.39734375 83.40375 -41.37671875 77.979375 -41.35546875 72.390625 C-27.16546875 72.390625 -12.97546875 72.390625 1.64453125 72.390625 C-1.41222251 70.09805968 -3.60394419 68.69086987 -6.98828125 67.19140625 C-33.93876396 54.98695076 -33.93876396 54.98695076 -40.46484375 41.015625 C-43.60851664 31.75006279 -42.51253711 23.04847514 -38.66796875 14.265625 C-34.88690883 7.22788574 -29.19814323 3.7935926 -21.79989624 1.21105957 C-14.64498389 -0.49318227 -7.31333226 -0.09218946 0 0 Z " fill="#FDFDFD" transform="translate(502.35546875,159.609375)"/>
<path d="M0 0 C0.6836261 -0.00029205 1.3672522 -0.00058411 2.07159424 -0.00088501 C4.31169718 0.00049868 6.5514597 0.01601394 8.79150391 0.03173828 C10.35234394 0.03547184 11.91318632 0.03831719 13.47402954 0.04031372 C17.56755121 0.04792321 21.6609293 0.06754841 25.75439453 0.08972168 C29.93731749 0.11023815 34.12026381 0.11932781 38.30322266 0.12939453 C46.49990287 0.15079703 54.69646674 0.18490028 62.89306641 0.22705078 C62.94250706 4.87181037 62.97880504 9.51641675 63.00292969 14.16137695 C63.01298682 15.74148222 63.02663425 17.32156888 63.04394531 18.90161133 C63.06820662 21.17289828 63.07955223 23.44393914 63.08837891 25.71533203 C63.09870148 26.42168289 63.10902405 27.12803375 63.11965942 27.85578918 C63.12050415 31.5490287 63.00027163 33.06624294 60.89306641 36.22705078 C60.89306641 35.56705078 60.89306641 34.90705078 60.89306641 34.22705078 C54.07958204 34.150622 47.26620936 34.09829255 40.45239258 34.06225586 C38.13724638 34.04722349 35.82212841 34.02679208 33.50708008 34.00073242 C30.16822317 33.96410482 26.82974471 33.94726837 23.49072266 33.93408203 C22.46535904 33.91859818 21.43999542 33.90311432 20.38356018 33.88716125 C13.38401549 33.8855434 6.51280707 34.47391469 0.77197266 38.84033203 C-3.74687873 44.67327076 -5.87476805 49.67667867 -5.10693359 57.22705078 C-3.37640719 62.74602687 -1.35163981 67.37666697 3.89306641 70.22705078 C11.01774198 72.23949074 18.01292571 72.49843051 25.36962891 72.42236328 C26.42088959 72.41953339 27.47215027 72.41670349 28.55526733 72.41378784 C31.87632165 72.40269221 35.19709513 72.37760784 38.51806641 72.35205078 C40.78498956 72.34200725 43.051917 72.33288381 45.31884766 72.32470703 C50.84368126 72.3027878 56.36835376 72.26941777 61.89306641 72.22705078 C63.37986365 75.20064527 63.00419246 77.89004257 62.99072266 81.20361328 C62.98930771 81.88886078 62.98789276 82.57410828 62.98643494 83.28012085 C62.98083315 85.47080839 62.96828047 87.66139408 62.95556641 89.85205078 C62.95055163 91.33642431 62.94598868 92.82079943 62.94189453 94.30517578 C62.93086318 97.94583394 62.9135974 101.58643242 62.89306641 105.22705078 C60.22451009 106.56132894 58.16932583 106.36889311 55.1809082 106.38818359 C53.98173264 106.39779114 52.78255707 106.40739868 51.54704285 106.41729736 C50.24197281 106.42154724 48.93690277 106.42579712 47.59228516 106.43017578 C46.23623148 106.43593301 44.88017781 106.44169066 43.52412415 106.44744873 C40.67175926 106.45796903 37.81942258 106.46380254 34.96704102 106.46728516 C31.34737189 106.47272176 27.72808818 106.49663953 24.10853863 106.52525711 C21.30030826 106.54408899 18.49216606 106.54910021 15.68387794 106.55062103 C13.71170792 106.55504801 11.73958548 106.57360931 9.76750183 106.59259033 C-7.00589377 106.55179231 -20.53037895 102.38257654 -32.81787109 90.69970703 C-43.29071829 79.38688745 -47.26036023 65.45038218 -47.10693359 50.22705078 C-46.51940773 42.22766015 -44.93652737 35.27756118 -41.10693359 28.22705078 C-40.69701172 27.42783203 -40.28708984 26.62861328 -39.86474609 25.80517578 C-33.00905359 13.333238 -23.46607092 6.23532767 -10.37240601 1.16897583 C-6.75645548 0.12595542 -3.76031717 -0.01357515 0 0 Z " fill="#FDFDFD" transform="translate(377.10693359375,159.77294921875)"/>
<path d="M0 0 C0 3.96 0 7.92 0 12 C-0.33 12 -0.66 12 -1 12 C-1 8.7 -1 5.4 -1 2 C-188.11 2 -375.22 2 -568 2 C-568 5.3 -568 8.6 -568 12 C-568.33 12 -568.66 12 -569 12 C-569.19401633 10.18818595 -569.38004375 8.37551468 -569.5625 6.5625 C-569.66691406 5.55316406 -569.77132812 4.54382813 -569.87890625 3.50390625 C-569.91886719 2.67761719 -569.95882812 1.85132813 -570 1 C-568.10480171 -0.89519829 -565.3226541 -0.13144547 -562.79971942 -0.1436913 C-561.89703465 -0.14295448 -560.99434988 -0.14221766 -560.06431103 -0.14145851 C-559.11042444 -0.14460033 -558.15653785 -0.14774214 -557.1737456 -0.15097916 C-553.93484909 -0.16040211 -550.69598588 -0.16262257 -547.45707703 -0.16494751 C-545.12855154 -0.17022381 -542.800027 -0.17593578 -540.47150356 -0.18204916 C-534.71576892 -0.1960037 -528.96003971 -0.20526772 -523.20429314 -0.21260584 C-516.31435857 -0.22164682 -509.42443955 -0.23645196 -502.5345158 -0.25145121 C-489.03283764 -0.28065024 -475.53115401 -0.30410817 -462.02946095 -0.32515697 C-450.21231786 -0.34359155 -438.39517975 -0.36386822 -426.57804298 -0.38599777 C-425.79540629 -0.3874605 -425.0127696 -0.38892324 -424.20641664 -0.39043029 C-421.02972767 -0.39636867 -417.85303871 -0.40231402 -414.67634977 -0.4082709 C-384.84868526 -0.46416607 -355.02101342 -0.51422095 -325.19333445 -0.56168602 C-298.67583568 -0.60392006 -272.15835093 -0.65133766 -245.64086914 -0.703125 C-215.87368671 -0.76124098 -186.10650122 -0.81610771 -156.33930331 -0.86572587 C-153.16733697 -0.87102199 -149.99537064 -0.87632614 -146.82340431 -0.88163376 C-146.04234048 -0.88293783 -145.26127665 -0.8842419 -144.45654422 -0.8855855 C-132.64704221 -0.90536029 -120.83754657 -0.9276292 -109.02805138 -0.9510994 C-95.6015593 -0.97776901 -82.17506644 -1.00085908 -68.74856027 -1.01918437 C-61.89252304 -1.02863437 -55.03649768 -1.03968856 -48.18047142 -1.05528831 C-41.91168675 -1.06938747 -35.64291307 -1.07888604 -29.37411533 -1.08461837 C-27.09885063 -1.08752088 -24.8235874 -1.09214486 -22.54833003 -1.09860714 C-19.46994226 -1.10709999 -16.39161032 -1.10946904 -13.31321239 -1.11022377 C-12.41755112 -1.11416928 -11.52188985 -1.11811479 -10.59908733 -1.12217987 C-9.37116683 -1.12057471 -9.37116683 -1.12057471 -8.11843985 -1.11893713 C-7.06216271 -1.12070726 -7.06216271 -1.12070726 -5.98454664 -1.12251315 C-4 -1 -4 -1 0 0 Z " fill="#E9EAEA" transform="translate(797,302)"/>
<path d="M0 0 C0.68318802 -0.00014603 1.36637604 -0.00029205 2.07026672 -0.0004425 C4.32658065 0.0002537 6.58281184 0.00803243 8.83911133 0.01586914 C10.40424047 0.01773436 11.96937019 0.01915777 13.53450012 0.02015686 C17.65267551 0.02397387 21.7708156 0.03379721 25.88897705 0.04486084 C30.09175133 0.05509248 34.29453131 0.05965824 38.49731445 0.06469727 C46.74277336 0.0754202 54.98820358 0.09248685 63.23364258 0.11352539 C63.28308324 4.75828498 63.31938121 9.40289135 63.34350586 14.04785156 C63.35356299 15.62795683 63.36721043 17.20804349 63.38452148 18.78808594 C63.4087828 21.05937289 63.4201284 23.33041375 63.42895508 25.60180664 C63.43927765 26.3081575 63.44960022 27.01450836 63.4602356 27.74226379 C63.46108032 31.43550331 63.34084781 32.95271755 61.23364258 36.11352539 C61.23364258 35.45352539 61.23364258 34.79352539 61.23364258 34.11352539 C59.70779541 34.12138062 59.70779541 34.12138062 58.15112305 34.12939453 C54.30803336 34.14775607 50.46494737 34.15906891 46.62182617 34.16845703 C44.97142887 34.17342714 43.32103583 34.18020556 41.6706543 34.18896484 C31.46823412 34.24168252 21.40325496 34.03154352 11.23364258 33.11352539 C11.23364258 32.78352539 11.23364258 32.45352539 11.23364258 32.11352539 C27.73364258 32.11352539 44.23364258 32.11352539 61.23364258 32.11352539 C61.23364258 21.88352539 61.23364258 11.65352539 61.23364258 1.11352539 C49.90057414 1.26278632 49.90057414 1.26278632 38.56762695 1.42016602 C33.93964573 1.4862327 29.31166526 1.5513859 24.68359375 1.61083984 C20.94879124 1.65887876 17.21407097 1.71123058 13.47936821 1.76646614 C12.06058257 1.78671224 10.64177455 1.80545232 9.22294807 1.82259941 C1.82490477 1.91299735 -5.43041803 2.12294444 -12.76635742 3.11352539 C-8.30586011 0.13986051 -5.26331122 -0.00944939 0 0 Z " fill="#E4E5E5" transform="translate(376.766357421875,159.886474609375)"/>
<path d="M0 0 C1.54722952 0.00138269 1.54722952 0.00138269 3.12571621 0.00279331 C4.30507244 0.00141865 5.48442867 0.00004398 6.69952297 -0.00137234 C8.65778515 0.00402058 8.65778515 0.00402058 10.65560818 0.00952244 C12.03504846 0.00980431 13.4144889 0.00964658 14.7939291 0.00907993 C18.54996147 0.00879195 22.30596218 0.01468878 26.06198716 0.02165389 C29.98312073 0.02788732 33.90425496 0.02849122 37.82539272 0.0296793 C45.25563639 0.03279265 52.68586542 0.04100608 60.11610264 0.05102879 C68.57303667 0.06218982 77.02997138 0.06770035 85.48691094 0.07272422 C102.88812254 0.08318869 120.28931987 0.1007882 137.69052029 0.12304783 C137.69052029 0.45304783 137.69052029 0.78304783 137.69052029 1.12304783 C91.82052029 1.45304783 45.95052029 1.78304783 -1.30947971 2.12304783 C-1.30947971 5.42304783 -1.30947971 8.72304783 -1.30947971 12.12304783 C-1.63947971 12.12304783 -1.96947971 12.12304783 -2.30947971 12.12304783 C-2.50349605 10.31123378 -2.68952346 8.4985625 -2.87197971 6.68554783 C-2.97639378 5.67621189 -3.08080784 4.66687595 -3.18838596 3.62695408 C-3.2283469 2.80066502 -3.26830784 1.97437595 -3.30947971 1.12304783 C-2.30947971 0.12304783 -2.30947971 0.12304783 0 0 Z " fill="#FAFCFB" transform="translate(230.30947971343994,301.8769521713257)"/>
<path d="M0 0 C0.66 0 1.32 0 2 0 C2 10.89 2 21.78 2 33 C-1.87334576 33.96833644 -4.91786805 34.12916011 -8.890625 34.1328125 C-9.88579132 34.13424759 -9.88579132 34.13424759 -10.90106201 34.13571167 C-12.30302017 34.13639065 -13.70498152 34.13455603 -15.10693359 34.13037109 C-17.22891508 34.12505284 -19.35068161 34.13030795 -21.47265625 34.13671875 C-28.05482994 34.13962761 -34.49308757 34.06200902 -41 33 C-41 32.67 -41 32.34 -41 32 C-27.47 32 -13.94 32 0 32 C0 21.44 0 10.88 0 0 Z " fill="#E2E3E3" transform="translate(689,160)"/>
<path d="M0 0 C1.65 0 3.3 0 5 0 C4.01 0.33 3.02 0.66 2 1 C2 10.9 2 20.8 2 31 C1.34 31.33 0.68 31.66 0 32 C0.01160156 30.87722656 0.02320313 29.75445312 0.03515625 28.59765625 C0.17795909 19.18390825 0.17795909 19.18390825 -0.5625 9.8125 C-0.9746712 6.22072243 -0.80821133 3.50224908 0 0 Z " fill="#F1F1F1" transform="translate(586,233)"/>
<path d="M0 0 C1.34888732 0.00015905 2.69778075 0.00584927 4.04663086 0.01586914 C5.10991859 0.01799156 5.10991859 0.01799156 6.19468689 0.02015686 C8.46699173 0.02577096 10.73919936 0.03832576 13.01147461 0.05102539 C14.54858257 0.05603858 16.08569206 0.0606018 17.62280273 0.06469727 C21.39823103 0.07574497 25.17358632 0.09301898 28.94897461 0.11352539 C28.94897461 0.44352539 28.94897461 0.77352539 28.94897461 1.11352539 C13.60397461 1.60852539 13.60397461 1.60852539 -2.05102539 2.11352539 C-2.05102539 5.41352539 -2.05102539 8.71352539 -2.05102539 12.11352539 C-2.38102539 12.11352539 -2.71102539 12.11352539 -3.05102539 12.11352539 C-3.24504172 10.30171134 -3.43106914 8.48904007 -3.61352539 6.67602539 C-3.71793945 5.66668945 -3.82235352 4.65735352 -3.92993164 3.61743164 C-3.96989258 2.79114258 -4.00985352 1.96485352 -4.05102539 1.11352539 C-3.05102539 0.11352539 -3.05102539 0.11352539 0 0 Z " fill="#F2F4F4" transform="translate(231.051025390625,301.886474609375)"/>
<path d="M0 0 C0.66 0.33 1.32 0.66 2 1 C1.38511719 1.56847656 0.77023437 2.13695312 0.13671875 2.72265625 C-4.5687118 7.21795593 -8.00867692 10.76052101 -10 17 C-10.6640625 15.28125 -10.6640625 15.28125 -11 13 C-8.52237931 7.70944153 -4.83950819 3.27378495 0 0 Z " fill="#F1F1F0" transform="translate(598,164)"/>
<path d="M0 0 C1.32 0 2.64 0 4 0 C4 0.66 4 1.32 4 2 C3.01 2 2.02 2 1 2 C1 5.3 1 8.6 1 12 C0.67 12 0.34 12 0 12 C-0.19401633 10.18818595 -0.38004375 8.37551468 -0.5625 6.5625 C-0.66691406 5.55316406 -0.77132812 4.54382813 -0.87890625 3.50390625 C-0.91886719 2.67761719 -0.95882812 1.85132813 -1 1 C-0.67 0.67 -0.34 0.34 0 0 Z " fill="#EAEAEA" transform="translate(228,302)"/>
<path d="M0 0 C0.33 0 0.66 0 1 0 C1 2.97 1 5.94 1 9 C0.67 9 0.34 9 0 9 C0 6.03 0 3.06 0 0 Z " fill="#FEFEFE" transform="translate(682,568)"/>
<path d="M0 0 C0 0.66 0 1.32 0 2 C-1.65 2 -3.3 2 -5 2 C-2 0 -2 0 0 0 Z " fill="#F6F7F6" transform="translate(704,870)"/>
<path d="M0 0 C0.33 0 0.66 0 1 0 C1 1.98 1 3.96 1 6 C0.67 6 0.34 6 0 6 C0 4.02 0 2.04 0 0 Z " fill="#F9FAFA" transform="translate(274,825)"/>
<path d="M0 0 C0.33 0 0.66 0 1 0 C1 1.98 1 3.96 1 6 C0.67 6 0.34 6 0 6 C0 4.02 0 2.04 0 0 Z " fill="#FEFDFE" transform="translate(672,665)"/>
<path d="M0 0 C0.33 0 0.66 0 1 0 C1 1.98 1 3.96 1 6 C0.67 6 0.34 6 0 6 C0 4.02 0 2.04 0 0 Z " fill="#FCFCFD" transform="translate(459,242)"/>
<path d="M0 0 C1.98 0.99 1.98 0.99 4 2 C2.68 2 1.36 2 0 2 C0 1.34 0 0.68 0 0 Z " fill="#FDFEFD" transform="translate(480,801)"/>
<path d="M0 0 C0.33 0 0.66 0 1 0 C1 1.65 1 3.3 1 5 C0.67 5 0.34 5 0 5 C0 3.35 0 1.7 0 0 Z " fill="#FAFCFC" transform="translate(267,749)"/>
<path d="M0 0 C0.33 0 0.66 0 1 0 C1 1.65 1 3.3 1 5 C0.67 5 0.34 5 0 5 C0 3.35 0 1.7 0 0 Z " fill="#FCFDFD" transform="translate(250,570)"/>
<path d="M0 0 C1.65 0 3.3 0 5 0 C5 0.33 5 0.66 5 1 C3.35 1 1.7 1 0 1 C0 0.67 0 0.34 0 0 Z " fill="#FBFCFB" transform="translate(498,551)"/>
<path d="M0 0 C1.65 0 3.3 0 5 0 C5 0.33 5 0.66 5 1 C3.35 1 1.7 1 0 1 C0 0.67 0 0.34 0 0 Z " fill="#FBFDFB" transform="translate(432,551)"/>
<path d="M0 0 C0.33 0 0.66 0 1 0 C1 1.65 1 3.3 1 5 C0.67 5 0.34 5 0 5 C0 3.35 0 1.7 0 0 Z " fill="#FAFAFA" transform="translate(229,339)"/>
<path d="M0 0 C0.99 0.99 1.98 1.98 3 3 C2.01 2.67 1.02 2.34 0 2 C0 1.34 0 0.68 0 0 Z " fill="#FDFCFD" transform="translate(465,208)"/>
<path d="M0 0 C0.99 0 1.98 0 3 0 C2.67 0.66 2.34 1.32 2 2 C1.34 1.34 0.68 0.68 0 0 Z " fill="#F8F9FA" transform="translate(360,883)"/>
<path d="M0 0 C4 1 4 1 4 1 Z " fill="#F5F6F5" transform="translate(724,863)"/>
<path d="M0 0 C1 4 1 4 1 4 Z " fill="#FBFCFC" transform="translate(258,658)"/>
<path d="M0 0 C4 1 4 1 4 1 Z " fill="#FBFAFC" transform="translate(603,551)"/>
<path d="M0 0 C1 4 1 4 1 4 Z " fill="#FBFBFA" transform="translate(245,516)"/>
<path d="M0 0 C1 4 1 4 1 4 Z " fill="#FBFCFC" transform="translate(241,475)"/>
<path d="M0 0 C4 1 4 1 4 1 Z " fill="#FEFEFD" transform="translate(580,473)"/>
<path d="M0 0 C4 1 4 1 4 1 Z " fill="#FEFFFE" transform="translate(564,473)"/>
<path d="M0 0 C1 4 1 4 1 4 Z " fill="#FAF9F9" transform="translate(791,380)"/>
<path d="M0 0 C3 1 3 1 3 1 Z " fill="#F9F9F9" transform="translate(418,901)"/>
<path d="M0 0 C3 1 3 1 3 1 Z " fill="#F8FAF9" transform="translate(368,885)"/>
<path d="M0 0 C0.99 0.495 0.99 0.495 2 1 C1.01 1.495 1.01 1.495 0 2 C0 1.34 0 0.68 0 0 Z " fill="#F9FAFA" transform="translate(676,878)"/>
<path d="M0 0 C3 1 3 1 3 1 Z " fill="#F9F9F9" transform="translate(683,876)"/>
<path d="M0 0 C0.33 0.66 0.66 1.32 1 2 C0.34 1.67 -0.32 1.34 -1 1 C-0.67 0.67 -0.34 0.34 0 0 Z " fill="#F7F8F9" transform="translate(275,834)"/>
<path d="" fill="#FAFCFC" transform="translate(0,0)"/>
<path d="" fill="#FBFBF9" transform="translate(0,0)"/>
<path d="" fill="#FBFBFD" transform="translate(0,0)"/>
<path d="" fill="#FBFBFC" transform="translate(0,0)"/>
<path d="M0 0 C3 1 3 1 3 1 Z " fill="#FEFEFE" transform="translate(480,731)"/>
<path d="" fill="#FCFCFD" transform="translate(0,0)"/>
<path d="" fill="#FCFCFD" transform="translate(0,0)"/>
<path d="" fill="#FCFEFE" transform="translate(0,0)"/>
<path d="" fill="#F9FAFA" transform="translate(0,0)"/>
<path d="" fill="#FFFEFE" transform="translate(0,0)"/>
<path d="" fill="#FCFCFD" transform="translate(0,0)"/>
<path d="" fill="#FEFFFF" transform="translate(0,0)"/>
<path d="" fill="#FCFCFB" transform="translate(0,0)"/>
<path d="M0 0 C3 1 3 1 3 1 Z " fill="#FEFDFE" transform="translate(596,620)"/>
<path d="M0 0 C3 1 3 1 3 1 Z " fill="#FDFEFE" transform="translate(564,620)"/>
<path d="M0 0 C3 1 3 1 3 1 Z " fill="#FEFEFE" transform="translate(508,620)"/>
<path d="M0 0 C3 1 3 1 3 1 Z " fill="#FEFEFF" transform="translate(468,620)"/>
<path d="" fill="#FDFEFE" transform="translate(0,0)"/>
<path d="M0 0 C3 1 3 1 3 1 Z " fill="#FDFEFC" transform="translate(515,551)"/>
<path d="M0 0 C3 1 3 1 3 1 Z " fill="#FBFCFC" transform="translate(467,551)"/>
<path d="" fill="#FEFEFE" transform="translate(0,0)"/>
<path d="" fill="#FCFCFD" transform="translate(0,0)"/>
<path d="" fill="#FCFBFD" transform="translate(0,0)"/>
<path d="" fill="#FDFEFD" transform="translate(0,0)"/>
<path d="" fill="#FBFBFB" transform="translate(0,0)"/>
<path d="" fill="#FCFCFD" transform="translate(0,0)"/>
<path d="" fill="#FDFEFE" transform="translate(0,0)"/>
<path d="" fill="#FAFAFB" transform="translate(0,0)"/>
<path d="" fill="#FBFCFB" transform="translate(0,0)"/>
<path d="" fill="#F8F8F9" transform="translate(0,0)"/>
<path d="" fill="#FBFAFB" transform="translate(0,0)"/>
<path d="M0 0 C0.66 0 1.32 0 2 0 C1.67 0.66 1.34 1.32 1 2 C0.67 1.34 0.34 0.68 0 0 Z " fill="#FEFDFD" transform="translate(353,259)"/>
<path d="M0 0 C0.66 0.66 1.32 1.32 2 2 C1.34 2 0.68 2 0 2 C0 1.34 0 0.68 0 0 Z " fill="#FFFEFD" transform="translate(477,218)"/>
<path d="M0 0 C2 1 2 1 2 1 Z " fill="#F7F8F7" transform="translate(500,927)"/>
<path d="M0 0 C2 1 2 1 2 1 Z " fill="#F7F9F9" transform="translate(529,925)"/>
<path d="M0 0 C2 1 2 1 2 1 Z " fill="#F9F8F9" transform="translate(548,919)"/>
<path d="M0 0 C2 1 2 1 2 1 Z " fill="#F9F9F8" transform="translate(475,919)"/>
<path d="M0 0 C2 1 2 1 2 1 Z " fill="#FAFAF9" transform="translate(572,911)"/>
<path d="M0 0 C2 1 2 1 2 1 Z " fill="#F8F9F8" transform="translate(451,911)"/>
<path d="M0 0 C2 1 2 1 2 1 Z " fill="#FAFAFA" transform="translate(613,898)"/>
<path d="M0 0 C2 1 2 1 2 1 Z " fill="#F9F9F9" transform="translate(400,895)"/>
<path d="M0 0 C2 1 2 1 2 1 Z " fill="#F8F9F8" transform="translate(652,886)"/>
<path d="M0 0 C2 1 2 1 2 1 Z " fill="#F9FAFB" transform="translate(371,886)"/>
<path d="M0 0 C2 1 2 1 2 1 Z " fill="#F8F8F9" transform="translate(661,884)"/>
<path d="M0 0 C2 1 2 1 2 1 Z " fill="#F8F7F8" transform="translate(681,877)"/>
<path d="M0 0 C2 1 2 1 2 1 Z " fill="#F8F9F9" transform="translate(336,875)"/>
<path d="" fill="#F3F6F6" transform="translate(0,0)"/>
<path d="" fill="#F6F8F8" transform="translate(0,0)"/>
<path d="" fill="#F8F8F9" transform="translate(0,0)"/>
<path d="" fill="#FAFAF9" transform="translate(0,0)"/>
<path d="M0 0 C2 1 2 1 2 1 Z " fill="#FDFEFD" transform="translate(510,811)"/>
<path d="" fill="#F9F9FA" transform="translate(0,0)"/>
<path d="M0 0 C2 1 2 1 2 1 Z " fill="#FEFFFF" transform="translate(514,810)"/>
<path d="M0 0 C2 1 2 1 2 1 Z " fill="#FDFCFD" transform="translate(502,809)"/>
<path d="M0 0 C2 1 2 1 2 1 Z " fill="#FEFDFD" transform="translate(521,808)"/>
<path d="" fill="#F9F9FB" transform="translate(0,0)"/>
<path d="" fill="#FCFBFD" transform="translate(0,0)"/>
<path d="" fill="#FAFAF9" transform="translate(0,0)"/>
<path d="M0 0 C2 1 2 1 2 1 Z " fill="#FDFDFE" transform="translate(608,781)"/>
<path d="M0 0 C2 1 2 1 2 1 Z " fill="#FBFDFC" transform="translate(403,777)"/>
<path d="" fill="#FAFBFC" transform="translate(0,0)"/>
<path d="M0 0 C2 1 2 1 2 1 Z " fill="#FDFEFE" transform="translate(643,770)"/>
<path d="M0 0 C2 1 2 1 2 1 Z " fill="#FEFEFD" transform="translate(649,768)"/>
<path d="M0 0 C2 1 2 1 2 1 Z " fill="#FDFEFE" transform="translate(659,765)"/>
<path d="" fill="#FEFFFE" transform="translate(0,0)"/>
<path d="M0 0 C2 1 2 1 2 1 Z " fill="#FDFEFD" transform="translate(531,734)"/>
<path d="M0 0 C2 1 2 1 2 1 Z " fill="#FDFEFD" transform="translate(491,734)"/>
<path d="" fill="#FCFDFD" transform="translate(0,0)"/>
<path d="M0 0 C2 1 2 1 2 1 Z " fill="#FDFCFD" transform="translate(556,726)"/>
<path d="" fill="#FAF9FA" transform="translate(0,0)"/>
<path d="M0 0 C2 1 2 1 2 1 Z " fill="#FDFBFB" transform="translate(580,719)"/>
<path d="" fill="#FAFAFB" transform="translate(0,0)"/>
<path d="" fill="#FBFCFD" transform="translate(0,0)"/>
<path d="" fill="#FBF9FA" transform="translate(0,0)"/>
<path d="M0 0 C2 1 2 1 2 1 Z " fill="#FFFEFF" transform="translate(672,659)"/>
<path d="" fill="#FCFDFC" transform="translate(0,0)"/>
<path d="M0 0 C2 1 2 1 2 1 Z " fill="#FEFEFE" transform="translate(674,644)"/>
<path d="" fill="#FFFDFD" transform="translate(0,0)"/>
<path d="M0 0 C2 1 2 1 2 1 Z " fill="#FDFEFE" transform="translate(582,620)"/>
<path d="M0 0 C2 1 2 1 2 1 Z " fill="#FDFEFE" transform="translate(574,620)"/>
<path d="M0 0 C2 1 2 1 2 1 Z " fill="#FEFEFE" transform="translate(571,620)"/>
<path d="M0 0 C2 1 2 1 2 1 Z " fill="#FEFEFF" transform="translate(556,620)"/>
<path d="M0 0 C2 1 2 1 2 1 Z " fill="#FEFFFE" transform="translate(548,620)"/>
<path d="M0 0 C2 1 2 1 2 1 Z " fill="#FEFFFE" transform="translate(540,620)"/>
<path d="M0 0 C2 1 2 1 2 1 Z " fill="#FDFFFF" transform="translate(524,620)"/>
<path d="M0 0 C2 1 2 1 2 1 Z " fill="#FEFFFE" transform="translate(516,620)"/>
<path d="M0 0 C2 1 2 1 2 1 Z " fill="#FEFEFE" transform="translate(500,620)"/>
<path d="M0 0 C2 1 2 1 2 1 Z " fill="#FEFFFE" transform="translate(484,620)"/>
<path d="M0 0 C2 1 2 1 2 1 Z " fill="#FEFFFF" transform="translate(476,620)"/>
<path d="M0 0 C2 1 2 1 2 1 Z " fill="#FEFFFE" transform="translate(463,620)"/>
<path d="M0 0 C2 1 2 1 2 1 Z " fill="#FEFFFF" transform="translate(452,620)"/>
<path d="M0 0 C2 1 2 1 2 1 Z " fill="#FEFFFE" transform="translate(444,620)"/>
<path d="" fill="#FAFBFB" transform="translate(0,0)"/>
<path d="" fill="#FEFEFF" transform="translate(0,0)"/>
<path d="" fill="#FCFCFE" transform="translate(0,0)"/>
<path d="" fill="#FCFCFD" transform="translate(0,0)"/>
<path d="" fill="#FBFBFD" transform="translate(0,0)"/>
<path d="M0 0 C2 1 2 1 2 1 Z " fill="#FCFBFC" transform="translate(592,551)"/>
<path d="M0 0 C2 1 2 1 2 1 Z " fill="#FBFBFB" transform="translate(589,551)"/>
<path d="M0 0 C2 1 2 1 2 1 Z " fill="#FDFCFB" transform="translate(504,551)"/>
<path d="M0 0 C2 1 2 1 2 1 Z " fill="#FCFBFB" transform="translate(492,551)"/>
<path d="M0 0 C2 1 2 1 2 1 Z " fill="#FCFEFC" transform="translate(471,551)"/>
<path d="" fill="#FBFBFB" transform="translate(0,0)"/>
<path d="" fill="#FEFFFF" transform="translate(0,0)"/>
<path d="" fill="#FCFCFD" transform="translate(0,0)"/>
<path d="" fill="#FAFCFB" transform="translate(0,0)"/>
<path d="" fill="#FCFBFC" transform="translate(0,0)"/>
<path d="" fill="#FBFAFB" transform="translate(0,0)"/>
<path d="" fill="#FCFEFD" transform="translate(0,0)"/>
<path d="" fill="#FCFCFC" transform="translate(0,0)"/>
<path d="" fill="#FEFDFD" transform="translate(0,0)"/>
<path d="M0 0 C2 1 2 1 2 1 Z " fill="#FEFFFD" transform="translate(599,473)"/>
<path d="M0 0 C2 1 2 1 2 1 Z " fill="#FFFDFD" transform="translate(590,473)"/>
<path d="M0 0 C2 1 2 1 2 1 Z " fill="#FDFEFD" transform="translate(550,473)"/>
<path d="M0 0 C2 1 2 1 2 1 Z " fill="#FFFFFD" transform="translate(534,473)"/>
<path d="M0 0 C2 1 2 1 2 1 Z " fill="#FFFFFE" transform="translate(524,473)"/>
<path d="M0 0 C2 1 2 1 2 1 Z " fill="#FEFFFE" transform="translate(518,473)"/>
<path d="M0 0 C2 1 2 1 2 1 Z " fill="#FFFEFD" transform="translate(500,473)"/>
<path d="M0 0 C2 1 2 1 2 1 Z " fill="#FEFFFD" transform="translate(486,473)"/>
<path d="M0 0 C2 1 2 1 2 1 Z " fill="#FFFEFD" transform="translate(446,473)"/>
<path d="M0 0 C2 1 2 1 2 1 Z " fill="#FEFEFD" transform="translate(438,473)"/>
<path d="M0 0 C2 1 2 1 2 1 Z " fill="#FEFFFD" transform="translate(412,473)"/>
<path d="M0 0 C2 1 2 1 2 1 Z " fill="#FEFFFE" transform="translate(390,473)"/>
<path d="" fill="#FEFDFE" transform="translate(0,0)"/>
<path d="" fill="#FBFEFD" transform="translate(0,0)"/>
<path d="" fill="#F9FAFA" transform="translate(0,0)"/>
<path d="" fill="#FDFBFD" transform="translate(0,0)"/>
<path d="" fill="#F9FAF9" transform="translate(0,0)"/>
<path d="" fill="#F5F7F7" transform="translate(0,0)"/>
<path d="" fill="#F3F3F4" transform="translate(0,0)"/>
<path d="M0 0 C2 1 2 1 2 1 Z " fill="#FDFEFD" transform="translate(662,267)"/>
<path d="M0 0 C2 1 2 1 2 1 Z " fill="#FDFEFD" transform="translate(622,267)"/>
<path d="M0 0 C2 1 2 1 2 1 Z " fill="#FDFDFE" transform="translate(371,266)"/>
<path d="" fill="#FCFCFC" transform="translate(0,0)"/>
<path d="" fill="#F9F9FA" transform="translate(0,0)"/>
<path d="M0 0 C2 1 2 1 2 1 Z " fill="#FEFEFE" transform="translate(501,231)"/>
<path d="M0 0 C2 1 2 1 2 1 Z " fill="#FEFFFE" transform="translate(624,230)"/>
<path d="" fill="#FFFFFF" transform="translate(0,0)"/>
<path d="" fill="#FFFFFF" transform="translate(0,0)"/>
<path d="M0 0 C2 1 2 1 2 1 Z " fill="#FEFEFE" transform="translate(490,226)"/>
<path d="" fill="#FEFFFE" transform="translate(0,0)"/>
<path d="M0 0 C2 1 2 1 2 1 Z " fill="#FDFDFE" transform="translate(464,213)"/>
<path d="" fill="#FCFCFC" transform="translate(0,0)"/>
<path d="" fill="#FEFEFD" transform="translate(0,0)"/>
<path d="M0 0 C2 1 2 1 2 1 Z " fill="#FEFEFC" transform="translate(380,197)"/>
<path d="" fill="#FCFCFD" transform="translate(0,0)"/>
<path d="" fill="#FBFAFB" transform="translate(0,0)"/>
<path d="" fill="#F9F7F9" transform="translate(0,0)"/>
<path d="" fill="#F5F6F6" transform="translate(0,0)"/>
<path d="" fill="#F7FAF9" transform="translate(0,0)"/>
<path d="" fill="#F6F8F9" transform="translate(0,0)"/>
<path d="" fill="#FAF9F9" transform="translate(0,0)"/>
<path d="" fill="#FAFAFB" transform="translate(0,0)"/>
<path d="" fill="#F8F9F9" transform="translate(0,0)"/>
<path d="" fill="#F7F9F9" transform="translate(0,0)"/>
<path d="" fill="#F7F8F8" transform="translate(0,0)"/>
<path d="" fill="#F9F9FA" transform="translate(0,0)"/>
<path d="" fill="#F7F8F8" transform="translate(0,0)"/>
<path d="" fill="#F9FAFA" transform="translate(0,0)"/>
<path d="" fill="#F8F8FA" transform="translate(0,0)"/>
<path d="" fill="#F8FAFB" transform="translate(0,0)"/>
<path d="" fill="#F9FBFA" transform="translate(0,0)"/>
<path d="" fill="#F9FBFA" transform="translate(0,0)"/>
<path d="" fill="#F7F8F8" transform="translate(0,0)"/>
<path d="" fill="#FAF9FA" transform="translate(0,0)"/>
<path d="" fill="#F8FAF9" transform="translate(0,0)"/>
<path d="" fill="#FAFBF9" transform="translate(0,0)"/>
<path d="" fill="#FAF8F9" transform="translate(0,0)"/>
<path d="" fill="#F8F8F9" transform="translate(0,0)"/>
<path d="" fill="#F7F7F8" transform="translate(0,0)"/>
<path d="" fill="#FAFAF9" transform="translate(0,0)"/>
<path d="" fill="#FAFBFA" transform="translate(0,0)"/>
<path d="" fill="#F9FBFA" transform="translate(0,0)"/>
<path d="" fill="#F9F9FA" transform="translate(0,0)"/>
<path d="" fill="#FAF9FB" transform="translate(0,0)"/>
<path d="" fill="#F6F9F9" transform="translate(0,0)"/>
<path d="" fill="#F8F9F9" transform="translate(0,0)"/>
<path d="" fill="#F7FAFA" transform="translate(0,0)"/>
<path d="" fill="#FAFAFC" transform="translate(0,0)"/>
<path d="" fill="#F6F8F6" transform="translate(0,0)"/>
<path d="" fill="#F8F9F8" transform="translate(0,0)"/>
<path d="" fill="#F8F9FA" transform="translate(0,0)"/>
<path d="" fill="#F9FAFB" transform="translate(0,0)"/>
<path d="" fill="#F7F8F7" transform="translate(0,0)"/>
<path d="" fill="#F7F8F7" transform="translate(0,0)"/>
<path d="" fill="#F8F8F7" transform="translate(0,0)"/>
<path d="" fill="#F5F9F5" transform="translate(0,0)"/>
<path d="" fill="#F7F7F9" transform="translate(0,0)"/>
<path d="" fill="#F8F8F9" transform="translate(0,0)"/>
<path d="" fill="#F4F4F4" transform="translate(0,0)"/>
<path d="" fill="#F6F7F7" transform="translate(0,0)"/>
<path d="" fill="#F7F9F9" transform="translate(0,0)"/>
<path d="" fill="#F6F5F6" transform="translate(0,0)"/>
<path d="" fill="#F1F0F2" transform="translate(0,0)"/>
<path d="" fill="#F6F6F7" transform="translate(0,0)"/>
<path d="" fill="#F6F7F6" transform="translate(0,0)"/>
<path d="" fill="#F7F9F9" transform="translate(0,0)"/>
<path d="" fill="#F9F9FC" transform="translate(0,0)"/>
<path d="" fill="#FFFFFE" transform="translate(0,0)"/>
<path d="" fill="#FDFEFC" transform="translate(0,0)"/>
<path d="" fill="#FEFEFD" transform="translate(0,0)"/>
<path d="" fill="#F9F8F9" transform="translate(0,0)"/>
<path d="" fill="#FEFFFE" transform="translate(0,0)"/>
<path d="" fill="#FEFFFF" transform="translate(0,0)"/>
<path d="" fill="#FDFEFD" transform="translate(0,0)"/>
<path d="" fill="#FFFFFF" transform="translate(0,0)"/>
<path d="" fill="#FEFDFE" transform="translate(0,0)"/>
<path d="" fill="#FDFEFE" transform="translate(0,0)"/>
<path d="" fill="#FAFAFA" transform="translate(0,0)"/>
<path d="" fill="#F9FAFB" transform="translate(0,0)"/>
<path d="" fill="#FDFDFE" transform="translate(0,0)"/>
<path d="" fill="#FEFFFE" transform="translate(0,0)"/>
<path d="" fill="#FEFEFE" transform="translate(0,0)"/>
<path d="" fill="#FDFEFD" transform="translate(0,0)"/>
<path d="" fill="#FEFEFF" transform="translate(0,0)"/>
<path d="" fill="#FEFDFF" transform="translate(0,0)"/>
<path d="" fill="#FFFFFE" transform="translate(0,0)"/>
<path d="" fill="#FFFFFE" transform="translate(0,0)"/>
<path d="" fill="#FEFFFF" transform="translate(0,0)"/>
<path d="" fill="#FEFEFF" transform="translate(0,0)"/>
<path d="" fill="#F9F9F8" transform="translate(0,0)"/>
<path d="" fill="#FEFDFE" transform="translate(0,0)"/>
<path d="" fill="#FFFEFF" transform="translate(0,0)"/>
<path d="" fill="#FBFBFC" transform="translate(0,0)"/>
<path d="" fill="#FBFCFB" transform="translate(0,0)"/>
<path d="" fill="#FBFDFD" transform="translate(0,0)"/>
<path d="" fill="#FBFAFA" transform="translate(0,0)"/>
<path d="" fill="#FBFCFB" transform="translate(0,0)"/>
<path d="" fill="#FBFCFB" transform="translate(0,0)"/>
<path d="" fill="#FCFDFD" transform="translate(0,0)"/>
<path d="" fill="#FBFBFB" transform="translate(0,0)"/>
<path d="" fill="#FDFBFE" transform="translate(0,0)"/>
<path d="" fill="#FDFDFD" transform="translate(0,0)"/>
<path d="" fill="#FEFEFF" transform="translate(0,0)"/>
<path d="" fill="#FAF9FA" transform="translate(0,0)"/>
<path d="" fill="#FFFFFE" transform="translate(0,0)"/>
<path d="" fill="#FDFAFB" transform="translate(0,0)"/>
<path d="" fill="#FBFCFD" transform="translate(0,0)"/>
<path d="" fill="#FDFDFD" transform="translate(0,0)"/>
<path d="" fill="#FBFBFA" transform="translate(0,0)"/>
<path d="" fill="#FEFEFF" transform="translate(0,0)"/>
<path d="" fill="#FFFDFE" transform="translate(0,0)"/>
<path d="" fill="#FBFCFB" transform="translate(0,0)"/>
<path d="" fill="#FBFDFC" transform="translate(0,0)"/>
<path d="" fill="#FCFEFC" transform="translate(0,0)"/>
<path d="" fill="#FDFEFF" transform="translate(0,0)"/>
<path d="" fill="#FFFFFF" transform="translate(0,0)"/>
<path d="" fill="#FCFEFC" transform="translate(0,0)"/>
<path d="" fill="#FCFEFD" transform="translate(0,0)"/>
<path d="" fill="#FFFFFF" transform="translate(0,0)"/>
<path d="" fill="#FDFDFC" transform="translate(0,0)"/>
<path d="" fill="#FDFDFE" transform="translate(0,0)"/>
<path d="" fill="#FDFFFE" transform="translate(0,0)"/>
<path d="" fill="#FAFEFD" transform="translate(0,0)"/>
<path d="" fill="#FCFEFD" transform="translate(0,0)"/>
<path d="" fill="#FDFCFC" transform="translate(0,0)"/>
<path d="" fill="#FDFCFC" transform="translate(0,0)"/>
<path d="" fill="#FEFDFF" transform="translate(0,0)"/>
<path d="" fill="#FBFDFD" transform="translate(0,0)"/>
<path d="" fill="#FDFEFD" transform="translate(0,0)"/>
<path d="" fill="#FEFDFF" transform="translate(0,0)"/>
<path d="" fill="#FBF9FB" transform="translate(0,0)"/>
<path d="" fill="#FDFEFF" transform="translate(0,0)"/>
<path d="" fill="#FEFDFE" transform="translate(0,0)"/>
<path d="" fill="#FEFEFC" transform="translate(0,0)"/>
<path d="" fill="#FAFAFA" transform="translate(0,0)"/>
<path d="" fill="#FEFFFF" transform="translate(0,0)"/>
<path d="" fill="#FEFDFE" transform="translate(0,0)"/>
<path d="" fill="#FEFEFD" transform="translate(0,0)"/>
<path d="" fill="#FEFDFE" transform="translate(0,0)"/>
<path d="" fill="#FBFBFD" transform="translate(0,0)"/>
<path d="" fill="#FAFEFD" transform="translate(0,0)"/>
<path d="" fill="#FAF9FA" transform="translate(0,0)"/>
<path d="" fill="#FFFFFF" transform="translate(0,0)"/>
<path d="" fill="#FFFEFE" transform="translate(0,0)"/>
<path d="" fill="#FEFFFE" transform="translate(0,0)"/>
<path d="" fill="#FEFEFD" transform="translate(0,0)"/>
<path d="" fill="#FFFFFF" transform="translate(0,0)"/>
<path d="" fill="#F9F9F9" transform="translate(0,0)"/>
<path d="" fill="#FBFCFB" transform="translate(0,0)"/>
<path d="" fill="#FFFEFE" transform="translate(0,0)"/>
<path d="" fill="#FEFEFD" transform="translate(0,0)"/>
<path d="" fill="#FEFFFE" transform="translate(0,0)"/>
<path d="" fill="#F9F9FC" transform="translate(0,0)"/>
<path d="" fill="#FEFEFF" transform="translate(0,0)"/>
<path d="" fill="#FBFBFC" transform="translate(0,0)"/>
<path d="" fill="#FBFBFB" transform="translate(0,0)"/>
<path d="" fill="#FFFFFF" transform="translate(0,0)"/>
<path d="" fill="#FEFCFE" transform="translate(0,0)"/>
<path d="" fill="#FDFCFC" transform="translate(0,0)"/>
<path d="" fill="#FDFEFE" transform="translate(0,0)"/>
<path d="" fill="#FEFFFE" transform="translate(0,0)"/>
<path d="" fill="#FEFDFD" transform="translate(0,0)"/>
<path d="" fill="#FFFFFE" transform="translate(0,0)"/>
<path d="" fill="#FDFFFF" transform="translate(0,0)"/>
<path d="" fill="#FDFEFF" transform="translate(0,0)"/>
<path d="" fill="#FFFDFE" transform="translate(0,0)"/>
<path d="" fill="#FEFDFD" transform="translate(0,0)"/>
<path d="" fill="#FEFFFE" transform="translate(0,0)"/>
<path d="" fill="#FDFFFE" transform="translate(0,0)"/>
<path d="" fill="#FEFFFF" transform="translate(0,0)"/>
<path d="" fill="#FDFDFF" transform="translate(0,0)"/>
<path d="" fill="#FFFFFE" transform="translate(0,0)"/>
<path d="" fill="#FFFEFF" transform="translate(0,0)"/>
<path d="" fill="#FAFBFC" transform="translate(0,0)"/>
<path d="" fill="#FEFFFE" transform="translate(0,0)"/>
<path d="" fill="#FBFDFB" transform="translate(0,0)"/>
<path d="" fill="#FFFFFE" transform="translate(0,0)"/>
<path d="" fill="#FCFDFE" transform="translate(0,0)"/>
<path d="" fill="#FCFCFC" transform="translate(0,0)"/>
<path d="" fill="#FFFFFE" transform="translate(0,0)"/>
<path d="" fill="#FAFAFA" transform="translate(0,0)"/>
<path d="" fill="#FEFEFE" transform="translate(0,0)"/>
<path d="" fill="#FDFFFD" transform="translate(0,0)"/>
<path d="" fill="#FBFBFC" transform="translate(0,0)"/>
<path d="" fill="#FEFFFE" transform="translate(0,0)"/>
<path d="" fill="#FDFCFC" transform="translate(0,0)"/>
<path d="" fill="#FCFDFB" transform="translate(0,0)"/>
<path d="" fill="#FCFDFB" transform="translate(0,0)"/>
<path d="" fill="#FCFDFB" transform="translate(0,0)"/>
<path d="" fill="#FDFDFC" transform="translate(0,0)"/>
<path d="" fill="#FCFEFC" transform="translate(0,0)"/>
<path d="" fill="#FCFCFC" transform="translate(0,0)"/>
<path d="" fill="#FDFFFC" transform="translate(0,0)"/>
<path d="" fill="#FCFEFB" transform="translate(0,0)"/>
<path d="" fill="#FDFDFD" transform="translate(0,0)"/>
<path d="" fill="#FDFCFC" transform="translate(0,0)"/>
<path d="" fill="#FBFCFB" transform="translate(0,0)"/>
<path d="" fill="#FDFDFD" transform="translate(0,0)"/>
<path d="" fill="#FCFDFA" transform="translate(0,0)"/>
<path d="" fill="#FBFEFC" transform="translate(0,0)"/>
<path d="" fill="#FDFDFC" transform="translate(0,0)"/>
<path d="" fill="#FDFBFC" transform="translate(0,0)"/>
<path d="" fill="#FDFDFE" transform="translate(0,0)"/>
<path d="" fill="#FBFCFB" transform="translate(0,0)"/>
<path d="" fill="#FDFDFB" transform="translate(0,0)"/>
<path d="" fill="#FDFCFC" transform="translate(0,0)"/>
<path d="" fill="#FCFCFC" transform="translate(0,0)"/>
<path d="" fill="#FDFDFC" transform="translate(0,0)"/>
<path d="" fill="#FFFDFF" transform="translate(0,0)"/>
<path d="" fill="#FFFBFE" transform="translate(0,0)"/>
<path d="" fill="#FFFFFF" transform="translate(0,0)"/>
<path d="" fill="#FDFAFC" transform="translate(0,0)"/>
<path d="" fill="#FDFDFD" transform="translate(0,0)"/>
<path d="" fill="#FEFFFF" transform="translate(0,0)"/>
<path d="" fill="#FFFFFE" transform="translate(0,0)"/>
<path d="" fill="#FEFEFE" transform="translate(0,0)"/>
<path d="" fill="#FFFFFD" transform="translate(0,0)"/>
<path d="" fill="#FEFEFE" transform="translate(0,0)"/>
<path d="" fill="#FEFEFE" transform="translate(0,0)"/>
<path d="" fill="#FFFFFF" transform="translate(0,0)"/>
<path d="" fill="#FDFFFE" transform="translate(0,0)"/>
<path d="" fill="#FDFFFD" transform="translate(0,0)"/>
<path d="" fill="#FEFFFD" transform="translate(0,0)"/>
<path d="" fill="#FDFEFD" transform="translate(0,0)"/>
<path d="" fill="#FEFFFC" transform="translate(0,0)"/>
<path d="" fill="#FFFEFE" transform="translate(0,0)"/>
<path d="" fill="#FFFFFE" transform="translate(0,0)"/>
<path d="" fill="#FEFFFD" transform="translate(0,0)"/>
<path d="" fill="#FEFFFE" transform="translate(0,0)"/>
<path d="" fill="#FFFFFF" transform="translate(0,0)"/>
<path d="" fill="#FEFEFD" transform="translate(0,0)"/>
<path d="" fill="#FEFFFB" transform="translate(0,0)"/>
<path d="" fill="#FDFEFD" transform="translate(0,0)"/>
<path d="" fill="#FEFFFE" transform="translate(0,0)"/>
<path d="" fill="#FFFFFF" transform="translate(0,0)"/>
<path d="" fill="#FEFFFE" transform="translate(0,0)"/>
<path d="" fill="#FFFFFC" transform="translate(0,0)"/>
<path d="" fill="#FFFFFE" transform="translate(0,0)"/>
<path d="" fill="#FCFBFA" transform="translate(0,0)"/>
<path d="" fill="#FDFEFD" transform="translate(0,0)"/>
<path d="" fill="#FEFDFF" transform="translate(0,0)"/>
<path d="" fill="#FAFAFB" transform="translate(0,0)"/>
<path d="" fill="#FDFEFF" transform="translate(0,0)"/>
<path d="" fill="#FAFBFD" transform="translate(0,0)"/>
<path d="" fill="#FBFBFB" transform="translate(0,0)"/>
<path d="" fill="#FFFDFF" transform="translate(0,0)"/>
<path d="" fill="#FBF8FA" transform="translate(0,0)"/>
<path d="" fill="#FFFFFE" transform="translate(0,0)"/>
<path d="" fill="#FBFCFD" transform="translate(0,0)"/>
<path d="" fill="#FEFDFF" transform="translate(0,0)"/>
<path d="" fill="#FCFDFC" transform="translate(0,0)"/>
<path d="" fill="#FFFCFF" transform="translate(0,0)"/>
<path d="" fill="#FDFEFF" transform="translate(0,0)"/>
<path d="" fill="#F8F9F9" transform="translate(0,0)"/>
<path d="" fill="#FAFBFB" transform="translate(0,0)"/>
<path d="" fill="#F9FAFB" transform="translate(0,0)"/>
<path d="" fill="#FFFFFE" transform="translate(0,0)"/>
<path d="" fill="#FFFFFF" transform="translate(0,0)"/>
<path d="" fill="#FFFFFF" transform="translate(0,0)"/>
<path d="" fill="#FFFFFE" transform="translate(0,0)"/>
<path d="" fill="#FFFFFF" transform="translate(0,0)"/>
<path d="" fill="#FDFFFF" transform="translate(0,0)"/>
<path d="" fill="#FFFFFE" transform="translate(0,0)"/>
<path d="" fill="#FDFFFF" transform="translate(0,0)"/>
<path d="" fill="#FFFFFE" transform="translate(0,0)"/>
<path d="" fill="#FAFCFD" transform="translate(0,0)"/>
<path d="" fill="#F9F9FA" transform="translate(0,0)"/>
<path d="" fill="#FDFDFC" transform="translate(0,0)"/>
<path d="" fill="#F9FAF9" transform="translate(0,0)"/>
<path d="" fill="#FBFCFB" transform="translate(0,0)"/>
<path d="" fill="#F8FAFA" transform="translate(0,0)"/>
<path d="" fill="#FBFAF9" transform="translate(0,0)"/>
<path d="" fill="#FBFBFA" transform="translate(0,0)"/>
<path d="" fill="#F4F8F9" transform="translate(0,0)"/>
<path d="" fill="#F6F7F7" transform="translate(0,0)"/>
<path d="" fill="#F7FAFC" transform="translate(0,0)"/>
<path d="" fill="#F8FAF9" transform="translate(0,0)"/>
<path d="" fill="#F9FAF9" transform="translate(0,0)"/>
<path d="" fill="#F4F6F6" transform="translate(0,0)"/>
<path d="" fill="#F4F5F5" transform="translate(0,0)"/>
<path d="" fill="#F4F3F5" transform="translate(0,0)"/>
<path d="" fill="#EFF0F1" transform="translate(0,0)"/>
<path d="" fill="#F3F3F4" transform="translate(0,0)"/>
<path d="" fill="#FEFEFE" transform="translate(0,0)"/>
<path d="" fill="#FFFFFF" transform="translate(0,0)"/>
<path d="" fill="#FFFFFE" transform="translate(0,0)"/>
<path d="" fill="#FFFFFF" transform="translate(0,0)"/>
<path d="" fill="#FFFFFF" transform="translate(0,0)"/>
<path d="" fill="#FFFFFE" transform="translate(0,0)"/>
<path d="" fill="#FFFFFF" transform="translate(0,0)"/>
<path d="" fill="#FFFFFF" transform="translate(0,0)"/>
<path d="" fill="#FFFFFF" transform="translate(0,0)"/>
<path d="" fill="#FFFFFF" transform="translate(0,0)"/>
<path d="" fill="#FFFFFF" transform="translate(0,0)"/>
<path d="" fill="#FFFFFE" transform="translate(0,0)"/>
<path d="" fill="#FEFFFF" transform="translate(0,0)"/>
<path d="" fill="#FDFFFF" transform="translate(0,0)"/>
<path d="" fill="#FCFEFD" transform="translate(0,0)"/>
<path d="" fill="#FEFDFC" transform="translate(0,0)"/>
<path d="" fill="#FDFEFC" transform="translate(0,0)"/>
<path d="" fill="#FEFFFE" transform="translate(0,0)"/>
<path d="" fill="#FDFDFD" transform="translate(0,0)"/>
<path d="" fill="#FDFEFE" transform="translate(0,0)"/>
<path d="" fill="#FDFEFC" transform="translate(0,0)"/>
<path d="" fill="#FCFDFE" transform="translate(0,0)"/>
<path d="" fill="#FDFFFD" transform="translate(0,0)"/>
<path d="" fill="#FEFFFD" transform="translate(0,0)"/>
<path d="" fill="#FEFDFD" transform="translate(0,0)"/>
<path d="" fill="#FDFEFD" transform="translate(0,0)"/>
<path d="" fill="#FEFEFD" transform="translate(0,0)"/>
<path d="" fill="#FEFFFD" transform="translate(0,0)"/>
<path d="" fill="#FEFEFD" transform="translate(0,0)"/>
<path d="" fill="#FFFEFC" transform="translate(0,0)"/>
<path d="" fill="#FEFFFD" transform="translate(0,0)"/>
<path d="" fill="#FDFFFE" transform="translate(0,0)"/>
<path d="" fill="#FCFCFB" transform="translate(0,0)"/>
<path d="" fill="#FEFFFD" transform="translate(0,0)"/>
<path d="" fill="#FDFFFE" transform="translate(0,0)"/>
<path d="" fill="#FEFEFD" transform="translate(0,0)"/>
<path d="" fill="#FDFEFD" transform="translate(0,0)"/>
<path d="" fill="#FEFFFD" transform="translate(0,0)"/>
<path d="" fill="#FDFCFB" transform="translate(0,0)"/>
<path d="" fill="#FEFFFE" transform="translate(0,0)"/>
<path d="" fill="#FBFCFB" transform="translate(0,0)"/>
<path d="" fill="#FCFDFD" transform="translate(0,0)"/>
<path d="" fill="#FBFCFC" transform="translate(0,0)"/>
<path d="" fill="#FDFBFE" transform="translate(0,0)"/>
<path d="" fill="#FDFEFF" transform="translate(0,0)"/>
<path d="" fill="#FCFCFD" transform="translate(0,0)"/>
<path d="" fill="#FDFEFC" transform="translate(0,0)"/>
<path d="" fill="#FCFEFE" transform="translate(0,0)"/>
<path d="" fill="#FCFDFC" transform="translate(0,0)"/>
<path d="" fill="#FAFBFD" transform="translate(0,0)"/>
<path d="" fill="#FEFDFE" transform="translate(0,0)"/>
<path d="" fill="#FAFCFB" transform="translate(0,0)"/>
<path d="" fill="#FCFDFE" transform="translate(0,0)"/>
<path d="" fill="#FCFDFC" transform="translate(0,0)"/>
<path d="" fill="#F8F9FA" transform="translate(0,0)"/>
<path d="" fill="#FFFEFF" transform="translate(0,0)"/>
<path d="" fill="#FFFFFD" transform="translate(0,0)"/>
<path d="" fill="#FDFDFE" transform="translate(0,0)"/>
<path d="" fill="#FFFFFF" transform="translate(0,0)"/>
<path d="" fill="#FFFFFF" transform="translate(0,0)"/>
<path d="" fill="#FDFDFE" transform="translate(0,0)"/>
<path d="" fill="#F6F8F8" transform="translate(0,0)"/>
<path d="" fill="#F8F7F6" transform="translate(0,0)"/>
<path d="" fill="#FCFDFF" transform="translate(0,0)"/>
<path d="" fill="#FCFCFE" transform="translate(0,0)"/>
<path d="" fill="#FFFDFD" transform="translate(0,0)"/>
<path d="" fill="#FFFDFD" transform="translate(0,0)"/>
<path d="" fill="#FFFDFE" transform="translate(0,0)"/>
<path d="" fill="#F8F9F8" transform="translate(0,0)"/>
<path d="" fill="#FAF9FB" transform="translate(0,0)"/>
<path d="" fill="#F8F8FA" transform="translate(0,0)"/>
<path d="" fill="#FAFBFC" transform="translate(0,0)"/>
<path d="" fill="#FEFDFE" transform="translate(0,0)"/>
<path d="" fill="#FEFFFF" transform="translate(0,0)"/>
<path d="" fill="#FCFEFE" transform="translate(0,0)"/>
<path d="" fill="#FDFEFC" transform="translate(0,0)"/>
<path d="" fill="#FDFDFD" transform="translate(0,0)"/>
<path d="" fill="#FCFBFC" transform="translate(0,0)"/>
<path d="" fill="#FDFEFE" transform="translate(0,0)"/>
<path d="" fill="#FEFEFC" transform="translate(0,0)"/>
<path d="" fill="#FCFDFF" transform="translate(0,0)"/>
<path d="" fill="#FEFEFD" transform="translate(0,0)"/>
<path d="" fill="#FDFDFE" transform="translate(0,0)"/>
<path d="" fill="#FFFEFE" transform="translate(0,0)"/>
<path d="" fill="#FBFEFE" transform="translate(0,0)"/>
<path d="" fill="#FDFEFD" transform="translate(0,0)"/>
<path d="" fill="#FDFEFE" transform="translate(0,0)"/>
<path d="" fill="#FDFBFC" transform="translate(0,0)"/>
<path d="" fill="#FEFFFF" transform="translate(0,0)"/>
<path d="" fill="#FCFCFB" transform="translate(0,0)"/>
<path d="" fill="#FFFFFE" transform="translate(0,0)"/>
<path d="" fill="#FFFFFF" transform="translate(0,0)"/>
<path d="" fill="#FCFCFB" transform="translate(0,0)"/>
<path d="" fill="#FFFEFE" transform="translate(0,0)"/>
<path d="" fill="#FFFFFE" transform="translate(0,0)"/>
<path d="" fill="#FDFEFE" transform="translate(0,0)"/>
<path d="" fill="#FDFEFE" transform="translate(0,0)"/>
<path d="" fill="#F3F5F4" transform="translate(0,0)"/>
<path d="" fill="#FCFDFE" transform="translate(0,0)"/>
<path d="" fill="#F1F1F2" transform="translate(0,0)"/>
<path d="" fill="#FBFDF9" transform="translate(0,0)"/>
<path d="" fill="#FAFAFB" transform="translate(0,0)"/>
<path d="" fill="#FBFAF9" transform="translate(0,0)"/>
<path d="" fill="#F9F9FA" transform="translate(0,0)"/>
<path d="" fill="#F8F8FA" transform="translate(0,0)"/>
<path d="" fill="#F9F6F6" transform="translate(0,0)"/>
<path d="" fill="#F6F8F9" transform="translate(0,0)"/>
<path d="" fill="#EFF0F1" transform="translate(0,0)"/>
<path d="" fill="#F5F5F6" transform="translate(0,0)"/>
</svg>
