<?xml version="1.0" encoding="UTF-8"?>
<svg version="1.1" xmlns="http://www.w3.org/2000/svg" width="1024" height="1024">
<path d="M0 0 C0.93334893 -0.00224729 1.86669787 -0.00449459 2.8283301 -0.00680998 C4.37987283 -0.00286946 4.37987283 -0.00286946 5.96275985 0.00115067 C7.05913369 -0.00000318 8.15550753 -0.00115702 9.28510481 -0.00234583 C13.00265236 -0.00501772 16.72015762 -0.00048563 20.43770301 0.00394398 C23.11230089 0.00350839 25.78689594 0.00267608 28.46149325 0.00135481 C34.2990946 -0.00072361 40.13668579 0.00093281 45.97428596 0.00499302 C54.65466211 0.01101375 63.33503182 0.01133016 72.01540968 0.01045103 C86.61528379 0.00913529 101.21515337 0.01248553 115.81502616 0.01846844 C130.27678532 0.0243796 144.7385426 0.0282332 159.20030296 0.02932125 C160.09851819 0.02938999 160.99673343 0.02945873 161.9221673 0.02952956 C166.48349849 0.02986787 171.04482968 0.03016926 175.60616086 0.03045643 C207.93842709 0.03255846 240.27069086 0.03930033 272.6029557 0.04875904 C304.01897119 0.05793912 335.43498601 0.06502487 366.85100257 0.06926686 C367.81888775 0.06939838 368.78677293 0.06952991 369.78398796 0.06966542 C379.50363187 0.07098391 389.22327578 0.07225973 398.9429197 0.07350428 C418.74405763 0.07604069 438.54519552 0.07886194 458.34633338 0.08185536 C459.71205675 0.08206129 459.71205675 0.08206129 461.10537048 0.08227139 C521.93578403 0.09147655 582.7661962 0.10732227 643.59660804 0.1241985 C643.44857626 3.88526935 643.29699776 7.64618977 643.14485633 11.40709645 C643.10362931 12.45564745 643.06240228 13.50419846 643.01992595 14.58452374 C642.65531989 23.52949167 642.08309296 32.45218823 641.39040077 41.37743336 C641.07533918 45.46886619 640.76428369 49.56054011 640.45882118 53.65270191 C639.79915312 62.47743944 639.12978676 71.30143191 638.45695961 80.12517506 C638.04193495 85.57296793 637.63311919 91.02119852 637.22806633 96.4697414 C637.07342663 98.53202764 636.91632188 100.59413059 636.75668418 102.65603596 C636.53525327 105.51644014 636.32165151 108.37732968 636.10979164 111.23845631 C636.04231224 112.08404103 635.97483284 112.92962574 635.9053086 113.80083424 C635.63827924 117.5081235 635.64939705 120.5531817 636.59660804 124.1241985 C636.66404152 126.20654442 636.68175276 128.29088406 636.65910804 130.3741985 C636.65008461 131.45185475 636.64106117 132.529511 636.63176429 133.6398235 C636.61436195 134.86958912 636.61436195 134.86958912 636.59660804 136.1241985 C635.93660804 136.1241985 635.27660804 136.1241985 634.59660804 136.1241985 C631.74246174 172.18055477 628.98188221 208.24332208 626.28410804 244.3116985 C626.14109197 246.22311257 626.14109197 246.22311257 625.99518669 248.17314106 C624.8125998 263.97971867 623.63293959 279.786513 622.45580852 295.59349781 C621.89501001 303.12315158 621.33304902 310.65271718 620.76996028 318.18220001 C619.91893033 329.56202023 619.07133361 340.942084 618.23114955 352.32271057 C617.84788691 357.51383731 617.46308861 362.70483707 617.07399452 367.89553028 C616.71379361 372.70224401 616.358537 377.50929787 616.00709236 382.31665951 C615.87953892 384.05033644 615.75028248 385.78388917 615.61907661 387.51729351 C614.87115874 397.41409696 614.42164969 407.19239003 614.59660804 417.1241985 C614.26660804 417.1241985 613.93660804 417.1241985 613.59660804 417.1241985 C612.35947235 432.60247926 611.12467591 448.08094524 609.89234245 463.559609 C609.31952538 470.75382817 608.74605653 477.94799406 608.17082679 485.14202076 C607.50329928 493.49137709 606.8381169 501.8409182 606.17473304 510.19060475 C606.12007062 510.87808308 606.06540821 511.56556142 606.00908935 512.27387244 C604.17760842 535.31543556 602.45183221 558.36287881 600.839589 581.42096668 C600.76245422 582.509709 600.68531944 583.59845131 600.60584724 584.72018582 C600.46339289 586.73153469 600.32318706 588.74304471 600.18575752 590.75474316 C599.86462218 595.26619125 599.44752866 599.6738606 598.59660804 604.1241985 C595.05669773 605.27550087 591.51450121 606.41960958 587.97160804 607.5616985 C586.87397132 607.91643238 585.77633461 608.27116627 584.64543617 608.63664967 C578.21719937 610.69779966 571.77574694 612.67641295 565.29192054 614.553886 C564.60705574 614.75355473 563.92219093 614.95322346 563.21657264 615.15894276 C557.73752455 616.75631831 557.73752455 616.75631831 555.0694474 617.50722462 C553.16921105 618.04204076 551.27340836 618.59253516 549.37785804 619.14372975 C548.28537757 619.45415211 547.19289711 619.76457447 546.06731117 620.08440357 C545.25197914 620.4275359 544.43664711 620.77066822 543.59660804 621.1241985 C543.26660804 622.1141985 542.93660804 623.1041985 542.59660804 624.1241985 C540.93048899 624.1669195 539.26277919 624.16483682 537.59660804 624.1241985 C537.26660804 623.7941985 536.93660804 623.4641985 536.59660804 623.1241985 C535.44926185 623.47498463 534.30191566 623.82577076 533.1198014 624.18718678 C511.75779453 630.71551649 490.38662727 637.20922298 468.97160804 643.5616985 C445.03676959 650.66270813 421.14389362 657.9014968 397.25160301 665.14406639 C394.1064169 666.09747449 390.96118109 667.05071856 387.81593788 668.00393826 C386.27599053 668.47070494 384.73607335 668.93757114 383.1961869 669.40453869 C375.14776672 671.84506651 367.09724703 674.27801413 359.03850257 676.68425709 C358.35572651 676.88829372 357.67295045 677.09233034 356.96948421 677.3025499 C353.79287093 678.25164852 350.61571236 679.19877328 347.4374131 680.14221913 C340.9395221 682.0809202 334.49855984 684.12924396 328.08971107 686.34583241 C320.50105309 688.71507025 313.69740661 685.90261651 306.40910804 683.6241985 C304.27128784 682.96306962 302.13201502 682.30661492 299.99113929 681.6554485 C299.05117103 681.36218678 298.11120277 681.06892506 297.14275062 680.76677662 C294.38787156 679.96106469 294.38787156 679.96106469 290.59660804 680.1241985 C290.59660804 679.4641985 290.59660804 678.8041985 290.59660804 678.1241985 C289.69203361 677.96052281 289.69203361 677.96052281 288.76918495 677.79354054 C282.4870711 676.60431231 276.45308259 674.99206726 270.35442054 673.085136 C268.44556889 672.49919031 266.53671465 671.91325305 264.62785804 671.3273235 C261.65831949 670.40921483 258.68937728 669.48920308 255.72063148 668.56853443 C252.82911656 667.67365469 249.93562056 666.78541957 247.04192054 665.897636 C246.15336372 665.61955097 245.2648069 665.34146595 244.34932411 665.05495411 C243.52101081 664.80113972 242.69269752 664.54732533 241.83928382 664.28581959 C240.75201499 663.9484528 240.75201499 663.9484528 239.64278114 663.60427052 C237.29785507 662.97192055 237.29785507 662.97192055 233.59660804 663.1241985 C233.59660804 662.4641985 233.59660804 661.8041985 233.59660804 661.1241985 C232.33848304 660.8560735 231.08035804 660.5879485 229.78410804 660.3116985 C225.15862768 659.29438557 220.62297427 658.03520279 216.07707679 656.710136 C213.37258661 655.97093617 213.37258661 655.97093617 209.59660804 656.1241985 C209.59660804 655.4641985 209.59660804 654.8041985 209.59660804 654.1241985 C208.31785804 654.3098235 207.03910804 654.4954485 205.72160804 654.6866985 C201.84660804 655.2491985 201.84660804 655.2491985 199.59660804 654.1241985 C199.26660804 654.7841985 198.93660804 655.4441985 198.59660804 656.1241985 C198.26660804 655.1341985 197.93660804 654.1441985 197.59660804 653.1241985 C197.92660804 652.4641985 198.25660804 651.8041985 198.59660804 651.1241985 C196.05372068 650.60738865 193.51166633 650.10924574 190.95598304 649.65935475 C190.09488929 649.50337818 189.23379554 649.34740162 188.34660804 649.1866985 C187.47520179 649.03330006 186.60379554 648.87990162 185.70598304 648.72185475 C185.00988929 648.52462818 184.31379554 648.32740162 183.59660804 648.1241985 C183.26660804 647.4641985 182.93660804 646.8041985 182.59660804 646.1241985 C180.49623075 645.61985258 178.39208923 645.1278609 176.2748307 644.69988209 C173.49206158 644.10172625 170.7815911 643.36592841 168.04582679 642.58122975 C167.10029945 642.31246022 166.15477211 642.04369068 165.18059242 641.76677662 C163.22844224 641.20732697 161.2779405 640.6420969 159.32902992 640.07146412 C157.92040687 639.67411061 157.92040687 639.67411061 156.48332679 639.26872975 C155.63987709 639.02485523 154.79642738 638.78098072 153.92741859 638.52971607 C150.63379598 637.95668715 148.53841321 638.65329591 145.59660804 640.1241985 C145.59660804 639.4641985 145.59660804 638.8041985 145.59660804 638.1241985 C144.60660804 637.7941985 143.61660804 637.4641985 142.59660804 637.1241985 C142.59660804 636.1341985 142.59660804 635.1441985 142.59660804 634.1241985 C141.35137367 633.9385735 141.35137367 633.9385735 140.08098304 633.7491985 C136.27696433 633.0668633 132.57307647 632.13451803 128.84660804 631.1241985 C128.17500648 630.94630787 127.50340492 630.76841725 126.81145179 630.585136 C121.85824224 629.2550156 121.85824224 629.2550156 119.59660804 628.1241985 C119.26660804 628.7841985 118.93660804 629.4441985 118.59660804 630.1241985 C118.59660804 629.1341985 118.59660804 628.1441985 118.59660804 627.1241985 C117.58598304 627.00109303 116.57535804 626.87798756 115.53410804 626.75115162 C111.73103942 626.14560349 108.27044326 625.23497951 104.59660804 624.0929485 C103.63754554 623.79898182 103.63754554 623.79898182 102.65910804 623.49907643 C99.9561781 622.67041327 97.25705721 621.82963994 94.55754554 620.98992115 C92.57184874 620.37418264 90.5843013 619.76470553 88.59660804 619.1554485 C87.42098304 618.78999928 86.24535804 618.42455006 85.03410804 618.04802662 C81.55965841 617.11426828 78.16494781 616.55886233 74.59660804 616.1241985 C74.59660804 615.4641985 74.59660804 614.8041985 74.59660804 614.1241985 C73.57607337 613.99658131 72.55553871 613.86896412 71.50407875 613.73747975 C67.89130013 613.1704507 64.57610825 612.35825471 61.07707679 611.3116985 C59.89049476 610.95849537 58.70391273 610.60529225 57.48137367 610.241386 C56.26127601 609.87271412 55.04117836 609.50404225 53.78410804 609.1241985 C51.92495765 608.57119068 51.92495765 608.57119068 50.02824867 608.007011 C40.89563015 605.27370955 40.89563015 605.27370955 38.59660804 604.1241985 C37.15788185 600.27574693 37.18226672 596.00988908 36.87566078 591.94475514 C36.81017508 591.11243272 36.74468938 590.2801103 36.67721927 589.422566 C36.45818087 586.62674677 36.2441492 583.83056784 36.03020179 581.03435475 C35.87428786 579.02755066 35.71812314 577.02076604 35.56172645 575.01399952 C35.13676276 569.54746655 34.71650382 564.08058089 34.29728019 558.61360508 C34.03451932 555.19205399 33.77037681 551.77061241 33.50575721 548.3492046 C30.35378422 507.58776952 27.33425475 466.81673153 24.37730873 426.04071385 C24.0500406 421.52873107 23.72193732 417.01680915 23.39384544 412.50488621 C23.16990004 409.41832116 22.94753795 406.33164498 22.72530067 403.24495655 C22.58945261 401.37356293 22.45354124 399.5021739 22.31755531 397.63079029 C22.2588951 396.8091039 22.20023489 395.98741751 22.13979709 395.14083153 C21.83553211 390.97547653 21.49602806 386.8140165 21.11404884 382.65503651 C21.03934332 381.83589677 20.96463781 381.01675703 20.88766849 380.17279488 C20.69841197 378.06367957 20.69841197 378.06367957 19.59660804 376.1241985 C19.54539357 374.02749051 19.55180222 371.92925103 19.58659828 369.83220631 C19.63503544 362.78024935 19.28409562 355.825605 18.75676429 348.7960735 C18.67035179 347.59984364 18.58393928 346.40361378 18.49490821 345.17113453 C18.31325271 342.67370081 18.12911445 340.17644649 17.94255531 337.67937428 C17.65674349 333.8424552 17.38105534 330.00489754 17.10637367 326.16716725 C16.92793335 323.73092559 16.74891816 321.29472596 16.56926429 318.8585735 C16.48693046 317.70975697 16.40459663 316.56094044 16.31976783 315.37731129 C16.23976036 314.32150868 16.15975288 313.26570606 16.07732093 312.17790943 C16.00848197 311.24750843 15.93964302 310.31710743 15.86871803 309.35851246 C15.71932009 307.08978675 15.71932009 307.08978675 14.59660804 305.1241985 C14.56277775 303.69120544 14.58465383 302.25683052 14.62981117 300.82414967 C14.70916172 291.49809835 13.79316123 282.21519737 13.06535804 272.92497975 C12.90805122 270.87806665 12.75111543 268.83112501 12.59453285 266.78415638 C12.1839402 261.42954206 11.7683486 256.07532737 11.35167396 250.72118336 C10.92636114 245.24442843 10.50583355 239.76730625 10.08488929 234.29021412 C9.26011474 223.56784651 8.43005255 212.84589544 7.59660804 202.1241985 C7.26660804 202.1241985 6.93660804 202.1241985 6.59660804 202.1241985 C6.61192573 201.12981266 6.62724342 200.13542683 6.64302528 199.11090809 C6.76268899 187.70221798 6.13364649 176.42988587 5.27629554 165.05779225 C5.13508708 163.12419043 4.9944107 161.1905497 4.85422218 159.25687367 C4.4782784 154.09271852 4.09473553 148.92915411 3.70969474 143.76567036 C3.30923115 138.37656598 2.91620458 132.98691874 2.52214515 127.59734303 C0.97345548 106.4571615 -0.6106526 85.31963581 -2.20417321 64.18279225 C-2.34543083 62.30744144 -2.48668656 60.43209049 -2.6279403 58.55673939 C-3.22570504 50.62534756 -3.82500441 42.69409038 -4.43333066 34.76350075 C-4.67899787 31.55610438 -4.92269266 28.34855996 -5.1660167 25.14098507 C-5.27814456 23.66971294 -5.39121141 22.19851201 -5.50531495 20.72739178 C-5.66049437 18.72621799 -5.81217588 16.72477388 -5.96369469 14.72331959 C-6.04917061 13.61024433 -6.13464653 12.49716908 -6.22271264 11.35036427 C-6.41397701 7.93519438 -6.43383025 4.54400187 -6.40339196 1.1241985 C-4.03993117 -0.0575319 -2.63604109 -0.00050869 0 0 Z M411.59660804 125.1241985 C410.75106361 125.28291432 409.90551918 125.44163014 409.03435218 125.60515553 C385.06288054 130.70914639 361.78793175 144.79712336 347.92961586 165.2269817 C340.43815213 176.81703609 335.67942597 188.71789284 332.59660804 202.1241985 C332.41098304 202.91697193 332.22535804 203.70974537 332.03410804 204.52654225 C327.49675361 231.46708419 332.57833083 259.69910668 347.69817054 282.51091725 C350.99930825 287.05507594 354.66224949 291.12200618 358.59660804 295.1241985 C359.48090492 296.03298756 360.36520179 296.94177662 361.27629554 297.87810475 C374.87898683 311.37041508 392.0320312 317.62091355 409.63878334 324.3710857 C413.26565318 325.76622699 416.88583432 327.17857301 420.50676429 328.58904225 C422.06624381 329.19616279 423.62573281 329.80325897 425.18523109 330.41033131 C425.96425788 330.71362355 426.74328468 331.01691578 427.54591835 331.32939869 C431.42435125 332.83896089 435.30343787 334.34684004 439.18254554 335.85466725 C439.91891746 336.14105061 440.65528938 336.42743397 441.4139756 336.72249562 C444.58966464 337.95725297 447.76619429 339.18960468 450.94524086 340.4157024 C483.90204066 353.12886181 483.90204066 353.12886181 490.59660804 366.1241985 C491.25660804 365.7941985 491.91660804 365.4641985 492.59660804 365.1241985 C492.41098304 365.6810735 492.22535804 366.2379485 492.03410804 366.8116985 C491.51430533 369.55922711 492.03816538 371.39181832 492.59660804 374.1241985 C493.67789307 385.50428025 490.45074287 394.17574469 483.59660804 403.1241985 C483.59660804 403.7841985 483.59660804 404.4441985 483.59660804 405.1241985 C482.89149086 405.3923235 482.18637367 405.6604485 481.45988929 405.9366985 C478.46698486 407.17795763 475.65320868 408.62008283 472.78410804 410.1241985 C454.70718171 419.19576959 431.13561975 417.50845489 412.10442054 411.9054485 C400.75105843 408.12641049 389.75039975 401.95379997 381.59660804 393.1241985 C381.26660804 392.4641985 380.93660804 391.8041985 380.59660804 391.1241985 C379.93660804 391.1241985 379.27660804 391.1241985 378.59660804 391.1241985 C378.33750648 390.40747975 378.07840492 389.690761 377.81145179 388.9523235 C376.53307805 385.9763023 375.00799045 383.53022741 373.15910804 380.8741985 C372.26385414 379.56708912 372.26385414 379.56708912 371.35051429 378.2335735 C369.69339687 375.86352566 369.69339687 375.86352566 366.59660804 375.1241985 C364.08726913 376.47444737 361.77914708 377.87107228 359.40910804 379.4366985 C357.95483054 380.37182699 356.50039929 381.30671642 355.04582679 382.241386 C354.30381019 382.72317311 353.56179359 383.20496022 352.79729164 383.70134693 C349.46150154 385.85810139 346.09263979 387.96062234 342.72160804 390.0616985 C342.07723793 390.46493336 341.43286781 390.86816822 340.76897132 391.28362232 C334.68935721 395.08319457 328.57196409 398.82038758 322.4467057 402.54582936 C321.72660316 402.98419117 321.00650062 403.42255299 320.26457679 403.8741985 C319.62802162 404.26091725 318.99146644 404.647636 318.33562171 405.0460735 C316.73467964 406.03859914 315.16389635 407.07933963 313.59660804 408.1241985 C315.37095778 424.41371482 330.62958261 439.31854817 342.59660804 449.1241985 C375.53099221 474.41680878 419.47536479 481.02861662 459.98259437 476.18108326 C484.89861058 472.70752916 506.69083008 464.59923046 526.59660804 449.1241985 C527.22953773 448.64595631 527.86246742 448.16771412 528.51457679 447.67497975 C536.12741804 441.59515916 541.98089324 433.63438705 546.59660804 425.1241985 C547.09100379 424.23414112 547.09100379 424.23414112 547.59538734 423.32610279 C560.12990106 400.5035683 563.61725252 373.38817551 556.78410804 348.09685475 C556.39527447 346.77056376 555.99978356 345.44620032 555.59660804 344.1241985 C555.24598304 342.96790943 554.89535804 341.81162037 554.53410804 340.62029225 C548.6249052 323.56977989 536.97353456 309.97181641 523.09660804 298.8116985 C522.49695228 298.3248357 521.89729652 297.83797291 521.27946937 297.3363567 C519.40636587 295.84599924 519.40636587 295.84599924 516.59660804 294.1241985 C515.60660804 294.4541985 514.61660804 294.7841985 513.59660804 295.1241985 C513.39938148 294.54283131 513.20215492 293.96146412 512.99895179 293.36247975 C510.98993843 290.15589297 508.47811814 289.0692568 505.15910804 287.3116985 C504.00539711 286.68650318 502.85168617 286.06130787 501.66301429 285.41716725 C498.63714841 283.74403228 498.63714841 283.74403228 495.59660804 285.1241985 C495.26660804 284.1341985 494.93660804 283.1441985 494.59660804 282.1241985 C492.70637705 280.95239195 492.70637705 280.95239195 490.28801429 280.022636 C489.33370521 279.62334889 488.37939613 279.22406178 487.39616859 278.81267506 C485.79382362 278.16250416 485.79382362 278.16250416 484.15910804 277.4991985 C483.04124916 277.03481373 481.92339027 276.57042897 480.77165687 276.09197193 C474.11517687 273.34024444 467.43299158 270.65342697 460.74670875 267.97505909 C457.95831314 266.85792963 455.17087116 265.73844367 452.38347328 264.6188274 C448.71252514 263.1446122 445.03713493 261.68231952 441.35857093 260.22722584 C406.95535969 246.52636175 406.95535969 246.52636175 399.49113929 231.30779225 C395.45679663 221.45976801 395.49658886 211.98598707 399.59660804 202.1241985 C402.86433452 195.72490081 406.97236284 191.62924094 412.83879554 187.53435475 C413.41887367 187.06900318 413.99895179 186.60365162 414.59660804 186.1241985 C414.59660804 185.4641985 414.59660804 184.8041985 414.59660804 184.1241985 C416.08160804 184.6191985 416.08160804 184.6191985 417.59660804 185.1241985 C419.27549826 184.48894274 420.94077579 183.81733758 422.59660804 183.1241985 C437.38583648 180.07554176 454.51794895 181.45128613 467.49895179 189.62810475 C468.19117836 190.12181568 468.88340492 190.61552662 469.59660804 191.1241985 C470.38164711 191.66947193 471.16668617 192.21474537 471.97551429 192.77654225 C480.73556546 199.69958737 485.43885515 209.41975178 490.59660804 219.1241985 C503.91807983 212.96865261 516.97775108 206.39770469 529.92912757 199.49724537 C531.74163216 198.56428493 533.57775269 197.67611935 535.43205726 196.82927662 C536.33069496 196.41613209 537.22933265 196.00298756 538.15520179 195.5773235 C538.96142982 195.22315357 539.76765785 194.86898365 540.59831703 194.50408131 C543.19702969 192.70958846 543.74431973 191.1221446 544.59660804 188.1241985 C543.60197584 175.45786185 530.62701188 160.30885539 521.67473304 151.8585735 C497.33336637 131.54359831 470.18346842 122.91126871 438.72160804 122.8116985 C437.41425697 122.80605885 436.10690589 122.8004192 434.75993812 122.79460865 C426.84591552 122.85393491 419.35071695 123.54976386 411.59660804 125.1241985 Z M202.59660804 124.1241985 C202.59660804 125.1141985 202.59660804 126.1041985 202.59660804 127.1241985 C202.59660804 184.34493996 202.59660804 184.34493996 202.58987892 188.91123158 C202.56969789 203.02585239 202.55456648 217.14046754 202.54479587 231.25509888 C202.53964176 238.50647462 202.53261235 245.75783949 202.52116859 253.00920826 C202.51118665 259.33744962 202.50474647 265.66568311 202.50251955 271.99393213 C202.50121886 275.3414735 202.4976444 278.68897447 202.49087799 282.03651196 C202.48361909 285.77563397 202.48261914 289.51470924 202.48308265 293.25383717 C202.47948738 294.35696751 202.4758921 295.46009785 202.47218788 296.59665638 C202.47928754 301.88962674 202.77189062 306.88406053 203.59660804 312.1241985 C203.61012442 313.85681097 203.57147076 315.5908489 203.47331703 317.3207317 C203.42457939 318.28585179 203.37584175 319.25097187 203.32562721 320.24533802 C203.26938682 321.27399479 203.21314643 322.30265156 203.15520179 323.36247975 C202.72376062 332.47149962 202.51770206 341.54805288 202.56926429 350.66716725 C202.57485359 351.78946736 202.58044288 352.91176747 202.58620155 354.06807667 C202.61327705 358.6445733 202.64864117 363.22092803 202.69255531 367.7972942 C203.01122711 403.53621135 203.01122711 403.53621135 196.59660804 410.1241985 C188.67973764 415.91105377 180.04829345 415.69211092 170.59660804 415.1241985 C158.97414453 413.11829109 150.99811879 408.20986298 142.59660804 400.1241985 C141.86957679 399.4641985 141.14254554 398.8041985 140.39348304 398.1241985 C138.43595508 395.94538476 138.22199362 394.90811089 137.59660804 392.1241985 C137.14616585 390.82038273 136.67535973 389.52345828 136.18645179 388.2335735 C135.91897132 387.52458912 135.65149086 386.81560475 135.37590492 386.085136 C135.09811195 385.35552662 134.82031898 384.62591725 134.53410804 383.8741985 C134.25244789 383.12912037 133.97078773 382.38404225 133.68059242 381.616386 C132.98791675 379.78490456 132.29252897 377.95444927 131.59660804 376.1241985 C128.2975885 376.1241985 127.41046139 376.61862659 124.66692054 378.29216725 C123.88212318 378.76678395 123.09732582 379.24140064 122.28874671 379.73039967 C121.44159095 380.25222828 120.59443519 380.77405689 119.72160804 381.3116985 C118.83900306 381.84835133 117.95639808 382.38500416 117.0470475 382.9379192 C109.72385289 387.40110681 102.43523092 391.92140406 95.1510514 396.44792897 C87.68072552 401.08769893 80.15559047 405.63060987 72.59660804 410.1241985 C73.66308177 421.94553407 81.87819004 432.47842897 89.59660804 441.1241985 C90.34555336 441.96724537 91.09449867 442.81029225 91.86613929 443.678886 C98.03374524 450.23508101 104.74019548 454.78865735 112.59660804 459.1241985 C113.56469398 459.66947193 114.53277992 460.21474537 115.53020179 460.77654225 C134.27469413 470.77190926 154.38752005 473.36429101 175.34660804 473.4991985 C176.62479408 473.51313648 177.90298011 473.52707447 179.21989906 473.54143482 C203.52231538 473.42116449 226.28690132 465.15362857 243.80363929 448.04997975 C263.01297803 428.43122918 268.79637534 402.60315031 268.71686256 375.96875721 C268.71771698 374.90171848 268.71857141 373.83467974 268.71945173 372.7353065 C268.72108769 369.19019631 268.71561622 365.64513434 268.71013343 362.10002857 C268.70985113 359.54671438 268.71001014 356.9934001 268.71057594 354.44008595 C268.71080303 348.95852577 268.70798228 343.47698089 268.7023381 337.99542385 C268.69418308 330.07018488 268.69160379 322.14495165 268.69035011 314.21970894 C268.68816586 301.35901143 268.68152281 288.49832029 268.6720475 275.63762623 C268.66285713 263.15064739 268.65578425 250.66367028 268.65153968 238.17668873 C268.65127696 237.40594683 268.65101424 236.63520494 268.65074355 235.84110723 C268.64943844 231.97420976 268.64817475 228.10731228 268.64693165 224.2404148 C268.63657857 192.2016714 268.61897736 160.16293584 268.59660804 128.1241985 C266.61660804 127.1341985 266.61660804 127.1341985 264.59660804 126.1241985 C265.25660804 125.4641985 265.91660804 124.8041985 266.59660804 124.1241985 C245.47660804 124.1241985 224.35660804 124.1241985 202.59660804 124.1241985 Z M544.59660804 188.1241985 C544.26660804 189.1141985 543.93660804 190.1041985 543.59660804 191.1241985 C544.25660804 191.1241985 544.91660804 191.1241985 545.59660804 191.1241985 C545.26660804 190.1341985 544.93660804 189.1441985 544.59660804 188.1241985 Z M143.59660804 635.1241985 C143.92660804 635.7841985 144.25660804 636.4441985 144.59660804 637.1241985 C145.91660804 636.7941985 147.23660804 636.4641985 148.59660804 636.1241985 C146.94660804 635.7941985 145.29660804 635.4641985 143.59660804 635.1241985 Z " fill="#FDFDFD" transform="translate(193.40339195728302,183.8758015036583)"/>
<path d="M0 0 C337.92 0 675.84 0 1024 0 C1024 0.33 1024 0.66 1024 1 C686.41 1 348.82 1 1 1 C1 338.26 1 675.52 1 1023 C338.59 1023 676.18 1023 1024 1023 C1024 1023.33 1024 1023.66 1024 1024 C686.08 1024 348.16 1024 0 1024 C0 686.08 0 348.16 0 0 Z " fill="#8B8989" transform="translate(0,0)"/>
<path d="M0 0 C0.93334893 -0.00224729 1.86669787 -0.00449459 2.8283301 -0.00680998 C4.37987283 -0.00286946 4.37987283 -0.00286946 5.96275985 0.00115067 C7.05913369 -0.00000318 8.15550753 -0.00115702 9.28510481 -0.00234583 C13.00265236 -0.00501772 16.72015762 -0.00048563 20.43770301 0.00394398 C23.11230089 0.00350839 25.78689594 0.00267608 28.46149325 0.00135481 C34.2990946 -0.00072361 40.13668579 0.00093281 45.97428596 0.00499302 C54.65466211 0.01101375 63.33503182 0.01133016 72.01540968 0.01045103 C86.61528379 0.00913529 101.21515337 0.01248553 115.81502616 0.01846844 C130.27678532 0.0243796 144.7385426 0.0282332 159.20030296 0.02932125 C160.09851819 0.02938999 160.99673343 0.02945873 161.9221673 0.02952956 C166.48349849 0.02986787 171.04482968 0.03016926 175.60616086 0.03045643 C207.93842709 0.03255846 240.27069086 0.03930033 272.6029557 0.04875904 C304.01897119 0.05793912 335.43498601 0.06502487 366.85100257 0.06926686 C367.81888775 0.06939838 368.78677293 0.06952991 369.78398796 0.06966542 C379.50363187 0.07098391 389.22327578 0.07225973 398.9429197 0.07350428 C418.74405763 0.07604069 438.54519552 0.07886194 458.34633338 0.08185536 C459.71205675 0.08206129 459.71205675 0.08206129 461.10537048 0.08227139 C521.93578403 0.09147655 582.7661962 0.10732227 643.59660804 0.1241985 C643.44857626 3.88526935 643.29699776 7.64618977 643.14485633 11.40709645 C643.10362931 12.45564745 643.06240228 13.50419846 643.01992595 14.58452374 C642.65531989 23.52949167 642.08309296 32.45218823 641.39040077 41.37743336 C641.07533918 45.46886619 640.76428369 49.56054011 640.45882118 53.65270191 C639.79915312 62.47743944 639.12978676 71.30143191 638.45695961 80.12517506 C638.04193495 85.57296793 637.63311919 91.02119852 637.22806633 96.4697414 C637.07342663 98.53202764 636.91632188 100.59413059 636.75668418 102.65603596 C636.53525327 105.51644014 636.32165151 108.37732968 636.10979164 111.23845631 C636.04231224 112.08404103 635.97483284 112.92962574 635.9053086 113.80083424 C635.63827924 117.5081235 635.64939705 120.5531817 636.59660804 124.1241985 C636.66404152 126.20654442 636.68175276 128.29088406 636.65910804 130.3741985 C636.65008461 131.45185475 636.64106117 132.529511 636.63176429 133.6398235 C636.61436195 134.86958912 636.61436195 134.86958912 636.59660804 136.1241985 C635.93660804 136.1241985 635.27660804 136.1241985 634.59660804 136.1241985 C633.27660804 150.9741985 631.95660804 165.8241985 630.59660804 181.1241985 C630.26660804 181.1241985 629.93660804 181.1241985 629.59660804 181.1241985 C629.28979924 169.85140987 630.13689346 158.76014872 631.07707679 147.53649098 C631.55023502 141.87541417 632.00253811 136.21266426 632.45598304 130.54997975 C632.55101112 129.36694264 632.6460392 128.18390553 632.74394691 126.96501881 C633.77990839 113.98237232 634.6964005 100.99186198 635.59660804 87.9991985 C635.66811073 86.96838154 635.73961341 85.93756459 635.81328285 84.87551075 C636.03297909 81.70582013 636.25228703 78.5361026 636.47160804 75.366386 C638.16270846 50.95112376 639.88336464 26.53791693 641.59660804 2.1241985 C428.41660804 2.1241985 215.23660804 2.1241985 -4.40339196 2.1241985 C-4.40339196 7.7341985 -4.40339196 13.3441985 -4.40339196 19.1241985 C-4.73339196 19.1241985 -5.06339196 19.1241985 -5.40339196 19.1241985 C-5.73339196 13.1841985 -6.06339196 7.2441985 -6.40339196 1.1241985 C-4.03993117 -0.0575319 -2.63604109 -0.00050869 0 0 Z " fill="#B2B4B4" transform="translate(193.40339195728302,183.8758015036583)"/>
<path d="M0 0 C22.44 0 44.88 0 68 0 C68.0441301 34.04772976 68.08104336 68.09543165 68.10213066 102.14318142 C68.10463193 106.1671503 68.10722059 110.19111911 68.10986328 114.21508789 C68.1103879 115.01615323 68.11091252 115.81721857 68.11145304 116.64255861 C68.12014442 129.59593801 68.1359074 142.54929957 68.15430559 155.5026684 C68.17303993 168.80410603 68.18412419 182.10553435 68.18817699 195.40698463 C68.19091473 203.60793158 68.19954685 211.8088281 68.21583293 220.00975952 C68.22644348 225.64123054 68.22959145 231.27267566 68.22700275 236.90415593 C68.22572777 240.14825745 68.22872678 243.39225321 68.23841095 246.636343 C68.30941436 271.65651243 68.30941436 271.65651243 66 282 C65.67 282 65.34 282 65 282 C65.10470816 280.50024596 65.10470816 280.50024596 65.21153164 278.97019386 C66.09674651 265.37396444 66.17254824 251.80203862 66.20532227 238.18115234 C66.21492162 235.62680409 66.22493284 233.07245735 66.23532104 230.51811218 C66.25662162 225.05578507 66.27510736 219.59346048 66.29092598 214.13111496 C66.31380106 206.23383302 66.34191763 198.33657629 66.37124526 190.43931599 C66.41870741 177.62133908 66.46202829 164.80335174 66.50268555 151.98535156 C66.54215009 139.54621574 66.58360188 127.1070891 66.62768555 114.66796875 C66.63040982 113.89906592 66.63313409 113.13016309 66.63594092 112.33796017 C66.64962219 108.47995702 66.66334211 104.62195401 66.67708123 100.76395106 C66.79070948 68.84265309 66.89752188 36.92133578 67 5 C66.401875 4.87625 65.80375 4.7525 65.1875 4.625 C63 4 63 4 60 2 C57.39221661 1.70944456 57.39221661 1.70944456 54.42700195 1.77294922 C53.28604568 1.77310028 52.14508942 1.77325134 50.96955872 1.77340698 C49.73823715 1.78372955 48.50691559 1.79405212 47.23828125 1.8046875 C45.97735153 1.8075174 44.71642181 1.81034729 43.4172821 1.81326294 C40.06839578 1.82256875 36.71978209 1.84053297 33.37097168 1.8626709 C29.95241653 1.88314614 26.5338332 1.89226824 23.11523438 1.90234375 C16.41008081 1.9244182 9.70505615 1.95790638 3 2 C1.34297033 5.31405935 1.85837295 9.01378048 1.8671875 12.65625 C1.86623077 13.51432251 1.86527405 14.37239502 1.86428833 15.25646973 C1.86360728 17.07218499 1.86545633 18.88790268 1.86962891 20.70361328 C1.87497822 23.48866221 1.86968139 26.27354986 1.86328125 29.05859375 C1.86394204 30.82031286 1.86522324 32.58203186 1.8671875 34.34375 C1.86516327 35.18023071 1.86313904 36.01671143 1.86105347 36.87854004 C1.76383869 41.07280044 1.76383869 41.07280044 3 45 C2.34 45 1.68 45 1 45 C1.11371497 47.29225435 1.24130964 49.58382388 1.375 51.875 C1.44460938 53.15117187 1.51421875 54.42734375 1.5859375 55.7421875 C1.67241106 59.08061699 1.67241106 59.08061699 4 61 C3.01 61 2.02 61 1 61 C1 62.32 1 63.64 1 65 C1.66 65.33 2.32 65.66 3 66 C2.34 66 1.68 66 1 66 C1.03029297 66.87158249 1.06058594 67.74316498 1.09179688 68.64115906 C1.70042555 86.68560925 2.09438489 104.71405398 2.0625 122.76953125 C2.06105988 123.63269833 2.05961975 124.4958654 2.05813599 125.38518906 C2.04604749 131.52765551 2.02392734 137.67007003 2 143.8125 C1.97615983 150.06269137 1.95599574 156.31285933 1.94406128 162.56308556 C1.93766215 165.01977991 1.92519146 167.47639187 1.91235352 169.93305969 C1.90872321 171.43299289 1.9053712 172.93292679 1.90234375 174.43286133 C1.89710693 175.72992508 1.89187012 177.02698883 1.88647461 178.36335754 C1.99940601 181.98097217 2.48097184 185.42177949 3 189 C3.01351638 190.73261247 2.97486271 192.4666504 2.87670898 194.1965332 C2.82797134 195.16165329 2.7792337 196.12677338 2.72901917 197.12113953 C2.67277878 198.1497963 2.61653839 199.17845306 2.55859375 200.23828125 C2.12715257 209.34730112 1.92109401 218.42385438 1.97265625 227.54296875 C1.97824554 228.66526886 1.98383484 229.78756897 1.98959351 230.94387817 C2.016669 235.52037481 2.05203313 240.09672953 2.09594727 244.6730957 C2.41115178 280.02315835 2.41115178 280.02315835 -4 287 C-6.25 288.875 -6.25 288.875 -8 290 C-8.66 289.67 -9.32 289.34 -10 289 C-9.071875 288.38125 -8.14375 287.7625 -7.1875 287.125 C-2.42004154 283.11516472 -1.33210474 277.29183414 -0.72563612 271.28049541 C-0.60829102 268.31475787 -0.58739811 265.36337716 -0.60127258 262.39535522 C-0.59462576 261.26791763 -0.58797893 260.14048003 -0.58113068 258.97887766 C-0.56256583 255.22329258 -0.56510166 251.46802791 -0.56762695 247.71240234 C-0.55860583 245.01144068 -0.54840811 242.31050721 -0.53674316 239.60955811 C-0.51401318 233.80603823 -0.50208176 228.00257815 -0.49761391 222.19901657 C-0.49113845 213.80819545 -0.46817661 205.41748216 -0.44127061 197.02670462 C-0.3980551 183.41121021 -0.36805849 169.79572035 -0.34643555 156.18017578 C-0.32541014 142.95879885 -0.29812143 129.73745916 -0.26245117 116.51611328 C-0.26025235 115.70030373 -0.25805352 114.88449417 -0.25578807 114.04396312 C-0.24471802 109.95103366 -0.23352529 105.85810454 -0.22227156 101.76517558 C-0.1291606 67.84347301 -0.05997463 33.92178137 0 0 Z " fill="#A3A5A5" transform="translate(395,307)"/>
<path d="M0 0 C0.33 0 0.66 0 1 0 C0.99666908 1.70555809 0.99666908 1.70555809 0.99327087 3.4455719 C0.97298173 14.17145968 0.95800003 24.89734356 0.94818783 35.62324619 C0.94297368 41.13726668 0.93590268 46.65127165 0.92456055 52.1652832 C0.91367952 57.48856191 0.9077121 62.8118257 0.90512276 68.13511467 C0.90327791 70.16403373 0.89967541 72.192952 0.89426994 74.2218647 C0.88699032 77.06793087 0.88601198 79.91393576 0.88647461 82.76000977 C0.88287933 83.59511078 0.87928406 84.43021179 0.87557983 85.2906189 C0.88377432 89.96246516 1.30814266 94.36961673 2 99 C2.01351638 100.73261247 1.97486271 102.4666504 1.87670898 104.1965332 C1.82797134 105.16165329 1.7792337 106.12677338 1.72901917 107.12113953 C1.64465858 108.66412468 1.64465858 108.66412468 1.55859375 110.23828125 C1.12715257 119.34730112 0.92109401 128.42385438 0.97265625 137.54296875 C0.97824554 138.66526886 0.98383484 139.78756897 0.98959351 140.94387817 C1.016669 145.52037481 1.05203313 150.09672953 1.09594727 154.6730957 C1.41115178 190.02315835 1.41115178 190.02315835 -5 197 C-7.25 198.875 -7.25 198.875 -9 200 C-9.66 199.67 -10.32 199.34 -11 199 C-10.071875 198.38125 -9.14375 197.7625 -8.1875 197.125 C-3.94859179 193.50029175 -2.98072146 189.37457062 -2 184 C-1.56881611 178.13293542 -1.57180327 172.28509343 -1.58349609 166.40478516 C-1.57610654 164.63641792 -1.5673986 162.86805578 -1.55747986 161.09970093 C-1.53426058 156.32329046 -1.52901348 151.54701017 -1.52682066 146.77055025 C-1.52114065 141.76490751 -1.49785619 136.75934839 -1.47622681 131.75375366 C-1.4377748 122.28155043 -1.41350956 112.80937129 -1.39510214 103.33710992 C-1.36163646 86.35654801 -1.30396478 69.37605828 -1.24111044 52.39558256 C-1.21961898 46.43729565 -1.2043497 40.47903374 -1.19427085 34.52071691 C-1.18725916 30.82105341 -1.17638054 27.12140791 -1.16462898 23.42175674 C-1.16006727 21.70444611 -1.15722257 19.98712993 -1.15620613 18.26981354 C-1.15463627 15.92891278 -1.14706063 13.588105 -1.13803101 11.2472229 C-1.13547491 9.93651636 -1.13291882 8.62580982 -1.13028526 7.2753849 C-1.0251873 4.63321127 -0.79441156 2.50114091 0 0 Z " fill="#C0C1C2" transform="translate(396,397)"/>
<path d="M0 0 C4.29 0 8.58 0 13 0 C12.46668179 14.75760859 11.70113012 29.47042747 10.56733322 44.19406891 C10.32808463 47.30524323 10.09448851 50.41680109 9.86221313 53.52850342 C9.20254508 62.35324095 8.53317871 71.17723342 7.86035156 80.00097656 C7.44532691 85.44876943 7.03651115 90.89700002 6.63145828 96.34554291 C6.47681859 98.40782914 6.31971384 100.4699321 6.16007614 102.53183746 C5.93864522 105.39224165 5.72504347 108.25313118 5.51318359 111.11425781 C5.41196449 112.38263489 5.41196449 112.38263489 5.30870056 113.67663574 C5.0416712 117.383925 5.052789 120.42898321 6 124 C6.06743348 126.08234592 6.08514472 128.16668557 6.0625 130.25 C6.05347656 131.32765625 6.04445313 132.4053125 6.03515625 133.515625 C6.01775391 134.74539063 6.01775391 134.74539063 6 136 C5.34 136 4.68 136 4 136 C2.02 158.275 2.02 158.275 0 181 C-0.33 181 -0.66 181 -1 181 C-1.30680881 169.72721137 -0.45971458 158.63595023 0.48046875 147.41229248 C0.95362698 141.75121567 1.40593006 136.08846576 1.859375 130.42578125 C2.00191711 128.65122559 2.00191711 128.65122559 2.14733887 126.84082031 C3.18330074 113.85816898 4.09943549 100.86764082 5 87.875 C5.08080811 86.71158081 5.16161621 85.54816162 5.24487305 84.3494873 C5.65859407 78.39046379 6.07086691 72.43134142 6.48242188 66.47216797 C7.0298703 58.55529219 7.5844973 50.6389259 8.140625 42.72265625 C8.18750961 42.05524918 8.23439423 41.3878421 8.28269958 40.70021057 C8.51455465 37.40017112 8.74651246 34.1001389 8.97851562 30.80010986 C9.40807908 24.68839147 9.83683378 18.57661636 10.265625 12.46484375 C10.40917564 10.41918917 10.55272988 8.37353484 10.69628906 6.32788086 C10.79651367 4.89968018 10.89673828 3.47147949 11 2 C7.37 1.67 3.74 1.34 0 1 C0 0.67 0 0.34 0 0 Z " fill="#B5B6B6" transform="translate(824,184)"/>
<path d="M0 0 C0.33 0 0.66 0 1 0 C1.90216534 11.33283611 2.79733515 22.6662154 3.6875 34 C3.7546307 34.85453514 3.8217614 35.70907028 3.89092636 36.58950043 C6.17912601 65.74172543 8.3046511 94.90257317 10.28516388 124.07727242 C10.43537672 126.28996561 10.58594683 128.50263429 10.73654175 130.71530151 C10.91860821 133.39107709 11.09870283 136.06695977 11.27761841 138.74295044 C11.70567438 145.06688982 12.18820092 151.37766873 12.80618286 157.68608093 C13.08659104 161.03378189 13.09576302 164.32793493 13.0625 167.6875 C13.05347656 168.88761719 13.04445312 170.08773437 13.03515625 171.32421875 C13.02355469 172.20722656 13.01195312 173.09023438 13 174 C12.67 174 12.34 174 12 174 C11.44536376 167.61803853 10.89446116 161.23576203 10.34594727 154.85327148 C10.15959788 152.6897888 9.97244686 150.52637498 9.78442383 148.36303711 C7.82510835 125.80739733 7.82510835 125.80739733 7.33839417 114.97010803 C7.19405375 111.36326888 7.19405375 111.36326888 6 108 C5.96076818 106.50001056 5.97744368 104.99844719 6.01953125 103.49853516 C6.08272968 96.14679889 5.47527814 88.86220045 4.88882446 81.540905 C4.6828187 78.9649001 4.48264717 76.38849744 4.28393555 73.81192017 C3.71845992 66.49328477 3.14261352 59.17547598 2.56347656 51.85791016 C2.20779967 47.3587434 1.85864544 42.8591049 1.51309204 38.35914993 C1.38165374 36.66485712 1.2477711 34.97075175 1.11117554 33.27686691 C0.21472788 22.15821683 -0.16827447 11.15474978 0 0 Z " fill="#B6B6B6" transform="translate(202,381)"/>
<path d="M0 0 C6.25525326 0.67140951 12.0434081 2.35904539 18.0546875 4.17578125 C19.67166283 4.6577597 19.67166283 4.6577597 21.32130432 5.1494751 C24.84054636 6.19937735 28.35773946 7.25598063 31.875 8.3125 C35.54592017 9.40928489 39.21736349 10.50430606 42.88883972 11.59922791 C45.36069777 12.33650809 47.83238715 13.07435401 50.3039093 13.8127594 C60.48717364 16.85376442 70.68387125 19.8470088 80.88729858 22.81954956 C95.62305325 27.11251848 110.33552374 31.46821408 125 36 C121.66042955 37.1241505 119.70120934 36.86353336 116.375 35.78515625 C115.50359375 35.51123047 114.6321875 35.23730469 113.734375 34.95507812 C112.83203125 34.66052734 111.9296875 34.36597656 111 34.0625 C109.20994839 33.48584766 107.41832714 32.9140399 105.625 32.34765625 C104.83351563 32.08992432 104.04203125 31.83219238 103.2265625 31.56665039 C100.73685024 30.83557739 100.73685024 30.83557739 97 31 C97 30.34 97 29.68 97 29 C95.1128125 28.5978125 95.1128125 28.5978125 93.1875 28.1875 C88.56201964 27.17018707 84.02636623 25.9110043 79.48046875 24.5859375 C76.77597857 23.84673767 76.77597857 23.84673767 73 24 C73 23.34 73 22.68 73 22 C71.72125 22.185625 70.4425 22.37125 69.125 22.5625 C65.25 23.125 65.25 23.125 63 22 C62.67 22.66 62.34 23.32 62 24 C61.505 22.515 61.505 22.515 61 21 C61.33 20.34 61.66 19.68 62 19 C59.45711264 18.48319016 56.91505829 17.98504724 54.359375 17.53515625 C53.49828125 17.37917969 52.6371875 17.22320313 51.75 17.0625 C50.87859375 16.90910156 50.0071875 16.75570312 49.109375 16.59765625 C48.41328125 16.40042969 47.7171875 16.20320312 47 16 C46.505 15.01 46.505 15.01 46 14 C43.89962271 13.49565409 41.79548119 13.0036624 39.67822266 12.57568359 C36.89545354 11.97752775 34.18498306 11.24172991 31.44921875 10.45703125 C30.50369141 10.18826172 29.55816406 9.91949219 28.58398438 9.64257812 C26.63183419 9.08312848 24.68133246 8.5178984 22.73242188 7.94726562 C21.32379883 7.54991211 21.32379883 7.54991211 19.88671875 7.14453125 C19.04326904 6.90065674 18.19981934 6.65678223 17.33081055 6.40551758 C14.03718794 5.83248865 11.94180517 6.52909741 9 8 C9 7.34 9 6.68 9 6 C8.01 5.67 7.02 5.34 6 5 C6 4.01 6 3.02 6 2 C3.03 1.505 3.03 1.505 0 1 C0 0.67 0 0.34 0 0 Z M7 3 C7.33 3.66 7.66 4.32 8 5 C9.32 4.67 10.64 4.34 12 4 C10.35 3.67 8.7 3.34 7 3 Z " fill="#BCBDBD" transform="translate(330,816)"/>
<path d="M0 0 C0.33 0 0.66 0 1 0 C4.4006352 21.25396998 -0.15342352 43.15960362 -10.0625 62.125 C-10.40313477 62.77766846 -10.74376953 63.43033691 -11.09472656 64.1027832 C-12.82417551 67.2800352 -13.93563603 68.95709068 -17 71 C-16.36441403 67.66317367 -15.10166305 65.39249017 -13.25 62.5625 C-5.11792933 49.28206804 -0.73728626 33.23686943 -1 17.6875 C-1.04748724 11.71597994 -0.77986527 5.91862033 0 0 Z " fill="#BDBEBF" transform="translate(753,545)"/>
<path d="M0 0 C4.95212809 0.49521281 9.6525881 1.36302124 14.5 2.5 C31.94222191 6.25594064 50.24133905 5.11272588 68 5 C68 5.33 68 5.66 68 6 C44.62990351 9.76070518 22.55491984 8.06020191 0 1 C0 0.67 0 0.34 0 0 Z " fill="#BCBDBE" transform="translate(323,651)"/>
<path d="M0 0 C1.16801147 0.11746582 1.16801147 0.11746582 2.35961914 0.23730469 C6.16997482 0.67201252 9.14627939 1.29052602 12.5 3.125 C11.72575684 3.0535376 10.95151367 2.9820752 10.15380859 2.90844727 C-0.53444312 2.02457841 -11.15776942 2.0102929 -21.875 2.0625 C-23.69010292 2.06752933 -25.5052072 2.07208968 -27.3203125 2.07617188 C-31.71357608 2.08705402 -36.10677246 2.10423806 -40.5 2.125 C-40.5 1.795 -40.5 1.465 -40.5 1.125 C-26.77931519 -0.48244425 -13.78238613 -1.41976256 0 0 Z " fill="#BDBDBD" transform="translate(649.5,305.875)"/>
<path d="M0 0 C4.29 0 8.58 0 13 0 C12.67 7.92 12.34 15.84 12 24 C11.34 24 10.68 24 10 24 C10.33 16.74 10.66 9.48 11 2 C7.37 1.67 3.74 1.34 0 1 C0 0.67 0 0.34 0 0 Z " fill="#BABABA" transform="translate(824,184)"/>
<path d="M0 0 C0.66 3.63 1.32 7.26 2 11 C-0.46278801 8.53721199 -0.99771255 6.29323018 -2 3 C-4.20992759 4.2472468 -6.41793663 5.49770247 -8.625 6.75 C-9.24246094 7.09804688 -9.85992187 7.44609375 -10.49609375 7.8046875 C-14.44826266 10.05118351 -18.24591788 12.43567314 -22 15 C-22.66 14.67 -23.32 14.34 -24 14 C-4.76595745 0 -4.76595745 0 0 0 Z " fill="#BCBCBD" transform="translate(326,557)"/>
<path d="M0 0 C9.90799304 1.43115455 19.7539598 8.30114361 27 15 C27.99 16.485 27.99 16.485 29 18 C25.94959913 16.58152917 23.38486515 14.87822455 20.6875 12.875 C14.16358387 8.22903274 7.11000932 4.64980478 0 1 C0 0.67 0 0.34 0 0 Z " fill="#BABABA" transform="translate(684,316)"/>
<path d="M0 0 C0 9.9 0 19.8 0 30 C-0.33 30 -0.66 30 -1 30 C-1 21.42 -1 12.84 -1 4 C-2.32 3.67 -3.64 3.34 -5 3 C-5.99 2.34 -6.98 1.68 -8 1 C-5.23735711 0.40267181 -2.83967231 0 0 0 Z " fill="#BDBEBE" transform="translate(463,308)"/>
<path d="M0 0 C0.33 0 0.66 0 1 0 C2.17402193 7.33763707 2.09377123 14.58165418 2 22 C-2.45660634 15.31509049 -0.81364683 7.62324487 0 0 Z " fill="#CFCFCF" transform="translate(753,545)"/>
<path d="M0 0 C4.38607002 0.61602107 7.73697165 2.22547788 11.625 4.3125 C13.31496094 5.20388672 13.31496094 5.20388672 15.0390625 6.11328125 C17.81446815 7.88177852 19.28178652 9.23989111 21 12 C16.98121213 10.61854167 13.68493064 8.58620786 10.13671875 6.30859375 C6.86460728 4.3046498 3.45489751 2.66575416 0 1 C0 0.67 0 0.34 0 0 Z " fill="#C0C0C1" transform="translate(656,529)"/>
<path d="M0 0 C0.928125 0.061875 1.85625 0.12375 2.8125 0.1875 C0.06770361 2.28499747 -2.73349156 4.23574752 -5.625 6.125 C-8.95471334 8.32832516 -12.12468999 10.6186916 -15.1875 13.1875 C-13.83139915 10.06374531 -12.39293984 8.2564031 -9.75 6.125 C-7.93282753 4.64535848 -6.24396091 3.24946223 -4.6640625 1.515625 C-3.1875 0.1875 -3.1875 0.1875 0 0 Z " fill="#B8B9BA" transform="translate(611.1875,367.8125)"/>
<path d="M0 0 C4.95 0 9.9 0 15 0 C15 0.33 15 0.66 15 1 C10.05 1 5.1 1 0 1 C0 0.67 0 0.34 0 0 Z " fill="#F9F8F9" transform="translate(439,309)"/>
<path d="M0 0 C3.63 0 7.26 0 11 0 C11 0.33 11 0.66 11 1 C7.37 1 3.74 1 0 1 C0 0.67 0 0.34 0 0 Z " fill="#F9F9F9" transform="translate(424,309)"/>
<path d="M0 0 C0.33 0 0.66 0 1 0 C1.33 1.98 1.66 3.96 2 6 C1.01 6 0.02 6 -1 6 C-0.67 4.02 -0.34 2.04 0 0 Z " fill="#F1F1F0" transform="translate(820,433)"/>
<path d="M0 0 C0.99 0.33 1.98 0.66 3 1 C2.01 1.66 1.02 2.32 0 3 C-0.66 2.67 -1.32 2.34 -2 2 C-1.34 1.34 -0.68 0.68 0 0 Z " fill="#F3F3F3" transform="translate(684,821)"/>
<path d="M0 0 C2.475 0.495 2.475 0.495 5 1 C4.67 1.66 4.34 2.32 4 3 C2.68 2.67 1.36 2.34 0 2 C0 1.34 0 0.68 0 0 Z " fill="#F3F5F4" transform="translate(368,829)"/>
<path d="M0 0 C0.99 0.33 1.98 0.66 3 1 C2.67 1.66 2.34 2.32 2 3 C1.01 2.67 0.02 2.34 -1 2 C-0.67 1.34 -0.34 0.68 0 0 Z " fill="#FBFAFA" transform="translate(644,656)"/>
<path d="M0 0 C0.33 0 0.66 0 1 0 C1 2.31 1 4.62 1 7 C0.67 7 0.34 7 0 7 C0 4.69 0 2.38 0 0 Z " fill="#F6F6F6" transform="translate(192,273)"/>
<path d="M0 0 C1.32 0 2.64 0 4 0 C4 0.66 4 1.32 4 2 C2.68 1.34 1.36 0.68 0 0 Z " fill="#F3F3F3" transform="translate(474,861)"/>
<path d="M0 0 C0.66 0.33 1.32 0.66 2 1 C0.35 1.33 -1.3 1.66 -3 2 C-2.01 1.34 -1.02 0.68 0 0 Z " fill="#F2F3F2" transform="translate(655,830)"/>
<path d="M0 0 C0.33 0 0.66 0 1 0 C1 1.98 1 3.96 1 6 C0.67 6 0.34 6 0 6 C0 4.02 0 2.04 0 0 Z " fill="#F2F2F2" transform="translate(799,706)"/>
<path d="M0 0 C0.33 0 0.66 0 1 0 C1 1.98 1 3.96 1 6 C0.67 6 0.34 6 0 6 C0 4.02 0 2.04 0 0 Z " fill="#F7F9F8" transform="translate(460,474)"/>
<path d="M0 0 C1.98 0.99 1.98 0.99 4 2 C3.01 2.495 3.01 2.495 2 3 C1.34 2.67 0.68 2.34 0 2 C0 1.34 0 0.68 0 0 Z " fill="#FDFCFD" transform="translate(664,458)"/>
<path d="M0 0 C0.33 0 0.66 0 1 0 C1 1.98 1 3.96 1 6 C0.67 6 0.34 6 0 6 C0 4.02 0 2.04 0 0 Z " fill="#F4F4F3" transform="translate(821,415)"/>
<path d="M0 0 C0.33 0 0.66 0 1 0 C1 1.98 1 3.96 1 6 C0.67 6 0.34 6 0 6 C0 4.02 0 2.04 0 0 Z " fill="#F3F3F3" transform="translate(831,282)"/>
<path d="M0 0 C1.32 0.33 2.64 0.66 4 1 C3.01 1.33 2.02 1.66 1 2 C0.67 1.34 0.34 0.68 0 0 Z " fill="#F0F1F0" transform="translate(256,797)"/>
<path d="M0 0 C1.98 0.99 1.98 0.99 4 2 C2.68 2 1.36 2 0 2 C0 1.34 0 0.68 0 0 Z " fill="#EDEEEE" transform="translate(248,794)"/>
<path d="M0 0 C0.33 0 0.66 0 1 0 C1 1.65 1 3.3 1 5 C0.67 5 0.34 5 0 5 C0 3.35 0 1.7 0 0 Z " fill="#F0F1F0" transform="translate(796,747)"/>
<path d="M0 0 C1.485 0.99 1.485 0.99 3 2 C2.01 2.33 1.02 2.66 0 3 C0 2.01 0 1.02 0 0 Z " fill="#F3F3F1" transform="translate(804,645)"/>
<path d="M0 0 C0.33 0 0.66 0 1 0 C1 1.65 1 3.3 1 5 C0.67 5 0.34 5 0 5 C0 3.35 0 1.7 0 0 Z " fill="#F4F4F4" transform="translate(217,620)"/>
<path d="M0 0 C0.33 0 0.66 0 1 0 C1 1.65 1 3.3 1 5 C0.67 5 0.34 5 0 5 C0 3.35 0 1.7 0 0 Z " fill="#F2F2F2" transform="translate(812,539)"/>
<path d="M0 0 C0.33 0 0.66 0 1 0 C1 1.65 1 3.3 1 5 C0.67 5 0.34 5 0 5 C0 3.35 0 1.7 0 0 Z " fill="#FCFDFD" transform="translate(748,531)"/>
<path d="M0 0 C0.33 0 0.66 0 1 0 C1 1.65 1 3.3 1 5 C0.67 5 0.34 5 0 5 C0 3.35 0 1.7 0 0 Z " fill="#FAFAF9" transform="translate(460,467)"/>
<path d="M0 0 C0.66 1.32 1.32 2.64 2 4 C1.34 3.67 0.68 3.34 0 3 C0 2.01 0 1.02 0 0 Z " fill="#FBFAFA" transform="translate(532,444)"/>
<path d="M0 0 C0.33 0 0.66 0 1 0 C1 1.65 1 3.3 1 5 C0.67 5 0.34 5 0 5 C0 3.35 0 1.7 0 0 Z " fill="#F9FAF9" transform="translate(460,395)"/>
<path d="M0 0 C0.33 0 0.66 0 1 0 C1 1.65 1 3.3 1 5 C0.67 5 0.34 5 0 5 C0 3.35 0 1.7 0 0 Z " fill="#F9F9F8" transform="translate(460,331)"/>
<path d="M0 0 C0.33 0 0.66 0 1 0 C1 1.65 1 3.3 1 5 C0.67 5 0.34 5 0 5 C0 3.35 0 1.7 0 0 Z " fill="#F4F4F4" transform="translate(828,323)"/>
<path d="M0 0 C0.33 0 0.66 0 1 0 C1 1.65 1 3.3 1 5 C0.67 5 0.34 5 0 5 C0 3.35 0 1.7 0 0 Z " fill="#F9F9F8" transform="translate(460,323)"/>
<path d="M0 0 C0.33 0 0.66 0 1 0 C1 1.65 1 3.3 1 5 C0.67 5 0.34 5 0 5 C0 3.35 0 1.7 0 0 Z " fill="#F9F9F8" transform="translate(460,315)"/>
<path d="M0 0 C0.66 0 1.32 0 2 0 C2 0.99 2 1.98 2 3 C1.34 2.67 0.68 2.34 0 2 C0 1.34 0 0.68 0 0 Z " fill="#F9F9F9" transform="translate(612,309)"/>
<path d="M0 0 C0.99 1.485 0.99 1.485 2 3 C1.01 3.495 1.01 3.495 0 4 C0 2.68 0 1.36 0 0 Z " fill="#EAEBEB" transform="translate(836,212)"/>
<path d="M0 0 C0.99 0.33 1.98 0.66 3 1 C2.01 1 1.02 1 0 1 C0 0.67 0 0.34 0 0 Z " fill="#F3F4F3" transform="translate(468,859)"/>
<path d="M0 0 C0.99 0.33 1.98 0.66 3 1 C2.01 1 1.02 1 0 1 C0 0.67 0 0.34 0 0 Z " fill="#F5F5F5" transform="translate(439,850)"/>
<path d="M0 0 C0.66 0.33 1.32 0.66 2 1 C1.01 1 0.02 1 -1 1 C-0.67 0.67 -0.34 0.34 0 0 Z " fill="#F3F3F2" transform="translate(689,820)"/>
<path d="M0 0 C0.99 0 1.98 0 3 0 C2.67 0.66 2.34 1.32 2 2 C1.34 1.34 0.68 0.68 0 0 Z " fill="#F2F3F1" transform="translate(304,811)"/>
<path d="M0 0 C0.99 0.33 1.98 0.66 3 1 C2.01 1 1.02 1 0 1 C0 0.67 0 0.34 0 0 Z " fill="#E7E6E6" transform="translate(787,790)"/>
<path d="M0 0 C0.66 0.66 1.32 1.32 2 2 C1.01 2.495 1.01 2.495 0 3 C0 2.01 0 1.02 0 0 Z " fill="#E0E3E2" transform="translate(232,789)"/>
<path d="M0 0 C1 4 1 4 1 4 Z " fill="#F2F2F2" transform="translate(227,748)"/>
<path d="M0 0 C1 4 1 4 1 4 Z " fill="#F2F3F3" transform="translate(226,737)"/>
<path d="M0 0 C1 4 1 4 1 4 Z " fill="#F2F2F1" transform="translate(806,620)"/>
<path d="M0 0 C0.99 0.33 1.98 0.66 3 1 C2.01 1.33 1.02 1.66 0 2 C0 1.34 0 0.68 0 0 Z " fill="#FCFCFB" transform="translate(675,590)"/>
<path d="M0 0 C0.66 0.66 1.32 1.32 2 2 C1.01 2.495 1.01 2.495 0 3 C0 2.01 0 1.02 0 0 Z " fill="#FBFBFA" transform="translate(540,573)"/>
<path d="M0 0 C1 4 1 4 1 4 Z " fill="#F3F3F3" transform="translate(212,556)"/>
<path d="M0 0 C1 4 1 4 1 4 Z " fill="#F5F5F5" transform="translate(212,548)"/>
<path d="M0 0 C1 4 1 4 1 4 Z " fill="#FAFAF9" transform="translate(460,539)"/>
<path d="M0 0 C1 4 1 4 1 4 Z " fill="#F9F9F9" transform="translate(460,532)"/>
<path d="M0 0 C1 4 1 4 1 4 Z " fill="#F2F3F2" transform="translate(813,526)"/>
<path d="M0 0 C1 4 1 4 1 4 Z " fill="#F2F3F3" transform="translate(210,524)"/>
<path d="M0 0 C1 4 1 4 1 4 Z " fill="#F9F9FA" transform="translate(460,523)"/>
<path d="M0 0 C1 4 1 4 1 4 Z " fill="#F9F9F9" transform="translate(460,491)"/>
<path d="M0 0 C1 4 1 4 1 4 Z " fill="#F9F9F9" transform="translate(460,483)"/>
<path d="M0 0 C0.66 0.66 1.32 1.32 2 2 C1.01 2.495 1.01 2.495 0 3 C0 2.01 0 1.02 0 0 Z " fill="#FBFAFA" transform="translate(701,474)"/>
<path d="M0 0 C1 4 1 4 1 4 Z " fill="#F8F9F8" transform="translate(460,452)"/>
<path d="M0 0 C1 4 1 4 1 4 Z " fill="#F9F9F9" transform="translate(460,444)"/>
<path d="M0 0 C1 4 1 4 1 4 Z " fill="#F3F3F3" transform="translate(204,444)"/>
<path d="M0 0 C1 4 1 4 1 4 Z " fill="#F3F3F3" transform="translate(820,428)"/>
<path d="M0 0 C1 4 1 4 1 4 Z " fill="#F9F9F9" transform="translate(460,420)"/>
<path d="M0 0 C1 4 1 4 1 4 Z " fill="#F4F4F4" transform="translate(823,392)"/>
<path d="M0 0 C1 4 1 4 1 4 Z " fill="#F5F5F5" transform="translate(200,388)"/>
<path d="M0 0 C1 4 1 4 1 4 Z " fill="#F8FAF9" transform="translate(460,355)"/>
<path d="M0 0 C1 4 1 4 1 4 Z " fill="#F1F2F1" transform="translate(195,320)"/>
<path d="M0 0 C1.485 0.99 1.485 0.99 3 2 C2.01 2 1.02 2 0 2 C0 1.34 0 0.68 0 0 Z " fill="#FCFCFB" transform="translate(674,314)"/>
<path d="M0 0 C4 1 4 1 4 1 Z " fill="#FAF9FA" transform="translate(415,309)"/>
<path d="M0 0 C4 1 4 1 4 1 Z " fill="#F9F9FA" transform="translate(407,309)"/>
<path d="M0 0 C1 4 1 4 1 4 Z " fill="#E4E5E5" transform="translate(837,203)"/>
<path d="M0 0 C0.99 0.495 0.99 0.495 2 1 C1.01 1.495 1.01 1.495 0 2 C0 1.34 0 0.68 0 0 Z " fill="#F4F3F3" transform="translate(548,862)"/>
<path d="M0 0 C0.99 0.495 0.99 0.495 2 1 C1.01 1.495 1.01 1.495 0 2 C0 1.34 0 0.68 0 0 Z " fill="#F4F6F5" transform="translate(479,862)"/>
<path d="M0 0 C3 1 3 1 3 1 Z " fill="#F3F4F3" transform="translate(558,859)"/>
<path d="M0 0 C3 1 3 1 3 1 Z " fill="#F4F3F3" transform="translate(601,846)"/>
<path d="M0 0 C3 1 3 1 3 1 Z " fill="#F2F5F3" transform="translate(399,839)"/>
<path d="M0 0 C3 1 3 1 3 1 Z " fill="#F5F7F5" transform="translate(627,838)"/>
<path d="M0 0 C3 1 3 1 3 1 Z " fill="#F1F2F2" transform="translate(288,806)"/>
<path d="M0 0 C3 1 3 1 3 1 Z " fill="#E9E8E8" transform="translate(784,791)"/>
<path d="" fill="#F0F0EF" transform="translate(0,0)"/>
<path d="" fill="#EFEFF0" transform="translate(0,0)"/>
<path d="" fill="#F5F7F6" transform="translate(0,0)"/>
<path d="M0 0 C0.66 0.66 1.32 1.32 2 2 C1.34 2 0.68 2 0 2 C0 1.34 0 0.68 0 0 Z " fill="#FBFBFB" transform="translate(340,652)"/>
<path d="" fill="#F5F6F5" transform="translate(0,0)"/>
<path d="M0 0 C3 1 3 1 3 1 Z " fill="#FAFBFA" transform="translate(355,599)"/>
<path d="M0 0 C3 1 3 1 3 1 Z " fill="#FDFBFB" transform="translate(344,595)"/>
<path d="M0 0 C0.66 0.66 1.32 1.32 2 2 C1.34 2 0.68 2 0 2 C0 1.34 0 0.68 0 0 Z " fill="#FBFAFA" transform="translate(328,581)"/>
<path d="M0 0 C0.33 0.66 0.66 1.32 1 2 C0.34 1.67 -0.32 1.34 -1 1 C-0.67 0.67 -0.34 0.34 0 0 Z " fill="#FBFBFB" transform="translate(329,576)"/>
<path d="" fill="#FAFAF9" transform="translate(0,0)"/>
<path d="" fill="#F4F3F2" transform="translate(0,0)"/>
<path d="M0 0 C0.66 0.66 1.32 1.32 2 2 C1.34 2 0.68 2 0 2 C0 1.34 0 0.68 0 0 Z " fill="#FEFDFC" transform="translate(320,562)"/>
<path d="M0 0 C0.99 0.495 0.99 0.495 2 1 C1.01 1.495 1.01 1.495 0 2 C0 1.34 0 0.68 0 0 Z " fill="#F5F6F6" transform="translate(812,534)"/>
<path d="" fill="#F9F9F9" transform="translate(0,0)"/>
<path d="M0 0 C0.66 0.66 1.32 1.32 2 2 C1.34 2 0.68 2 0 2 C0 1.34 0 0.68 0 0 Z " fill="#FDFCFC" transform="translate(736,506)"/>
<path d="" fill="#F4F6F6" transform="translate(0,0)"/>
<path d="M0 0 C0.66 0.66 1.32 1.32 2 2 C1.34 2 0.68 2 0 2 C0 1.34 0 0.68 0 0 Z " fill="#F9FAF9" transform="translate(732,500)"/>
<path d="" fill="#F8F8F8" transform="translate(0,0)"/>
<path d="" fill="#F6F5F4" transform="translate(0,0)"/>
<path d="M0 0 C0.99 0.495 0.99 0.495 2 1 C1.01 1.495 1.01 1.495 0 2 C0 1.34 0 0.68 0 0 Z " fill="#FAFCFA" transform="translate(685,467)"/>
<path d="" fill="#F9FAF8" transform="translate(0,0)"/>
<path d="" fill="#F8F9F8" transform="translate(0,0)"/>
<path d="" fill="#F5F4F5" transform="translate(0,0)"/>
<path d="M0 0 C0.66 0 1.32 0 2 0 C1.67 0.66 1.34 1.32 1 2 C0.67 1.34 0.34 0.68 0 0 Z " fill="#FAFAFA" transform="translate(705,385)"/>
<path d="M0 0 C0.33 0.66 0.66 1.32 1 2 C0.34 1.67 -0.32 1.34 -1 1 C-0.67 0.67 -0.34 0.34 0 0 Z " fill="#FAFBF9" transform="translate(605,368)"/>
<path d="M0 0 C0.66 0.66 1.32 1.32 2 2 C1.34 2 0.68 2 0 2 C0 1.34 0 0.68 0 0 Z " fill="#FCFCFB" transform="translate(644,364)"/>
<path d="M0 0 C3 1 3 1 3 1 Z " fill="#FAF9F9" transform="translate(630,363)"/>
<path d="M0 0 C3 1 3 1 3 1 Z " fill="#FCFBF9" transform="translate(624,363)"/>
<path d="" fill="#F9F9F8" transform="translate(0,0)"/>
<path d="" fill="#F6F6F5" transform="translate(0,0)"/>
<path d="" fill="#F3F4F3" transform="translate(0,0)"/>
<path d="" fill="#FBFBFA" transform="translate(0,0)"/>
<path d="M0 0 C0.99 0.495 0.99 0.495 2 1 C1.01 1.495 1.01 1.495 0 2 C0 1.34 0 0.68 0 0 Z " fill="#FAFBFA" transform="translate(580,318)"/>
<path d="M0 0 C3 1 3 1 3 1 Z " fill="#F9F8F9" transform="translate(648,309)"/>
<path d="M0 0 C3 1 3 1 3 1 Z " fill="#FAF9FA" transform="translate(399,309)"/>
<path d="M0 0 C3 1 3 1 3 1 Z " fill="#FAF9F9" transform="translate(640,308)"/>
<path d="M0 0 C0.66 0 1.32 0 2 0 C1.67 0.66 1.34 1.32 1 2 C0.67 1.34 0.34 0.68 0 0 Z " fill="#F3F4F3" transform="translate(193,304)"/>
<path d="" fill="#F2F2F2" transform="translate(0,0)"/>
<path d="M0 0 C0.33 0.66 0.66 1.32 1 2 C0.34 1.67 -0.32 1.34 -1 1 C-0.67 0.67 -0.34 0.34 0 0 Z " fill="#F2F1F0" transform="translate(189,235)"/>
<path d="" fill="#F0EEEF" transform="translate(0,0)"/>
<path d="" fill="#E2E3E4" transform="translate(0,0)"/>
<path d="M0 0 C2 1 2 1 2 1 Z " fill="#EEEFEF" transform="translate(508,871)"/>
<path d="M0 0 C2 1 2 1 2 1 Z " fill="#F2F2F2" transform="translate(495,867)"/>
<path d="" fill="#F5F5F4" transform="translate(0,0)"/>
<path d="M0 0 C2 1 2 1 2 1 Z " fill="#F2F4F3" transform="translate(456,855)"/>
<path d="M0 0 C2 1 2 1 2 1 Z " fill="#F5F5F4" transform="translate(452,854)"/>
<path d="M0 0 C2 1 2 1 2 1 Z " fill="#F5F4F4" transform="translate(598,847)"/>
<path d="M0 0 C2 1 2 1 2 1 Z " fill="#F3F3F2" transform="translate(609,844)"/>
<path d="M0 0 C2 1 2 1 2 1 Z " fill="#F3F4F4" transform="translate(624,839)"/>
<path d="M0 0 C2 1 2 1 2 1 Z " fill="#F3F3F3" transform="translate(636,836)"/>
<path d="M0 0 C2 1 2 1 2 1 Z " fill="#F2F3F2" transform="translate(638,835)"/>
<path d="M0 0 C2 1 2 1 2 1 Z " fill="#F3F2F3" transform="translate(386,835)"/>
<path d="" fill="#F3F3F2" transform="translate(0,0)"/>
<path d="M0 0 C2 1 2 1 2 1 Z " fill="#F1F1F0" transform="translate(719,811)"/>
<path d="M0 0 C2 1 2 1 2 1 Z " fill="#F3F3F2" transform="translate(737,805)"/>
<path d="M0 0 C2 1 2 1 2 1 Z " fill="#F3F4F3" transform="translate(264,799)"/>
<path d="M0 0 C2 1 2 1 2 1 Z " fill="#EFEFEF" transform="translate(253,796)"/>
<path d="M0 0 C2 1 2 1 2 1 Z " fill="#EAEBED" transform="translate(235,790)"/>
<path d="" fill="#EDECED" transform="translate(0,0)"/>
<path d="" fill="#EFF0EF" transform="translate(0,0)"/>
<path d="" fill="#F6F6F6" transform="translate(0,0)"/>
<path d="" fill="#F5F5F5" transform="translate(0,0)"/>
<path d="" fill="#F3F3F4" transform="translate(0,0)"/>
<path d="" fill="#F5F4F5" transform="translate(0,0)"/>
<path d="" fill="#F6F5F4" transform="translate(0,0)"/>
<path d="" fill="#F5F4F4" transform="translate(0,0)"/>
<path d="" fill="#F5F5F5" transform="translate(0,0)"/>
<path d="" fill="#FCFDFC" transform="translate(0,0)"/>
<path d="M0 0 C2 1 2 1 2 1 Z " fill="#F8F8F8" transform="translate(602,657)"/>
<path d="M0 0 C2 1 2 1 2 1 Z " fill="#F9FAFA" transform="translate(594,656)"/>
<path d="" fill="#FBFCFC" transform="translate(0,0)"/>
<path d="M0 0 C2 1 2 1 2 1 Z " fill="#FCFCFC" transform="translate(682,650)"/>
<path d="" fill="#FDFDFC" transform="translate(0,0)"/>
<path d="" fill="#FCFBFB" transform="translate(0,0)"/>
<path d="" fill="#FCFBFB" transform="translate(0,0)"/>
<path d="" fill="#FEFDFB" transform="translate(0,0)"/>
<path d="" fill="#F3F3F3" transform="translate(0,0)"/>
<path d="" fill="#FCFDFC" transform="translate(0,0)"/>
<path d="" fill="#FAFAF9" transform="translate(0,0)"/>
<path d="" fill="#FCFAFB" transform="translate(0,0)"/>
<path d="M0 0 C2 1 2 1 2 1 Z " fill="#FAFBFC" transform="translate(660,598)"/>
<path d="" fill="#FAFBFA" transform="translate(0,0)"/>
<path d="" fill="#FAFCFB" transform="translate(0,0)"/>
<path d="" fill="#FCFBFB" transform="translate(0,0)"/>
<path d="" fill="#FAF9F9" transform="translate(0,0)"/>
<path d="" fill="#FBFAF9" transform="translate(0,0)"/>
<path d="" fill="#FCFCFC" transform="translate(0,0)"/>
<path d="M0 0 C2 1 2 1 2 1 Z " fill="#FAFAFA" transform="translate(683,581)"/>
<path d="" fill="#FAFAFA" transform="translate(0,0)"/>
<path d="M0 0 C2 1 2 1 2 1 Z " fill="#FAFAFB" transform="translate(555,565)"/>
<path d="" fill="#FCFBFB" transform="translate(0,0)"/>
<path d="M0 0 C2 1 2 1 2 1 Z " fill="#FCFCFA" transform="translate(559,562)"/>
<path d="" fill="#FAFAFA" transform="translate(0,0)"/>
<path d="" fill="#F4F4F3" transform="translate(0,0)"/>
<path d="M0 0 C2 1 2 1 2 1 Z " fill="#F5F5F5" transform="translate(811,549)"/>
<path d="" fill="#F9F8F8" transform="translate(0,0)"/>
<path d="" fill="#F1F4F3" transform="translate(0,0)"/>
<path d="M0 0 C2 1 2 1 2 1 Z " fill="#FDFDFD" transform="translate(676,538)"/>
<path d="" fill="#FCFCFC" transform="translate(0,0)"/>
<path d="M0 0 C2 1 2 1 2 1 Z " fill="#FAF9FA" transform="translate(667,532)"/>
<path d="" fill="#FBFCFC" transform="translate(0,0)"/>
<path d="" fill="#FAFBFB" transform="translate(0,0)"/>
<path d="M0 0 C2 1 2 1 2 1 Z " fill="#FCFCFC" transform="translate(744,523)"/>
<path d="" fill="#F8FAF8" transform="translate(0,0)"/>
<path d="M0 0 C2 1 2 1 2 1 Z " fill="#F9FBFB" transform="translate(620,513)"/>
<path d="" fill="#FAFBFB" transform="translate(0,0)"/>
<path d="M0 0 C2 1 2 1 2 1 Z " fill="#FBFBFC" transform="translate(730,502)"/>
<path d="M0 0 C2 1 2 1 2 1 Z " fill="#FBFBFA" transform="translate(730,499)"/>
<path d="" fill="#F8F8F9" transform="translate(0,0)"/>
<path d="M0 0 C2 1 2 1 2 1 Z " fill="#FAFAF9" transform="translate(583,498)"/>
<path d="M0 0 C2 1 2 1 2 1 Z " fill="#FAFBFB" transform="translate(580,497)"/>
<path d="" fill="#F7F8F7" transform="translate(0,0)"/>
<path d="" fill="#FCFCFB" transform="translate(0,0)"/>
<path d="" fill="#FAFBFA" transform="translate(0,0)"/>
<path d="M0 0 C2 1 2 1 2 1 Z " fill="#FBFAF9" transform="translate(627,443)"/>
<path d="M0 0 C2 1 2 1 2 1 Z " fill="#FDFCFC" transform="translate(612,436)"/>
<path d="" fill="#F1F1F0" transform="translate(0,0)"/>
<path d="" fill="#FAFAF9" transform="translate(0,0)"/>
<path d="" fill="#F3F5F4" transform="translate(0,0)"/>
<path d="" fill="#F2F2F2" transform="translate(0,0)"/>
<path d="" fill="#FAF9F9" transform="translate(0,0)"/>
<path d="M0 0 C2 1 2 1 2 1 Z " fill="#FBFBFB" transform="translate(669,376)"/>
<path d="M0 0 C2 1 2 1 2 1 Z " fill="#F8F8F8" transform="translate(657,369)"/>
<path d="" fill="#F9F9F9" transform="translate(0,0)"/>
<path d="" fill="#FDFCFB" transform="translate(0,0)"/>
<path d="M0 0 C2 1 2 1 2 1 Z " fill="#FBF9F9" transform="translate(722,347)"/>
<path d="" fill="#F8F8F7" transform="translate(0,0)"/>
<path d="" fill="#FAFAF9" transform="translate(0,0)"/>
<path d="" fill="#F0F0F0" transform="translate(0,0)"/>
<path d="" fill="#F4F2F2" transform="translate(0,0)"/>
<path d="M0 0 C2 1 2 1 2 1 Z " fill="#F9F9F9" transform="translate(699,326)"/>
<path d="" fill="#FBFBFC" transform="translate(0,0)"/>
<path d="" fill="#FBFAF9" transform="translate(0,0)"/>
<path d="" fill="#FDFCFB" transform="translate(0,0)"/>
<path d="" fill="#FBFBFB" transform="translate(0,0)"/>
<path d="" fill="#FAF9F9" transform="translate(0,0)"/>
<path d="M0 0 C2 1 2 1 2 1 Z " fill="#FAF9F9" transform="translate(616,309)"/>
<path d="M0 0 C2 1 2 1 2 1 Z " fill="#F9F8F9" transform="translate(436,309)"/>
<path d="M0 0 C2 1 2 1 2 1 Z " fill="#FAFBFB" transform="translate(621,308)"/>
<path d="" fill="#F4F5F5" transform="translate(0,0)"/>
<path d="" fill="#F2F3F3" transform="translate(0,0)"/>
<path d="" fill="#F0F2F1" transform="translate(0,0)"/>
<path d="" fill="#F4F3F3" transform="translate(0,0)"/>
<path d="" fill="#EFEFEF" transform="translate(0,0)"/>
<path d="" fill="#ECEBEB" transform="translate(0,0)"/>
<path d="" fill="#EBEAEC" transform="translate(0,0)"/>
<path d="" fill="#E1E2E2" transform="translate(0,0)"/>
<path d="" fill="#747473" transform="translate(0,0)"/>
<path d="" fill="#737272" transform="translate(0,0)"/>
<path d="" fill="#71716E" transform="translate(0,0)"/>
<path d="" fill="#2E302F" transform="translate(0,0)"/>
<path d="" fill="#EDEDEF" transform="translate(0,0)"/>
<path d="" fill="#EEEEEE" transform="translate(0,0)"/>
<path d="" fill="#EFEFED" transform="translate(0,0)"/>
<path d="" fill="#F2F2F2" transform="translate(0,0)"/>
<path d="" fill="#F0F3F1" transform="translate(0,0)"/>
<path d="" fill="#EBEEED" transform="translate(0,0)"/>
<path d="" fill="#F1EFED" transform="translate(0,0)"/>
<path d="" fill="#F3F3F3" transform="translate(0,0)"/>
<path d="" fill="#F2F2F1" transform="translate(0,0)"/>
<path d="" fill="#F3F4F4" transform="translate(0,0)"/>
<path d="" fill="#F4F7F5" transform="translate(0,0)"/>
<path d="" fill="#F5F3F2" transform="translate(0,0)"/>
<path d="" fill="#F2F4F5" transform="translate(0,0)"/>
<path d="" fill="#F4F5F6" transform="translate(0,0)"/>
<path d="" fill="#F2F2F2" transform="translate(0,0)"/>
<path d="" fill="#F4F4F4" transform="translate(0,0)"/>
<path d="" fill="#F4F3F3" transform="translate(0,0)"/>
<path d="" fill="#F4F6F5" transform="translate(0,0)"/>
<path d="" fill="#F3F3F3" transform="translate(0,0)"/>
<path d="" fill="#F5F6F6" transform="translate(0,0)"/>
<path d="" fill="#F4F4F4" transform="translate(0,0)"/>
<path d="" fill="#F1F1F1" transform="translate(0,0)"/>
<path d="" fill="#F2F2F1" transform="translate(0,0)"/>
<path d="" fill="#F5F7F4" transform="translate(0,0)"/>
<path d="" fill="#F3F3F1" transform="translate(0,0)"/>
<path d="" fill="#F2F3F3" transform="translate(0,0)"/>
<path d="" fill="#F5F5F4" transform="translate(0,0)"/>
<path d="" fill="#F3F3F2" transform="translate(0,0)"/>
<path d="" fill="#F7F3F5" transform="translate(0,0)"/>
<path d="" fill="#F0F1F2" transform="translate(0,0)"/>
<path d="" fill="#F1F3F3" transform="translate(0,0)"/>
<path d="" fill="#F2F2F3" transform="translate(0,0)"/>
<path d="" fill="#F3F3F3" transform="translate(0,0)"/>
<path d="" fill="#F0F2F1" transform="translate(0,0)"/>
<path d="" fill="#F6F7F6" transform="translate(0,0)"/>
<path d="" fill="#F4F4F3" transform="translate(0,0)"/>
<path d="" fill="#F3F5F2" transform="translate(0,0)"/>
<path d="" fill="#F3F2F3" transform="translate(0,0)"/>
<path d="" fill="#F7F7F6" transform="translate(0,0)"/>
<path d="" fill="#F6F6F5" transform="translate(0,0)"/>
<path d="" fill="#F3F4F2" transform="translate(0,0)"/>
<path d="" fill="#F1F0F2" transform="translate(0,0)"/>
<path d="" fill="#F3F4F4" transform="translate(0,0)"/>
<path d="" fill="#F0F1F1" transform="translate(0,0)"/>
<path d="" fill="#F1F2F0" transform="translate(0,0)"/>
<path d="" fill="#F3F3F3" transform="translate(0,0)"/>
<path d="" fill="#F1F2F2" transform="translate(0,0)"/>
<path d="" fill="#F3F2F2" transform="translate(0,0)"/>
<path d="" fill="#F2F3F2" transform="translate(0,0)"/>
<path d="" fill="#F5F5F5" transform="translate(0,0)"/>
<path d="" fill="#F2F3F2" transform="translate(0,0)"/>
<path d="" fill="#F2F2F2" transform="translate(0,0)"/>
<path d="" fill="#F6F4F4" transform="translate(0,0)"/>
<path d="" fill="#F3F4F4" transform="translate(0,0)"/>
<path d="" fill="#ECEEED" transform="translate(0,0)"/>
<path d="" fill="#F2F5F4" transform="translate(0,0)"/>
<path d="" fill="#F1F3F1" transform="translate(0,0)"/>
<path d="" fill="#F3F2F0" transform="translate(0,0)"/>
<path d="" fill="#F1F1EF" transform="translate(0,0)"/>
<path d="" fill="#F0EFEF" transform="translate(0,0)"/>
<path d="" fill="#F5F6F4" transform="translate(0,0)"/>
<path d="" fill="#F3F2F1" transform="translate(0,0)"/>
<path d="" fill="#F1F1F1" transform="translate(0,0)"/>
<path d="" fill="#EDEEEE" transform="translate(0,0)"/>
<path d="" fill="#EFEFED" transform="translate(0,0)"/>
<path d="" fill="#F1EFED" transform="translate(0,0)"/>
<path d="" fill="#EAEBEC" transform="translate(0,0)"/>
<path d="" fill="#EEEEEE" transform="translate(0,0)"/>
<path d="" fill="#F6F5F4" transform="translate(0,0)"/>
<path d="" fill="#F0F2F0" transform="translate(0,0)"/>
<path d="" fill="#E5E7E7" transform="translate(0,0)"/>
<path d="" fill="#F0F1F0" transform="translate(0,0)"/>
<path d="" fill="#EDEDED" transform="translate(0,0)"/>
<path d="" fill="#F2F1F0" transform="translate(0,0)"/>
<path d="" fill="#F1F2F2" transform="translate(0,0)"/>
<path d="" fill="#F1F3F3" transform="translate(0,0)"/>
<path d="" fill="#F9FAF9" transform="translate(0,0)"/>
<path d="" fill="#F3F3F4" transform="translate(0,0)"/>
<path d="" fill="#F0EFEF" transform="translate(0,0)"/>
<path d="" fill="#F5F3F4" transform="translate(0,0)"/>
<path d="" fill="#F7F6F6" transform="translate(0,0)"/>
<path d="" fill="#FAFBFA" transform="translate(0,0)"/>
<path d="" fill="#F8F8F7" transform="translate(0,0)"/>
<path d="" fill="#F0EFEF" transform="translate(0,0)"/>
<path d="" fill="#F2F3F1" transform="translate(0,0)"/>
<path d="" fill="#FAFCFA" transform="translate(0,0)"/>
<path d="" fill="#F9F9F9" transform="translate(0,0)"/>
<path d="" fill="#FAFAFA" transform="translate(0,0)"/>
<path d="" fill="#FCFAFB" transform="translate(0,0)"/>
<path d="" fill="#FBFCFB" transform="translate(0,0)"/>
<path d="" fill="#F7F6F7" transform="translate(0,0)"/>
<path d="" fill="#FAFBF9" transform="translate(0,0)"/>
<path d="" fill="#FCFCFC" transform="translate(0,0)"/>
<path d="" fill="#F9FCF9" transform="translate(0,0)"/>
<path d="" fill="#FCFCFC" transform="translate(0,0)"/>
<path d="" fill="#F7F6F5" transform="translate(0,0)"/>
<path d="" fill="#F4F3F1" transform="translate(0,0)"/>
<path d="" fill="#FAFBFB" transform="translate(0,0)"/>
<path d="" fill="#FEFCF9" transform="translate(0,0)"/>
<path d="" fill="#FCFBFB" transform="translate(0,0)"/>
<path d="" fill="#FBFCFD" transform="translate(0,0)"/>
<path d="" fill="#FCFDFB" transform="translate(0,0)"/>
<path d="" fill="#FAFAFA" transform="translate(0,0)"/>
<path d="" fill="#F6F7F4" transform="translate(0,0)"/>
<path d="" fill="#FAF8F7" transform="translate(0,0)"/>
<path d="" fill="#FCFCFA" transform="translate(0,0)"/>
<path d="" fill="#FEFBFB" transform="translate(0,0)"/>
<path d="" fill="#F3F3F3" transform="translate(0,0)"/>
<path d="" fill="#FCFAFC" transform="translate(0,0)"/>
<path d="" fill="#FCFCFC" transform="translate(0,0)"/>
<path d="" fill="#F5F4F4" transform="translate(0,0)"/>
<path d="" fill="#FBFAFA" transform="translate(0,0)"/>
<path d="" fill="#FBFBF8" transform="translate(0,0)"/>
<path d="" fill="#F4F4F5" transform="translate(0,0)"/>
<path d="" fill="#FDFDFB" transform="translate(0,0)"/>
<path d="" fill="#FEFFFC" transform="translate(0,0)"/>
<path d="" fill="#F2F4F2" transform="translate(0,0)"/>
<path d="" fill="#F1F2F4" transform="translate(0,0)"/>
<path d="" fill="#F4F3F3" transform="translate(0,0)"/>
<path d="" fill="#F5F6F5" transform="translate(0,0)"/>
<path d="" fill="#FBFBFB" transform="translate(0,0)"/>
<path d="" fill="#FBFBFA" transform="translate(0,0)"/>
<path d="" fill="#FFFEFD" transform="translate(0,0)"/>
<path d="" fill="#F8F8F8" transform="translate(0,0)"/>
<path d="" fill="#FAFBF9" transform="translate(0,0)"/>
<path d="" fill="#FBFAFB" transform="translate(0,0)"/>
<path d="" fill="#FBFDFB" transform="translate(0,0)"/>
<path d="" fill="#FFFEFD" transform="translate(0,0)"/>
<path d="" fill="#FFFDFD" transform="translate(0,0)"/>
<path d="" fill="#FDFAFA" transform="translate(0,0)"/>
<path d="" fill="#FDFDFC" transform="translate(0,0)"/>
<path d="" fill="#FCFEFC" transform="translate(0,0)"/>
<path d="" fill="#FCFCFB" transform="translate(0,0)"/>
<path d="" fill="#FCFBFA" transform="translate(0,0)"/>
<path d="" fill="#FCFDFC" transform="translate(0,0)"/>
<path d="" fill="#FCFCFD" transform="translate(0,0)"/>
<path d="" fill="#FEFFFE" transform="translate(0,0)"/>
<path d="" fill="#FBFCFC" transform="translate(0,0)"/>
<path d="" fill="#FBFAFA" transform="translate(0,0)"/>
<path d="" fill="#FBFDFA" transform="translate(0,0)"/>
<path d="" fill="#F4F5F5" transform="translate(0,0)"/>
<path d="" fill="#FCFBF9" transform="translate(0,0)"/>
<path d="" fill="#FBFBF9" transform="translate(0,0)"/>
<path d="" fill="#F4F2F2" transform="translate(0,0)"/>
<path d="" fill="#FBFCFB" transform="translate(0,0)"/>
<path d="" fill="#F5F5F3" transform="translate(0,0)"/>
<path d="" fill="#FEFCFB" transform="translate(0,0)"/>
<path d="" fill="#FBFCFB" transform="translate(0,0)"/>
<path d="" fill="#FCFDFD" transform="translate(0,0)"/>
<path d="" fill="#FAFAF9" transform="translate(0,0)"/>
<path d="" fill="#F9F8F8" transform="translate(0,0)"/>
<path d="" fill="#FCFCFA" transform="translate(0,0)"/>
<path d="" fill="#FCFBFB" transform="translate(0,0)"/>
<path d="" fill="#FAFAFA" transform="translate(0,0)"/>
<path d="" fill="#F8F7F7" transform="translate(0,0)"/>
<path d="" fill="#FCFCFA" transform="translate(0,0)"/>
<path d="" fill="#FBFBFB" transform="translate(0,0)"/>
<path d="" fill="#FCFAFB" transform="translate(0,0)"/>
<path d="" fill="#FBFBFA" transform="translate(0,0)"/>
<path d="" fill="#F5F6F6" transform="translate(0,0)"/>
<path d="" fill="#FDFDFD" transform="translate(0,0)"/>
<path d="" fill="#F9F9F8" transform="translate(0,0)"/>
<path d="" fill="#FCFCFB" transform="translate(0,0)"/>
<path d="" fill="#FCFDFC" transform="translate(0,0)"/>
<path d="" fill="#FCFBFB" transform="translate(0,0)"/>
<path d="" fill="#FCFCFA" transform="translate(0,0)"/>
<path d="" fill="#FBFBFC" transform="translate(0,0)"/>
<path d="" fill="#FCFCFB" transform="translate(0,0)"/>
<path d="" fill="#FDFDFD" transform="translate(0,0)"/>
<path d="" fill="#FDFEFD" transform="translate(0,0)"/>
<path d="" fill="#FEFBFA" transform="translate(0,0)"/>
<path d="" fill="#F6F8F5" transform="translate(0,0)"/>
<path d="" fill="#F8F7F8" transform="translate(0,0)"/>
<path d="" fill="#F9FAF8" transform="translate(0,0)"/>
<path d="" fill="#F8F7F7" transform="translate(0,0)"/>
<path d="" fill="#FDFDFE" transform="translate(0,0)"/>
<path d="" fill="#FDFEFD" transform="translate(0,0)"/>
<path d="" fill="#FDFDFC" transform="translate(0,0)"/>
<path d="" fill="#FBFAFA" transform="translate(0,0)"/>
<path d="" fill="#FAFCFA" transform="translate(0,0)"/>
<path d="" fill="#F9FBFA" transform="translate(0,0)"/>
<path d="" fill="#FBFBFB" transform="translate(0,0)"/>
<path d="" fill="#F8F9F8" transform="translate(0,0)"/>
<path d="" fill="#FBFBF9" transform="translate(0,0)"/>
<path d="" fill="#FDFBFC" transform="translate(0,0)"/>
<path d="" fill="#FCFCF9" transform="translate(0,0)"/>
<path d="" fill="#FAF9F9" transform="translate(0,0)"/>
<path d="" fill="#FBFBFB" transform="translate(0,0)"/>
<path d="" fill="#FCFAFB" transform="translate(0,0)"/>
<path d="" fill="#FCFAFB" transform="translate(0,0)"/>
<path d="" fill="#FCFDFB" transform="translate(0,0)"/>
<path d="" fill="#FBFBFB" transform="translate(0,0)"/>
<path d="" fill="#FCFCFA" transform="translate(0,0)"/>
<path d="" fill="#F9FAFA" transform="translate(0,0)"/>
<path d="" fill="#FBFBFA" transform="translate(0,0)"/>
<path d="" fill="#FAFAFA" transform="translate(0,0)"/>
<path d="" fill="#FAFBF9" transform="translate(0,0)"/>
<path d="" fill="#F8F7F8" transform="translate(0,0)"/>
<path d="" fill="#FBFAFA" transform="translate(0,0)"/>
<path d="" fill="#FDFBFD" transform="translate(0,0)"/>
<path d="" fill="#FAF9FA" transform="translate(0,0)"/>
<path d="" fill="#FAFBFB" transform="translate(0,0)"/>
<path d="" fill="#FDFBFD" transform="translate(0,0)"/>
<path d="" fill="#FAFAFA" transform="translate(0,0)"/>
<path d="" fill="#FBFCFA" transform="translate(0,0)"/>
<path d="" fill="#FDFDFE" transform="translate(0,0)"/>
<path d="" fill="#FAFBFA" transform="translate(0,0)"/>
<path d="" fill="#FCFCFB" transform="translate(0,0)"/>
<path d="" fill="#FCF9FA" transform="translate(0,0)"/>
<path d="" fill="#FBFBFA" transform="translate(0,0)"/>
<path d="" fill="#F9FAFC" transform="translate(0,0)"/>
<path d="" fill="#F7F6F5" transform="translate(0,0)"/>
<path d="" fill="#FAFCFA" transform="translate(0,0)"/>
<path d="" fill="#F9FAF8" transform="translate(0,0)"/>
<path d="" fill="#FCFCFC" transform="translate(0,0)"/>
<path d="" fill="#FCFCFC" transform="translate(0,0)"/>
<path d="" fill="#FCFCFB" transform="translate(0,0)"/>
<path d="" fill="#FCFDFD" transform="translate(0,0)"/>
<path d="" fill="#FCFAFB" transform="translate(0,0)"/>
<path d="" fill="#F3F0F3" transform="translate(0,0)"/>
<path d="" fill="#F4F4F3" transform="translate(0,0)"/>
<path d="" fill="#FAFAFB" transform="translate(0,0)"/>
<path d="" fill="#FBFCFC" transform="translate(0,0)"/>
<path d="" fill="#FCFCFB" transform="translate(0,0)"/>
<path d="" fill="#F2F4F3" transform="translate(0,0)"/>
<path d="" fill="#FCFCFB" transform="translate(0,0)"/>
<path d="" fill="#FBFCFA" transform="translate(0,0)"/>
<path d="" fill="#F5F5F5" transform="translate(0,0)"/>
<path d="" fill="#FAFAFA" transform="translate(0,0)"/>
<path d="" fill="#F4F3F2" transform="translate(0,0)"/>
<path d="" fill="#FAFAFB" transform="translate(0,0)"/>
<path d="" fill="#F3F5F3" transform="translate(0,0)"/>
<path d="" fill="#F3F3F4" transform="translate(0,0)"/>
<path d="" fill="#FAFCFB" transform="translate(0,0)"/>
<path d="" fill="#F5F3F3" transform="translate(0,0)"/>
<path d="" fill="#FCFBFB" transform="translate(0,0)"/>
<path d="" fill="#FAFAFA" transform="translate(0,0)"/>
<path d="" fill="#FAF9FA" transform="translate(0,0)"/>
<path d="" fill="#FAFBF9" transform="translate(0,0)"/>
<path d="" fill="#FBFAFA" transform="translate(0,0)"/>
<path d="" fill="#F9FAF8" transform="translate(0,0)"/>
<path d="" fill="#FBFAFB" transform="translate(0,0)"/>
<path d="" fill="#FAFAFB" transform="translate(0,0)"/>
<path d="" fill="#FCFCFC" transform="translate(0,0)"/>
<path d="" fill="#FAFBFB" transform="translate(0,0)"/>
<path d="" fill="#FAFAF9" transform="translate(0,0)"/>
<path d="" fill="#F8F9FA" transform="translate(0,0)"/>
<path d="" fill="#FBFCFA" transform="translate(0,0)"/>
<path d="" fill="#FEFCFB" transform="translate(0,0)"/>
<path d="" fill="#FAF8F8" transform="translate(0,0)"/>
<path d="" fill="#FDFBFB" transform="translate(0,0)"/>
<path d="" fill="#FAFAF9" transform="translate(0,0)"/>
<path d="" fill="#FAFAFA" transform="translate(0,0)"/>
<path d="" fill="#FCFCFC" transform="translate(0,0)"/>
<path d="" fill="#F8F9F8" transform="translate(0,0)"/>
<path d="" fill="#F7F7F7" transform="translate(0,0)"/>
<path d="" fill="#FCFBF9" transform="translate(0,0)"/>
<path d="" fill="#FBFCFE" transform="translate(0,0)"/>
<path d="" fill="#FAFBFB" transform="translate(0,0)"/>
<path d="" fill="#FCFBFC" transform="translate(0,0)"/>
<path d="" fill="#FCFCFC" transform="translate(0,0)"/>
<path d="" fill="#FBFCFD" transform="translate(0,0)"/>
<path d="" fill="#F9FBFA" transform="translate(0,0)"/>
<path d="" fill="#F9F9FA" transform="translate(0,0)"/>
<path d="" fill="#F9FAF9" transform="translate(0,0)"/>
<path d="" fill="#FDFCFB" transform="translate(0,0)"/>
<path d="" fill="#F3F4F4" transform="translate(0,0)"/>
<path d="" fill="#FCFBFB" transform="translate(0,0)"/>
<path d="" fill="#F4F4F4" transform="translate(0,0)"/>
<path d="" fill="#FDFCFB" transform="translate(0,0)"/>
<path d="" fill="#FAFDFD" transform="translate(0,0)"/>
<path d="" fill="#F9FBF9" transform="translate(0,0)"/>
<path d="" fill="#F4F6F5" transform="translate(0,0)"/>
<path d="" fill="#FBFAFA" transform="translate(0,0)"/>
<path d="" fill="#FBFAFB" transform="translate(0,0)"/>
<path d="" fill="#F9FBFA" transform="translate(0,0)"/>
<path d="" fill="#FAFBFA" transform="translate(0,0)"/>
<path d="" fill="#FAFAFA" transform="translate(0,0)"/>
<path d="" fill="#FBFCF9" transform="translate(0,0)"/>
<path d="" fill="#FCFCFB" transform="translate(0,0)"/>
<path d="" fill="#FAFBFC" transform="translate(0,0)"/>
<path d="" fill="#FCFAF9" transform="translate(0,0)"/>
<path d="" fill="#F9F7F8" transform="translate(0,0)"/>
<path d="" fill="#FAFAF9" transform="translate(0,0)"/>
<path d="" fill="#FEFBFD" transform="translate(0,0)"/>
<path d="" fill="#F1F1F0" transform="translate(0,0)"/>
<path d="" fill="#FCFDFC" transform="translate(0,0)"/>
<path d="" fill="#EFF2F0" transform="translate(0,0)"/>
<path d="" fill="#F7F7F6" transform="translate(0,0)"/>
<path d="" fill="#FDFBFB" transform="translate(0,0)"/>
<path d="" fill="#FEFCFC" transform="translate(0,0)"/>
<path d="" fill="#F1F3F3" transform="translate(0,0)"/>
<path d="" fill="#FAFDFC" transform="translate(0,0)"/>
<path d="" fill="#FBFBFB" transform="translate(0,0)"/>
<path d="" fill="#F0F2F1" transform="translate(0,0)"/>
<path d="" fill="#FBFBFA" transform="translate(0,0)"/>
<path d="" fill="#F8F9F8" transform="translate(0,0)"/>
<path d="" fill="#FAFAFC" transform="translate(0,0)"/>
<path d="" fill="#FAFAF8" transform="translate(0,0)"/>
<path d="" fill="#F1F2F2" transform="translate(0,0)"/>
<path d="" fill="#F2F2F2" transform="translate(0,0)"/>
<path d="" fill="#F4F6F4" transform="translate(0,0)"/>
<path d="" fill="#FBFAFB" transform="translate(0,0)"/>
<path d="" fill="#FCFCFD" transform="translate(0,0)"/>
<path d="" fill="#FAFBFB" transform="translate(0,0)"/>
<path d="" fill="#FDFCFA" transform="translate(0,0)"/>
<path d="" fill="#F9F8F9" transform="translate(0,0)"/>
<path d="" fill="#F8F8FB" transform="translate(0,0)"/>
<path d="" fill="#FBFBFB" transform="translate(0,0)"/>
<path d="" fill="#F9F9FA" transform="translate(0,0)"/>
<path d="" fill="#F7F6F6" transform="translate(0,0)"/>
<path d="" fill="#FAF9F8" transform="translate(0,0)"/>
<path d="" fill="#FBFCF9" transform="translate(0,0)"/>
<path d="" fill="#F9F8FA" transform="translate(0,0)"/>
<path d="" fill="#FDFDFB" transform="translate(0,0)"/>
<path d="" fill="#FEFDFC" transform="translate(0,0)"/>
<path d="" fill="#FEFEFB" transform="translate(0,0)"/>
<path d="" fill="#FCFDFB" transform="translate(0,0)"/>
<path d="" fill="#FBFAF8" transform="translate(0,0)"/>
<path d="" fill="#FCFCFA" transform="translate(0,0)"/>
<path d="" fill="#FBF9F9" transform="translate(0,0)"/>
<path d="" fill="#FDFBFA" transform="translate(0,0)"/>
<path d="" fill="#FAFAFA" transform="translate(0,0)"/>
<path d="" fill="#F9F8F8" transform="translate(0,0)"/>
<path d="" fill="#F7F7F6" transform="translate(0,0)"/>
<path d="" fill="#FDFCFA" transform="translate(0,0)"/>
<path d="" fill="#FCFCFB" transform="translate(0,0)"/>
<path d="" fill="#FCFCFC" transform="translate(0,0)"/>
<path d="" fill="#FCFBFA" transform="translate(0,0)"/>
<path d="" fill="#FBFCFB" transform="translate(0,0)"/>
<path d="" fill="#FBFBFC" transform="translate(0,0)"/>
<path d="" fill="#FBFCF9" transform="translate(0,0)"/>
<path d="" fill="#FBFCFA" transform="translate(0,0)"/>
<path d="" fill="#F2F0F3" transform="translate(0,0)"/>
<path d="" fill="#FAFCFC" transform="translate(0,0)"/>
<path d="" fill="#FBFAFA" transform="translate(0,0)"/>
<path d="" fill="#FCFBFA" transform="translate(0,0)"/>
<path d="" fill="#FCFBFA" transform="translate(0,0)"/>
<path d="" fill="#FAFAF9" transform="translate(0,0)"/>
<path d="" fill="#F1F3F1" transform="translate(0,0)"/>
<path d="" fill="#FBFAFA" transform="translate(0,0)"/>
<path d="" fill="#FBFAF9" transform="translate(0,0)"/>
<path d="" fill="#FCFCFB" transform="translate(0,0)"/>
<path d="" fill="#F2F2F2" transform="translate(0,0)"/>
<path d="" fill="#F2F2F3" transform="translate(0,0)"/>
<path d="" fill="#F8F8F6" transform="translate(0,0)"/>
<path d="" fill="#F8F9F8" transform="translate(0,0)"/>
<path d="" fill="#FBFAFA" transform="translate(0,0)"/>
<path d="" fill="#FCFBFC" transform="translate(0,0)"/>
<path d="" fill="#FAFAFA" transform="translate(0,0)"/>
<path d="" fill="#FAFDFC" transform="translate(0,0)"/>
<path d="" fill="#FCFCFC" transform="translate(0,0)"/>
<path d="" fill="#F8F6F5" transform="translate(0,0)"/>
<path d="" fill="#FBFBFA" transform="translate(0,0)"/>
<path d="" fill="#FCFCFB" transform="translate(0,0)"/>
<path d="" fill="#FCFCFB" transform="translate(0,0)"/>
<path d="" fill="#FBFAFC" transform="translate(0,0)"/>
<path d="" fill="#F9F9F8" transform="translate(0,0)"/>
<path d="" fill="#F9F8F8" transform="translate(0,0)"/>
<path d="" fill="#F1F2F0" transform="translate(0,0)"/>
<path d="" fill="#FBFBFC" transform="translate(0,0)"/>
<path d="" fill="#FCFCFD" transform="translate(0,0)"/>
<path d="" fill="#FAFAF8" transform="translate(0,0)"/>
<path d="" fill="#FBFBFA" transform="translate(0,0)"/>
<path d="" fill="#FCFDFC" transform="translate(0,0)"/>
<path d="" fill="#FCFCFC" transform="translate(0,0)"/>
<path d="" fill="#FAFCFC" transform="translate(0,0)"/>
<path d="" fill="#FAFAFB" transform="translate(0,0)"/>
<path d="" fill="#FBFCFC" transform="translate(0,0)"/>
<path d="" fill="#FCFCFB" transform="translate(0,0)"/>
<path d="" fill="#FBFBFB" transform="translate(0,0)"/>
<path d="" fill="#F1F2F1" transform="translate(0,0)"/>
<path d="" fill="#F1F1F2" transform="translate(0,0)"/>
<path d="" fill="#F8F8F9" transform="translate(0,0)"/>
<path d="" fill="#FBFBFC" transform="translate(0,0)"/>
<path d="" fill="#F8F9F9" transform="translate(0,0)"/>
<path d="" fill="#FAFAFA" transform="translate(0,0)"/>
<path d="" fill="#FAF9FA" transform="translate(0,0)"/>
<path d="" fill="#F8F9F9" transform="translate(0,0)"/>
<path d="" fill="#F3F4F4" transform="translate(0,0)"/>
<path d="" fill="#FAFBFB" transform="translate(0,0)"/>
<path d="" fill="#FBFAFA" transform="translate(0,0)"/>
<path d="" fill="#FAFAFB" transform="translate(0,0)"/>
<path d="" fill="#FBFCFD" transform="translate(0,0)"/>
<path d="" fill="#F9FAFA" transform="translate(0,0)"/>
<path d="" fill="#FAF9F8" transform="translate(0,0)"/>
<path d="" fill="#6B6B6B" transform="translate(0,0)"/>
<path d="" fill="#F1F1F1" transform="translate(0,0)"/>
<path d="" fill="#F6F7F5" transform="translate(0,0)"/>
<path d="" fill="#F6F7F6" transform="translate(0,0)"/>
<path d="" fill="#EBEBEC" transform="translate(0,0)"/>
<path d="" fill="#EFF0EF" transform="translate(0,0)"/>
<path d="" fill="#F4F3F2" transform="translate(0,0)"/>
<path d="" fill="#EEEEEE" transform="translate(0,0)"/>
<path d="" fill="#F2F3F2" transform="translate(0,0)"/>
<path d="" fill="#EAEAEB" transform="translate(0,0)"/>
<path d="" fill="#EAEBEA" transform="translate(0,0)"/>
<path d="" fill="#E6E5E5" transform="translate(0,0)"/>
<path d="" fill="#E3E4E5" transform="translate(0,0)"/>
<path d="" fill="#E4E3E4" transform="translate(0,0)"/>
<path d="" fill="#DFE0E0" transform="translate(0,0)"/>
<path d="" fill="#CACCCC" transform="translate(0,0)"/>
<path d="" fill="#757473" transform="translate(0,0)"/>
</svg>
