<?xml version="1.0" encoding="UTF-8"?>
<svg version="1.1" xmlns="http://www.w3.org/2000/svg" width="1024" height="1024">
<path d="M0 0 C1.59521484 0.49113281 1.59521484 0.49113281 3.22265625 0.9921875 C6.81050105 2.29410587 8.39879687 4.21299665 11 7 C12.30346756 8.13545303 13.61672109 9.25973128 14.9375 10.375 C19.13335726 14.00664161 23.48909163 17.97818325 26 23 C28.02463255 23.65213292 28.02463255 23.65213292 30 24 C30.33 23.34 30.66 22.68 31 22 C31.99 22.99 31.99 22.99 33 24 C35.2572865 24.41315004 37.53518264 24.7157371 39.81640625 24.96484375 C40.84182274 25.0814032 40.84182274 25.0814032 41.88795471 25.20031738 C43.35209865 25.36641614 44.81665345 25.52892478 46.28155518 25.6882019 C50.08475051 26.10387586 53.88407361 26.55215241 57.68359375 27 C58.79329529 27.1302079 58.79329529 27.1302079 59.92541504 27.26304626 C67.69674202 28.18415697 75.33663483 29.41822531 83 31 C83.85110352 31.17112305 84.70220703 31.34224609 85.57910156 31.51855469 C98.90346591 34.21498648 111.96526502 37.49922028 124.9831543 41.41503906 C126.31833059 41.80229029 127.66156626 42.16284214 129.01147461 42.49511719 C162.65663007 51.03755813 198.892597 67.83287579 227.4453125 87.30859375 C229.95501722 89.12947561 229.95501722 89.12947561 233 90 C233 90.66 233 91.32 233 92 C233.67675781 92.22171875 234.35351562 92.4434375 235.05078125 92.671875 C238.85629447 94.38561605 241.89172485 96.71312581 245.1875 99.25 C246.22221436 100.0375769 246.22221436 100.0375769 247.27783203 100.84106445 C249.52336336 102.55452108 251.76167163 104.27714814 254 106 C254.77263184 106.59022949 255.54526367 107.18045898 256.34130859 107.78857422 C265.20518295 114.55992077 273.83357302 121.39520462 282 129 C283.41137543 130.25597128 284.82782894 131.50626613 286.25 132.75 C286.89066406 133.31074219 287.53132813 133.87148438 288.19140625 134.44921875 C289.83161654 135.85561936 291.50182516 137.21138658 293.1875 138.5625 C295.33519696 140.42383737 296.98028453 142.07784195 298.75 144.25 C300.70631884 147.02359938 300.70631884 147.02359938 303 148 C303 148.66 303 149.32 303 150 C303.66 150 304.32 150 305 150 C306.41015625 151.3984375 306.41015625 151.3984375 308.0625 153.375 C311.48392903 157.40816063 315.01429696 161.32152076 318.59375 165.21484375 C321.88587519 169.02537177 324.93901845 173.00278115 328 177 C328.55413574 177.72002197 329.10827148 178.44004395 329.67919922 179.18188477 C338.69379296 190.96453943 346.66922567 203.10623414 354 216 C354.38381836 216.66451172 354.76763672 217.32902344 355.16308594 218.01367188 C377.37192572 256.64298414 387.68488148 302.8107952 382 347 C381.89526367 347.82467773 381.79052734 348.64935547 381.68261719 349.49902344 C377.47698767 381.07379609 365.11708548 410.1680953 344.38916016 434.35839844 C343.17502687 435.79316684 342.00711155 437.26678871 340.84765625 438.74609375 C339.10389115 440.87326598 337.344627 442.60062589 335.25 444.375 C332.19084501 446.97755915 332.19084501 446.97755915 329.1953125 449.65234375 C313.29575993 464.15300865 294.14421233 474.67895548 274 482 C273.27796387 482.26264648 272.55592773 482.52529297 271.81201172 482.79589844 C235.26113409 495.79069519 195.36678425 498.21879853 156.96875 494.640625 C155.22078125 494.47820312 155.22078125 494.47820312 153.4375 494.3125 C152.42558594 494.20550781 151.41367187 494.09851563 150.37109375 493.98828125 C147.80804073 493.72289032 147.80804073 493.72289032 146 496 C146 494.68 146 493.36 146 492 C145.24138672 491.96769287 144.48277344 491.93538574 143.70117188 491.90209961 C134.71449481 491.38149679 126.2077314 489.72585731 117.5 487.5625 C116.79521515 487.39036987 116.0904303 487.21823975 115.36428833 487.04089355 C97.61928651 482.68290021 79.16935664 477.62893451 63 469 C64.83643101 464.84924425 67.39103731 463.16185783 71.1875 460.875 C72.45774259 460.08317123 73.72724897 459.29016047 74.99609375 458.49609375 C75.65464355 458.0872998 76.31319336 457.67850586 76.99169922 457.25732422 C85.72544294 451.7894443 94.21801499 446.09488534 102.14453125 439.49609375 C104 438 104 438 106 437 C107.98358775 437.29725878 109.9540172 437.68369255 111.9140625 438.109375 C113.74964722 438.49766479 113.74964722 438.49766479 115.62231445 438.89379883 C116.2744693 439.03379303 116.92662415 439.17378723 117.59854126 439.31802368 C139.99735855 444.09273655 162.09242276 446.50010743 185 447 C186.09513916 447.03287109 186.09513916 447.03287109 187.21240234 447.06640625 C223.3073752 448.14790356 264.77306557 440.38452842 294.109375 418.28515625 C296 417 296 417 298 417 C298 416.34 298 415.68 298 415 C298.66 415 299.32 415 300 415 C300 414.34 300 413.68 300 413 C303.46153846 410 303.46153846 410 306 410 C306.3403125 409.195625 306.3403125 409.195625 306.6875 408.375 C308 406 308 406 310.5625 403 C312.79867814 400.24778076 313.27997972 399.24009127 314 396 C314.99 395.67 315.98 395.34 317 395 C317.33 393.35 317.66 391.7 318 390 C318.66 390 319.32 390 320 390 C338.9327917 351.10086469 339.04430523 308.83330967 325.40234375 268.15234375 C321.74589789 257.65088761 317.14875314 247.83935452 312 238 C311.12145285 236.1892167 310.24593847 234.37695514 309.375 232.5625 C307.00194415 227.82443255 304.37780774 223.10091614 301 219 C300.34 219 299.68 219 299 219 C298.89816406 218.43796875 298.79632812 217.8759375 298.69140625 217.296875 C297.86351889 214.54660512 296.56801382 212.60904126 294.9375 210.25 C294.38964844 209.45078125 293.84179688 208.6515625 293.27734375 207.828125 C292.64505859 206.92320312 292.64505859 206.92320312 292 206 C291.34 206.33 290.68 206.66 290 207 C289.566875 205.6078125 289.566875 205.6078125 289.125 204.1875 C286.54995171 198.13000546 281.45350715 193.71187856 277 189 C275.76266043 187.59046606 274.53242681 186.17463108 273.3125 184.75 C268.09806429 178.76622132 262.46472445 172.65664848 256 168 C255.34 168 254.68 168 254 168 C253.58878906 167.28457031 253.17757813 166.56914062 252.75390625 165.83203125 C250.64913803 162.43346341 248.00663854 160.16854014 244.9375 157.6875 C244.39544922 157.23310547 243.85339844 156.77871094 243.29492188 156.31054688 C240.51082778 153.78354033 240.51082778 153.78354033 237 153 C236.45988281 152.29230469 235.91976563 151.58460938 235.36328125 150.85546875 C232.3854034 147.25740477 229.022251 144.93295611 225.1875 142.3125 C224.42904785 141.787771 223.6705957 141.26304199 222.88916016 140.72241211 C221.33315755 139.64906598 219.77456435 138.57946549 218.21337891 137.51367188 C216.25189755 136.17226614 214.30230295 134.81563817 212.35546875 133.453125 C196.81090006 122.69788136 180.12554946 113.59177415 162.88964844 105.86328125 C161.1010258 105.04615339 159.33473681 104.18064499 157.5703125 103.3125 C145.11699006 97.2129135 132.03117033 92.69303889 119 88 C118.67 88.66 118.34 89.32 118 90 C118 89.01 118 88.02 118 87 C116.96875 86.87625 115.9375 86.7525 114.875 86.625 C111.37883154 86.06110186 108.31602373 85.21317941 105 84 C105 84.66 105 85.32 105 86 C103.35 85.67 101.7 85.34 100 85 C100 84.34 100 83.68 100 83 C76.33566481 77.28643849 52.39695592 72.76840806 28 72 C27.75894531 72.85078125 27.51789063 73.7015625 27.26953125 74.578125 C22.46725297 87.52211201 11.84421402 97.24637544 -0.07421875 103.65234375 C-14.1034608 109.97925683 -30.31908123 110.89375445 -44.88671875 105.71875 C-47.23322786 104.92067666 -49.56399396 104.44368586 -52 104 C-52 103.34 -52 102.68 -52 102 C-52.72703125 101.73960937 -53.4540625 101.47921875 -54.203125 101.2109375 C-66.30003972 95.97344649 -74.36951485 83.98420655 -80.02734375 72.546875 C-84.69719613 60.31898846 -85.17654716 44.78646918 -80.25 32.58984375 C-74.02490854 19.69223238 -65.58756059 10.04409764 -53.37109375 2.55859375 C-50.90007124 1.21827927 -50.90007124 1.21827927 -50 -1 C-46.7444057 -1.98282092 -43.34732766 -2.41533344 -40 -3 C-39.07445312 -3.19980469 -38.14890625 -3.39960938 -37.1953125 -3.60546875 C-24.17420408 -6.23439172 -12.3929373 -4.42009204 0 0 Z " fill="#F8F8F8" transform="translate(502,342)"/>
<path d="M0 0 C0.33 0 0.66 0 1 0 C1.08547592 0.57549591 1.17095184 1.15099182 1.25901794 1.743927 C2.15064115 7.74637128 3.04300367 13.74870532 3.93579102 19.75097656 C4.26866216 21.98955526 4.60134628 24.22816178 4.93383789 26.46679688 C5.41242822 29.68887589 5.89169623 32.9108535 6.37109375 36.1328125 C6.51904892 37.12991241 6.66700409 38.12701233 6.81944275 39.15432739 C6.95951248 40.09484955 7.09958221 41.0353717 7.24389648 42.00439453 C7.43678001 43.31357346 7.43678001 43.31357346 7.63356018 44.64920044 C7.93975501 46.6135139 8.30613616 48.56832227 8.68701172 50.51953125 C9 53 9 53 7.63671875 55.5546875 C6.99347656 56.32039062 6.35023438 57.08609375 5.6875 57.875 C5.05199219 58.65617188 4.41648437 59.43734375 3.76171875 60.2421875 C2 62 2 62 0 62 C-0.27384521 62.58845703 -0.54769043 63.17691406 -0.82983398 63.78320312 C-1.96205018 65.92810674 -3.17494077 67.60908578 -4.72265625 69.46875 C-5.25665039 70.11610107 -5.79064453 70.76345215 -6.34082031 71.43041992 C-6.90897461 72.11338135 -7.47712891 72.79634277 -8.0625 73.5 C-20.23163887 88.31249039 -31.29516823 103.71535445 -40.97412109 120.265625 C-41.88441709 121.80459281 -42.82487683 123.32562987 -43.76953125 124.84375 C-63.98988238 157.8024488 -76.36251681 198.54124856 -68 237 C-64.8981536 249.73835183 -59.63763265 264.72951526 -50 274 C-50 274.66 -50 275.32 -50 276 C-49.34 276 -48.68 276 -48 276 C-46.66015625 277.43359375 -46.66015625 277.43359375 -45.0625 279.4375 C-37.13118914 288.68798166 -27.27387744 295.01278331 -16.78930664 300.97412109 C-15.56612533 301.67541839 -14.35202314 302.39272876 -13.14624023 303.12353516 C-9.94707139 305.03969283 -7.30960391 306.48704534 -3.5625 306.75 C-2.386875 306.8325 -1.21125 306.915 0 307 C-0.33 307.66 -0.66 308.32 -1 309 C0.24663331 309.50833591 1.49749387 310.00631145 2.75 310.5 C3.44609375 310.7784375 4.1421875 311.056875 4.859375 311.34375 C7.26422695 312.19540327 7.26422695 312.19540327 11 312 C11 312.66 11 313.32 11 314 C32.08116219 319.13375452 53.02767534 323.61351227 74.75 324.6875 C76.19898682 324.76037231 76.19898682 324.76037231 77.67724609 324.8347168 C79.0358374 324.89139526 79.0358374 324.89139526 80.421875 324.94921875 C81.23237305 324.98362061 82.04287109 325.01802246 82.87792969 325.0534668 C85.19124381 325.0986034 85.19124381 325.0986034 88 324 C88.33 324.33 88.66 324.66 89 325 C122.53428467 327.28522067 157.37858028 319.48875898 189 309 C189.76618652 308.74782715 190.53237305 308.4956543 191.32177734 308.23583984 C226.17359413 296.5416502 259.6557738 277.01107452 286.72265625 252.09375 C288.86502305 250.12409545 291.04587497 248.21246411 293.25 246.3125 C295.73970643 244.15542641 298.08490658 241.93003619 300.375 239.5625 C303 237 303 237 305 237 C305.26683594 236.40316406 305.53367187 235.80632812 305.80859375 235.19140625 C307.02486932 232.95425676 308.20357259 231.65579933 310.0625 229.9375 C323.02328935 217.29673014 333.86352045 201.55670841 343 186 C344.04130715 184.2914475 345.08295135 182.58310036 346.125 180.875 C347.08741587 179.25241457 348.04561235 177.6273205 349 176 C349.57363281 175.03578125 350.14726563 174.0715625 350.73828125 173.078125 C351.57939453 171.61632812 351.57939453 171.61632812 352.4375 170.125 C353.20900391 168.79855469 353.20900391 168.79855469 353.99609375 167.4453125 C355.164905 165.11056042 355.164905 165.11056042 354.85546875 162.87109375 C353.8406912 160.65155747 352.70746952 159.54399234 350.875 157.9375 C341.96361831 149.37307784 335.46340704 136.96993511 333.45703125 124.77734375 C333.09887713 122.75972425 333.09887713 122.75972425 331 121 C331.66 121 332.32 121 333 121 C332.97679687 120.17757812 332.95359375 119.35515625 332.9296875 118.5078125 C332.82535663 112.05420299 333.0896623 106.1974924 334.66015625 99.92578125 C335.21052313 97.92450717 335.21052313 97.92450717 334 96 C334.99 96 335.98 96 337 96 C337.11214844 95.27296875 337.22429687 94.5459375 337.33984375 93.796875 C339.74647608 83.60072858 348.42222719 74.12391314 357 68.5625 C357.763125 68.11003906 358.52625 67.65757812 359.3125 67.19140625 C359.869375 66.79824219 360.42625 66.40507813 361 66 C361 65.34 361 64.68 361 64 C361.71414063 63.87625 362.42828125 63.7525 363.1640625 63.625 C366.97105669 62.78599302 370.46298489 61.35744684 374.0859375 59.9375 C388.74244731 55.22226896 405.38676415 57.57302403 419.25 63.6875 C433.6291032 71.72104244 444.44766114 85.07776684 449.140625 100.828125 C452.88198987 116.89353814 449.19005835 132.91760592 440.62231445 146.73144531 C433.27484195 157.97241231 422.7494569 166.81744398 409.75 170.8125 C408.5125 171.204375 407.275 171.59625 406 172 C405.67 172.99 405.34 173.98 405 175 C402.525 174.01 402.525 174.01 400 173 C399.87488037 173.73250977 399.74976074 174.46501953 399.62084961 175.21972656 C399.0263144 177.88215949 398.22249822 180.02265743 397.06640625 182.484375 C396.47182617 183.75063721 396.47182617 183.75063721 395.86523438 185.04248047 C395.22038086 186.38270264 395.22038086 186.38270264 394.5625 187.75 C394.11583984 188.68086426 393.66917969 189.61172852 393.20898438 190.57080078 C381.8000553 213.99270812 366.9761444 236.66709481 349.109375 255.671875 C347.31452315 257.65285963 345.79562685 259.59744042 344.3125 261.8125 C342.01438836 264.98016739 339.71883037 267.07734517 336.70703125 269.51171875 C334.98106139 271.0165117 333.60927556 272.58414996 332.1875 274.375 C331.465625 275.24125 330.74375 276.1075 330 277 C329.34 277 328.68 277 328 277 C328 277.66 328 278.32 328 279 C326.49609375 280.515625 326.49609375 280.515625 324.4375 282.25 C323.71175781 282.86488281 322.98601562 283.47976563 322.23828125 284.11328125 C321.49964844 284.73589844 320.76101563 285.35851562 320 286 C319.33355469 286.59167969 318.66710937 287.18335938 317.98046875 287.79296875 C317.36816406 288.33566406 316.75585938 288.87835937 316.125 289.4375 C315.57070313 289.93121094 315.01640625 290.42492187 314.4453125 290.93359375 C313 292 313 292 311 292 C311 292.66 311 293.32 311 294 C309.3203125 295.5078125 309.3203125 295.5078125 307.125 297.125 C306.40570312 297.66382813 305.68640625 298.20265625 304.9453125 298.7578125 C303 300 303 300 301 300 C301 300.66 301 301.32 301 302 C298.97037692 303.60970106 296.94254695 305.09581926 294.8125 306.5625 C294.17320557 307.00867676 293.53391113 307.45485352 292.87524414 307.91455078 C291.55103351 308.83791663 290.22508487 309.75879469 288.89746094 310.67724609 C287.22260655 311.844817 285.56675991 313.03955262 283.9140625 314.23828125 C269.27272641 324.7485317 253.23083699 333.22646328 237 341 C236.4009082 341.29181152 235.80181641 341.58362305 235.18457031 341.88427734 C194.88142469 361.5115816 151.12855831 370.95019693 106.5 373.3125 C105.22399429 373.38084045 105.22399429 373.38084045 103.92221069 373.45056152 C101.50054229 373.57600587 99.07867743 373.69106256 96.65625 373.80078125 C95.92626297 373.8369606 95.19627594 373.87313995 94.44416809 373.91041565 C91.30071614 374.03806316 89.01507559 374.0050252 86 373 C86 373.66 86 374.32 86 375 C85.34 374.67 84.68 374.34 84 374 C81.10121702 373.81345932 78.21427353 373.67264401 75.3125 373.5625 C66.77775427 373.18561995 58.44280048 372.29986315 50 371 C49.67 371.66 49.34 372.32 49 373 C48.67 372.34 48.34 371.68 48 371 C44.97065509 370.34227572 44.97065509 370.34227572 42 370 C41.67 370.66 41.34 371.32 41 372 C41 371.01 41 370.02 41 369 C40.38616455 368.95246582 39.7723291 368.90493164 39.13989258 368.85595703 C33.15972285 368.33425472 27.49649768 367.37233559 21.6875 365.875 C20.40552734 365.54677246 20.40552734 365.54677246 19.09765625 365.21191406 C2.76775548 360.92114932 -12.63885956 355.16360759 -27.90234375 347.96777344 C-29.85366459 347.06751322 -31.8195092 346.22846937 -33.8046875 345.40625 C-36.54537386 344.20007996 -38.81022647 342.95976256 -41.25 341.25 C-44.59403605 338.9449429 -47.98210552 336.75964427 -51.4375 334.625 C-57.48272978 330.7989052 -63.57899139 326.59554986 -68.53125 321.390625 C-69.9725833 319.89089549 -69.9725833 319.89089549 -72.02734375 318.98828125 C-74.7045864 317.64700919 -76.24107407 315.58017399 -78.11328125 313.29296875 C-79.53811002 311.56134455 -81.00066157 309.86066407 -82.48046875 308.17578125 C-104.07834249 283.55342968 -115.64107504 254.74650111 -117.7890625 222.06640625 C-117.9440473 219.8041038 -117.9440473 219.8041038 -119 217 C-119 201.41939641 -115.81342233 185.64118585 -112.0859375 170.58203125 C-111.13484891 166.73068006 -110.47945987 162.93689828 -110 159 C-109.34 159 -108.68 159 -108 159 C-107.77441406 157.75863281 -107.54882812 156.51726562 -107.31640625 155.23828125 C-105.97675618 149.21044611 -103.48149943 143.79005603 -100.9375 138.1875 C-100.02721504 136.16138185 -99.11955032 134.13408392 -98.21484375 132.10546875 C-97.61337524 130.77745239 -97.61337524 130.77745239 -96.99975586 129.42260742 C-96.11620369 127.28158467 -95.48602702 125.25948416 -95 123 C-94.34 123 -93.68 123 -93 123 C-92.79375 122.22785156 -92.5875 121.45570313 -92.375 120.66015625 C-90.46840812 115.58493865 -87.74438893 111.10101939 -85 106.4375 C-83.91365377 104.58379364 -82.83021695 102.72837853 -81.75 100.87109375 C-81.03070313 99.64797485 -81.03070313 99.64797485 -80.296875 98.40014648 C-78.93790376 95.99986705 -78.93790376 95.99986705 -77.94262695 93.31445312 C-76.7879172 90.47926835 -75.19450304 89.12332997 -73 87 C-71.38933093 84.83168752 -69.83381943 82.66559385 -68.3125 80.4375 C-67.70825195 79.5722168 -67.70825195 79.5722168 -67.09179688 78.68945312 C-65.33547602 76.13881631 -63.98482262 73.95446787 -63 71 C-61.85830456 69.89290139 -60.71521559 68.78721492 -59.56640625 67.6875 C-57.61974398 65.59034763 -56.02826884 63.33562415 -54.375 61 C-51.21919952 56.57709781 -47.89623826 52.38147487 -44.375 48.25 C-43.90521729 47.69844238 -43.43543457 47.14688477 -42.95141602 46.57861328 C-40.97826978 44.27400074 -38.98841136 41.98705454 -36.96484375 39.7265625 C-33.75237942 36.39623305 -33.75237942 36.39623305 -33 32 C-31.3387366 30.9910492 -29.67066446 29.99330662 -28 29 C-25.89084396 27.01234735 -23.98416244 24.85521397 -22.0625 22.6875 C-18.154237 18.33546004 -14.26401448 14.00926539 -10 10 C-9.34 10 -8.68 10 -8 10 C-7.773125 9.4225 -7.54625 8.845 -7.3125 8.25 C-5.67083893 5.43572387 -3.56440947 3.97262267 -1 2 C-0.67 1.34 -0.34 0.68 0 0 Z " fill="#F9F9F9" transform="translate(263,472)"/>
<path d="M0 0 C0.4640625 0.45375 0.928125 0.9075 1.40625 1.375 C1.40625 2.035 1.40625 2.695 1.40625 3.375 C2.2415625 3.7153125 2.2415625 3.7153125 3.09375 4.0625 C6.06480185 5.74877267 8.05147125 7.905354 10.40625 10.375 C11.14875 11.096875 11.89125 11.81875 12.65625 12.5625 C51.05021735 51.82905752 73.92820439 106.40372587 85.40625 159.375 C85.70644043 160.74640137 85.70644043 160.74640137 86.01269531 162.14550781 C86.28871582 163.45406738 86.28871582 163.45406738 86.5703125 164.7890625 C86.73225098 165.55428223 86.89418945 166.31950195 87.06103516 167.10791016 C87.43457234 169.56099804 87.46473385 171.89736168 87.40625 174.375 C88.06625 174.705 88.72625 175.035 89.40625 175.375 C89.07625 175.705 88.74625 176.035 88.40625 176.375 C88.66177438 178.91555845 88.97332159 181.41352505 89.34375 183.9375 C89.44365234 184.64841797 89.54355469 185.35933594 89.64648438 186.09179688 C89.89478791 187.85356957 90.14989039 189.61438152 90.40625 191.375 C84.5668352 190.81516263 79.74161105 189.11698065 74.34375 186.875 C69.36702733 184.81822997 64.80693252 182.99715863 59.40625 182.375 C59.40625 181.715 59.40625 181.055 59.40625 180.375 C58.2615625 180.2203125 58.2615625 180.2203125 57.09375 180.0625 C43.57291667 177.54166667 43.57291667 177.54166667 40.40625 174.375 C38.95994311 169.83073945 38.09820173 165.14974826 38.40625 160.375 C37.41625 160.045 36.42625 159.715 35.40625 159.375 C36.06625 159.375 36.72625 159.375 37.40625 159.375 C36.46053317 156.05876342 35.49759109 152.74778006 34.53125 149.4375 C34.26183594 148.49197266 33.99242187 147.54644531 33.71484375 146.57226562 C33.45058594 145.67314453 33.18632813 144.77402344 32.9140625 143.84765625 C32.67316895 143.01500244 32.43227539 142.18234863 32.18408203 141.32446289 C31.58102709 139.18530132 31.58102709 139.18530132 29.40625 138.375 C29.18405006 136.23341578 28.96576646 134.09134017 28.76904297 131.94726562 C28.15615736 127.60179941 26.57864937 123.68793169 24.96875 119.625 C24.61675537 118.72322021 24.26476074 117.82144043 23.90209961 116.89233398 C17.80859725 101.57164181 10.88470306 86.89850716 1.40625 73.375 C0.70371094 72.36824219 0.00117187 71.36148438 -0.72265625 70.32421875 C-3.68835078 66.1654934 -6.72178945 62.15037547 -10.09375 58.3125 C-12.59375 55.375 -12.59375 55.375 -12.59375 53.375 C-13.16351562 53.13523437 -13.73328125 52.89546875 -14.3203125 52.6484375 C-17.05099869 51.11887788 -18.81877956 49.27067054 -20.96875 47 C-24.30973066 43.58271636 -27.5123928 40.89328423 -31.59375 38.375 C-32.82801625 37.42324358 -34.0567222 36.46425367 -35.28125 35.5 C-56.18838405 19.77024697 -84.04704974 13.0395317 -109.96875 15.78125 C-150.80466828 22.46989179 -185.70254969 43.70637864 -210.26953125 77.10546875 C-260.94617913 147.82764244 -273.28773665 244.16911323 -259.78125 328.69921875 C-255.14201108 355.70005945 -247.52942331 383.59347055 -233.59375 407.375 C-232.93375 406.715 -232.27375 406.055 -231.59375 405.375 C-231.59375 406.365 -231.59375 407.355 -231.59375 408.375 C-230.50578125 408.53355469 -229.4178125 408.69210937 -228.296875 408.85546875 C-213.22812701 411.18538593 -202.58060468 415.67817129 -190.59375 425.375 C-189.70042969 426.02082031 -189.70042969 426.02082031 -188.7890625 426.6796875 C-178.52061639 434.28388813 -171.10169359 448.57336666 -169.1875 461.015625 C-167.35744193 476.90385641 -171.60245954 491.01451996 -181.265625 503.68359375 C-185.29483286 508.34152028 -189.72408136 512.59567804 -194.59375 516.375 C-195.25375 516.375 -195.91375 516.375 -196.59375 516.375 C-196.92375 517.035 -197.25375 517.695 -197.59375 518.375 C-211.90503609 526.79503822 -226.79788247 527.20759775 -242.65551758 524.99926758 C-247.69577929 524.31573667 -247.69577929 524.31573667 -252.59375 525.375 C-252.26375 524.385 -251.93375 523.395 -251.59375 522.375 C-252.3671875 522.01148438 -253.140625 521.64796875 -253.9375 521.2734375 C-266.78157804 515.07394439 -266.78157804 515.07394439 -271.59375 510.375 C-271.59375 509.715 -271.59375 509.055 -271.59375 508.375 C-272.25375 508.375 -272.91375 508.375 -273.59375 508.375 C-283.51914358 497.07455189 -288.59375 481.3490557 -288.59375 466.375 C-287.93375 466.375 -287.27375 466.375 -286.59375 466.375 C-286.5009375 464.76625 -286.5009375 464.76625 -286.40625 463.125 C-285.27311512 454.23303883 -280.9346984 446.27464188 -275.73046875 439.1171875 C-274.41160346 437.44253843 -274.41160346 437.44253843 -274.59375 435.375 C-275.08875 433.89 -275.08875 433.89 -275.59375 432.375 C-276.92708333 428.375 -278.26041667 424.375 -279.59375 420.375 C-280.25375 420.375 -280.91375 420.375 -281.59375 420.375 C-283.28148356 415.93394425 -284.94979815 411.48600612 -286.60498047 407.03271484 C-287.28918707 405.19363508 -287.97587499 403.35547727 -288.66455078 401.51806641 C-292.91464601 390.14558937 -296.95470709 378.77991166 -300.15625 367.0625 C-300.40761719 366.14388184 -300.65898437 365.22526367 -300.91796875 364.27880859 C-301.93176165 360.43120235 -302.59375 357.39772195 -302.59375 353.375 C-303.25375 353.045 -303.91375 352.715 -304.59375 352.375 C-305.12109375 349.91796875 -305.12109375 349.91796875 -305.53125 346.5625 C-305.77488281 344.66371094 -305.77488281 344.66371094 -306.0234375 342.7265625 C-306.11206055 342.02950195 -306.20068359 341.33244141 -306.29199219 340.61425781 C-306.61134795 338.24441066 -306.975551 335.88493902 -307.3515625 333.5234375 C-308.80734339 324.34723032 -309.95584925 315.34123033 -310.28515625 306.05078125 C-310.43791016 304.72626953 -310.43791016 304.72626953 -310.59375 303.375 C-311.25375 303.045 -311.91375 302.715 -312.59375 302.375 C-313.03791528 247.19980193 -313.03791528 247.19980193 -310.59375 225.375 C-310.46484375 224.21806641 -310.3359375 223.06113281 -310.203125 221.86914062 C-308.10489589 203.7913426 -304.75429349 186.08492406 -300.59375 168.375 C-300.29863525 167.08988525 -300.29863525 167.08988525 -299.99755859 165.77880859 C-293.69981814 138.66431609 -283.41731364 112.18817369 -270.58447266 87.51879883 C-269.34938271 84.84622002 -268.8249164 82.30310777 -268.59375 79.375 C-267.60375 79.045 -266.61375 78.715 -265.59375 78.375 C-263.69144362 75.74385849 -263.69144362 75.74385849 -261.84375 72.5 C-261.12949513 71.30563722 -260.41464179 70.11163216 -259.69921875 68.91796875 C-259.3439209 68.31903809 -258.98862305 67.72010742 -258.62255859 67.10302734 C-242.3466978 39.76545196 -219.29656332 11.99633978 -191.84375 -4.5625 C-190.77125 -5.243125 -189.69875 -5.92375 -188.59375 -6.625 C-188.59375 -7.285 -188.59375 -7.945 -188.59375 -8.625 C-187.90925781 -8.71394531 -187.22476563 -8.80289063 -186.51953125 -8.89453125 C-182.91385103 -9.79474781 -179.97675649 -11.48324331 -176.78125 -13.3125 C-170.58234954 -16.76463824 -164.32046725 -19.42560212 -157.61010742 -21.72143555 C-153.8957212 -22.77954579 -153.8957212 -22.77954579 -151.59375 -25.625 C-149.60456451 -25.83812702 -147.61415502 -26.04167097 -145.62109375 -26.21484375 C-141.89038488 -26.72029463 -138.30005019 -27.64137522 -134.65625 -28.5625 C-87.7073323 -40.0132037 -38.08885147 -29.56149667 0 0 Z " fill="#F8F8F8" transform="translate(605.59375,185.625)"/>
<path d="M0 0 C337.92 0 675.84 0 1024 0 C1023.67 1.32 1023.34 2.64 1023 4 C1023 3.01 1023 2.02 1023 1 C685.74 1 348.48 1 1 1 C1 338.26 1 675.52 1 1023 C338.59 1023 676.18 1023 1024 1023 C1024 1023.33 1024 1023.66 1024 1024 C686.08 1024 348.16 1024 0 1024 C0 686.08 0 348.16 0 0 Z " fill="#787777" transform="translate(0,0)"/>
<path d="M0 0 C0.33 0.66 0.66 1.32 1 2 C0.07421875 4.171875 0.07421875 4.171875 -1.3125 6.75 C-7.46028318 18.6198196 -9.06450848 31.72063825 -5.375 44.6875 C-3.62791825 49.84139116 -1.33171244 54.32459721 1.6328125 58.87890625 C3 61 3 61 3.9296875 63.15234375 C5.28575787 65.49329735 6.55828098 65.92088822 9 67 C10.14052094 67.89728188 11.26472109 68.81555711 12.375 69.75 C26.28359421 80.29778148 44.20205333 82.87379523 61.1640625 80.5703125 C69.21323751 78.85004027 75.92097967 75.08026866 83 71 C84.32716535 70.32113746 85.65775476 69.64853676 87 69 C85.71937515 70.7074998 84.38232443 72.37373596 83 74 C82.34 74 81.68 74 81 74 C80.67 74.66 80.34 75.32 80 76 C65.68871391 84.42003822 50.79586753 84.83259775 34.93823242 82.62426758 C29.89797071 81.94073667 29.89797071 81.94073667 25 83 C25.495 81.515 25.495 81.515 26 80 C25.2265625 79.63648438 24.453125 79.27296875 23.65625 78.8984375 C10.81217196 72.69894439 10.81217196 72.69894439 6 68 C6 67.34 6 66.68 6 66 C5.34 66 4.68 66 4 66 C-5.92539358 54.69955189 -11 38.9740557 -11 24 C-10.34 24 -9.68 24 -9 24 C-8.9071875 22.39125 -8.9071875 22.39125 -8.8125 20.75 C-7.89867077 13.33341497 -4.71447081 5.78970099 0 0 Z " fill="#969898" transform="translate(328,628)"/>
<path d="M0 0 C9.02812935 0.37495151 17.29371482 2.49455502 25.9375 5 C27.25039321 5.37330379 28.56354344 5.74570491 29.87695312 6.1171875 C32.27205752 6.79619278 34.66600653 7.4792977 37.05834961 8.16796875 C38.74816024 8.64592332 40.44251338 9.1094837 42.1472168 9.53125 C75.73487851 18.02885318 111.95285973 34.87398081 140.4453125 54.30859375 C142.95501722 56.12947561 142.95501722 56.12947561 146 57 C146 57.66 146 58.32 146 59 C146.78375 59.268125 147.5675 59.53625 148.375 59.8125 C151 61 151 61 153 64 C149.50084323 62.69469135 146.44418016 61.15714049 143.2890625 59.1640625 C142.38575195 58.60033936 141.48244141 58.03661621 140.55175781 57.45581055 C139.58592773 56.85164307 138.62009766 56.24747559 137.625 55.625 C126.03683793 48.47970459 114.1713747 42.08792227 102 36 C101.21270508 35.59974609 100.42541016 35.19949219 99.61425781 34.78710938 C68.10744745 18.82293356 34.18491536 9.23185143 0 1 C0 0.67 0 0.34 0 0 Z " fill="#9FA0A1" transform="translate(589,375)"/>
<path d="M0 0 C0.66 0.33 1.32 0.66 2 1 C1.38125 1.2475 0.7625 1.495 0.125 1.75 C-2.11943708 2.80066625 -2.11943708 2.80066625 -2.8671875 4.8515625 C-4.26033311 7.4937352 -5.92273913 8.76477448 -8.25 10.625 C-16.70729982 17.94015644 -21.52569679 27.96859092 -23 39 C-24.17518694 55.94446207 -21.76889787 71.16026008 -10.60644531 84.68896484 C-7.51794286 88.2374357 -4.29300381 91.6414934 -1 95 C-3.60017687 102.18872429 -6.88891233 108.55929599 -11 115 C-11.495 114.01 -11.495 114.01 -12 113 C-10.37458113 109.78678769 -8.62480798 106.69084891 -6.8046875 103.5859375 C-4.58731244 99.95831873 -4.58731244 99.95831873 -4.30810547 95.87084961 C-5.16709072 93.54819473 -6.26888385 92.56472291 -8.125 90.9375 C-17.03638169 82.37307784 -23.53659296 69.96993511 -25.54296875 57.77734375 C-25.90112287 55.75972425 -25.90112287 55.75972425 -28 54 C-27.34 54 -26.68 54 -26 54 C-26.02320313 53.17757812 -26.04640625 52.35515625 -26.0703125 51.5078125 C-26.17464337 45.05420299 -25.9103377 39.1974924 -24.33984375 32.92578125 C-23.78947687 30.92450717 -23.78947687 30.92450717 -25 29 C-24.01 29 -23.02 29 -22 29 C-21.83177734 27.90945313 -21.83177734 27.90945313 -21.66015625 26.796875 C-19.03593857 15.67888766 -9.30139601 6.00715159 0 0 Z " fill="#98999A" transform="translate(622,539)"/>
<path d="M0 0 C0.495 0.99 0.495 0.99 1 2 C0.07885742 4.109375 0.07885742 4.109375 -1.39453125 6.75 C-1.93335938 7.73798584 -2.4721875 8.72597168 -3.02734375 9.74389648 C-3.61644531 10.81841064 -4.20554688 11.8929248 -4.8125 13 C-21.02453303 43.38214287 -30.3932979 75.23895801 -31.5625 109.625 C-31.60568359 110.81996094 -31.64886719 112.01492188 -31.69335938 113.24609375 C-31.79840307 116.16397406 -31.90055648 119.08192438 -32 122 C-32.33 122 -32.66 122 -33 122 C-33.33692785 120.39658445 -33.66941093 118.79223445 -34 117.1875 C-34.185625 116.29417969 -34.37125 115.40085937 -34.5625 114.48046875 C-37.25766322 99.19985587 -31.75328627 80.39823429 -28.0859375 65.58203125 C-27.13484891 61.73068006 -26.47945987 57.93689828 -26 54 C-25.34 54 -24.68 54 -24 54 C-23.77441406 52.75863281 -23.54882812 51.51726563 -23.31640625 50.23828125 C-21.97675618 44.21044611 -19.48149943 38.79005603 -16.9375 33.1875 C-16.02721504 31.16138185 -15.11955032 29.13408392 -14.21484375 27.10546875 C-13.81386475 26.22012451 -13.41288574 25.33478027 -12.99975586 24.42260742 C-12.11620369 22.28158467 -11.48602702 20.25948416 -11 18 C-10.34 18 -9.68 18 -9 18 C-8.61714844 16.71222656 -8.61714844 16.71222656 -8.2265625 15.3984375 C-6.94321828 11.84267486 -5.31784652 8.86307753 -3.375 5.625 C-2.74335938 4.56539062 -2.11171875 3.50578125 -1.4609375 2.4140625 C-0.73777344 1.21910156 -0.73777344 1.21910156 0 0 Z " fill="#939494" transform="translate(179,577)"/>
<path d="M0 0 C1.72422052 2.58633078 2.43079086 4.04560591 3.2265625 6.9296875 C3.44924805 7.71400146 3.67193359 8.49831543 3.90136719 9.30639648 C4.14016602 10.15403564 4.37896484 11.0016748 4.625 11.875 C9.56063705 28.74966716 16.06287154 44.68475271 23.80078125 60.4609375 C25.66374089 64.26007006 27.37343555 68.09413973 29 72 C27.35 73.98 25.7 75.96 24 78 C24 75 24 75 24.5625 73 C25.22052993 70.80883384 25.22052993 70.80883384 24 68 C22 62 22 62 20 56 C19.34 56 18.68 56 18 56 C14.35378148 46.40544067 10.805525 36.7763846 7.3125 27.125 C6.93230713 26.08029541 6.55211426 25.03559082 6.16040039 23.95922852 C-0.21785265 6.2755395 -0.21785265 6.2755395 0 0 Z " fill="#898A8B" transform="translate(306,550)"/>
<path d="M0 0 C9.02812935 0.37495151 17.29371482 2.49455502 25.9375 5 C27.25039321 5.37330379 28.56354344 5.74570491 29.87695312 6.1171875 C32.27205752 6.79619278 34.66600653 7.4792977 37.05834961 8.16796875 C38.7390796 8.64335491 40.42447799 9.10412831 42.12084961 9.52026367 C44.26477531 10.06759562 46.32468297 10.76001517 48.4140625 11.48828125 C49.25348389 11.78065674 50.09290527 12.07303223 50.95776367 12.37426758 C73.68429986 20.36859971 73.68429986 20.36859971 75 23 C68.55209943 21.13046905 62.19072552 19.06678119 55.84008789 16.89111328 C37.46675342 10.61401619 18.83339455 5.67544504 0 1 C0 0.67 0 0.34 0 0 Z " fill="#939495" transform="translate(589,375)"/>
<path d="M0 0 C0.33 0 0.66 0 1 0 C1.2503762 6.35513697 0.39051311 11.89952676 -1.125 18.0625 C-1.46059937 19.44187744 -1.46059937 19.44187744 -1.80297852 20.84912109 C-6.31629375 38.70027007 -13.91005239 57.59052742 -29 69 C-27.80523076 66.17599997 -26.46318334 64.37153171 -24.4375 62 C-22.20132186 59.24778076 -21.72002028 58.24009127 -21 55 C-19.515 54.505 -19.515 54.505 -18 54 C-17.67 52.35 -17.34 50.7 -17 49 C-16.34 49 -15.68 49 -15 49 C-7.32142547 33.22367318 -2.666183 17.35008639 0 0 Z " fill="#858687" transform="translate(837,683)"/>
<path d="M0 0 C0 4.80213946 -2.3983293 7.33962972 -5.5625 10.8125 C-8 13 -8 13 -10 13 C-10.21269531 13.52207031 -10.42539063 14.04414062 -10.64453125 14.58203125 C-12.56223207 18.00294424 -15.10114781 20.75435227 -17.6875 23.6875 C-22.30741861 28.99416327 -26.77178968 34.37231162 -31 40 C-31 36.4899233 -30.51686747 36.02331889 -28.375 33.375 C-27.74980469 32.59511719 -27.12460938 31.81523438 -26.48046875 31.01171875 C-24.48844932 28.59306209 -22.4902842 26.1799109 -20.48828125 23.76953125 C-19.55266357 22.6405542 -19.55266357 22.6405542 -18.59814453 21.48876953 C-17.33652338 19.96921408 -16.07064636 18.45318083 -14.80029297 16.94091797 C-14.21006348 16.23209473 -13.61983398 15.52327148 -13.01171875 14.79296875 C-12.48022217 14.1589917 -11.94872559 13.52501465 -11.40112305 12.87182617 C-9.93725955 11.0363387 -9.93725955 11.0363387 -8.96411133 8.8918457 C-7.57367975 6.16344502 -5.41841474 4.82855749 -3 3 C-1.9826127 2.01769502 -0.97403883 1.02530403 0 0 Z " fill="#8C8E8F" transform="translate(238,498)"/>
<path d="M0 0 C0.33 0.66 0.66 1.32 1 2 C0.07421875 4.171875 0.07421875 4.171875 -1.3125 6.75 C-5.05912641 13.74942814 -6.40631082 20.05189156 -7.125 27.875 C-7.21136719 28.75414062 -7.29773438 29.63328125 -7.38671875 30.5390625 C-7.59734307 32.69211108 -7.79952708 34.84598249 -8 37 C-10.58926331 34.41073669 -10.37398043 32.97294721 -10.625 29.375 C-10.69976562 28.37210938 -10.77453125 27.36921875 -10.8515625 26.3359375 C-10.90054687 25.56507813 -10.94953125 24.79421875 -11 24 C-10.34 24 -9.68 24 -9 24 C-8.9071875 22.39125 -8.9071875 22.39125 -8.8125 20.75 C-7.89867077 13.33341497 -4.71447081 5.78970099 0 0 Z " fill="#9B9D9D" transform="translate(328,628)"/>
<path d="M0 0 C0.33 0.99 0.66 1.98 1 3 C2.08796875 3.15855469 3.1759375 3.31710937 4.296875 3.48046875 C17.02849685 5.45248232 27.99700056 8.4386093 38 17 C33.91802318 17 31.13082247 15.07259394 27.625 13.1875 C20.58143903 9.52695969 13.87384834 7.27565141 6 6 C4.83210938 5.80664062 4.83210938 5.80664062 3.640625 5.609375 C2.09818701 5.37492443 0.54971297 5.18019918 -1 5 C-1 2 -1 2 0 0 Z " fill="#8C8E8F" transform="translate(373,591)"/>
<path d="M0 0 C6.33994299 0.61682494 12.45973226 1.61778894 18.6875 2.9375 C26.76476161 4.60605647 34.81350894 5.96991172 43 7 C43 7.33 43 7.66 43 8 C40.03 8 37.06 8 34 8 C33.67 8.66 33.34 9.32 33 10 C32.505 9.01 32.505 9.01 32 8 C28.97065509 7.34227572 28.97065509 7.34227572 26 7 C25.67 7.66 25.34 8.32 25 9 C25 8.01 25 7.02 25 6 C24.45214844 5.97421875 23.90429688 5.9484375 23.33984375 5.921875 C15.25990583 5.34379814 7.75078019 3.22189032 0 1 C0 0.67 0 0.34 0 0 Z " fill="#838484" transform="translate(279,835)"/>
<path d="M0 0 C0.66 0 1.32 0 2 0 C3.31495542 2.60295276 4.62704986 5.20728033 5.9375 7.8125 C6.31068359 8.55048828 6.68386719 9.28847656 7.06835938 10.04882812 C7.42607422 10.76103516 7.78378906 11.47324219 8.15234375 12.20703125 C8.6472229 13.18893433 8.6472229 13.18893433 9.15209961 14.19067383 C10 16 10 16 11 19 C9.59554165 21.2636564 7.8032087 23.0208685 6 25 C6 22 6 22 6.5625 20 C7.22052993 17.80883384 7.22052993 17.80883384 6 15 C4.66666667 11 3.33333333 7 2 3 C1.34 3 0.68 3 0 3 C0 2.01 0 1.02 0 0 Z " fill="#A6A7A7" transform="translate(324,603)"/>
<path d="M0 0 C0.66 0.33 1.32 0.66 2 1 C-1.82241371 6.1404874 -6.36326199 9.88635136 -11.37890625 13.8515625 C-13.74164269 15.78823172 -15.88443757 17.79981508 -18 20 C-18.66 19.67 -19.32 19.34 -20 19 C-19.50072998 18.53102295 -19.00145996 18.0620459 -18.48706055 17.57885742 C-16.220076 15.44889856 -13.95378111 13.3182073 -11.6875 11.1875 C-10.90181641 10.44951172 -10.11613281 9.71152344 -9.30664062 8.95117188 C-8.54931641 8.23896484 -7.79199219 7.52675781 -7.01171875 6.79296875 C-6.31522217 6.1383667 -5.61872559 5.48376465 -4.90112305 4.80932617 C-3.24152511 3.22986292 -1.61108655 1.62871814 0 0 Z " fill="#949595" transform="translate(566,709)"/>
<path d="M0 0 C0.99 0.99 1.98 1.98 3 3 C-1.47053882 9.5258255 -5.71465734 15.15504836 -12 20 C-10.69891531 17.1920777 -9.50058516 15.41531921 -7.4375 13 C-5.20132186 10.24778076 -4.72002028 9.24009127 -4 6 C-3.01 5.67 -2.02 5.34 -1 5 C-0.67 3.35 -0.34 1.7 0 0 Z " fill="#ACADAD" transform="translate(820,732)"/>
<path d="M0 0 C0.33 0 0.66 0 1 0 C1 9.24 1 18.48 1 28 C0.67 28 0.34 28 0 28 C-0.33692785 26.39658445 -0.66941093 24.79223445 -1 23.1875 C-1.185625 22.29417969 -1.37125 21.40085937 -1.5625 20.48046875 C-2.35295434 15.99887497 -1.61604015 11.77046625 -1 7.3125 C-0.90460938 6.61060547 -0.80921875 5.90871094 -0.7109375 5.18554688 C-0.47573234 3.45678896 -0.23810145 1.72836139 0 0 Z " fill="#8C8D8E" transform="translate(146,671)"/>
<path d="M0 0 C0.66 0 1.32 0 2 0 C3.47769218 1.63432755 4.88269319 3.33476368 6.25 5.0625 C9.75802434 9.44894724 13.32176862 13.75588687 17 18 C16 20 16 20 14 21 C13.566875 19.6078125 13.566875 19.6078125 13.125 18.1875 C10.98976119 13.06920697 6.96797278 9.38415726 3.1796875 5.453125 C1 3 1 3 0 0 Z " fill="#9E9F9F" transform="translate(778,528)"/>
<path d="M0 0 C0.66 0.33 1.32 0.66 2 1 C1.38125 1.2475 0.7625 1.495 0.125 1.75 C-2.44249816 3.26029304 -2.71815729 4.36091208 -4 7 C-6.5 9.75 -6.5 9.75 -9 12 C-9.66 12 -10.32 12 -11 12 C-10.67567593 8.93617261 -10.01098513 8.01029035 -7.71484375 5.859375 C-6.79832031 5.16328125 -5.88179687 4.4671875 -4.9375 3.75 C-4.01839844 3.04359375 -3.09929688 2.3371875 -2.15234375 1.609375 C-1.44207031 1.07828125 -0.73179687 0.5471875 0 0 Z " fill="#BABCBC" transform="translate(622,539)"/>
<path d="M0 0 C0.33 0 0.66 0 1 0 C2.12862175 5.36095333 2.09688221 10.55306686 2 16 C1.67 16 1.34 16 1 16 C0.34 12.37 -0.32 8.74 -1 5 C-3.31 6.65 -5.62 8.3 -8 10 C-6.50104329 6.18447383 -4.2013144 4.46254954 -1 2 C-0.67 1.34 -0.34 0.68 0 0 Z " fill="#949596" transform="translate(263,472)"/>
<path d="M0 0 C3.4118241 1.53571665 6.14472955 3.54254399 9.0625 5.875 C10.34833984 6.89207031 10.34833984 6.89207031 11.66015625 7.9296875 C13.79935403 9.82246684 15.3937074 11.65112624 17 14 C12.80912324 12.26763263 9.65136876 9.3566967 6.25 6.4375 C5.64800781 5.93025391 5.04601562 5.42300781 4.42578125 4.90039062 C2.92859272 3.62557363 1.46140412 2.31568608 0 1 C0 0.67 0 0.34 0 0 Z " fill="#9A9C9C" transform="translate(766,457)"/>
<path d="M0 0 C0 3.63327194 -0.95586411 5.04735927 -3 8 C-3.99 8.66 -4.98 9.32 -6 10 C-6.66 8.68 -7.32 7.36 -8 6 C-7.236875 5.566875 -6.47375 5.13375 -5.6875 4.6875 C-3.41906232 3.26313215 -1.7800277 1.96739903 0 0 Z " fill="#BEBFC0" transform="translate(238,498)"/>
<path d="M0 0 C4.29 0.99 8.58 1.98 13 3 C13 3.33 13 3.66 13 4 C12.19175781 3.90460937 11.38351562 3.80921875 10.55078125 3.7109375 C9.48214844 3.60007812 8.41351562 3.48921875 7.3125 3.375 C6.25675781 3.25898437 5.20101562 3.14296875 4.11328125 3.0234375 C0.86283654 2.9989674 -1.10230796 3.59147437 -4 5 C-2.68 3.35 -1.36 1.7 0 0 Z " fill="#909292" transform="translate(607,779)"/>
<path d="M0 0 C1.0528418 0.14985352 1.0528418 0.14985352 2.12695312 0.30273438 C3.85636527 0.54979325 5.5845627 0.80532852 7.3125 1.0625 C7.3125 1.3925 7.3125 1.7225 7.3125 2.0625 C4.3425 2.0625 1.3725 2.0625 -1.6875 2.0625 C-2.0175 2.7225 -2.3475 3.3825 -2.6875 4.0625 C-3.0175 3.4025 -3.3475 2.7425 -3.6875 2.0625 C-6.71684491 1.40477572 -6.71684491 1.40477572 -9.6875 1.0625 C-10.0175 1.7225 -10.3475 2.3825 -10.6875 3.0625 C-10.6875 2.0725 -10.6875 1.0825 -10.6875 0.0625 C-6.90794143 -1.19735286 -3.84326548 -0.57774579 0 0 Z " fill="#939493" transform="translate(314.6875,840.9375)"/>
<path d="M0 0 C0.33 0.99 0.66 1.98 1 3 C3.64 3.33 6.28 3.66 9 4 C8.67 4.66 8.34 5.32 8 6 C5.03 5.67 2.06 5.34 -1 5 C-1 2 -1 2 0 0 Z " fill="#A8A9A9" transform="translate(373,591)"/>
<path d="M0 0 C0.66 0.33 1.32 0.66 2 1 C0.35 2.98 -1.3 4.96 -3 7 C-3.99 6.67 -4.98 6.34 -6 6 C-4.02 4.02 -2.04 2.04 0 0 Z " fill="#AEAFAF" transform="translate(566,709)"/>
<path d="M0 0 C0.99 0.495 0.99 0.495 2 1 C2.625 4.0625 2.625 4.0625 3 7 C2.01 6.67 1.02 6.34 0 6 C0 4.02 0 2.04 0 0 Z " fill="#F8F9F8" transform="translate(825,608)"/>
<path d="M0 0 C1.0625 1.875 1.0625 1.875 2 4 C1.67 4.66 1.34 5.32 1 6 C0.34 6 -0.32 6 -1 6 C-0.67 4.02 -0.34 2.04 0 0 Z " fill="#F7F7F8" transform="translate(419,408)"/>
<path d="M0 0 C0.33 0 0.66 0 1 0 C1 1.98 1 3.96 1 6 C0.34 5.67 -0.32 5.34 -1 5 C-0.67 3.35 -0.34 1.7 0 0 Z " fill="#F8F9FA" transform="translate(835,646)"/>
<path d="M0 0 C0.33 0 0.66 0 1 0 C1 2.31 1 4.62 1 7 C0.67 7 0.34 7 0 7 C0 4.69 0 2.38 0 0 Z " fill="#F2F3F3" transform="translate(145,704)"/>
<path d="M0 0 C0.99 0.495 0.99 0.495 2 1 C2 1.99 2 2.98 2 4 C1.34 4 0.68 4 0 4 C0 2.68 0 1.36 0 0 Z " fill="#F6F7F7" transform="translate(596,603)"/>
<path d="M0 0 C0.99 0 1.98 0 3 0 C3.33 0.99 3.66 1.98 4 3 C2.68 2.67 1.36 2.34 0 2 C0 1.34 0 0.68 0 0 Z " fill="#F9F9F9" transform="translate(618,284)"/>
<path d="M0 0 C0.33 1.32 0.66 2.64 1 4 C0.67 3.34 0.34 2.68 0 2 C-0.66 1.67 -1.32 1.34 -2 1 C-1.34 0.67 -0.68 0.34 0 0 Z " fill="#EDEEEF" transform="translate(146,712)"/>
<path d="M0 0 C0.66 1.32 1.32 2.64 2 4 C1.01 4.495 1.01 4.495 0 5 C0 3.35 0 1.7 0 0 Z " fill="#F0F1F0" transform="translate(884,691)"/>
<path d="M0 0 C0.99 0.495 0.99 0.495 2 1 C1.67 2.32 1.34 3.64 1 5 C0.67 3.35 0.34 1.7 0 0 Z " fill="#F7F8F8" transform="translate(322,681)"/>
<path d="M0 0 C2.475 0.495 2.475 0.495 5 1 C4.01 1.495 4.01 1.495 3 2 C2.01 1.34 1.02 0.68 0 0 Z " fill="#F8F8F8" transform="translate(655,445)"/>
<path d="M0 0 C0.66 0.33 1.32 0.66 2 1 C1.01 2.485 1.01 2.485 0 4 C-0.33 3.34 -0.66 2.68 -1 2 C-0.67 1.34 -0.34 0.68 0 0 Z " fill="#F8F8F7" transform="translate(418,377)"/>
<path d="M0 0 C1.65 0 3.3 0 5 0 C5 0.33 5 0.66 5 1 C3.35 1 1.7 1 0 1 C0 0.67 0 0.34 0 0 Z " fill="#F1F0F0" transform="translate(320,845)"/>
<path d="M0 0 C0.33 1.32 0.66 2.64 1 4 C0.34 3.34 -0.32 2.68 -1 2 C-0.67 1.34 -0.34 0.68 0 0 Z " fill="#F7F8F8" transform="translate(417,400)"/>
<path d="M0 0 C1.98 0.99 1.98 0.99 4 2 C2.68 1.67 1.36 1.34 0 1 C0 0.67 0 0.34 0 0 Z " fill="#FBFBFA" transform="translate(519,202)"/>
<path d="M0 0 C1 4 1 4 1 4 Z " fill="#EFEFEF" transform="translate(216,810)"/>
<path d="M0 0 C4 1 4 1 4 1 Z " fill="#FAFBFA" transform="translate(416,789)"/>
<path d="M0 0 C1 4 1 4 1 4 Z " fill="#F9F8F8" transform="translate(602,776)"/>
<path d="M0 0 C0 3 0 3 0 3 Z " fill="#F1F2F2" transform="translate(154,739)"/>
<path d="M0 0 C1 4 1 4 1 4 Z " fill="#F1F1F1" transform="translate(144,697)"/>
<path d="M0 0 C1 4 1 4 1 4 Z " fill="#F1F1F1" transform="translate(882,624)"/>
<path d="M0 0 C0.66 0 1.32 0 2 0 C1.67 0.99 1.34 1.98 1 3 C0.67 2.01 0.34 1.02 0 0 Z " fill="#F4F4F3" transform="translate(594,576)"/>
<path d="M0 0 C0 3 0 3 0 3 Z " fill="#F1F3F1" transform="translate(209,529)"/>
<path d="M0 0 C0.66 0 1.32 0 2 0 C2 0.66 2 1.32 2 2 C1.34 2 0.68 2 0 2 C0 1.34 0 0.68 0 0 Z " fill="#F9FAFB" transform="translate(678,529)"/>
<path d="M0 0 C1 4 1 4 1 4 Z " fill="#F7F8F8" transform="translate(292,475)"/>
<path d="M0 0 C0.99 0.495 0.99 0.495 2 1 C1.67 1.66 1.34 2.32 1 3 C0.67 2.01 0.34 1.02 0 0 Z " fill="#FBF9F9" transform="translate(696,466)"/>
<path d="M0 0 C1 4 1 4 1 4 Z " fill="#F4F4F3" transform="translate(690,336)"/>
<path d="M0 0 C0.99 0.495 0.99 0.495 2 1 C1.67 1.66 1.34 2.32 1 3 C0.67 2.01 0.34 1.02 0 0 Z " fill="#F8F8F8" transform="translate(625,296)"/>
<path d="M0 0 C0.99 0.495 0.99 0.495 2 1 C1.34 1.66 0.68 2.32 0 3 C0 2.01 0 1.02 0 0 Z " fill="#FAF9F9" transform="translate(554,213)"/>
<path d="M0 0 C0.33 0.66 0.66 1.32 1 2 C0.01 1.67 -0.98 1.34 -2 1 C-1.34 0.67 -0.68 0.34 0 0 Z " fill="#F2F2F2" transform="translate(473,154)"/>
<path d="M0 0 C3 1 3 1 3 1 Z " fill="#EEEFEF" transform="translate(667,838)"/>
<path d="M0 0 C3 1 3 1 3 1 Z " fill="#F2F1F1" transform="translate(729,836)"/>
<path d="M0 0 C3 1 3 1 3 1 Z " fill="#F3F4F3" transform="translate(642,835)"/>
<path d="M0 0 C0.99 0.495 0.99 0.495 2 1 C1.01 1.495 1.01 1.495 0 2 C0 1.34 0 0.68 0 0 Z " fill="#F4F6F6" transform="translate(530,797)"/>
<path d="M0 0 C0.66 0.66 1.32 1.32 2 2 C1.34 2 0.68 2 0 2 C0 1.34 0 0.68 0 0 Z " fill="#ECEDED" transform="translate(185,786)"/>
<path d="M0 0 C0.99 0.495 0.99 0.495 2 1 C1.01 1.495 1.01 1.495 0 2 C0 1.34 0 0.68 0 0 Z " fill="#FBFBFA" transform="translate(754,777)"/>
<path d="M0 0 C0.33 0.66 0.66 1.32 1 2 C0.34 1.67 -0.32 1.34 -1 1 C-0.67 0.67 -0.34 0.34 0 0 Z " fill="#F0F1F2" transform="translate(153,737)"/>
<path d="" fill="#EFEFEF" transform="translate(0,0)"/>
<path d="M0 0 C0.99 0.495 0.99 0.495 2 1 C1.01 1.495 1.01 1.495 0 2 C0 1.34 0 0.68 0 0 Z " fill="#F8F7F6" transform="translate(357,710)"/>
<path d="" fill="#F5F6F5" transform="translate(0,0)"/>
<path d="" fill="#EDEFEE" transform="translate(0,0)"/>
<path d="M0 0 C0.33 0.66 0.66 1.32 1 2 C0.34 1.67 -0.32 1.34 -1 1 C-0.67 0.67 -0.34 0.34 0 0 Z " fill="#F9F9F9" transform="translate(597,669)"/>
<path d="" fill="#FBFCFB" transform="translate(0,0)"/>
<path d="" fill="#F9F9F8" transform="translate(0,0)"/>
<path d="M0 0 C0.66 0 1.32 0 2 0 C1.67 0.66 1.34 1.32 1 2 C0.67 1.34 0.34 0.68 0 0 Z " fill="#F9F9F8" transform="translate(609,627)"/>
<path d="M0 0 C0.33 0.66 0.66 1.32 1 2 C0.34 1.67 -0.32 1.34 -1 1 C-0.67 0.67 -0.34 0.34 0 0 Z " fill="#F9F9F9" transform="translate(329,616)"/>
<path d="" fill="#F6F7F6" transform="translate(0,0)"/>
<path d="M0 0 C0.66 0 1.32 0 2 0 C1.67 0.66 1.34 1.32 1 2 C0.67 1.34 0.34 0.68 0 0 Z " fill="#F9FBFB" transform="translate(817,589)"/>
<path d="M0 0 C0.33 0.66 0.66 1.32 1 2 C0.34 1.67 -0.32 1.34 -1 1 C-0.67 0.67 -0.34 0.34 0 0 Z " fill="#F8F9F9" transform="translate(316,588)"/>
<path d="" fill="#EDECED" transform="translate(0,0)"/>
<path d="M0 0 C0.66 0.66 1.32 1.32 2 2 C1.34 2 0.68 2 0 2 C0 1.34 0 0.68 0 0 Z " fill="#F8F9F8" transform="translate(802,562)"/>
<path d="M0 0 C0.66 0 1.32 0 2 0 C1.67 0.66 1.34 1.32 1 2 C0.67 1.34 0.34 0.68 0 0 Z " fill="#F9F9F9" transform="translate(787,542)"/>
<path d="" fill="#FAF9FA" transform="translate(0,0)"/>
<path d="M0 0 C3 1 3 1 3 1 Z " fill="#F3F4F4" transform="translate(653,528)"/>
<path d="M0 0 C0.66 0 1.32 0 2 0 C1.67 0.66 1.34 1.32 1 2 C0.67 1.34 0.34 0.68 0 0 Z " fill="#F3F4F3" transform="translate(788,473)"/>
<path d="M0 0 C3 1 3 1 3 1 Z " fill="#F2F3F2" transform="translate(466,451)"/>
<path d="M0 0 C3 1 3 1 3 1 Z " fill="#FAFAFA" transform="translate(635,438)"/>
<path d="M0 0 C0.99 0.495 0.99 0.495 2 1 C1.01 1.495 1.01 1.495 0 2 C0 1.34 0 0.68 0 0 Z " fill="#F3F3F3" transform="translate(741,435)"/>
<path d="M0 0 C0.33 0.66 0.66 1.32 1 2 C0.34 1.67 -0.32 1.34 -1 1 C-0.67 0.67 -0.34 0.34 0 0 Z " fill="#F5F7F7" transform="translate(725,424)"/>
<path d="M0 0 C0.66 0.66 1.32 1.32 2 2 C1.34 2 0.68 2 0 2 C0 1.34 0 0.68 0 0 Z " fill="#F4F5F5" transform="translate(710,416)"/>
<path d="M0 0 C0.66 0.66 1.32 1.32 2 2 C1.34 2 0.68 2 0 2 C0 1.34 0 0.68 0 0 Z " fill="#F9F8F9" transform="translate(420,414)"/>
<path d="M0 0 C3 1 3 1 3 1 Z " fill="#F5F6F5" transform="translate(693,408)"/>
<path d="M0 0 C0.66 0 1.32 0 2 0 C1.67 0.66 1.34 1.32 1 2 C0.67 1.34 0.34 0.68 0 0 Z " fill="#F8F9F8" transform="translate(417,406)"/>
<path d="" fill="#F2F2F3" transform="translate(0,0)"/>
<path d="" fill="#FAFBFA" transform="translate(0,0)"/>
<path d="M0 0 C3 1 3 1 3 1 Z " fill="#F7F7F8" transform="translate(587,372)"/>
<path d="M0 0 C0.66 0 1.32 0 2 0 C1.67 0.66 1.34 1.32 1 2 C0.67 1.34 0.34 0.68 0 0 Z " fill="#F2F3F3" transform="translate(304,345)"/>
<path d="M0 0 C0.99 0.495 0.99 0.495 2 1 C1.01 1.495 1.01 1.495 0 2 C0 1.34 0 0.68 0 0 Z " fill="#F1F2F2" transform="translate(320,299)"/>
<path d="M0 0 C0.99 0.495 0.99 0.495 2 1 C1.01 1.495 1.01 1.495 0 2 C0 1.34 0 0.68 0 0 Z " fill="#F1F1F0" transform="translate(676,290)"/>
<path d="" fill="#F9F9F9" transform="translate(0,0)"/>
<path d="M0 0 C0.66 0 1.32 0 2 0 C1.67 0.66 1.34 1.32 1 2 C0.67 1.34 0.34 0.68 0 0 Z " fill="#EDEEEE" transform="translate(588,172)"/>
<path d="M0 0 C0.99 0.495 0.99 0.495 2 1 C1.01 1.495 1.01 1.495 0 2 C0 1.34 0 0.68 0 0 Z " fill="#F1F0F1" transform="translate(582,168)"/>
<path d="M0 0 C3 1 3 1 3 1 Z " fill="#F1F0F0" transform="translate(547,156)"/>
<path d="M0 0 C0.66 0 1.32 0 2 0 C1.67 0.66 1.34 1.32 1 2 C0.67 1.34 0.34 0.68 0 0 Z " fill="#F4F4F3" transform="translate(465,156)"/>
<path d="M0 0 C2 1 2 1 2 1 Z " fill="#F2F3F2" transform="translate(428,838)"/>
<path d="M0 0 C2 1 2 1 2 1 Z " fill="#F4F5F5" transform="translate(721,837)"/>
<path d="M0 0 C2 1 2 1 2 1 Z " fill="#F4F3F2" transform="translate(433,837)"/>
<path d="M0 0 C2 1 2 1 2 1 Z " fill="#F2F1F1" transform="translate(761,829)"/>
<path d="M0 0 C2 1 2 1 2 1 Z " fill="#F3F1F2" transform="translate(248,827)"/>
<path d="M0 0 C2 1 2 1 2 1 Z " fill="#F2F2F2" transform="translate(480,822)"/>
<path d="M0 0 C2 1 2 1 2 1 Z " fill="#EFEEED" transform="translate(785,821)"/>
<path d="" fill="#F1F0F0" transform="translate(0,0)"/>
<path d="M0 0 C2 1 2 1 2 1 Z " fill="#F2F2F2" transform="translate(512,807)"/>
<path d="" fill="#F1EFF0" transform="translate(0,0)"/>
<path d="M0 0 C2 1 2 1 2 1 Z " fill="#ECECEB" transform="translate(193,797)"/>
<path d="M0 0 C2 1 2 1 2 1 Z " fill="#F5F5F3" transform="translate(534,795)"/>
<path d="M0 0 C2 1 2 1 2 1 Z " fill="#F8F8F8" transform="translate(321,794)"/>
<path d="" fill="#F8F9F8" transform="translate(0,0)"/>
<path d="M0 0 C2 1 2 1 2 1 Z " fill="#F8F7F7" transform="translate(705,787)"/>
<path d="M0 0 C2 1 2 1 2 1 Z " fill="#F9FAF9" transform="translate(657,786)"/>
<path d="M0 0 C2 1 2 1 2 1 Z " fill="#F7F8F6" transform="translate(733,784)"/>
<path d="M0 0 C2 1 2 1 2 1 Z " fill="#F8F8F6" transform="translate(437,784)"/>
<path d="M0 0 C2 1 2 1 2 1 Z " fill="#F7F9F8" transform="translate(621,780)"/>
<path d="" fill="#F0F3F2" transform="translate(0,0)"/>
<path d="" fill="#F4F6F4" transform="translate(0,0)"/>
<path d="" fill="#EDEEED" transform="translate(0,0)"/>
<path d="" fill="#FAFAFA" transform="translate(0,0)"/>
<path d="" fill="#FCFCFA" transform="translate(0,0)"/>
<path d="M0 0 C2 1 2 1 2 1 Z " fill="#FBF9FA" transform="translate(816,731)"/>
<path d="" fill="#EEF0EE" transform="translate(0,0)"/>
<path d="" fill="#F8F9F8" transform="translate(0,0)"/>
<path d="M0 0 C2 1 2 1 2 1 Z " fill="#F8F9F8" transform="translate(413,702)"/>
<path d="M0 0 C2 1 2 1 2 1 Z " fill="#F6F6F5" transform="translate(435,671)"/>
<path d="" fill="#F5F5F5" transform="translate(0,0)"/>
<path d="" fill="#F1F2F1" transform="translate(0,0)"/>
<path d="" fill="#F9F8F6" transform="translate(0,0)"/>
<path d="" fill="#EEEFEE" transform="translate(0,0)"/>
<path d="" fill="#F0F3F2" transform="translate(0,0)"/>
<path d="" fill="#FAFAF9" transform="translate(0,0)"/>
<path d="M0 0 C2 1 2 1 2 1 Z " fill="#EFF0F0" transform="translate(884,633)"/>
<path d="M0 0 C2 1 2 1 2 1 Z " fill="#F9F9F9" transform="translate(608,629)"/>
<path d="" fill="#F6F6F8" transform="translate(0,0)"/>
<path d="" fill="#FAFBF9" transform="translate(0,0)"/>
<path d="" fill="#F3F3F5" transform="translate(0,0)"/>
<path d="" fill="#F2F1F2" transform="translate(0,0)"/>
<path d="" fill="#F9FAFB" transform="translate(0,0)"/>
<path d="" fill="#F4F5F4" transform="translate(0,0)"/>
<path d="" fill="#F8F9F8" transform="translate(0,0)"/>
<path d="" fill="#F7F6F6" transform="translate(0,0)"/>
<path d="" fill="#F9F7F8" transform="translate(0,0)"/>
<path d="" fill="#F4F4F4" transform="translate(0,0)"/>
<path d="" fill="#F7F8F7" transform="translate(0,0)"/>
<path d="" fill="#F8F7F7" transform="translate(0,0)"/>
<path d="" fill="#F9FBFB" transform="translate(0,0)"/>
<path d="M0 0 C2 1 2 1 2 1 Z " fill="#FAFAF9" transform="translate(260,540)"/>
<path d="M0 0 C2 1 2 1 2 1 Z " fill="#F6F8F8" transform="translate(676,532)"/>
<path d="" fill="#F5F4F4" transform="translate(0,0)"/>
<path d="" fill="#FCFBFC" transform="translate(0,0)"/>
<path d="" fill="#F1F3F1" transform="translate(0,0)"/>
<path d="M0 0 C2 1 2 1 2 1 Z " fill="#F2F3F3" transform="translate(813,496)"/>
<path d="" fill="#FAF9F9" transform="translate(0,0)"/>
<path d="" fill="#FAFAFA" transform="translate(0,0)"/>
<path d="" fill="#F8F8F7" transform="translate(0,0)"/>
<path d="M0 0 C2 1 2 1 2 1 Z " fill="#FBFAFB" transform="translate(722,483)"/>
<path d="" fill="#F8FAF9" transform="translate(0,0)"/>
<path d="M0 0 C2 1 2 1 2 1 Z " fill="#F3F3F3" transform="translate(798,480)"/>
<path d="M0 0 C2 1 2 1 2 1 Z " fill="#F7F6F6" transform="translate(691,462)"/>
<path d="M0 0 C2 1 2 1 2 1 Z " fill="#F4F5F5" transform="translate(290,459)"/>
<path d="M0 0 C2 1 2 1 2 1 Z " fill="#F9F8F9" transform="translate(635,436)"/>
<path d="M0 0 C2 1 2 1 2 1 Z " fill="#FCFBFB" transform="translate(632,435)"/>
<path d="M0 0 C2 1 2 1 2 1 Z " fill="#F8F8F8" transform="translate(614,429)"/>
<path d="" fill="#F9FBF8" transform="translate(0,0)"/>
<path d="M0 0 C2 1 2 1 2 1 Z " fill="#F7F8F8" transform="translate(587,422)"/>
<path d="M0 0 C2 1 2 1 2 1 Z " fill="#F5F6F8" transform="translate(716,420)"/>
<path d="" fill="#FBFAF9" transform="translate(0,0)"/>
<path d="M0 0 C2 1 2 1 2 1 Z " fill="#F8F8F8" transform="translate(416,387)"/>
<path d="" fill="#F5F7F6" transform="translate(0,0)"/>
<path d="M0 0 C2 1 2 1 2 1 Z " fill="#F6F7F7" transform="translate(620,380)"/>
<path d="M0 0 C2 1 2 1 2 1 Z " fill="#F9F9F8" transform="translate(617,379)"/>
<path d="M0 0 C2 1 2 1 2 1 Z " fill="#F9FAFA" transform="translate(609,377)"/>
<path d="M0 0 C2 1 2 1 2 1 Z " fill="#F7F7F8" transform="translate(683,374)"/>
<path d="" fill="#FBFAFA" transform="translate(0,0)"/>
<path d="M0 0 C2 1 2 1 2 1 Z " fill="#F6F8F6" transform="translate(655,365)"/>
<path d="M0 0 C2 1 2 1 2 1 Z " fill="#F4F3F3" transform="translate(306,341)"/>
<path d="" fill="#F0EFF0" transform="translate(0,0)"/>
<path d="" fill="#F7F7F6" transform="translate(0,0)"/>
<path d="" fill="#FCFDFC" transform="translate(0,0)"/>
<path d="" fill="#F1F1F1" transform="translate(0,0)"/>
<path d="" fill="#F2F2F1" transform="translate(0,0)"/>
<path d="" fill="#F4F6F3" transform="translate(0,0)"/>
<path d="" fill="#FBFDFB" transform="translate(0,0)"/>
<path d="" fill="#F1F0F0" transform="translate(0,0)"/>
<path d="" fill="#F9FAF9" transform="translate(0,0)"/>
<path d="M0 0 C2 1 2 1 2 1 Z " fill="#FAFAF8" transform="translate(568,221)"/>
<path d="M0 0 C2 1 2 1 2 1 Z " fill="#F9F8F8" transform="translate(481,205)"/>
<path d="M0 0 C2 1 2 1 2 1 Z " fill="#F9F8F7" transform="translate(530,204)"/>
<path d="M0 0 C2 1 2 1 2 1 Z " fill="#FAF9F9" transform="translate(484,204)"/>
<path d="M0 0 C2 1 2 1 2 1 Z " fill="#F8F9F8" transform="translate(494,202)"/>
<path d="" fill="#EBECEC" transform="translate(0,0)"/>
<path d="M0 0 C2 1 2 1 2 1 Z " fill="#F0F0EF" transform="translate(433,168)"/>
<path d="M0 0 C2 1 2 1 2 1 Z " fill="#EDEDEC" transform="translate(572,164)"/>
<path d="" fill="#ECECED" transform="translate(0,0)"/>
<path d="" fill="#F0EFEF" transform="translate(0,0)"/>
<path d="M0 0 C2 1 2 1 2 1 Z " fill="#F3F4F4" transform="translate(483,153)"/>
<path d="" fill="#686867" transform="translate(0,0)"/>
<path d="" fill="#676667" transform="translate(0,0)"/>
<path d="" fill="#676664" transform="translate(0,0)"/>
<path d="" fill="#505352" transform="translate(0,0)"/>
<path d="" fill="#EFEFED" transform="translate(0,0)"/>
<path d="" fill="#EFEFEE" transform="translate(0,0)"/>
<path d="" fill="#EBF0EC" transform="translate(0,0)"/>
<path d="" fill="#F1F1F1" transform="translate(0,0)"/>
<path d="" fill="#F0F2F2" transform="translate(0,0)"/>
<path d="" fill="#F0F3F3" transform="translate(0,0)"/>
<path d="" fill="#F8F5F5" transform="translate(0,0)"/>
<path d="" fill="#F3F3F3" transform="translate(0,0)"/>
<path d="" fill="#F4F4F1" transform="translate(0,0)"/>
<path d="" fill="#F4F3F3" transform="translate(0,0)"/>
<path d="" fill="#F1F0F0" transform="translate(0,0)"/>
<path d="" fill="#EDECEB" transform="translate(0,0)"/>
<path d="" fill="#EFEFEE" transform="translate(0,0)"/>
<path d="" fill="#F1F0F0" transform="translate(0,0)"/>
<path d="" fill="#F1F2F2" transform="translate(0,0)"/>
<path d="" fill="#F0F1F0" transform="translate(0,0)"/>
<path d="" fill="#F3F3F2" transform="translate(0,0)"/>
<path d="" fill="#F2F1F3" transform="translate(0,0)"/>
<path d="" fill="#F0F1F0" transform="translate(0,0)"/>
<path d="" fill="#EFF0F1" transform="translate(0,0)"/>
<path d="" fill="#EFEEEE" transform="translate(0,0)"/>
<path d="" fill="#EFF1F1" transform="translate(0,0)"/>
<path d="" fill="#F1F2F1" transform="translate(0,0)"/>
<path d="" fill="#F3F0F1" transform="translate(0,0)"/>
<path d="" fill="#F1F1F1" transform="translate(0,0)"/>
<path d="" fill="#ECEBED" transform="translate(0,0)"/>
<path d="" fill="#F0F2F0" transform="translate(0,0)"/>
<path d="" fill="#F1F2F1" transform="translate(0,0)"/>
<path d="" fill="#F7F6F7" transform="translate(0,0)"/>
<path d="" fill="#F0F1F1" transform="translate(0,0)"/>
<path d="" fill="#F1F3F1" transform="translate(0,0)"/>
<path d="" fill="#F1F1F1" transform="translate(0,0)"/>
<path d="" fill="#EFEFEE" transform="translate(0,0)"/>
<path d="" fill="#F4F6F3" transform="translate(0,0)"/>
<path d="" fill="#F1F1F1" transform="translate(0,0)"/>
<path d="" fill="#F4F3F3" transform="translate(0,0)"/>
<path d="" fill="#F3F2F0" transform="translate(0,0)"/>
<path d="" fill="#EFF1F0" transform="translate(0,0)"/>
<path d="" fill="#F7F7F5" transform="translate(0,0)"/>
<path d="" fill="#EBECE9" transform="translate(0,0)"/>
<path d="" fill="#F3F2F3" transform="translate(0,0)"/>
<path d="" fill="#F3F4F4" transform="translate(0,0)"/>
<path d="" fill="#F3F3F1" transform="translate(0,0)"/>
<path d="" fill="#F4F2F4" transform="translate(0,0)"/>
<path d="" fill="#F4F3F2" transform="translate(0,0)"/>
<path d="" fill="#F1F2F1" transform="translate(0,0)"/>
<path d="" fill="#F2F2F2" transform="translate(0,0)"/>
<path d="" fill="#EEEFEE" transform="translate(0,0)"/>
<path d="" fill="#F4F3F4" transform="translate(0,0)"/>
<path d="" fill="#EFEFEE" transform="translate(0,0)"/>
<path d="" fill="#EDEBEC" transform="translate(0,0)"/>
<path d="" fill="#F5F5F4" transform="translate(0,0)"/>
<path d="" fill="#F5F3F4" transform="translate(0,0)"/>
<path d="" fill="#F2F2F1" transform="translate(0,0)"/>
<path d="" fill="#EFEFED" transform="translate(0,0)"/>
<path d="" fill="#EFF0EF" transform="translate(0,0)"/>
<path d="" fill="#F3F4F4" transform="translate(0,0)"/>
<path d="" fill="#F3F3F1" transform="translate(0,0)"/>
<path d="" fill="#EFEEEF" transform="translate(0,0)"/>
<path d="" fill="#EDEEEC" transform="translate(0,0)"/>
<path d="" fill="#EDEEEE" transform="translate(0,0)"/>
<path d="" fill="#EDECED" transform="translate(0,0)"/>
<path d="" fill="#ECEBEC" transform="translate(0,0)"/>
<path d="" fill="#F1F3F0" transform="translate(0,0)"/>
<path d="" fill="#EDEFED" transform="translate(0,0)"/>
<path d="" fill="#EFEFED" transform="translate(0,0)"/>
<path d="" fill="#F5F6F3" transform="translate(0,0)"/>
<path d="" fill="#F6F6F4" transform="translate(0,0)"/>
<path d="" fill="#F0F0EE" transform="translate(0,0)"/>
<path d="" fill="#F4F5F3" transform="translate(0,0)"/>
<path d="" fill="#F7F7F6" transform="translate(0,0)"/>
<path d="" fill="#F0EFF0" transform="translate(0,0)"/>
<path d="" fill="#EFEFEE" transform="translate(0,0)"/>
<path d="" fill="#F7F5F5" transform="translate(0,0)"/>
<path d="" fill="#F7F7F6" transform="translate(0,0)"/>
<path d="" fill="#F7F7F7" transform="translate(0,0)"/>
<path d="" fill="#F7F4F5" transform="translate(0,0)"/>
<path d="" fill="#F8F8F7" transform="translate(0,0)"/>
<path d="" fill="#FAF8F9" transform="translate(0,0)"/>
<path d="" fill="#FAF8FA" transform="translate(0,0)"/>
<path d="" fill="#F8F8F7" transform="translate(0,0)"/>
<path d="" fill="#F9F9F9" transform="translate(0,0)"/>
<path d="" fill="#F9F8F7" transform="translate(0,0)"/>
<path d="" fill="#F8F6F6" transform="translate(0,0)"/>
<path d="" fill="#FBFCFA" transform="translate(0,0)"/>
<path d="" fill="#EDEBEA" transform="translate(0,0)"/>
<path d="" fill="#F6F6F6" transform="translate(0,0)"/>
<path d="" fill="#FCFCFA" transform="translate(0,0)"/>
<path d="" fill="#F8F8F7" transform="translate(0,0)"/>
<path d="" fill="#EBECEC" transform="translate(0,0)"/>
<path d="" fill="#FBF9FA" transform="translate(0,0)"/>
<path d="" fill="#F8F7F8" transform="translate(0,0)"/>
<path d="" fill="#F8F9F9" transform="translate(0,0)"/>
<path d="" fill="#EBECEB" transform="translate(0,0)"/>
<path d="" fill="#F0F0ED" transform="translate(0,0)"/>
<path d="" fill="#FBFDFB" transform="translate(0,0)"/>
<path d="" fill="#FAFBF9" transform="translate(0,0)"/>
<path d="" fill="#ECECEC" transform="translate(0,0)"/>
<path d="" fill="#F7F6F7" transform="translate(0,0)"/>
<path d="" fill="#F6F7F4" transform="translate(0,0)"/>
<path d="" fill="#F9FAF5" transform="translate(0,0)"/>
<path d="" fill="#FCFCFC" transform="translate(0,0)"/>
<path d="" fill="#E9E9E9" transform="translate(0,0)"/>
<path d="" fill="#EFF2F0" transform="translate(0,0)"/>
<path d="" fill="#EAEBEA" transform="translate(0,0)"/>
<path d="" fill="#FBFCFC" transform="translate(0,0)"/>
<path d="" fill="#ECECEB" transform="translate(0,0)"/>
<path d="" fill="#F5F4F6" transform="translate(0,0)"/>
<path d="" fill="#FAFAFA" transform="translate(0,0)"/>
<path d="" fill="#FAFAF8" transform="translate(0,0)"/>
<path d="" fill="#F8FCF9" transform="translate(0,0)"/>
<path d="" fill="#F4F4F3" transform="translate(0,0)"/>
<path d="" fill="#F8F9F6" transform="translate(0,0)"/>
<path d="" fill="#F1F0F2" transform="translate(0,0)"/>
<path d="" fill="#FBFAF9" transform="translate(0,0)"/>
<path d="" fill="#FDFEFA" transform="translate(0,0)"/>
<path d="" fill="#F2F3F2" transform="translate(0,0)"/>
<path d="" fill="#FCFAF9" transform="translate(0,0)"/>
<path d="" fill="#707070" transform="translate(0,0)"/>
<path d="" fill="#F8F7F6" transform="translate(0,0)"/>
<path d="" fill="#FCFCFB" transform="translate(0,0)"/>
<path d="" fill="#FBFAFA" transform="translate(0,0)"/>
<path d="" fill="#F3F3F2" transform="translate(0,0)"/>
<path d="" fill="#E8EBE9" transform="translate(0,0)"/>
<path d="" fill="#EEEEEC" transform="translate(0,0)"/>
<path d="" fill="#F9F8F9" transform="translate(0,0)"/>
<path d="" fill="#F6F8F7" transform="translate(0,0)"/>
<path d="" fill="#F8FAF7" transform="translate(0,0)"/>
<path d="" fill="#ECEDEB" transform="translate(0,0)"/>
<path d="" fill="#EFEFEE" transform="translate(0,0)"/>
<path d="" fill="#FAF9FA" transform="translate(0,0)"/>
<path d="" fill="#F8F8F7" transform="translate(0,0)"/>
<path d="" fill="#F7F9F8" transform="translate(0,0)"/>
<path d="" fill="#F0F0F0" transform="translate(0,0)"/>
<path d="" fill="#FCFBFB" transform="translate(0,0)"/>
<path d="" fill="#F1F1EF" transform="translate(0,0)"/>
<path d="" fill="#F3F3F3" transform="translate(0,0)"/>
<path d="" fill="#EEEFEC" transform="translate(0,0)"/>
<path d="" fill="#FBFBFA" transform="translate(0,0)"/>
<path d="" fill="#FBFAFA" transform="translate(0,0)"/>
<path d="" fill="#F7F7F8" transform="translate(0,0)"/>
<path d="" fill="#F5F6F7" transform="translate(0,0)"/>
<path d="" fill="#F3F3F3" transform="translate(0,0)"/>
<path d="" fill="#F9F7F6" transform="translate(0,0)"/>
<path d="" fill="#FEFBFB" transform="translate(0,0)"/>
<path d="" fill="#F1F4F2" transform="translate(0,0)"/>
<path d="" fill="#FBFBFB" transform="translate(0,0)"/>
<path d="" fill="#E8E8E8" transform="translate(0,0)"/>
<path d="" fill="#F1F2F1" transform="translate(0,0)"/>
<path d="" fill="#F1F3F0" transform="translate(0,0)"/>
<path d="" fill="#FBF9F9" transform="translate(0,0)"/>
<path d="" fill="#FAF9F8" transform="translate(0,0)"/>
<path d="" fill="#F0EFEF" transform="translate(0,0)"/>
<path d="" fill="#EFEFEF" transform="translate(0,0)"/>
<path d="" fill="#F8F8F6" transform="translate(0,0)"/>
<path d="" fill="#ECEDEC" transform="translate(0,0)"/>
<path d="" fill="#EFF1F2" transform="translate(0,0)"/>
<path d="" fill="#FAFBFA" transform="translate(0,0)"/>
<path d="" fill="#F9F8F8" transform="translate(0,0)"/>
<path d="" fill="#EFEFF1" transform="translate(0,0)"/>
<path d="" fill="#FAFCFA" transform="translate(0,0)"/>
<path d="" fill="#EFF0EF" transform="translate(0,0)"/>
<path d="" fill="#FCFBFA" transform="translate(0,0)"/>
<path d="" fill="#F2F3F2" transform="translate(0,0)"/>
<path d="" fill="#F9F8F8" transform="translate(0,0)"/>
<path d="" fill="#FBFAF9" transform="translate(0,0)"/>
<path d="" fill="#F3F5F4" transform="translate(0,0)"/>
<path d="" fill="#ECEDED" transform="translate(0,0)"/>
<path d="" fill="#FBFBFA" transform="translate(0,0)"/>
<path d="" fill="#FCFBFB" transform="translate(0,0)"/>
<path d="" fill="#FAF9F8" transform="translate(0,0)"/>
<path d="" fill="#F7FAFA" transform="translate(0,0)"/>
<path d="" fill="#F8FAFA" transform="translate(0,0)"/>
<path d="" fill="#FDFEFD" transform="translate(0,0)"/>
<path d="" fill="#F9FBFA" transform="translate(0,0)"/>
<path d="" fill="#FBFCFB" transform="translate(0,0)"/>
<path d="" fill="#FAFBF9" transform="translate(0,0)"/>
<path d="" fill="#F9FBFB" transform="translate(0,0)"/>
<path d="" fill="#F9F8F7" transform="translate(0,0)"/>
<path d="" fill="#F6F5F4" transform="translate(0,0)"/>
<path d="" fill="#F8F9FA" transform="translate(0,0)"/>
<path d="" fill="#F8F8F8" transform="translate(0,0)"/>
<path d="" fill="#FAFAFA" transform="translate(0,0)"/>
<path d="" fill="#F9F8F6" transform="translate(0,0)"/>
<path d="" fill="#ECEDEC" transform="translate(0,0)"/>
<path d="" fill="#F3F4F4" transform="translate(0,0)"/>
<path d="" fill="#F7F7F7" transform="translate(0,0)"/>
<path d="" fill="#FBFBFB" transform="translate(0,0)"/>
<path d="" fill="#FAF9F9" transform="translate(0,0)"/>
<path d="" fill="#F6F7F7" transform="translate(0,0)"/>
<path d="" fill="#F8FAFC" transform="translate(0,0)"/>
<path d="" fill="#F6F5F7" transform="translate(0,0)"/>
<path d="" fill="#F1F2F1" transform="translate(0,0)"/>
<path d="" fill="#F9F9F9" transform="translate(0,0)"/>
<path d="" fill="#8C8C8B" transform="translate(0,0)"/>
<path d="" fill="#F9FAF9" transform="translate(0,0)"/>
<path d="" fill="#F6F7F8" transform="translate(0,0)"/>
<path d="" fill="#FBFBFD" transform="translate(0,0)"/>
<path d="" fill="#F9FAF8" transform="translate(0,0)"/>
<path d="" fill="#F3F4F5" transform="translate(0,0)"/>
<path d="" fill="#ECEDED" transform="translate(0,0)"/>
<path d="" fill="#FCFDFD" transform="translate(0,0)"/>
<path d="" fill="#F9F8F9" transform="translate(0,0)"/>
<path d="" fill="#FAF9F6" transform="translate(0,0)"/>
<path d="" fill="#F5F6F5" transform="translate(0,0)"/>
<path d="" fill="#F7F6F6" transform="translate(0,0)"/>
<path d="" fill="#EEEEEF" transform="translate(0,0)"/>
<path d="" fill="#FAFCF7" transform="translate(0,0)"/>
<path d="" fill="#F7F6F6" transform="translate(0,0)"/>
<path d="" fill="#FAFBFA" transform="translate(0,0)"/>
<path d="" fill="#F8F7F8" transform="translate(0,0)"/>
<path d="" fill="#F4F7F7" transform="translate(0,0)"/>
<path d="" fill="#FBFCFB" transform="translate(0,0)"/>
<path d="" fill="#F1F4F3" transform="translate(0,0)"/>
<path d="" fill="#F9FAFA" transform="translate(0,0)"/>
<path d="" fill="#FCFBFD" transform="translate(0,0)"/>
<path d="" fill="#EDEDEE" transform="translate(0,0)"/>
<path d="" fill="#F7F8F8" transform="translate(0,0)"/>
<path d="" fill="#F2F3F3" transform="translate(0,0)"/>
<path d="" fill="#EFF1F0" transform="translate(0,0)"/>
<path d="" fill="#F8FAF8" transform="translate(0,0)"/>
<path d="" fill="#F6F8F6" transform="translate(0,0)"/>
<path d="" fill="#F8F9F9" transform="translate(0,0)"/>
<path d="" fill="#F8F9F7" transform="translate(0,0)"/>
<path d="" fill="#F6F7F7" transform="translate(0,0)"/>
<path d="" fill="#F4F7F4" transform="translate(0,0)"/>
<path d="" fill="#F0F0F0" transform="translate(0,0)"/>
<path d="" fill="#F0F0F2" transform="translate(0,0)"/>
<path d="" fill="#F8F7F6" transform="translate(0,0)"/>
<path d="" fill="#F8F9F8" transform="translate(0,0)"/>
<path d="" fill="#F8F8F8" transform="translate(0,0)"/>
<path d="" fill="#F7F7F4" transform="translate(0,0)"/>
<path d="" fill="#F7F8F7" transform="translate(0,0)"/>
<path d="" fill="#F3F2F1" transform="translate(0,0)"/>
<path d="" fill="#F8F7F6" transform="translate(0,0)"/>
<path d="" fill="#FAFAFA" transform="translate(0,0)"/>
<path d="" fill="#F5F7F9" transform="translate(0,0)"/>
<path d="" fill="#F7F9F7" transform="translate(0,0)"/>
<path d="" fill="#F3F5F7" transform="translate(0,0)"/>
<path d="" fill="#F7FBFA" transform="translate(0,0)"/>
<path d="" fill="#ECECEE" transform="translate(0,0)"/>
<path d="" fill="#F8F9FB" transform="translate(0,0)"/>
<path d="" fill="#F7F6F6" transform="translate(0,0)"/>
<path d="" fill="#F4F5F4" transform="translate(0,0)"/>
<path d="" fill="#F7F6F7" transform="translate(0,0)"/>
<path d="" fill="#90908F" transform="translate(0,0)"/>
<path d="" fill="#EEEEEF" transform="translate(0,0)"/>
<path d="" fill="#FAFAFB" transform="translate(0,0)"/>
<path d="" fill="#FAFBFA" transform="translate(0,0)"/>
<path d="" fill="#F6F7F6" transform="translate(0,0)"/>
<path d="" fill="#F7FBFA" transform="translate(0,0)"/>
<path d="" fill="#F8F8F7" transform="translate(0,0)"/>
<path d="" fill="#F3F2F3" transform="translate(0,0)"/>
<path d="" fill="#8E8F8F" transform="translate(0,0)"/>
<path d="" fill="#F8F9F9" transform="translate(0,0)"/>
<path d="" fill="#F4F3F3" transform="translate(0,0)"/>
<path d="" fill="#FAF9F8" transform="translate(0,0)"/>
<path d="" fill="#F8FAFA" transform="translate(0,0)"/>
<path d="" fill="#F0F3F5" transform="translate(0,0)"/>
<path d="" fill="#F7F8F6" transform="translate(0,0)"/>
<path d="" fill="#EFEFED" transform="translate(0,0)"/>
<path d="" fill="#F1F2F1" transform="translate(0,0)"/>
<path d="" fill="#F8F9F9" transform="translate(0,0)"/>
<path d="" fill="#FAF9FA" transform="translate(0,0)"/>
<path d="" fill="#F9F9F6" transform="translate(0,0)"/>
<path d="" fill="#F2F4F4" transform="translate(0,0)"/>
<path d="" fill="#F7F9F9" transform="translate(0,0)"/>
<path d="" fill="#FBFCFC" transform="translate(0,0)"/>
<path d="" fill="#FBFBFB" transform="translate(0,0)"/>
<path d="" fill="#F6F6F5" transform="translate(0,0)"/>
<path d="" fill="#F9FAF9" transform="translate(0,0)"/>
<path d="" fill="#F4F6F3" transform="translate(0,0)"/>
<path d="" fill="#F9F9F7" transform="translate(0,0)"/>
<path d="" fill="#F2F4F2" transform="translate(0,0)"/>
<path d="" fill="#EEEEEE" transform="translate(0,0)"/>
<path d="" fill="#F8F8F9" transform="translate(0,0)"/>
<path d="" fill="#EFEEEE" transform="translate(0,0)"/>
<path d="" fill="#F0EFF1" transform="translate(0,0)"/>
<path d="" fill="#F1F2F0" transform="translate(0,0)"/>
<path d="" fill="#FCFBFA" transform="translate(0,0)"/>
<path d="" fill="#F0F1EC" transform="translate(0,0)"/>
<path d="" fill="#F9FAF8" transform="translate(0,0)"/>
<path d="" fill="#FAF9F6" transform="translate(0,0)"/>
<path d="" fill="#F1F0EE" transform="translate(0,0)"/>
<path d="" fill="#F9F9F8" transform="translate(0,0)"/>
<path d="" fill="#FAF9FA" transform="translate(0,0)"/>
<path d="" fill="#F6F6F5" transform="translate(0,0)"/>
<path d="" fill="#F7F7F7" transform="translate(0,0)"/>
<path d="" fill="#FAF8F9" transform="translate(0,0)"/>
<path d="" fill="#FAFBF9" transform="translate(0,0)"/>
<path d="" fill="#F9F9F9" transform="translate(0,0)"/>
<path d="" fill="#F4F5F6" transform="translate(0,0)"/>
<path d="" fill="#F9FAFB" transform="translate(0,0)"/>
<path d="" fill="#F9F9F8" transform="translate(0,0)"/>
<path d="" fill="#ECECEC" transform="translate(0,0)"/>
<path d="" fill="#F7F8F7" transform="translate(0,0)"/>
<path d="" fill="#EAECEC" transform="translate(0,0)"/>
<path d="" fill="#F2F1F0" transform="translate(0,0)"/>
<path d="" fill="#F3F2F2" transform="translate(0,0)"/>
<path d="" fill="#F6F8F9" transform="translate(0,0)"/>
<path d="" fill="#F1F3F1" transform="translate(0,0)"/>
<path d="" fill="#F1F2F1" transform="translate(0,0)"/>
<path d="" fill="#F8FAF7" transform="translate(0,0)"/>
<path d="" fill="#F5F5F2" transform="translate(0,0)"/>
<path d="" fill="#F8FAF6" transform="translate(0,0)"/>
<path d="" fill="#F5F4F3" transform="translate(0,0)"/>
<path d="" fill="#F9F8F8" transform="translate(0,0)"/>
<path d="" fill="#F7F7F7" transform="translate(0,0)"/>
<path d="" fill="#F8F9F9" transform="translate(0,0)"/>
<path d="" fill="#F0F2F1" transform="translate(0,0)"/>
<path d="" fill="#F7F8F6" transform="translate(0,0)"/>
<path d="" fill="#F2F2F1" transform="translate(0,0)"/>
<path d="" fill="#EBEBEA" transform="translate(0,0)"/>
<path d="" fill="#F7F6F6" transform="translate(0,0)"/>
<path d="" fill="#FCFCFB" transform="translate(0,0)"/>
<path d="" fill="#F1F3F3" transform="translate(0,0)"/>
<path d="" fill="#F5F7F6" transform="translate(0,0)"/>
<path d="" fill="#FAFBFB" transform="translate(0,0)"/>
<path d="" fill="#F1F1F3" transform="translate(0,0)"/>
<path d="" fill="#F0F1F1" transform="translate(0,0)"/>
<path d="" fill="#F7F9F9" transform="translate(0,0)"/>
<path d="" fill="#F4F5F3" transform="translate(0,0)"/>
<path d="" fill="#F8F7F9" transform="translate(0,0)"/>
<path d="" fill="#F4F4F4" transform="translate(0,0)"/>
<path d="" fill="#F9F8F8" transform="translate(0,0)"/>
<path d="" fill="#F8FAF8" transform="translate(0,0)"/>
<path d="" fill="#F7F8F7" transform="translate(0,0)"/>
<path d="" fill="#F2F2F2" transform="translate(0,0)"/>
<path d="" fill="#F7F8F8" transform="translate(0,0)"/>
<path d="" fill="#F4F3F2" transform="translate(0,0)"/>
<path d="" fill="#FAFBFC" transform="translate(0,0)"/>
<path d="" fill="#F4F5F2" transform="translate(0,0)"/>
<path d="" fill="#F1F2F1" transform="translate(0,0)"/>
<path d="" fill="#F8F7F8" transform="translate(0,0)"/>
<path d="" fill="#EFEEEF" transform="translate(0,0)"/>
<path d="" fill="#F6F6F6" transform="translate(0,0)"/>
<path d="" fill="#F8F8FA" transform="translate(0,0)"/>
<path d="" fill="#F9F8F8" transform="translate(0,0)"/>
<path d="" fill="#EDEEEF" transform="translate(0,0)"/>
<path d="" fill="#F5F3F2" transform="translate(0,0)"/>
<path d="" fill="#FBFEFC" transform="translate(0,0)"/>
<path d="" fill="#F9F9F8" transform="translate(0,0)"/>
<path d="" fill="#FAFBFA" transform="translate(0,0)"/>
<path d="" fill="#F8F8F5" transform="translate(0,0)"/>
<path d="" fill="#F5F6F4" transform="translate(0,0)"/>
<path d="" fill="#FAFAF8" transform="translate(0,0)"/>
<path d="" fill="#F9F9F9" transform="translate(0,0)"/>
<path d="" fill="#F4F5F6" transform="translate(0,0)"/>
<path d="" fill="#F1F1F1" transform="translate(0,0)"/>
<path d="" fill="#F7F6F9" transform="translate(0,0)"/>
<path d="" fill="#F6FBF9" transform="translate(0,0)"/>
<path d="" fill="#FCFDFC" transform="translate(0,0)"/>
<path d="" fill="#F9F8F9" transform="translate(0,0)"/>
<path d="" fill="#F8F9F8" transform="translate(0,0)"/>
<path d="" fill="#FBFBFA" transform="translate(0,0)"/>
<path d="" fill="#FAF9FA" transform="translate(0,0)"/>
<path d="" fill="#F7F9F6" transform="translate(0,0)"/>
<path d="" fill="#FBFBF9" transform="translate(0,0)"/>
<path d="" fill="#FAF9F9" transform="translate(0,0)"/>
<path d="" fill="#F6F9F9" transform="translate(0,0)"/>
<path d="" fill="#FAF9F9" transform="translate(0,0)"/>
<path d="" fill="#F5F4F3" transform="translate(0,0)"/>
<path d="" fill="#F8F7F7" transform="translate(0,0)"/>
<path d="" fill="#FAFBF9" transform="translate(0,0)"/>
<path d="" fill="#F0F0EF" transform="translate(0,0)"/>
<path d="" fill="#F4F5F3" transform="translate(0,0)"/>
<path d="" fill="#F3F4F3" transform="translate(0,0)"/>
<path d="" fill="#F9F9F9" transform="translate(0,0)"/>
<path d="" fill="#F5F7F6" transform="translate(0,0)"/>
<path d="" fill="#EBECEB" transform="translate(0,0)"/>
<path d="" fill="#F3F3F2" transform="translate(0,0)"/>
<path d="" fill="#FAFBFB" transform="translate(0,0)"/>
<path d="" fill="#F7F8F8" transform="translate(0,0)"/>
<path d="" fill="#F0EFEE" transform="translate(0,0)"/>
<path d="" fill="#F5F3F4" transform="translate(0,0)"/>
<path d="" fill="#F7FAF8" transform="translate(0,0)"/>
<path d="" fill="#F5F4F3" transform="translate(0,0)"/>
<path d="" fill="#FCFCF9" transform="translate(0,0)"/>
<path d="" fill="#FDFBFC" transform="translate(0,0)"/>
<path d="" fill="#F9F8F9" transform="translate(0,0)"/>
<path d="" fill="#F1F1F2" transform="translate(0,0)"/>
<path d="" fill="#EEEDED" transform="translate(0,0)"/>
<path d="" fill="#F1F0F1" transform="translate(0,0)"/>
<path d="" fill="#F8FAF9" transform="translate(0,0)"/>
<path d="" fill="#F4F4F3" transform="translate(0,0)"/>
<path d="" fill="#FAFAFA" transform="translate(0,0)"/>
<path d="" fill="#FAFAF9" transform="translate(0,0)"/>
<path d="" fill="#F9F8F7" transform="translate(0,0)"/>
<path d="" fill="#F1F2F1" transform="translate(0,0)"/>
<path d="" fill="#F2F4F2" transform="translate(0,0)"/>
<path d="" fill="#EFEFF0" transform="translate(0,0)"/>
<path d="" fill="#FBFCFB" transform="translate(0,0)"/>
<path d="" fill="#F8F9F9" transform="translate(0,0)"/>
<path d="" fill="#FAFBFA" transform="translate(0,0)"/>
<path d="" fill="#FAFAFA" transform="translate(0,0)"/>
<path d="" fill="#FAFBF8" transform="translate(0,0)"/>
<path d="" fill="#F8F8F6" transform="translate(0,0)"/>
<path d="" fill="#F9F9F9" transform="translate(0,0)"/>
<path d="" fill="#F7F8F6" transform="translate(0,0)"/>
<path d="" fill="#F3F4F3" transform="translate(0,0)"/>
<path d="" fill="#F0EFF0" transform="translate(0,0)"/>
<path d="" fill="#F8F8F7" transform="translate(0,0)"/>
<path d="" fill="#F9F9FA" transform="translate(0,0)"/>
<path d="" fill="#FAFBFC" transform="translate(0,0)"/>
<path d="" fill="#F6F6F4" transform="translate(0,0)"/>
<path d="" fill="#F6F6F7" transform="translate(0,0)"/>
<path d="" fill="#F3F2F4" transform="translate(0,0)"/>
<path d="" fill="#FAFAF8" transform="translate(0,0)"/>
<path d="" fill="#FAFDF9" transform="translate(0,0)"/>
<path d="" fill="#EFEFF1" transform="translate(0,0)"/>
<path d="" fill="#FAF7FA" transform="translate(0,0)"/>
<path d="" fill="#F2F3F1" transform="translate(0,0)"/>
<path d="" fill="#F8F9F9" transform="translate(0,0)"/>
<path d="" fill="#F0F0F0" transform="translate(0,0)"/>
<path d="" fill="#EEEEEF" transform="translate(0,0)"/>
<path d="" fill="#F2F2F4" transform="translate(0,0)"/>
<path d="" fill="#F9FAF9" transform="translate(0,0)"/>
<path d="" fill="#FAFAFA" transform="translate(0,0)"/>
<path d="" fill="#FBFBFB" transform="translate(0,0)"/>
<path d="" fill="#FBFBFA" transform="translate(0,0)"/>
<path d="" fill="#F7F7FA" transform="translate(0,0)"/>
<path d="" fill="#F4F6F7" transform="translate(0,0)"/>
<path d="" fill="#F5F4F4" transform="translate(0,0)"/>
<path d="" fill="#F5F6F5" transform="translate(0,0)"/>
<path d="" fill="#F4F4F2" transform="translate(0,0)"/>
<path d="" fill="#F1F2F0" transform="translate(0,0)"/>
<path d="" fill="#F9FAF9" transform="translate(0,0)"/>
<path d="" fill="#F2F3F3" transform="translate(0,0)"/>
<path d="" fill="#F3F4F4" transform="translate(0,0)"/>
<path d="" fill="#F3F4F3" transform="translate(0,0)"/>
<path d="" fill="#F3F2F5" transform="translate(0,0)"/>
<path d="" fill="#FBFBFD" transform="translate(0,0)"/>
<path d="" fill="#F3F3F3" transform="translate(0,0)"/>
<path d="" fill="#F9FAFB" transform="translate(0,0)"/>
<path d="" fill="#F3F5F4" transform="translate(0,0)"/>
<path d="" fill="#FEFCFC" transform="translate(0,0)"/>
<path d="" fill="#F9F8F9" transform="translate(0,0)"/>
<path d="" fill="#F6F7F7" transform="translate(0,0)"/>
<path d="" fill="#FAFAF9" transform="translate(0,0)"/>
<path d="" fill="#F4F6F7" transform="translate(0,0)"/>
<path d="" fill="#F3F4F4" transform="translate(0,0)"/>
<path d="" fill="#F5F5F5" transform="translate(0,0)"/>
<path d="" fill="#F6F7F6" transform="translate(0,0)"/>
<path d="" fill="#F7F6F6" transform="translate(0,0)"/>
<path d="" fill="#F7F6F6" transform="translate(0,0)"/>
<path d="" fill="#F4F7F5" transform="translate(0,0)"/>
<path d="" fill="#F6F7F6" transform="translate(0,0)"/>
<path d="" fill="#F4F6F6" transform="translate(0,0)"/>
<path d="" fill="#F1F2F3" transform="translate(0,0)"/>
<path d="" fill="#F3F4F4" transform="translate(0,0)"/>
<path d="" fill="#F7F6F6" transform="translate(0,0)"/>
<path d="" fill="#F5F5F5" transform="translate(0,0)"/>
<path d="" fill="#FAFBF7" transform="translate(0,0)"/>
<path d="" fill="#F6F7F8" transform="translate(0,0)"/>
<path d="" fill="#F5F4F3" transform="translate(0,0)"/>
<path d="" fill="#F8F9F8" transform="translate(0,0)"/>
<path d="" fill="#FBFAFA" transform="translate(0,0)"/>
<path d="" fill="#F6F8F7" transform="translate(0,0)"/>
<path d="" fill="#F5F3F4" transform="translate(0,0)"/>
<path d="" fill="#F7F5F7" transform="translate(0,0)"/>
<path d="" fill="#F5F6F4" transform="translate(0,0)"/>
<path d="" fill="#F4F4F4" transform="translate(0,0)"/>
<path d="" fill="#F6F6F7" transform="translate(0,0)"/>
<path d="" fill="#F7F9F8" transform="translate(0,0)"/>
<path d="" fill="#F7F9F8" transform="translate(0,0)"/>
<path d="" fill="#F7FAF8" transform="translate(0,0)"/>
<path d="" fill="#F9F6F6" transform="translate(0,0)"/>
<path d="" fill="#F9FAF8" transform="translate(0,0)"/>
<path d="" fill="#FCFDFC" transform="translate(0,0)"/>
<path d="" fill="#F5F5F5" transform="translate(0,0)"/>
<path d="" fill="#F7F8F7" transform="translate(0,0)"/>
<path d="" fill="#F5F6F5" transform="translate(0,0)"/>
<path d="" fill="#F8F7F7" transform="translate(0,0)"/>
<path d="" fill="#F3F3F3" transform="translate(0,0)"/>
<path d="" fill="#F7F6F6" transform="translate(0,0)"/>
<path d="" fill="#F7F7F7" transform="translate(0,0)"/>
<path d="" fill="#F8F8F9" transform="translate(0,0)"/>
<path d="" fill="#FAF8FB" transform="translate(0,0)"/>
<path d="" fill="#F6F7F6" transform="translate(0,0)"/>
<path d="" fill="#FDFDFC" transform="translate(0,0)"/>
<path d="" fill="#F6F8F5" transform="translate(0,0)"/>
<path d="" fill="#FAFAF8" transform="translate(0,0)"/>
<path d="" fill="#F7F7F9" transform="translate(0,0)"/>
<path d="" fill="#F3F6F6" transform="translate(0,0)"/>
<path d="" fill="#F8F9F8" transform="translate(0,0)"/>
<path d="" fill="#FBFAF8" transform="translate(0,0)"/>
<path d="" fill="#F9F8F7" transform="translate(0,0)"/>
<path d="" fill="#FCFAFA" transform="translate(0,0)"/>
<path d="" fill="#F9FAF8" transform="translate(0,0)"/>
<path d="" fill="#FBFAFC" transform="translate(0,0)"/>
<path d="" fill="#F9F9F7" transform="translate(0,0)"/>
<path d="" fill="#F8F7F5" transform="translate(0,0)"/>
<path d="" fill="#F6F8F7" transform="translate(0,0)"/>
<path d="" fill="#F8F7F8" transform="translate(0,0)"/>
<path d="" fill="#FAFAFA" transform="translate(0,0)"/>
<path d="" fill="#F8F8F7" transform="translate(0,0)"/>
<path d="" fill="#F2F2EF" transform="translate(0,0)"/>
<path d="" fill="#FCFCFB" transform="translate(0,0)"/>
<path d="" fill="#FAFCFB" transform="translate(0,0)"/>
<path d="" fill="#F8F7F8" transform="translate(0,0)"/>
<path d="" fill="#F9FAFA" transform="translate(0,0)"/>
<path d="" fill="#414242" transform="translate(0,0)"/>
<path d="" fill="#FDFEFC" transform="translate(0,0)"/>
<path d="" fill="#FAF8F8" transform="translate(0,0)"/>
<path d="" fill="#F6F5F5" transform="translate(0,0)"/>
<path d="" fill="#FAF9F8" transform="translate(0,0)"/>
<path d="" fill="#F8F9F8" transform="translate(0,0)"/>
<path d="" fill="#F7F7F4" transform="translate(0,0)"/>
<path d="" fill="#F9FAF8" transform="translate(0,0)"/>
<path d="" fill="#F8F9F9" transform="translate(0,0)"/>
<path d="" fill="#FAFCFB" transform="translate(0,0)"/>
<path d="" fill="#F4F4F1" transform="translate(0,0)"/>
<path d="" fill="#F1F1F1" transform="translate(0,0)"/>
<path d="" fill="#F2F1EE" transform="translate(0,0)"/>
<path d="" fill="#FAFBFA" transform="translate(0,0)"/>
<path d="" fill="#EFEFF2" transform="translate(0,0)"/>
<path d="" fill="#F3F4F4" transform="translate(0,0)"/>
<path d="" fill="#F8F8F7" transform="translate(0,0)"/>
<path d="" fill="#EFEFF0" transform="translate(0,0)"/>
<path d="" fill="#F0F2F2" transform="translate(0,0)"/>
<path d="" fill="#F0F0F1" transform="translate(0,0)"/>
<path d="" fill="#FAF9F8" transform="translate(0,0)"/>
<path d="" fill="#F1F0F1" transform="translate(0,0)"/>
<path d="" fill="#F0F1EF" transform="translate(0,0)"/>
<path d="" fill="#FBFCF9" transform="translate(0,0)"/>
<path d="" fill="#FBFCFB" transform="translate(0,0)"/>
<path d="" fill="#F4F5F5" transform="translate(0,0)"/>
<path d="" fill="#F9F9F9" transform="translate(0,0)"/>
<path d="" fill="#F6F4F5" transform="translate(0,0)"/>
<path d="" fill="#3D3D3D" transform="translate(0,0)"/>
<path d="" fill="#F9F8F5" transform="translate(0,0)"/>
<path d="" fill="#F4F3F2" transform="translate(0,0)"/>
<path d="" fill="#F9F9F7" transform="translate(0,0)"/>
<path d="" fill="#F9F9F9" transform="translate(0,0)"/>
<path d="" fill="#EEEEEE" transform="translate(0,0)"/>
<path d="" fill="#F8F8F8" transform="translate(0,0)"/>
<path d="" fill="#F8F8F8" transform="translate(0,0)"/>
<path d="" fill="#F7F8F6" transform="translate(0,0)"/>
<path d="" fill="#F7F8F7" transform="translate(0,0)"/>
<path d="" fill="#F5F7F5" transform="translate(0,0)"/>
<path d="" fill="#FCFBF9" transform="translate(0,0)"/>
<path d="" fill="#F2F2F2" transform="translate(0,0)"/>
<path d="" fill="#F2F1F1" transform="translate(0,0)"/>
<path d="" fill="#F7F7F7" transform="translate(0,0)"/>
<path d="" fill="#F0F0EF" transform="translate(0,0)"/>
<path d="" fill="#F1F3F0" transform="translate(0,0)"/>
<path d="" fill="#39393A" transform="translate(0,0)"/>
<path d="" fill="#EEEFEE" transform="translate(0,0)"/>
<path d="" fill="#EFEFEE" transform="translate(0,0)"/>
<path d="" fill="#F6F7F7" transform="translate(0,0)"/>
<path d="" fill="#F8F8F8" transform="translate(0,0)"/>
<path d="" fill="#FAF9F8" transform="translate(0,0)"/>
<path d="" fill="#363735" transform="translate(0,0)"/>
<path d="" fill="#F0F2F2" transform="translate(0,0)"/>
<path d="" fill="#F2F3F1" transform="translate(0,0)"/>
<path d="" fill="#F3F3F5" transform="translate(0,0)"/>
<path d="" fill="#363635" transform="translate(0,0)"/>
<path d="" fill="#F5F6F1" transform="translate(0,0)"/>
<path d="" fill="#ECECEC" transform="translate(0,0)"/>
<path d="" fill="#F3F1F2" transform="translate(0,0)"/>
<path d="" fill="#FAFAF9" transform="translate(0,0)"/>
<path d="" fill="#FBFBFA" transform="translate(0,0)"/>
<path d="" fill="#EFEFF0" transform="translate(0,0)"/>
<path d="" fill="#F1F0F0" transform="translate(0,0)"/>
<path d="" fill="#F9FAF9" transform="translate(0,0)"/>
<path d="" fill="#F9F8F8" transform="translate(0,0)"/>
<path d="" fill="#F5F7F7" transform="translate(0,0)"/>
<path d="" fill="#F6F7F6" transform="translate(0,0)"/>
<path d="" fill="#F8F9F8" transform="translate(0,0)"/>
<path d="" fill="#F3F3F1" transform="translate(0,0)"/>
<path d="" fill="#EBECEB" transform="translate(0,0)"/>
<path d="" fill="#F9F9FA" transform="translate(0,0)"/>
<path d="" fill="#F9F9F8" transform="translate(0,0)"/>
<path d="" fill="#F7F8F8" transform="translate(0,0)"/>
<path d="" fill="#F7F8F9" transform="translate(0,0)"/>
<path d="" fill="#F7F7F5" transform="translate(0,0)"/>
<path d="" fill="#F7F8F8" transform="translate(0,0)"/>
<path d="" fill="#F9F9F8" transform="translate(0,0)"/>
<path d="" fill="#F2F4F5" transform="translate(0,0)"/>
<path d="" fill="#333433" transform="translate(0,0)"/>
<path d="" fill="#F5F5F2" transform="translate(0,0)"/>
<path d="" fill="#F5F5F5" transform="translate(0,0)"/>
<path d="" fill="#F1F2F1" transform="translate(0,0)"/>
<path d="" fill="#F9F7F9" transform="translate(0,0)"/>
<path d="" fill="#FAF8F7" transform="translate(0,0)"/>
<path d="" fill="#EEEEED" transform="translate(0,0)"/>
<path d="" fill="#F9F7F9" transform="translate(0,0)"/>
<path d="" fill="#EEEEEE" transform="translate(0,0)"/>
<path d="" fill="#F2F2F2" transform="translate(0,0)"/>
<path d="" fill="#F4F5F2" transform="translate(0,0)"/>
<path d="" fill="#FBFAF9" transform="translate(0,0)"/>
<path d="" fill="#F0EFEE" transform="translate(0,0)"/>
<path d="" fill="#F9F8F7" transform="translate(0,0)"/>
<path d="" fill="#F9F6FA" transform="translate(0,0)"/>
<path d="" fill="#F9FAF9" transform="translate(0,0)"/>
<path d="" fill="#F9FAF8" transform="translate(0,0)"/>
<path d="" fill="#F3F1F1" transform="translate(0,0)"/>
<path d="" fill="#ECEAEB" transform="translate(0,0)"/>
<path d="" fill="#FCFEFB" transform="translate(0,0)"/>
<path d="" fill="#EFF1EC" transform="translate(0,0)"/>
<path d="" fill="#FAFBFA" transform="translate(0,0)"/>
<path d="" fill="#F1F3F1" transform="translate(0,0)"/>
<path d="" fill="#FCFAFA" transform="translate(0,0)"/>
<path d="" fill="#EFF1EE" transform="translate(0,0)"/>
<path d="" fill="#EDEDEC" transform="translate(0,0)"/>
<path d="" fill="#EBEAEB" transform="translate(0,0)"/>
<path d="" fill="#FCFCFC" transform="translate(0,0)"/>
<path d="" fill="#F8F8F7" transform="translate(0,0)"/>
<path d="" fill="#F5F6F5" transform="translate(0,0)"/>
<path d="" fill="#FAF9F8" transform="translate(0,0)"/>
<path d="" fill="#F8F9F7" transform="translate(0,0)"/>
<path d="" fill="#FAF8F7" transform="translate(0,0)"/>
<path d="" fill="#F8F8F8" transform="translate(0,0)"/>
<path d="" fill="#FBFBFB" transform="translate(0,0)"/>
<path d="" fill="#F9F5F7" transform="translate(0,0)"/>
<path d="" fill="#F3F0F1" transform="translate(0,0)"/>
<path d="" fill="#EFF1F2" transform="translate(0,0)"/>
<path d="" fill="#F6F8F6" transform="translate(0,0)"/>
<path d="" fill="#F5F5F5" transform="translate(0,0)"/>
<path d="" fill="#FAFDFB" transform="translate(0,0)"/>
<path d="" fill="#F9F9FB" transform="translate(0,0)"/>
<path d="" fill="#F7F9F6" transform="translate(0,0)"/>
<path d="" fill="#FCF9FA" transform="translate(0,0)"/>
<path d="" fill="#F7F8F6" transform="translate(0,0)"/>
<path d="" fill="#EFF2EF" transform="translate(0,0)"/>
<path d="" fill="#F3F5F4" transform="translate(0,0)"/>
<path d="" fill="#F2F1F3" transform="translate(0,0)"/>
<path d="" fill="#F3F4F3" transform="translate(0,0)"/>
<path d="" fill="#EFEFEE" transform="translate(0,0)"/>
<path d="" fill="#EDEFED" transform="translate(0,0)"/>
<path d="" fill="#F1F3F0" transform="translate(0,0)"/>
<path d="" fill="#EBECEB" transform="translate(0,0)"/>
<path d="" fill="#F2F0F0" transform="translate(0,0)"/>
<path d="" fill="#F4F4F3" transform="translate(0,0)"/>
<path d="" fill="#EEEFED" transform="translate(0,0)"/>
<path d="" fill="#F2EFEF" transform="translate(0,0)"/>
<path d="" fill="#EFF0F1" transform="translate(0,0)"/>
<path d="" fill="#F4F4F3" transform="translate(0,0)"/>
<path d="" fill="#EFF0EE" transform="translate(0,0)"/>
<path d="" fill="#ECEBEC" transform="translate(0,0)"/>
<path d="" fill="#EFF0F0" transform="translate(0,0)"/>
<path d="" fill="#F3F2F3" transform="translate(0,0)"/>
<path d="" fill="#E7E7E6" transform="translate(0,0)"/>
<path d="" fill="#F0F0EF" transform="translate(0,0)"/>
<path d="" fill="#EFF1EF" transform="translate(0,0)"/>
<path d="" fill="#EDF2F0" transform="translate(0,0)"/>
<path d="" fill="#EDECEE" transform="translate(0,0)"/>
<path d="" fill="#F4F5F3" transform="translate(0,0)"/>
<path d="" fill="#F3F5F2" transform="translate(0,0)"/>
<path d="" fill="#F2EFF2" transform="translate(0,0)"/>
<path d="" fill="#F4F6F5" transform="translate(0,0)"/>
<path d="" fill="#F2F2F3" transform="translate(0,0)"/>
<path d="" fill="#F1F1F2" transform="translate(0,0)"/>
<path d="" fill="#F1F3F1" transform="translate(0,0)"/>
<path d="" fill="#F2F3F2" transform="translate(0,0)"/>
<path d="" fill="#ECECEC" transform="translate(0,0)"/>
<path d="" fill="#393837" transform="translate(0,0)"/>
<path d="" fill="#535352" transform="translate(0,0)"/>
<path d="" fill="#575757" transform="translate(0,0)"/>
<path d="" fill="#585958" transform="translate(0,0)"/>
<path d="" fill="#565756" transform="translate(0,0)"/>
<path d="" fill="#878685" transform="translate(0,0)"/>
</svg>
