<?xml version="1.0" encoding="UTF-8"?>
<!DOCTYPE svg PUBLIC "-//W3C//DTD SVG 1.1//EN" "http://www.w3.org/Graphics/SVG/1.1/DTD/svg11.dtd">
<svg xmlns="http://www.w3.org/2000/svg" version="1.1" width="1024px" height="1024px" style="shape-rendering:geometricPrecision; text-rendering:geometricPrecision; image-rendering:optimizeQuality; fill-rule:evenodd; clip-rule:evenodd" xmlns:xlink="http://www.w3.org/1999/xlink">
<g><path style="opacity:0.004" fill="#fbfdfc" d="M 421.5,231.5 C 422.833,232.167 422.833,232.167 421.5,231.5 Z"/></g>
<g><path style="opacity:0.004" fill="#fbfdfb" d="M 589.5,231.5 C 590.833,232.167 590.833,232.167 589.5,231.5 Z"/></g>
<g><path style="opacity:0.004" fill="#f3f5f5" d="M 800.5,231.5 C 801.833,232.167 801.833,232.167 800.5,231.5 Z"/></g>
<g><path style="opacity:0.989" fill="#fefefe" d="M 209.5,827.5 C 206.423,824.431 203.756,821.097 201.5,817.5C 201.737,816.209 201.404,815.209 200.5,814.5C 199.168,626.497 199.168,438.497 200.5,250.5C 204.466,242.373 210.8,236.873 219.5,234C 286.404,233.831 353.237,233.331 420,232.5C 546.958,233.071 674.125,233.571 801.5,234C 811.347,236.668 817.847,242.834 821,252.5C 821.202,259.55 821.702,266.55 822.5,273.5C 822.04,341.248 821.707,409.081 821.5,477C 821.748,478.716 822.415,480.216 823.5,481.5C 823.154,482.696 822.654,482.696 822,481.5C 821.833,482.5 821.667,483.5 821.5,484.5C 822.043,507.183 822.043,529.35 821.5,551C 821.55,554.603 822.217,557.936 823.5,561C 821.986,563.587 821.32,566.42 821.5,569.5C 822.364,578.364 822.364,587.197 821.5,596C 822.167,597.667 822.833,599.333 823.5,601C 822.801,604.8 822.135,608.633 821.5,612.5C 822.308,620.817 822.308,629.484 821.5,638.5C 823.433,640.572 823.433,642.905 821.5,645.5C 822.758,647.648 822.758,649.815 821.5,652C 821.975,653.763 822.642,655.43 823.5,657C 822.184,666.588 821.517,676.088 821.5,685.5C 822.04,686.748 822.707,687.915 823.5,689C 822.167,691.667 822.167,694.333 823.5,697C 822.799,703.956 822.132,710.956 821.5,718C 822.622,736.968 822.622,755.635 821.5,774C 823.615,776.243 823.615,778.743 821.5,781.5C 822.025,782.192 822.692,782.692 823.5,783C 822.833,786 822.167,789 821.5,792C 823.686,792.604 823.852,793.77 822,795.5C 822.387,803.529 821.387,811.529 819,819.5C 813.977,827.427 806.811,831.927 797.5,833C 606.167,833.667 414.833,833.667 223.5,833C 218.283,832.43 213.617,830.597 209.5,827.5 Z M 698.5,492.5 C 701.152,492.41 703.485,493.076 705.5,494.5C 721.932,499.202 734.932,508.535 744.5,522.5C 745.338,522.842 745.672,523.508 745.5,524.5C 746.906,524.973 747.573,525.973 747.5,527.5C 749.462,529.425 750.295,531.758 750,534.5C 744.373,539.393 738.206,543.393 731.5,546.5C 725.513,550.97 719.346,555.304 713,559.5C 708.331,555.663 703.831,551.663 699.5,547.5C 693.713,543.94 687.713,540.94 681.5,538.5C 669.814,535.194 658.147,536.027 646.5,541C 643,543.669 639.667,546.502 636.5,549.5C 627.339,567.352 631.672,581.019 649.5,590.5C 674.497,600.497 699.164,611.33 723.5,623C 729.965,626.557 735.632,631.057 740.5,636.5C 752.859,646.864 760.359,660.197 763,676.5C 767.918,721.855 749.085,752.355 706.5,768C 672.283,776.649 638.616,774.982 605.5,763C 601.061,761.032 597.061,758.532 593.5,755.5C 577.794,745.958 566.128,732.791 558.5,716C 558.759,714.739 559.426,713.739 560.5,713C 573.206,704.648 586.206,696.815 599.5,689.5C 606.657,696.489 613.99,703.322 621.5,710C 643.647,726.821 666.98,728.821 691.5,716C 704.515,707.806 709.015,696.306 705,681.5C 700.937,673.877 694.77,668.71 686.5,666C 660.05,654.942 633.717,643.609 607.5,632C 583.405,615.298 572.571,592.131 575,562.5C 578.041,531.483 593.541,509.317 621.5,496C 646.966,487.597 672.632,486.431 698.5,492.5 Z M 315.5,542.5 C 314.167,526.5 314.167,510.5 315.5,494.5C 389.512,493.179 463.345,493.179 537,494.5C 537.824,510.741 537.658,526.907 536.5,543C 512.167,543.333 487.833,543.667 463.5,544C 461.714,544.785 460.214,545.951 459,547.5C 458.667,620.833 458.333,694.167 458,767.5C 457.225,769.223 455.892,770.223 454,770.5C 438.287,770.118 421.787,770.118 404.5,770.5C 402.813,770.24 401.313,769.573 400,768.5C 399.994,694.418 399.327,620.418 398,546.5C 397.097,545.299 395.931,544.465 394.5,544C 367.997,543.832 341.663,543.332 315.5,542.5 Z M 418.5,514.5 C 419.725,515.152 420.392,516.319 420.5,518C 420.486,519.385 420.152,520.551 419.5,521.5C 419.209,522.649 418.376,523.316 417,523.5C 415.93,523.472 415.097,523.139 414.5,522.5C 410.913,520.258 410.579,517.425 413.5,514C 415.387,513.22 417.054,513.387 418.5,514.5 Z M 443.5,515.5 C 443.435,520.696 442.768,520.696 441.5,515.5C 441.97,514.537 442.637,514.537 443.5,515.5 Z M 334.5,516.5 C 337.962,518.193 337.962,519.193 334.5,519.5C 334.5,518.5 334.5,517.5 334.5,516.5 Z M 711.5,516.5 C 711.918,517.222 712.584,517.722 713.5,518C 712.365,518.749 711.365,518.583 710.5,517.5C 710.624,516.893 710.957,516.56 711.5,516.5 Z"/></g>
<g><path style="opacity:0.004" fill="#f3f5f3" d="M 205.5,239.5 C 206.833,240.167 206.833,240.167 205.5,239.5 Z"/></g>
<g><path style="opacity:0.004" fill="#f5f5f4" d="M 205.5,240.5 C 205.103,241.525 204.437,241.692 203.5,241C 204.094,240.536 204.761,240.369 205.5,240.5 Z"/></g>
<g><path style="opacity:0.004" fill="#f6f6f7" d="M 200.5,250.5 C 199.833,249.167 199.833,249.167 200.5,250.5 Z"/></g>
<g><path style="opacity:0.008" fill="#fcfbfd" d="M 822.5,440.5 C 823.833,441.167 823.833,441.167 822.5,440.5 Z"/></g>
<g><path style="opacity:0.645" fill="#fefefe" d="M 657.5,504.5 C 658.268,505.263 658.768,506.263 659,507.5C 659.499,512.489 659.666,517.489 659.5,522.5C 662.167,522.5 664.833,522.5 667.5,522.5C 667.5,524.167 667.5,525.833 667.5,527.5C 663.332,527.167 658.999,527.167 654.5,527.5C 654.666,522.156 654.499,516.823 654,511.5C 653.094,514.121 652.594,513.954 652.5,511C 652.594,508.046 653.094,507.879 654,510.5C 654.333,509.167 654.667,507.833 655,506.5C 655.718,507.451 656.551,507.617 657.5,507C 656.402,506.23 656.402,505.397 657.5,504.5 Z"/></g>
<g><path style="opacity:0.751" fill="#fefefe" d="M 640.5,519.5 C 641.708,520.234 643.041,520.567 644.5,520.5C 644.5,521.167 644.5,521.833 644.5,522.5C 639.622,527.699 634.289,528.365 628.5,524.5C 624.786,519.553 624.786,514.553 628.5,509.5C 632.845,506.476 637.178,506.309 641.5,509C 643.037,510.11 643.703,511.61 643.5,513.5C 640.472,513.661 637.639,512.994 635,511.5C 629.617,514.218 629.117,517.718 633.5,522C 636.478,522.833 638.811,522 640.5,519.5 Z"/></g>
<g><path style="opacity:0.661" fill="#fefefe" d="M 694.5,525.5 C 691.814,526.991 688.814,527.657 685.5,527.5C 683.241,527.468 681.075,527.134 679,526.5C 678.912,520.33 678.745,513.996 678.5,507.5C 681.045,507.151 683.045,507.984 684.5,510C 683.536,514.066 683.203,518.233 683.5,522.5C 687.182,522.335 690.848,522.501 694.5,523C 691.887,524.071 691.887,524.905 694.5,525.5 Z"/></g>
<g><path style="opacity:0.726" fill="#fefefe" d="M 706.5,514.5 C 707.481,512.604 708.481,510.604 709.5,508.5C 711.167,507.167 712.833,507.167 714.5,508.5C 717.313,514.624 719.98,520.79 722.5,527C 720.527,527.495 718.527,527.662 716.5,527.5C 716.688,525.897 716.188,524.563 715,523.5C 713.026,523.626 710.859,523.792 708.5,524C 708.833,524.333 709.167,524.667 709.5,525C 707.52,526.825 705.187,527.659 702.5,527.5C 704.114,523.268 705.447,518.934 706.5,514.5 Z M 711.5,516.5 C 710.957,516.56 710.624,516.893 710.5,517.5C 711.365,518.583 712.365,518.749 713.5,518C 712.584,517.722 711.918,517.222 711.5,516.5 Z"/></g>
<g><path style="opacity:0.752" fill="#fefefe" d="M 337.5,525.5 C 337.631,524.761 337.464,524.094 337,523.5C 335.601,524.227 334.101,524.727 332.5,525C 331.663,526.011 331.33,527.178 331.5,528.5C 329.473,528.662 327.473,528.495 325.5,528C 328.353,521.782 331.02,515.449 333.5,509C 335.112,508.28 336.612,508.446 338,509.5C 340.402,515.541 342.902,521.541 345.5,527.5C 342.233,528.992 340.066,527.992 339,524.5C 338.617,525.056 338.117,525.389 337.5,525.5 Z M 334.5,516.5 C 334.5,517.5 334.5,518.5 334.5,519.5C 337.962,519.193 337.962,518.193 334.5,516.5 Z"/></g>
<g><path style="opacity:0.724" fill="#fefefe" d="M 366.5,515.5 C 364.618,516.221 364.285,517.221 365.5,518.5C 367.591,521.771 369.924,524.937 372.5,528C 366.662,528.863 362.829,526.363 361,520.5C 359.625,522.937 359.125,525.603 359.5,528.5C 357.833,528.5 356.167,528.5 354.5,528.5C 354.5,521.833 354.5,515.167 354.5,508.5C 356.144,508.286 357.644,508.62 359,509.5C 359.333,511.5 359.667,513.5 360,515.5C 362.123,512.887 364.456,510.554 367,508.5C 368.205,509.071 369.372,509.738 370.5,510.5C 369.143,512.186 367.81,513.852 366.5,515.5 Z"/></g>
<g><path style="opacity:0.721" fill="#fefefe" d="M 386.5,521.5 C 386.539,520.244 386.039,519.244 385,518.5C 384.502,521.817 384.335,525.15 384.5,528.5C 382.833,528.5 381.167,528.5 379.5,528.5C 379.5,522.167 379.5,515.833 379.5,509.5C 381.199,509.34 382.866,509.506 384.5,510C 386.667,512.833 388.833,515.667 391,518.5C 391.333,515.5 391.667,512.5 392,509.5C 393.299,509.034 394.799,509.034 396.5,509.5C 396.5,515.833 396.5,522.167 396.5,528.5C 394.712,528.785 393.045,528.452 391.5,527.5C 390.291,525.059 388.624,523.059 386.5,521.5 Z"/></g>
<g><path style="opacity:0.757" fill="#fefefe" d="M 414.5,508.5 C 423.941,509.389 427.441,514.389 425,523.5C 416.044,531.363 409.877,529.53 406.5,518C 407.444,513.224 410.11,510.057 414.5,508.5 Z M 418.5,514.5 C 419.725,515.152 420.392,516.319 420.5,518C 420.486,519.385 420.152,520.551 419.5,521.5C 419.209,522.649 418.376,523.316 417,523.5C 415.93,523.472 415.097,523.139 414.5,522.5C 410.913,520.258 410.579,517.425 413.5,514C 415.387,513.22 417.054,513.387 418.5,514.5 Z"/></g>
<g><path style="opacity:0.729" fill="#fefefe" d="M 443.5,515.5 C 444.322,513.611 445.155,511.611 446,509.5C 448.709,508.294 450.375,509.294 451,512.5C 451.511,514.878 452.178,517.212 453,519.5C 453.931,517.541 454.764,515.541 455.5,513.5C 454.397,513.002 453.397,512.669 452.5,512.5C 454.815,511.766 456.648,510.432 458,508.5C 459,508.833 460,509.167 461,509.5C 459.197,515.585 457.364,521.751 455.5,528C 454.056,528.781 452.723,528.614 451.5,527.5C 450.864,525.22 449.864,523.22 448.5,521.5C 448.167,517.5 447.833,517.5 447.5,521.5C 446.388,523.599 445.721,525.933 445.5,528.5C 443.833,528.5 442.167,528.5 440.5,528.5C 438.914,522.074 436.914,515.741 434.5,509.5C 437.914,507.622 440.081,508.955 441,513.5C 441.333,512.833 441.667,512.167 442,511.5C 442.791,512.745 443.291,514.078 443.5,515.5 Z M 443.5,515.5 C 442.637,514.537 441.97,514.537 441.5,515.5C 442.768,520.696 443.435,520.696 443.5,515.5 Z"/></g>
<g><path style="opacity:0.751" fill="#fefefe" d="M 474.5,508.5 C 475.978,508.238 477.311,508.571 478.5,509.5C 481.073,515.725 483.74,521.892 486.5,528C 484.527,528.495 482.527,528.662 480.5,528.5C 480.709,526.286 479.876,524.619 478,523.5C 476.204,523.913 474.537,523.913 473,523.5C 472.404,528.046 470.237,529.213 466.5,527C 469.267,520.862 471.934,514.696 474.5,508.5 Z"/></g>
<g><path style="opacity:0.74" fill="#fefefe" d="M 505.5,526.5 C 503.82,524.473 502.653,522.139 502,519.5C 501.502,522.482 501.335,525.482 501.5,528.5C 499.833,528.5 498.167,528.5 496.5,528.5C 496.042,521.655 496.542,514.988 498,508.5C 499.566,507.939 500.899,508.606 502,510.5C 503.333,513.167 504.667,515.833 506,518.5C 507.262,513.941 509.929,510.608 514,508.5C 514.333,508.833 514.667,509.167 515,509.5C 515.5,515.825 515.666,522.158 515.5,528.5C 514.167,528.5 512.833,528.5 511.5,528.5C 511.665,525.15 511.498,521.817 511,518.5C 509.884,521.756 508.051,524.422 505.5,526.5 Z"/></g>
<g><path style="opacity:0.014" fill="#fefefe" d="M 414.5,522.5 C 413.203,519.397 413.536,519.063 415.5,521.5C 415.376,522.107 415.043,522.44 414.5,522.5 Z"/></g>
<g><path style="opacity:0.016" fill="#fcfdfd" d="M 662.5,520.5 C 661.637,521.463 660.97,521.463 660.5,520.5C 661.257,519.227 661.923,519.227 662.5,520.5 Z"/></g>
<g><path style="opacity:0.008" fill="#fcfdfc" d="M 684.5,519.5 C 685.289,519.783 685.956,520.283 686.5,521C 685.184,521.528 684.517,521.028 684.5,519.5 Z"/></g>
<g><path style="opacity:0.004" fill="#f2f6f5" d="M 200.5,814.5 C 199.833,815.167 199.833,815.167 200.5,814.5 Z"/></g>
<g><path style="opacity:0.004" fill="#f3f5f4" d="M 201.5,817.5 C 200.833,818.167 200.833,818.167 201.5,817.5 Z"/></g>
<g><path style="opacity:0.004" fill="#f0f5f2" d="M 818.5,821.5 C 819.833,822.167 819.833,822.167 818.5,821.5 Z"/></g>
<g><path style="opacity:0.004" fill="#f4f5f7" d="M 209.5,827.5 C 208.833,828.167 208.833,828.167 209.5,827.5 Z"/></g>
<g><path style="opacity:0.004" fill="#f7f9f8" d="M 238.5,834.5 C 239.833,835.167 239.833,835.167 238.5,834.5 Z"/></g>
<g><path style="opacity:0.004" fill="#fafbfa" d="M 269.5,835.5 C 269.897,834.475 270.563,834.308 271.5,835C 270.906,835.464 270.239,835.631 269.5,835.5 Z"/></g>
<g><path style="opacity:0.004" fill="#f9fbfa" d="M 285.5,834.5 C 286.833,835.167 286.833,835.167 285.5,834.5 Z"/></g>
<g><path style="opacity:0.004" fill="#fbfbfb" d="M 309.5,835.5 C 309.897,834.475 310.563,834.308 311.5,835C 310.906,835.464 310.239,835.631 309.5,835.5 Z"/></g>
<g><path style="opacity:0.004" fill="#fafbfb" d="M 318.5,834.5 C 319.833,835.167 319.833,835.167 318.5,834.5 Z"/></g>
<g><path style="opacity:0.004" fill="#fafcfb" d="M 326.5,834.5 C 327.833,835.167 327.833,835.167 326.5,834.5 Z"/></g>
<g><path style="opacity:0.004" fill="#fbfdfb" d="M 334.5,834.5 C 335.833,835.167 335.833,835.167 334.5,834.5 Z"/></g>
<g><path style="opacity:0.004" fill="#fbfdfb" d="M 342.5,834.5 C 343.833,835.167 343.833,835.167 342.5,834.5 Z"/></g>
<g><path style="opacity:0.004" fill="#fafcfb" d="M 366.5,834.5 C 367.833,835.167 367.833,835.167 366.5,834.5 Z"/></g>
<g><path style="opacity:0.004" fill="#fbfcfc" d="M 374.5,834.5 C 375.833,835.167 375.833,835.167 374.5,834.5 Z"/></g>
<g><path style="opacity:0.004" fill="#fbfdfc" d="M 406.5,834.5 C 407.833,835.167 407.833,835.167 406.5,834.5 Z"/></g>
<g><path style="opacity:0.004" fill="#fbfdfd" d="M 422.5,834.5 C 423.833,835.167 423.833,835.167 422.5,834.5 Z"/></g>
<g><path style="opacity:0.004" fill="#fcfdfc" d="M 430.5,834.5 C 431.833,835.167 431.833,835.167 430.5,834.5 Z"/></g>
<g><path style="opacity:0.004" fill="#fbfdfc" d="M 454.5,834.5 C 455.833,835.167 455.833,835.167 454.5,834.5 Z"/></g>
<g><path style="opacity:0.004" fill="#fbfcfb" d="M 461.5,835.5 C 461.897,834.475 462.563,834.308 463.5,835C 462.906,835.464 462.239,835.631 461.5,835.5 Z"/></g>
<g><path style="opacity:0.006" fill="#fcfcfc" d="M 469.5,835.5 C 469.897,834.475 470.563,834.308 471.5,835C 470.906,835.464 470.239,835.631 469.5,835.5 Z"/></g>
<g><path style="opacity:0.004" fill="#fbfcfb" d="M 477.5,835.5 C 477.897,834.475 478.563,834.308 479.5,835C 478.906,835.464 478.239,835.631 477.5,835.5 Z"/></g>
<g><path style="opacity:0.006" fill="#fafcfb" d="M 485.5,835.5 C 485.897,834.475 486.563,834.308 487.5,835C 486.906,835.464 486.239,835.631 485.5,835.5 Z"/></g>
<g><path style="opacity:0.008" fill="#fafcfb" d="M 494.5,834.5 C 495.833,835.167 495.833,835.167 494.5,834.5 Z"/></g>
<g><path style="opacity:0.004" fill="#fbfcfb" d="M 534.5,834.5 C 535.833,835.167 535.833,835.167 534.5,834.5 Z"/></g>
<g><path style="opacity:0.004" fill="#fbfcfb" d="M 541.5,835.5 C 541.897,834.475 542.563,834.308 543.5,835C 542.906,835.464 542.239,835.631 541.5,835.5 Z"/></g>
<g><path style="opacity:0.004" fill="#fbfcfc" d="M 557.5,835.5 C 557.897,834.475 558.563,834.308 559.5,835C 558.906,835.464 558.239,835.631 557.5,835.5 Z"/></g>
<g><path style="opacity:0.004" fill="#fbfdfc" d="M 574.5,834.5 C 575.833,835.167 575.833,835.167 574.5,834.5 Z"/></g>
<g><path style="opacity:0.004" fill="#fbfcfb" d="M 590.5,834.5 C 591.833,835.167 591.833,835.167 590.5,834.5 Z"/></g>
<g><path style="opacity:0.004" fill="#fafdfc" d="M 598.5,834.5 C 599.833,835.167 599.833,835.167 598.5,834.5 Z"/></g>
<g><path style="opacity:0.004" fill="#fafcfb" d="M 606.5,834.5 C 607.833,835.167 607.833,835.167 606.5,834.5 Z"/></g>
<g><path style="opacity:0.004" fill="#fafcfb" d="M 622.5,834.5 C 623.833,835.167 623.833,835.167 622.5,834.5 Z"/></g>
<g><path style="opacity:0.004" fill="#fcfdfc" d="M 677.5,835.5 C 677.897,834.475 678.563,834.308 679.5,835C 678.906,835.464 678.239,835.631 677.5,835.5 Z"/></g>
<g><path style="opacity:0.004" fill="#fbfcfc" d="M 685.5,835.5 C 685.897,834.475 686.563,834.308 687.5,835C 686.906,835.464 686.239,835.631 685.5,835.5 Z"/></g>
<g><path style="opacity:0.004" fill="#fbfdfc" d="M 702.5,834.5 C 703.833,835.167 703.833,835.167 702.5,834.5 Z"/></g>
<g><path style="opacity:0.004" fill="#fbfdfc" d="M 718.5,834.5 C 719.833,835.167 719.833,835.167 718.5,834.5 Z"/></g>
<g><path style="opacity:0.004" fill="#fafcfc" d="M 742.5,834.5 C 743.833,835.167 743.833,835.167 742.5,834.5 Z"/></g>
<g><path style="opacity:0.004" fill="#fafcfb" d="M 749.5,835.5 C 749.897,834.475 750.563,834.308 751.5,835C 750.906,835.464 750.239,835.631 749.5,835.5 Z"/></g>
<g><path style="opacity:0.004" fill="#f9f9f8" d="M 789.5,835.5 C 789.897,834.475 790.563,834.308 791.5,835C 790.906,835.464 790.239,835.631 789.5,835.5 Z"/></g>
<g><path style="opacity:0.004" fill="#f4f7f4" d="M 797.5,834.5 C 798.833,835.167 798.833,835.167 797.5,834.5 Z"/></g>
</svg>
