<?xml version="1.0" encoding="UTF-8"?>
<!DOCTYPE svg PUBLIC "-//W3C//DTD SVG 1.1//EN" "http://www.w3.org/Graphics/SVG/1.1/DTD/svg11.dtd">
<svg xmlns="http://www.w3.org/2000/svg" version="1.1" width="1024px" height="1024px" style="shape-rendering:geometricPrecision; text-rendering:geometricPrecision; image-rendering:optimizeQuality; fill-rule:evenodd; clip-rule:evenodd" xmlns:xlink="http://www.w3.org/1999/xlink">
<g><path style="opacity:0.004" fill="#9c9d9b" d="M 419.5,5.5 C 420.833,6.16667 420.833,6.16667 419.5,5.5 Z"/></g>
<g><path style="opacity:0.004" fill="#919391" d="M 963.5,101.5 C 964.833,102.167 964.833,102.167 963.5,101.5 Z"/></g>
<g><path style="opacity:0.004" fill="#9a9b9b" d="M 259.5,141.5 C 260.833,142.167 260.833,142.167 259.5,141.5 Z"/></g>
<g><path style="opacity:0.004" fill="#999b97" d="M 683.5,149.5 C 684.833,150.167 684.833,150.167 683.5,149.5 Z"/></g>
<g><path style="opacity:0.01" fill="#dfe0e0" d="M 200.5,383.5 C 201.773,384.077 201.773,384.743 200.5,385.5C 199.537,385.03 199.537,384.363 200.5,383.5 Z"/></g>
<g><path style="opacity:0.004" fill="#dfe1df" d="M 202.5,384.5 C 203.833,385.167 203.833,385.167 202.5,384.5 Z"/></g>
<g><path style="opacity:0.008" fill="#e3e5e3" d="M 205.5,385.5 C 206.833,386.167 206.833,386.167 205.5,385.5 Z"/></g>
<g><path style="opacity:0.008" fill="#dfe2e0" d="M 203.5,386.5 C 204.833,387.167 204.833,387.167 203.5,386.5 Z"/></g>
<g><path style="opacity:0.016" fill="#f0efee" d="M 201.5,393.5 C 200.711,393.217 200.044,392.717 199.5,392C 200.816,391.472 201.483,391.972 201.5,393.5 Z"/></g>
<g><path style="opacity:0.004" fill="#edeceb" d="M 214.5,391.5 C 215.833,392.167 215.833,392.167 214.5,391.5 Z"/></g>
<g><path style="opacity:0.997" fill="#fefefe" d="M 316.5,577.5 C 242.331,577.833 168.331,577.499 94.5,576.5C 131.405,514.257 168.739,452.257 206.5,390.5C 243.92,452.332 280.586,514.665 316.5,577.5 Z"/></g>
<g><path style="opacity:0.004" fill="#f3f2f1" d="M 212.5,393.5 C 213.833,394.167 213.833,394.167 212.5,393.5 Z"/></g>
<g><path style="opacity:0.004" fill="#e7e7e7" d="M 200.5,395.5 C 199.833,394.167 199.833,394.167 200.5,395.5 Z"/></g>
<g><path style="opacity:0.004" fill="#ecedeb" d="M 214.5,394.5 C 215.833,395.167 215.833,395.167 214.5,394.5 Z"/></g>
<g><path style="opacity:0.004" fill="#ececeb" d="M 219.5,399.5 C 220.833,400.167 220.833,400.167 219.5,399.5 Z"/></g>
<g><path style="opacity:0.004" fill="#eeeced" d="M 193.5,402.5 C 193.897,401.475 194.563,401.308 195.5,402C 194.906,402.464 194.239,402.631 193.5,402.5 Z"/></g>
<g><path style="opacity:0.004" fill="#ecedeb" d="M 221.5,401.5 C 222.833,402.167 222.833,402.167 221.5,401.5 Z"/></g>
<g><path style="opacity:0.004" fill="#e2e1e3" d="M 354.5,407.5 C 355.833,408.167 355.833,408.167 354.5,407.5 Z"/></g>
<g><path style="opacity:0.02" fill="#edeeed" d="M 458.5,409.5 C 455.5,409.5 452.5,409.5 449.5,409.5C 449.791,408.351 450.624,407.684 452,407.5C 453.79,408.285 455.457,408.285 457,407.5C 457.717,408.044 458.217,408.711 458.5,409.5 Z"/></g>
<g><path style="opacity:0.014" fill="#f0f0ef" d="M 481.5,409.5 C 474.833,409.5 468.167,409.5 461.5,409.5C 465.406,408.06 469.573,407.394 474,407.5C 476.929,407.525 479.429,408.191 481.5,409.5 Z"/></g>
<g><path style="opacity:0.016" fill="#e5e7e4" d="M 482.5,407.5 C 483.833,408.167 483.833,408.167 482.5,407.5 Z"/></g>
<g><path style="opacity:0.004" fill="#e4e5e2" d="M 485.5,407.5 C 486.833,408.167 486.833,408.167 485.5,407.5 Z"/></g>
<g><path style="opacity:0.008" fill="#ece9ea" d="M 905.5,408.5 C 904.761,408.631 904.094,408.464 903.5,408C 904.437,407.308 905.103,407.475 905.5,408.5 Z"/></g>
<g><path style="opacity:0.012" fill="#e5e4e5" d="M 937.5,409.5 C 937.783,408.711 938.283,408.044 939,407.5C 939.528,408.816 939.028,409.483 937.5,409.5 Z"/></g>
<g><path style="opacity:0.012" fill="#eff0ee" d="M 354.5,408.5 C 354.5,408.833 354.5,409.167 354.5,409.5C 343.833,409.5 333.167,409.5 322.5,409.5C 322.167,408.167 321.833,408.167 321.5,409.5C 321.263,410.791 321.596,411.791 322.5,412.5C 322.5,413.167 322.5,413.833 322.5,414.5C 322.167,414.5 321.833,414.5 321.5,414.5C 321.5,413.833 321.167,413.5 320.5,413.5C 320.576,411.696 320.243,409.696 319.5,407.5C 331.683,408.194 343.349,408.527 354.5,408.5 Z"/></g>
<g><path style="opacity:0.014" fill="#ebebea" d="M 356.5,410.5 C 355.833,410.5 355.5,410.167 355.5,409.5C 356.239,409.631 356.906,409.464 357.5,409C 356.304,408.346 356.304,407.846 357.5,407.5C 360.433,409.738 360.099,410.738 356.5,410.5 Z"/></g>
<g><path style="opacity:0.004" fill="#e6e7e4" d="M 485.5,408.5 C 484.833,409.167 484.833,409.167 485.5,408.5 Z"/></g>
<g><path style="opacity:0.071" fill="#eeebee" d="M 907.5,409.5 C 907.167,409.5 906.833,409.5 906.5,409.5C 905.833,409.5 905.5,409.167 905.5,408.5C 906.925,406.969 907.591,407.302 907.5,409.5 Z"/></g>
<g><path style="opacity:0.039" fill="#f1f2f0" d="M 935.5,409.5 C 934.833,409.5 934.167,409.5 933.5,409.5C 925.833,409.5 918.167,409.5 910.5,409.5C 910.082,408.778 909.416,408.278 908.5,408C 909,407.833 909.5,407.667 910,407.5C 918.371,408.824 926.705,408.824 935,407.5C 935.464,408.094 935.631,408.761 935.5,409.5 Z"/></g>
<g><path style="opacity:0.959" fill="#080807" d="M 321.5,409.5 C 321.833,409.5 322.167,409.5 322.5,409.5C 333.167,409.5 343.833,409.5 354.5,409.5C 354.5,409.833 354.5,410.167 354.5,410.5C 343.448,409.857 332.781,410.524 322.5,412.5C 321.596,411.791 321.263,410.791 321.5,409.5 Z"/></g>
<g><path style="opacity:0.946" fill="#171817" d="M 447.5,409.5 C 448.167,409.5 448.833,409.5 449.5,409.5C 452.5,409.5 455.5,409.5 458.5,409.5C 459.5,409.5 460.5,409.5 461.5,409.5C 468.167,409.5 474.833,409.5 481.5,409.5C 482.338,409.842 482.672,410.508 482.5,411.5C 482.167,411.5 481.833,411.5 481.5,411.5C 481.167,411.5 480.833,411.5 480.5,411.5C 470.013,410.506 459.346,410.172 448.5,410.5C 447.833,410.5 447.5,410.167 447.5,409.5 Z"/></g>
<g><path style="opacity:0.969" fill="#ababaa" d="M 354.5,410.5 C 354.5,410.833 354.5,411.167 354.5,411.5C 343.986,411.172 333.653,411.506 323.5,412.5C 323.167,412.5 322.833,412.5 322.5,412.5C 332.781,410.524 343.448,409.857 354.5,410.5 Z"/></g>
<g><path style="opacity:0.024" fill="#e8e6e8" d="M 903.5,409.5 C 904.525,409.897 904.692,410.563 904,411.5C 903.536,410.906 903.369,410.239 903.5,409.5 Z"/></g>
<g><path style="opacity:0.997" fill="#fcfdfc" d="M 448.5,410.5 C 459.346,410.172 470.013,410.506 480.5,411.5C 469.391,430.717 459.057,450.383 449.5,470.5C 448.326,471.514 447.66,472.847 447.5,474.5C 443.406,480.351 440.073,486.685 437.5,493.5C 426.274,514.281 415.274,535.281 404.5,556.5C 404.624,557.107 404.957,557.44 405.5,557.5C 404.895,559.481 403.895,559.815 402.5,558.5C 402.5,558.167 402.5,557.833 402.5,557.5C 402.938,557.565 403.272,557.399 403.5,557C 402.182,554.176 400.515,551.676 398.5,549.5C 383.924,521.342 368.591,493.676 352.5,466.5C 352.25,464.326 351.25,462.659 349.5,461.5C 349.672,460.508 349.338,459.842 348.5,459.5C 340.434,443.702 332.101,428.035 323.5,412.5C 333.653,411.506 343.986,411.172 354.5,411.5C 371.068,441.871 387.068,472.538 402.5,503.5C 418.214,472.695 433.547,441.695 448.5,410.5 Z"/></g>
<g><path style="opacity:0.996" fill="#fdfdfd" d="M 933.5,410.5 C 934.499,456.997 934.832,503.664 934.5,550.5C 925.5,550.5 916.5,550.5 907.5,550.5C 907.5,503.833 907.5,457.167 907.5,410.5C 916.167,410.5 924.833,410.5 933.5,410.5 Z"/></g>
<g><path style="opacity:0.008" fill="#e8e7e8" d="M 486.5,411.5 C 487.525,411.897 487.692,412.563 487,413.5C 486.536,412.906 486.369,412.239 486.5,411.5 Z"/></g>
<g><path style="opacity:0.008" fill="#e9eae9" d="M 482.5,411.5 C 483.627,412.122 484.627,412.955 485.5,414C 483.511,414.519 482.511,413.686 482.5,411.5 Z"/></g>
<g><path style="opacity:0.004" fill="#e4e6e3" d="M 904.5,414.5 C 903.475,414.103 903.308,413.437 904,412.5C 904.464,413.094 904.631,413.761 904.5,414.5 Z"/></g>
<g><path style="opacity:0.004" fill="#edf0ed" d="M 188.5,415.5 C 187.833,414.167 187.833,414.167 188.5,415.5 Z"/></g>
<g><path style="opacity:0.016" fill="#f2f4f0" d="M 320.5,413.5 C 321.167,413.5 321.5,413.833 321.5,414.5C 321.44,415.043 321.107,415.376 320.5,415.5C 319.227,414.743 319.227,414.077 320.5,413.5 Z"/></g>
<g><path style="opacity:0.004" fill="#e9ebe8" d="M 486.5,414.5 C 487.833,415.167 487.833,415.167 486.5,414.5 Z"/></g>
<g><path style="opacity:0.004" fill="#eff1ee" d="M 904.5,414.5 C 905.167,414.5 905.5,414.833 905.5,415.5C 905.167,415.167 904.833,414.833 904.5,414.5 Z"/></g>
<g><path style="opacity:0.016" fill="#eaebe9" d="M 184.5,415.5 C 185.833,416.167 185.833,416.167 184.5,415.5 Z"/></g>
<g><path style="opacity:0.004" fill="#eff0ef" d="M 229.5,415.5 C 230.833,416.167 230.833,416.167 229.5,415.5 Z"/></g>
<g><path style="opacity:0.004" fill="#f1f0f0" d="M 229.5,416.5 C 231.031,417.925 230.698,418.591 228.5,418.5C 226.969,417.075 227.302,416.409 229.5,416.5 Z"/></g>
<g><path style="opacity:0.004" fill="#ecedeb" d="M 323.5,417.5 C 322.833,418.167 322.833,418.167 323.5,417.5 Z"/></g>
<g><path style="opacity:0.004" fill="#edefef" d="M 228.5,418.5 C 227.833,419.167 227.833,419.167 228.5,418.5 Z"/></g>
<g><path style="opacity:0.004" fill="#eef2ef" d="M 320.5,419.5 C 319.833,418.167 319.833,418.167 320.5,419.5 Z"/></g>
<g><path style="opacity:0.004" fill="#eeefef" d="M 322.5,418.5 C 321.833,419.167 321.833,419.167 322.5,418.5 Z"/></g>
<g><path style="opacity:0.008" fill="#f0eff0" d="M 320.5,419.5 C 320.833,419.5 321.167,419.5 321.5,419.5C 321.5,419.833 321.5,420.167 321.5,420.5C 321.167,420.167 320.833,419.833 320.5,419.5 Z"/></g>
<g><path style="opacity:0.016" fill="#dedfde" d="M 906.5,417.5 C 906.5,419.167 906.5,420.833 906.5,422.5C 905.711,422.217 905.044,421.717 904.5,421C 905.085,419.698 905.751,418.531 906.5,417.5 Z"/></g>
<g><path style="opacity:0.004" fill="#f0eff0" d="M 321.5,420.5 C 322.167,420.5 322.5,420.833 322.5,421.5C 322.167,421.167 321.833,420.833 321.5,420.5 Z"/></g>
<g><path style="opacity:0.008" fill="#edefee" d="M 322.5,421.5 C 325.097,420.597 325.597,421.264 324,423.5C 323.283,422.956 322.783,422.289 322.5,421.5 Z"/></g>
<g><path style="opacity:0.012" fill="#eeecea" d="M 477.5,421.5 C 478.833,422.167 478.833,422.167 477.5,421.5 Z"/></g>
<g><path style="opacity:0.012" fill="#f0f0ec" d="M 230.5,423.5 C 229.833,422.167 229.833,422.167 230.5,423.5 Z"/></g>
<g><path style="opacity:0.004" fill="#f2f3f0" d="M 230.5,423.5 C 231.833,424.167 231.833,424.167 230.5,423.5 Z"/></g>
<g><path style="opacity:0.016" fill="#dfe0de" d="M 906.5,423.5 C 906.5,425.833 906.5,428.167 906.5,430.5C 905.522,430.189 904.855,429.522 904.5,428.5C 905.028,426.664 905.694,424.997 906.5,423.5 Z"/></g>
<g><path style="opacity:0.004" fill="#eff1ef" d="M 329.5,430.5 C 328.475,430.103 328.308,429.437 329,428.5C 329.464,429.094 329.631,429.761 329.5,430.5 Z"/></g>
<g><path style="opacity:0.012" fill="#ebece9" d="M 329.5,430.5 C 330.833,431.167 330.833,431.167 329.5,430.5 Z"/></g>
<g><path style="opacity:0.004" fill="#f3f3f5" d="M 238.5,431.5 C 239.833,432.167 239.833,432.167 238.5,431.5 Z"/></g>
<g><path style="opacity:0.008" fill="#f1f0f4" d="M 236.5,432.5 C 237.833,433.167 237.833,433.167 236.5,432.5 Z"/></g>
<g><path style="opacity:0.008" fill="#ebeeed" d="M 903.5,432.5 C 904.833,433.167 904.833,433.167 903.5,432.5 Z"/></g>
<g><path style="opacity:0.016" fill="#f0f2ef" d="M 176.5,434.5 C 175.224,433.614 175.224,432.614 176.5,431.5C 177.087,432.233 177.087,433.233 176.5,434.5 Z"/></g>
<g><path style="opacity:0.857" fill="#474949" d="M 322.5,412.5 C 322.833,412.5 323.167,412.5 323.5,412.5C 332.101,428.035 340.434,443.702 348.5,459.5C 348.167,459.5 347.833,459.5 347.5,459.5C 344.248,454.666 341.248,449.666 338.5,444.5C 334.259,435.013 329.259,426.013 323.5,417.5C 323.443,416.391 323.11,415.391 322.5,414.5C 322.5,413.833 322.5,413.167 322.5,412.5 Z"/></g>
<g><path style="opacity:0.004" fill="#edefee" d="M 903.5,434.5 C 904.833,435.167 904.833,435.167 903.5,434.5 Z"/></g>
<g><path style="opacity:0.631" fill="#4d4d4d" d="M 480.5,411.5 C 480.833,411.5 481.167,411.5 481.5,411.5C 471.057,432.057 460.39,452.39 449.5,472.5C 449.5,471.833 449.5,471.167 449.5,470.5C 459.057,450.383 469.391,430.717 480.5,411.5 Z"/></g>
<g><path style="opacity:0.004" fill="#f1f3f0" d="M 468.5,438.5 C 469.833,439.167 469.833,439.167 468.5,438.5 Z"/></g>
<g><path style="opacity:0.008" fill="#f1f2f1" d="M 533.5,439.5 C 534.833,440.167 534.833,440.167 533.5,439.5 Z"/></g>
<g><path style="opacity:0.004" fill="#f0efee" d="M 843.5,439.5 C 844.833,440.167 844.833,440.167 843.5,439.5 Z"/></g>
<g><path style="opacity:0.839" fill="#474747" d="M 229.5,423.5 C 233.931,432.035 238.598,440.368 243.5,448.5C 251.045,463.028 259.378,477.028 268.5,490.5C 270,494.173 272,497.506 274.5,500.5C 288.338,525.698 302.671,550.698 317.5,575.5C 317.5,576.167 317.5,576.833 317.5,577.5C 317.167,577.5 316.833,577.5 316.5,577.5C 280.586,514.665 243.92,452.332 206.5,390.5C 168.739,452.257 131.405,514.257 94.5,576.5C 94.5,575.833 94.1667,575.5 93.5,575.5C 94.5,573.5 95.5,571.5 96.5,569.5C 99.6829,565.135 102.35,560.468 104.5,555.5C 113.002,542.501 121.002,529.168 128.5,515.5C 136.641,503.387 144.641,490.054 152.5,475.5C 161.272,462.29 169.272,448.624 176.5,434.5C 180.896,428.433 184.896,422.099 188.5,415.5C 192.831,409.138 196.831,402.471 200.5,395.5C 201.338,395.158 201.672,394.492 201.5,393.5C 203.054,392.086 204.388,390.419 205.5,388.5C 206.609,387.41 207.609,387.41 208.5,388.5C 215.164,400.468 222.164,412.135 229.5,423.5 Z"/></g>
<g><path style="opacity:0.004" fill="#f0f0ed" d="M 509.5,440.5 C 510.833,441.167 510.833,441.167 509.5,440.5 Z"/></g>
<g><path style="opacity:0.004" fill="#eceeec" d="M 660.5,440.5 C 661.833,441.167 661.833,441.167 660.5,440.5 Z"/></g>
<g><path style="opacity:0.004" fill="#eff1ef" d="M 721.5,440.5 C 722.833,441.167 722.833,441.167 721.5,440.5 Z"/></g>
<g><path style="opacity:0.012" fill="#f3f1f4" d="M 822.5,440.5 C 823.833,441.167 823.833,441.167 822.5,440.5 Z"/></g>
<g><path style="opacity:0.004" fill="#f1f1ee" d="M 841.5,440.5 C 842.833,441.167 842.833,441.167 841.5,440.5 Z"/></g>
<g><path style="opacity:0.004" fill="#efefed" d="M 852.5,440.5 C 853.833,441.167 853.833,441.167 852.5,440.5 Z"/></g>
<g><path style="opacity:0.004" fill="#f1f3f0" d="M 170.5,441.5 C 171.833,442.167 171.833,442.167 170.5,441.5 Z"/></g>
<g><path style="opacity:0.01" fill="#f6f5f7" d="M 335.5,441.5 C 336.525,441.897 336.692,442.563 336,443.5C 335.536,442.906 335.369,442.239 335.5,441.5 Z"/></g>
<g><path style="opacity:0.004" fill="#f2f4f3" d="M 495.5,441.5 C 496.833,442.167 496.833,442.167 495.5,441.5 Z"/></g>
<g><path style="opacity:0.004" fill="#f4f7f3" d="M 500.5,441.5 C 501.833,442.167 501.833,442.167 500.5,441.5 Z"/></g>
<g><path style="opacity:0.004" fill="#f1f4f3" d="M 503.5,441.5 C 504.833,442.167 504.833,442.167 503.5,441.5 Z"/></g>
<g><path style="opacity:0.004" fill="#f1f0ee" d="M 530.5,441.5 C 531.833,442.167 531.833,442.167 530.5,441.5 Z"/></g>
<g><path style="opacity:0.008" fill="#ededec" d="M 622.5,441.5 C 623.833,442.167 623.833,442.167 622.5,441.5 Z"/></g>
<g><path style="opacity:0.008" fill="#f1f3f0" d="M 633.5,441.5 C 634.833,442.167 634.833,442.167 633.5,441.5 Z"/></g>
<g><path style="opacity:0.004" fill="#f3f5f3" d="M 709.5,441.5 C 710.833,442.167 710.833,442.167 709.5,441.5 Z"/></g>
<g><path style="opacity:0.004" fill="#f0f0ef" d="M 739.5,442.5 C 739.897,441.475 740.563,441.308 741.5,442C 740.906,442.464 740.239,442.631 739.5,442.5 Z"/></g>
<g><path style="opacity:0.004" fill="#eff0ee" d="M 843.5,442.5 C 843.897,441.475 844.563,441.308 845.5,442C 844.906,442.464 844.239,442.631 843.5,442.5 Z"/></g>
<g><path style="opacity:0.006" fill="#f1f0ee" d="M 850.5,443.5 C 849.475,443.103 849.308,442.437 850,441.5C 850.464,442.094 850.631,442.761 850.5,443.5 Z"/></g>
<g><path style="opacity:0.008" fill="#e6ebe7" d="M 593.5,442.5 C 594.833,443.167 594.833,443.167 593.5,442.5 Z"/></g>
<g><path style="opacity:0.004" fill="#e9eaec" d="M 597.5,442.5 C 598.833,443.167 598.833,443.167 597.5,442.5 Z"/></g>
<g><path style="opacity:0.008" fill="#ececed" d="M 601.5,442.5 C 602.833,443.167 602.833,443.167 601.5,442.5 Z"/></g>
<g><path style="opacity:0.008" fill="#eeedee" d="M 605.5,442.5 C 606.833,443.167 606.833,443.167 605.5,442.5 Z"/></g>
<g><path style="opacity:0.004" fill="#ededee" d="M 607.5,442.5 C 608.833,443.167 608.833,443.167 607.5,442.5 Z"/></g>
<g><path style="opacity:0.012" fill="#eef0ee" d="M 613.5,442.5 C 614.833,443.167 614.833,443.167 613.5,442.5 Z"/></g>
<g><path style="opacity:0.008" fill="#edeced" d="M 615.5,442.5 C 616.833,443.167 616.833,443.167 615.5,442.5 Z"/></g>
<g><path style="opacity:0.004" fill="#edefec" d="M 633.5,442.5 C 632.833,443.167 632.833,443.167 633.5,442.5 Z"/></g>
<g><path style="opacity:0.02" fill="#eceeed" d="M 657.5,441.5 C 658.773,442.077 658.773,442.743 657.5,443.5C 656.537,443.03 656.537,442.363 657.5,441.5 Z"/></g>
<g><path style="opacity:0.008" fill="#f5f5f4" d="M 703.5,442.5 C 704.833,443.167 704.833,443.167 703.5,442.5 Z"/></g>
<g><path style="opacity:0.004" fill="#f3f6f4" d="M 705.5,442.5 C 706.833,443.167 706.833,443.167 705.5,442.5 Z"/></g>
<g><path style="opacity:0.012" fill="#f3f1f0" d="M 815.5,442.5 C 816.833,443.167 816.833,443.167 815.5,442.5 Z"/></g>
<g><path style="opacity:0.004" fill="#efefed" d="M 853.5,442.5 C 854.833,443.167 854.833,443.167 853.5,442.5 Z"/></g>
<g><path style="opacity:0.004" fill="#eeeeeb" d="M 537.5,443.5 C 538.833,444.167 538.833,444.167 537.5,443.5 Z"/></g>
<g><path style="opacity:0.008" fill="#eeefec" d="M 659.5,444.5 C 659.897,443.475 660.563,443.308 661.5,444C 660.906,444.464 660.239,444.631 659.5,444.5 Z"/></g>
<g><path style="opacity:0.006" fill="#efefef" d="M 738.5,444.5 C 738.897,443.475 739.563,443.308 740.5,444C 739.906,444.464 739.239,444.631 738.5,444.5 Z"/></g>
<g><path style="opacity:0.014" fill="#eae9e8" d="M 850.5,443.5 C 852.048,443.821 852.715,444.821 852.5,446.5C 851.833,446.5 851.5,446.167 851.5,445.5C 851.167,444.833 850.833,444.167 850.5,443.5 Z"/></g>
<g><path style="opacity:0.008" fill="#f6f6f5" d="M 338.5,444.5 C 337.833,445.167 337.833,445.167 338.5,444.5 Z"/></g>
<g><path style="opacity:0.996" fill="#fcfcfc" d="M 502.5,444.5 C 503.568,443.566 504.901,443.232 506.5,443.5C 534.814,440.77 555.981,451.77 570,476.5C 573.969,486.097 575.469,496.097 574.5,506.5C 546.328,506.169 518.328,506.502 490.5,507.5C 497.376,527.414 511.043,534.581 531.5,529C 535.165,527.503 538.498,525.503 541.5,523C 543.464,521.549 544.797,519.716 545.5,517.5C 553.554,520.694 561.221,524.694 568.5,529.5C 558.8,544.535 545.134,553.535 527.5,556.5C 520.82,556.388 514.153,556.054 507.5,555.5C 482.196,548.514 467.196,532.181 462.5,506.5C 461.087,474.779 475.42,454.279 505.5,445C 504.552,444.517 503.552,444.351 502.5,444.5 Z M 516.5,470.5 C 516.833,470.5 517.167,470.5 517.5,470.5C 528.796,469.653 537.13,474.319 542.5,484.5C 541.391,484.443 540.391,484.11 539.5,483.5C 539.167,482.167 538.833,482.167 538.5,483.5C 530.432,483.677 522.432,483.677 514.5,483.5C 508.895,484.561 503.228,484.561 497.5,483.5C 497.167,482.167 496.833,482.167 496.5,483.5C 494.354,483.304 494.188,482.304 496,480.5C 498.5,478 501,475.5 503.5,473C 507.782,470.666 512.115,469.833 516.5,470.5 Z"/></g>
<g><path style="opacity:0.169" fill="#babbba" d="M 621.5,445.5 C 621.167,445.5 620.833,445.5 620.5,445.5C 610.5,445.5 600.5,445.5 590.5,445.5C 599.991,444.67 609.658,444.17 619.5,444C 617.405,443.444 617.238,442.944 619,442.5C 620.31,443.13 621.144,444.13 621.5,445.5 Z"/></g>
<g><path style="opacity:0.975" fill="#4f504f" d="M 651.5,443.5 C 650.432,444.434 649.099,444.768 647.5,444.5C 640.809,444.305 634.475,445.638 628.5,448.5C 628.833,447.833 629.167,447.167 629.5,446.5C 636.486,442.745 643.819,441.745 651.5,443.5 Z"/></g>
<g><path style="opacity:0.996" fill="#fdfdfd" d="M 647.5,444.5 C 651.737,445.401 656.07,446.401 660.5,447.5C 658.167,455.5 655.833,463.5 653.5,471.5C 645.195,469.581 637.195,470.414 629.5,474C 623.681,478.779 620.515,484.946 620,492.5C 619.5,511.83 619.333,531.164 619.5,550.5C 610.5,550.5 601.5,550.5 592.5,550.5C 592.5,515.833 592.5,481.167 592.5,446.5C 601.5,446.5 610.5,446.5 619.5,446.5C 619.183,449.572 619.516,452.572 620.5,455.5C 623.212,453.115 625.878,450.782 628.5,448.5C 634.475,445.638 640.809,444.305 647.5,444.5 Z"/></g>
<g><path style="opacity:0.996" fill="#fdfdfd" d="M 751.5,452.5 C 758.175,458.01 764.008,464.344 769,471.5C 769.684,472.784 769.517,473.951 768.5,475C 762.064,478.634 755.564,482.134 749,485.5C 736.876,468.791 721.709,465.291 703.5,475C 699.166,479.164 695.832,483.997 693.5,489.5C 691.707,498.402 692.374,507.069 695.5,515.5C 704.029,528.068 715.696,532.234 730.5,528C 737.911,525.08 743.578,520.246 747.5,513.5C 748.723,512.386 750.056,512.219 751.5,513C 758.051,516.107 764.384,519.44 770.5,523C 763.043,539.745 750.376,550.412 732.5,555C 710.922,558.779 692.255,553.279 676.5,538.5C 676.573,536.973 675.906,535.973 674.5,535.5C 666.191,523.894 662.524,510.894 663.5,496.5C 664.451,495.081 664.784,493.415 664.5,491.5C 664.833,488.833 665.167,486.167 665.5,483.5C 679.707,450.908 704.374,438.742 739.5,447C 743.672,448.588 747.672,450.421 751.5,452.5 Z"/></g>
<g><path style="opacity:0.996" fill="#fcfcfc" d="M 817.5,444.5 C 818.568,443.566 819.901,443.232 821.5,443.5C 857.168,441.859 879.501,458.193 888.5,492.5C 888.5,497.167 888.5,501.833 888.5,506.5C 860.147,505.842 832.147,506.508 804.5,508.5C 807.322,520.324 814.655,527.324 826.5,529.5C 833.491,531.001 840.491,530.501 847.5,528C 852.267,525.069 856.601,521.569 860.5,517.5C 867.698,521.262 874.698,525.262 881.5,529.5C 870.448,546.682 854.614,555.682 834,556.5C 820.262,556.112 807.762,552.112 796.5,544.5C 785.122,534.415 778.456,521.749 776.5,506.5C 776.5,501.833 776.5,497.167 776.5,492.5C 777.185,487.761 778.185,483.094 779.5,478.5C 783.623,471.113 788.623,464.28 794.5,458C 802.061,451.553 810.728,447.219 820.5,445C 819.552,444.517 818.552,444.351 817.5,444.5 Z M 827.5,469.5 C 827.369,470.376 827.702,471.043 828.5,471.5C 830.851,469.771 833.518,469.104 836.5,469.5C 836.369,470.239 836.536,470.906 837,471.5C 838.209,471.347 839.375,471.014 840.5,470.5C 843.987,471.408 846.987,473.074 849.5,475.5C 848.711,475.783 848.044,476.283 847.5,477C 848.749,477.74 849.749,477.573 850.5,476.5C 852.262,477.262 853.262,478.596 853.5,480.5C 854.167,480.833 854.833,481.167 855.5,481.5C 855.5,482.5 855.5,483.5 855.5,484.5C 843.224,483.443 830.891,483.443 818.5,484.5C 818.631,483.761 818.464,483.094 818,482.5C 815.393,483.123 812.893,483.79 810.5,484.5C 809.833,484.5 809.167,484.5 808.5,484.5C 809.754,481.25 811.754,478.583 814.5,476.5C 815.29,475.206 816.29,474.039 817.5,473C 820.899,471.923 824.233,470.756 827.5,469.5 Z"/></g>
<g><path style="opacity:0.004" fill="#e9edea" d="M 903.5,444.5 C 904.833,445.167 904.833,445.167 903.5,444.5 Z"/></g>
<g><path style="opacity:0.004" fill="#f2f3ef" d="M 662.5,445.5 C 663.833,446.167 663.833,446.167 662.5,445.5 Z"/></g>
<g><path style="opacity:0.027" fill="#e0e3e3" d="M 701.5,445.5 C 701.158,446.338 700.492,446.672 699.5,446.5C 699.409,444.302 700.075,443.969 701.5,445.5 Z"/></g>
<g><path style="opacity:0.004" fill="#f5f4f3" d="M 337.5,445.5 C 337.631,446.239 337.464,446.906 337,447.5C 336.308,446.563 336.475,445.897 337.5,445.5 Z"/></g>
<g><path style="opacity:0.02" fill="#f2f2f3" d="M 243.5,448.5 C 244.251,447.427 245.251,447.26 246.5,448C 245.648,449.728 244.648,449.895 243.5,448.5 Z"/></g>
<g><path style="opacity:0.004" fill="#eff1ef" d="M 687.5,447.5 C 688.833,448.167 688.833,448.167 687.5,447.5 Z"/></g>
<g><path style="opacity:0.004" fill="#efefed" d="M 755.5,447.5 C 756.833,448.167 756.833,448.167 755.5,447.5 Z"/></g>
<g><path style="opacity:0.004" fill="#eeefed" d="M 804.5,448.5 C 803.833,447.167 803.833,447.167 804.5,448.5 Z"/></g>
<g><path style="opacity:0.008" fill="#eff2ef" d="M 860.5,447.5 C 861.833,448.167 861.833,448.167 860.5,447.5 Z"/></g>
<g><path style="opacity:0.004" fill="#f0eeed" d="M 479.5,448.5 C 480.833,449.167 480.833,449.167 479.5,448.5 Z"/></g>
<g><path style="opacity:0.004" fill="#f2f1ee" d="M 483.5,448.5 C 484.833,449.167 484.833,449.167 483.5,448.5 Z"/></g>
<g><path style="opacity:0.008" fill="#f5f5f5" d="M 749.5,448.5 C 750.833,449.167 750.833,449.167 749.5,448.5 Z"/></g>
<g><path style="opacity:0.004" fill="#f0f1ee" d="M 486.5,450.5 C 485.833,449.167 485.833,449.167 486.5,450.5 Z"/></g>
<g><path style="opacity:0.024" fill="#f3f4f4" d="M 549.5,451.5 C 548.833,451.5 548.5,451.167 548.5,450.5C 550.346,449.258 550.679,449.591 549.5,451.5 Z"/></g>
<g><path style="opacity:0.984" fill="#6b6b6c" d="M 620.5,445.5 C 620.833,445.5 621.167,445.5 621.5,445.5C 622.089,447.398 622.256,449.398 622,451.5C 624.4,449.585 626.9,447.919 629.5,446.5C 629.167,447.167 628.833,447.833 628.5,448.5C 625.878,450.782 623.212,453.115 620.5,455.5C 619.516,452.572 619.183,449.572 619.5,446.5C 620.167,446.5 620.5,446.167 620.5,445.5 Z"/></g>
<g><path style="opacity:0.008" fill="#edecea" d="M 623.5,447.5 C 624.833,448.167 624.833,448.167 623.5,447.5 Z"/></g>
<g><path style="opacity:0.004" fill="#f0f1f0" d="M 481.5,450.5 C 482.833,451.167 482.833,451.167 481.5,450.5 Z"/></g>
<g><path style="opacity:0.008" fill="#e7e8e7" d="M 752.5,452.5 C 752.167,452.5 751.833,452.5 751.5,452.5C 751.167,451.833 750.833,451.167 750.5,450.5C 752.203,449.34 752.869,450.007 752.5,452.5 Z"/></g>
<g><path style="opacity:0.016" fill="#ececea" d="M 753.5,450.5 C 754.833,451.167 754.833,451.167 753.5,450.5 Z"/></g>
<g><path style="opacity:0.004" fill="#ecebeb" d="M 662.5,451.5 C 663.833,452.167 663.833,452.167 662.5,451.5 Z"/></g>
<g><path style="opacity:0.004" fill="#f1f0ef" d="M 755.5,451.5 C 756.833,452.167 756.833,452.167 755.5,451.5 Z"/></g>
<g><path style="opacity:1" fill="#464747" d="M 502.5,444.5 C 503.552,444.351 504.552,444.517 505.5,445C 475.42,454.279 461.087,474.779 462.5,506.5C 462.672,507.492 462.338,508.158 461.5,508.5C 461.5,507.833 461.5,507.167 461.5,506.5C 461.5,501.833 461.5,497.167 461.5,492.5C 462.276,481.341 466.109,471.341 473,462.5C 475.703,459.629 478.536,456.962 481.5,454.5C 483.389,453.396 485.055,452.063 486.5,450.5C 491.424,447.524 496.757,445.524 502.5,444.5 Z"/></g>
<g><path style="opacity:0.016" fill="#f6f5f5" d="M 481.5,454.5 C 479.972,454.483 479.472,453.816 480,452.5C 480.717,453.044 481.217,453.711 481.5,454.5 Z"/></g>
<g><path style="opacity:0.004" fill="#f1f2f1" d="M 868.5,453.5 C 869.833,454.167 869.833,454.167 868.5,453.5 Z"/></g>
<g><path style="opacity:1" fill="#4e4e4e" d="M 354.5,409.5 C 354.833,409.5 355.167,409.5 355.5,409.5C 355.5,410.167 355.833,410.5 356.5,410.5C 364.849,425.868 373.183,441.202 381.5,456.5C 387.232,470.967 394.232,484.634 402.5,497.5C 403.183,497.137 403.85,496.804 404.5,496.5C 405.338,496.158 405.672,495.492 405.5,494.5C 406.312,492.055 407.312,489.722 408.5,487.5C 415.302,475.562 421.302,463.228 426.5,450.5C 430.087,444.328 433.42,437.994 436.5,431.5C 437.338,431.158 437.672,430.492 437.5,429.5C 439.438,425.957 441.105,422.29 442.5,418.5C 443.537,417.07 444.204,415.403 444.5,413.5C 445.5,412.167 446.5,410.833 447.5,409.5C 447.5,410.167 447.833,410.5 448.5,410.5C 433.547,441.695 418.214,472.695 402.5,503.5C 387.068,472.538 371.068,441.871 354.5,411.5C 354.5,411.167 354.5,410.833 354.5,410.5C 354.5,410.167 354.5,409.833 354.5,409.5 Z"/></g>
<g><path style="opacity:0.004" fill="#f2f6ef" d="M 379.5,451.5 C 380.833,452.167 380.833,452.167 379.5,451.5 Z"/></g>
<g><path style="opacity:0.004" fill="#f1f1f1" d="M 423.5,450.5 C 424.833,451.167 424.833,451.167 423.5,450.5 Z"/></g>
<g><path style="opacity:0.012" fill="#eaedeb" d="M 426.5,450.5 C 425.833,449.167 425.833,449.167 426.5,450.5 Z"/></g>
<g><path style="opacity:0.004" fill="#f2f2f0" d="M 380.5,448.5 C 381.833,449.167 381.833,449.167 380.5,448.5 Z"/></g>
<g><path style="opacity:0.004" fill="#f1f1f0" d="M 427.5,443.5 C 428.833,444.167 428.833,444.167 427.5,443.5 Z"/></g>
<g><path style="opacity:0.004" fill="#f0f2f0" d="M 429.5,439.5 C 430.833,440.167 430.833,440.167 429.5,439.5 Z"/></g>
<g><path style="opacity:0.016" fill="#f2f3f1" d="M 431.5,435.5 C 431.897,434.475 432.563,434.308 433.5,435C 432.906,435.464 432.239,435.631 431.5,435.5 Z"/></g>
<g><path style="opacity:0.007" fill="#efefef" d="M 371.5,433.5 C 375.243,433.459 375.41,434.126 372,435.5C 371.536,434.906 371.369,434.239 371.5,433.5 Z"/></g>
<g><path style="opacity:0.012" fill="#eef2f0" d="M 432.5,432.5 C 433.833,433.167 433.833,433.167 432.5,432.5 Z"/></g>
<g><path style="opacity:0.004" fill="#f0efef" d="M 371.5,432.5 C 371.5,432.833 371.5,433.167 371.5,433.5C 370.83,433.019 370.83,432.685 371.5,432.5 Z"/></g>
<g><path style="opacity:0.024" fill="#eeeeec" d="M 371.5,431.5 C 372.833,432.167 372.833,432.167 371.5,431.5 Z"/></g>
<g><path style="opacity:0.012" fill="#ecedec" d="M 436.5,427.5 C 436.328,428.492 436.662,429.158 437.5,429.5C 437.672,430.492 437.338,431.158 436.5,431.5C 435.314,430.039 435.314,428.705 436.5,427.5 Z"/></g>
<g><path style="opacity:0.004" fill="#efefee" d="M 436.5,426.5 C 437.833,427.167 437.833,427.167 436.5,426.5 Z"/></g>
<g><path style="opacity:0.008" fill="#eeefee" d="M 433.5,426.5 C 434.833,427.167 434.833,427.167 433.5,426.5 Z"/></g>
<g><path style="opacity:0.004" fill="#edeeec" d="M 434.5,424.5 C 435.833,425.167 435.833,425.167 434.5,424.5 Z"/></g>
<g><path style="opacity:0.008" fill="#eef0ef" d="M 437.5,423.5 C 438.833,424.167 438.833,424.167 437.5,423.5 Z"/></g>
<g><path style="opacity:0.004" fill="#f3f4f1" d="M 364.5,422.5 C 365.833,423.167 365.833,423.167 364.5,422.5 Z"/></g>
<g><path style="opacity:0.004" fill="#eeeeec" d="M 441.5,418.5 C 441.103,419.525 440.437,419.692 439.5,419C 440.094,418.536 440.761,418.369 441.5,418.5 Z"/></g>
<g><path style="opacity:0.012" fill="#f2f2ef" d="M 442.5,418.5 C 441.833,417.167 441.833,417.167 442.5,418.5 Z"/></g>
<g><path style="opacity:0.012" fill="#ececeb" d="M 361.5,416.5 C 362.833,417.167 362.833,417.167 361.5,416.5 Z"/></g>
<g><path style="opacity:0.004" fill="#eeefe9" d="M 441.5,415.5 C 442.833,416.167 442.833,416.167 441.5,415.5 Z"/></g>
<g><path style="opacity:0.012" fill="#ecedeb" d="M 444.5,413.5 C 443.153,414.028 441.819,414.195 440.5,414C 441.818,412.37 443.151,412.203 444.5,413.5 Z"/></g>
<g><path style="opacity:0.004" fill="#eaece8" d="M 440.5,410.5 C 439.833,411.167 439.833,411.167 440.5,410.5 Z"/></g>
<g><path style="opacity:0.012" fill="#eceeea" d="M 444.5,409.5 C 445.833,410.167 445.833,410.167 444.5,409.5 Z"/></g>
<g><path style="opacity:0.004" fill="#e6e8e6" d="M 440.5,409.5 C 441.833,410.167 441.833,410.167 440.5,409.5 Z"/></g>
<g><path style="opacity:0.004" fill="#eff1ed" d="M 381.5,455.5 C 382.833,456.167 382.833,456.167 381.5,455.5 Z"/></g>
<g><path style="opacity:0.004" fill="#f0f3f1" d="M 421.5,455.5 C 422.833,456.167 422.833,456.167 421.5,455.5 Z"/></g>
<g><path style="opacity:0.906" fill="#4e4f4e" d="M 817.5,444.5 C 818.552,444.351 819.552,444.517 820.5,445C 810.728,447.219 802.061,451.553 794.5,458C 788.623,464.28 783.623,471.113 779.5,478.5C 779.5,477.833 779.5,477.167 779.5,476.5C 781.244,472.906 783.244,469.406 785.5,466C 784.944,465.617 784.611,465.117 784.5,464.5C 790.884,458.78 797.55,453.447 804.5,448.5C 808.719,446.76 813.053,445.427 817.5,444.5 Z"/></g>
<g><path style="opacity:0.004" fill="#f3f3f3" d="M 249.5,455.5 C 250.525,455.897 250.692,456.563 250,457.5C 249.536,456.906 249.369,456.239 249.5,455.5 Z"/></g>
<g><path style="opacity:0.004" fill="#f2f4f1" d="M 559.5,456.5 C 560.833,457.167 560.833,457.167 559.5,456.5 Z"/></g>
<g><path style="opacity:0.843" fill="#606161" d="M 651.5,443.5 C 655.314,444.036 658.981,445.036 662.5,446.5C 660.4,455.459 657.733,464.125 654.5,472.5C 653.833,472.833 653.167,473.167 652.5,473.5C 651.833,473.5 651.167,473.5 650.5,473.5C 649.081,472.549 647.415,472.216 645.5,472.5C 640.727,472.124 636.393,473.124 632.5,475.5C 626.755,477.266 623.588,481.266 623,487.5C 621.608,509.137 621.108,530.804 621.5,552.5C 610.986,552.828 600.653,552.494 590.5,551.5C 600.918,551.832 610.584,551.499 619.5,550.5C 619.333,531.164 619.5,511.83 620,492.5C 620.515,484.946 623.681,478.779 629.5,474C 637.195,470.414 645.195,469.581 653.5,471.5C 655.833,463.5 658.167,455.5 660.5,447.5C 656.07,446.401 651.737,445.401 647.5,444.5C 649.099,444.768 650.432,444.434 651.5,443.5 Z"/></g>
<g><path style="opacity:0.004" fill="#eeeeee" d="M 673.5,456.5 C 674.833,457.167 674.833,457.167 673.5,456.5 Z"/></g>
<g><path style="opacity:0.004" fill="#f1f2ef" d="M 875.5,456.5 C 876.833,457.167 876.833,457.167 875.5,456.5 Z"/></g>
<g><path style="opacity:0.004" fill="#eaeceb" d="M 903.5,456.5 C 904.833,457.167 904.833,457.167 903.5,456.5 Z"/></g>
<g><path style="opacity:0.004" fill="#f1f0f1" d="M 471.5,457.5 C 472.833,458.167 472.833,458.167 471.5,457.5 Z"/></g>
<g><path style="opacity:0.004" fill="#edefed" d="M 873.5,457.5 C 874.833,458.167 874.833,458.167 873.5,457.5 Z"/></g>
<g><path style="opacity:0.008" fill="#f2f2f1" d="M 159.5,458.5 C 160.833,459.167 160.833,459.167 159.5,458.5 Z"/></g>
<g><path style="opacity:0.004" fill="#f1f3f0" d="M 415.5,458.5 C 416.833,459.167 416.833,459.167 415.5,458.5 Z"/></g>
<g><path style="opacity:0.004" fill="#f0f3f3" d="M 420.5,459.5 C 421.833,460.167 421.833,460.167 420.5,459.5 Z"/></g>
<g><path style="opacity:0.004" fill="#f1f5f1" d="M 457.5,459.5 C 458.833,460.167 458.833,460.167 457.5,459.5 Z"/></g>
<g><path style="opacity:0.012" fill="#f3f4f1" d="M 763.5,459.5 C 764.833,460.167 764.833,460.167 763.5,459.5 Z"/></g>
<g><path style="opacity:0.008" fill="#f1f2f1" d="M 346.5,462.5 C 346.44,463.043 346.107,463.376 345.5,463.5C 344.369,461.926 344.202,460.259 345,458.5C 345.21,460.058 345.71,461.391 346.5,462.5 Z"/></g>
<g><path style="opacity:0.018" fill="#a4a5a4" d="M 347.5,459.5 C 347.833,459.5 348.167,459.5 348.5,459.5C 349.338,459.842 349.672,460.508 349.5,461.5C 349.5,461.833 349.5,462.167 349.5,462.5C 348.5,462.5 347.5,462.5 346.5,462.5C 347.11,461.609 347.443,460.609 347.5,459.5 Z"/></g>
<g><path style="opacity:0.008" fill="#eff1ef" d="M 676.5,461.5 C 675.833,460.167 675.833,460.167 676.5,461.5 Z"/></g>
<g><path style="opacity:0.004" fill="#efeeec" d="M 874.5,460.5 C 875.833,460.5 876.5,461.167 876.5,462.5C 875.5,462.167 874.833,461.5 874.5,460.5 Z"/></g>
<g><path style="opacity:0.004" fill="#f1f5f3" d="M 659.5,461.5 C 660.833,462.167 660.833,462.167 659.5,461.5 Z"/></g>
<g><path style="opacity:0.004" fill="#eff1ee" d="M 662.5,461.5 C 663.833,462.167 663.833,462.167 662.5,461.5 Z"/></g>
<g><path style="opacity:0.004" fill="#eeefee" d="M 152.5,463.5 C 153.833,464.167 153.833,464.167 152.5,463.5 Z"/></g>
<g><path style="opacity:0.004" fill="#f0f0ee" d="M 671.5,463.5 C 672.833,464.167 672.833,464.167 671.5,463.5 Z"/></g>
<g><path style="opacity:0.02" fill="#f3f1ef" d="M 766.5,463.5 C 767.833,464.167 767.833,464.167 766.5,463.5 Z"/></g>
<g><path style="opacity:0.012" fill="#eff0ee" d="M 784.5,464.5 C 783.833,463.167 783.833,463.167 784.5,464.5 Z"/></g>
<g><path style="opacity:0.902" fill="#28292b" d="M 349.5,461.5 C 351.25,462.659 352.25,464.326 352.5,466.5C 351.833,466.167 351.167,465.833 350.5,465.5C 349.89,464.609 349.557,463.609 349.5,462.5C 349.5,462.167 349.5,461.833 349.5,461.5 Z"/></g>
<g><path style="opacity:0.004" fill="#f1f1f1" d="M 415.5,465.5 C 415.897,464.475 416.563,464.308 417.5,465C 416.906,465.464 416.239,465.631 415.5,465.5 Z"/></g>
<g><path style="opacity:0.886" fill="#545454" d="M 738.5,444.5 C 741.979,446.403 745.646,448.07 749.5,449.5C 749.5,450.167 749.833,450.5 750.5,450.5C 750.833,451.167 751.167,451.833 751.5,452.5C 747.672,450.421 743.672,448.588 739.5,447C 704.374,438.742 679.707,450.908 665.5,483.5C 665.5,482.833 665.5,482.167 665.5,481.5C 667.04,476.088 669.374,471.088 672.5,466.5C 674.063,465.055 675.396,463.389 676.5,461.5C 683,454.748 690.667,449.748 699.5,446.5C 700.492,446.672 701.158,446.338 701.5,445.5C 713.702,441.885 726.035,441.551 738.5,444.5 Z"/></g>
<g><path style="opacity:0.004" fill="#f0f1ee" d="M 464.5,465.5 C 465.833,466.167 465.833,466.167 464.5,465.5 Z"/></g>
<g><path style="opacity:0.008" fill="#edecea" d="M 672.5,466.5 C 671.833,465.167 671.833,465.167 672.5,466.5 Z"/></g>
<g><path style="opacity:0.004" fill="#f1f1f0" d="M 151.5,466.5 C 152.833,467.167 152.833,467.167 151.5,466.5 Z"/></g>
<g><path style="opacity:0.016" fill="#f5f3f6" d="M 416.5,467.5 C 415.833,466.167 415.833,466.167 416.5,467.5 Z"/></g>
<g><path style="opacity:0.016" fill="#f4f5f3" d="M 416.5,467.5 C 417.833,468.167 417.833,468.167 416.5,467.5 Z"/></g>
<g><path style="opacity:0.592" fill="#9f9f9f" d="M 834.5,467.5 C 836.099,467.232 837.432,467.566 838.5,468.5C 837.508,468.328 836.842,468.662 836.5,469.5C 833.518,469.104 830.851,469.771 828.5,471.5C 827.702,471.043 827.369,470.376 827.5,469.5C 830.01,469.073 832.343,468.407 834.5,467.5 Z"/></g>
<g><path style="opacity:0.012" fill="#f3f4f0" d="M 388.5,469.5 C 389.833,470.167 389.833,470.167 388.5,469.5 Z"/></g>
<g><path style="opacity:0.004" fill="#f3f5f2" d="M 454.5,469.5 C 455.833,470.167 455.833,470.167 454.5,469.5 Z"/></g>
<g><path style="opacity:0.004" fill="#ebeceb" d="M 836.5,469.5 C 837.959,469.433 839.292,469.766 840.5,470.5C 839.375,471.014 838.209,471.347 837,471.5C 836.536,470.906 836.369,470.239 836.5,469.5 Z"/></g>
<g><path style="opacity:0.008" fill="#f3f5f2" d="M 152.5,471.5 C 153.833,472.167 153.833,472.167 152.5,471.5 Z"/></g>
<g><path style="opacity:0.012" fill="#f4f6f2" d="M 262.5,471.5 C 263.833,472.167 263.833,472.167 262.5,471.5 Z"/></g>
<g><path style="opacity:0.004" fill="#f0f2f0" d="M 413.5,471.5 C 414.833,472.167 414.833,472.167 413.5,471.5 Z"/></g>
<g><path style="opacity:0.004" fill="#f1f6f2" d="M 464.5,471.5 C 465.833,472.167 465.833,472.167 464.5,471.5 Z"/></g>
<g><path style="opacity:0.012" fill="#f3f2f1" d="M 775.5,472.5 C 774.833,471.167 774.833,471.167 775.5,472.5 Z"/></g>
<g><path style="opacity:0.008" fill="#f1f3f0" d="M 777.5,471.5 C 778.833,472.167 778.833,472.167 777.5,471.5 Z"/></g>
<g><path style="opacity:0.004" fill="#f7f6f5" d="M 152.5,472.5 C 151.833,473.167 151.833,473.167 152.5,472.5 Z"/></g>
<g><path style="opacity:0.004" fill="#f3f2f1" d="M 464.5,472.5 C 463.833,473.167 463.833,473.167 464.5,472.5 Z"/></g>
<g><path style="opacity:0.009" fill="#f0f0ef" d="M 645.5,472.5 C 647.415,472.216 649.081,472.549 650.5,473.5C 649.25,473.577 648.417,474.244 648,475.5C 646.955,474.627 646.122,473.627 645.5,472.5 Z"/></g>
<g><path style="opacity:0.004" fill="#f2f1f0" d="M 775.5,472.5 C 776.833,473.167 776.833,473.167 775.5,472.5 Z"/></g>
<g><path style="opacity:0.953" fill="#1c1c1d" d="M 449.5,470.5 C 449.5,471.167 449.5,471.833 449.5,472.5C 449.167,473.167 448.833,473.833 448.5,474.5C 448.167,474.5 447.833,474.5 447.5,474.5C 447.66,472.847 448.326,471.514 449.5,470.5 Z"/></g>
<g><path style="opacity:0.082" fill="#dedfdd" d="M 654.5,472.5 C 654.611,473.117 654.944,473.617 655.5,474C 654.251,474.74 653.251,474.573 652.5,473.5C 653.167,473.167 653.833,472.833 654.5,472.5 Z"/></g>
<g><path style="opacity:0.004" fill="#f0efee" d="M 773.5,473.5 C 774.833,474.167 774.833,474.167 773.5,473.5 Z"/></g>
<g><path style="opacity:0.008" fill="#f1f1ef" d="M 777.5,473.5 C 778.833,474.167 778.833,474.167 777.5,473.5 Z"/></g>
<g><path style="opacity:0.996" fill="#616263" d="M 836.5,469.5 C 836.842,468.662 837.508,468.328 838.5,468.5C 848.281,470.044 854.948,475.378 858.5,484.5C 858.167,484.5 857.833,484.5 857.5,484.5C 857.068,483.29 856.401,482.29 855.5,481.5C 854.833,481.167 854.167,480.833 853.5,480.5C 853.262,478.596 852.262,477.262 850.5,476.5C 850.5,475.833 850.167,475.5 849.5,475.5C 846.987,473.074 843.987,471.408 840.5,470.5C 839.292,469.766 837.959,469.433 836.5,469.5 Z"/></g>
<g><path style="opacity:0.008" fill="#eef0ed" d="M 903.5,473.5 C 904.833,474.167 904.833,474.167 903.5,473.5 Z"/></g>
<g><path style="opacity:0.004" fill="#f4f3f3" d="M 152.5,475.5 C 151.833,474.167 151.833,474.167 152.5,475.5 Z"/></g>
<g><path style="opacity:0.024" fill="#f3f5f3" d="M 354.5,473.5 C 354.672,474.492 354.338,475.158 353.5,475.5C 353.328,474.508 353.662,473.842 354.5,473.5 Z"/></g>
<g><path style="opacity:0.02" fill="#eef0f0" d="M 463.5,474.5 C 464.833,475.167 464.833,475.167 463.5,474.5 Z"/></g>
<g><path style="opacity:0.004" fill="#f4f4f0" d="M 637.5,474.5 C 638.833,475.167 638.833,475.167 637.5,474.5 Z"/></g>
<g><path style="opacity:0.004" fill="#eff0f0" d="M 650.5,474.5 C 651.833,475.167 651.833,475.167 650.5,474.5 Z"/></g>
<g><path style="opacity:0.004" fill="#f1f2ef" d="M 777.5,474.5 C 776.833,475.167 776.833,475.167 777.5,474.5 Z"/></g>
<g><path style="opacity:0.008" fill="#f0f3f3" d="M 260.5,475.5 C 261.833,476.167 261.833,476.167 260.5,475.5 Z"/></g>
<g><path style="opacity:0.004" fill="#f5f4f5" d="M 353.5,475.5 C 352.833,476.167 352.833,476.167 353.5,475.5 Z"/></g>
<g><path style="opacity:0.02" fill="#f2f4f4" d="M 572.5,475.5 C 573.833,476.167 573.833,476.167 572.5,475.5 Z"/></g>
<g><path style="opacity:0.004" fill="#f2f2ef" d="M 632.5,475.5 C 633.833,476.167 633.833,476.167 632.5,475.5 Z"/></g>
<g><path style="opacity:0.004" fill="#f1f0f1" d="M 654.5,475.5 C 655.525,475.897 655.692,476.563 655,477.5C 654.536,476.906 654.369,476.239 654.5,475.5 Z"/></g>
<g><path style="opacity:0.004" fill="#f5f3f1" d="M 262.5,476.5 C 263.833,477.167 263.833,477.167 262.5,476.5 Z"/></g>
<g><path style="opacity:0.008" fill="#f6f4f5" d="M 352.5,476.5 C 352.631,477.239 352.464,477.906 352,478.5C 351.308,477.563 351.475,476.897 352.5,476.5 Z"/></g>
<g><path style="opacity:0.008" fill="#f3f3f0" d="M 634.5,476.5 C 635.833,477.167 635.833,477.167 634.5,476.5 Z"/></g>
<g><path style="opacity:0.004" fill="#f4f5f1" d="M 775.5,476.5 C 776.833,477.167 776.833,477.167 775.5,476.5 Z"/></g>
<g><path style="opacity:0.804" fill="#595a5a" d="M 834.5,467.5 C 832.343,468.407 830.01,469.073 827.5,469.5C 824.233,470.756 820.899,471.923 817.5,473C 816.29,474.039 815.29,475.206 814.5,476.5C 811.754,478.583 809.754,481.25 808.5,484.5C 807.833,484.5 807.167,484.5 806.5,484.5C 811.971,472.753 821.304,467.087 834.5,467.5 Z"/></g>
<g><path style="opacity:0.004" fill="#f3f2f3" d="M 849.5,475.5 C 850.167,475.5 850.5,475.833 850.5,476.5C 849.749,477.573 848.749,477.74 847.5,477C 848.044,476.283 848.711,475.783 849.5,475.5 Z"/></g>
<g><path style="opacity:0.008" fill="#f4f5f3" d="M 634.5,477.5 C 633.833,478.167 633.833,478.167 634.5,477.5 Z"/></g>
<g><path style="opacity:0.004" fill="#efefed" d="M 651.5,478.5 C 651.897,477.475 652.563,477.308 653.5,478C 652.906,478.464 652.239,478.631 651.5,478.5 Z"/></g>
<g><path style="opacity:0.004" fill="#ebeeeb" d="M 769.5,477.5 C 770.833,478.167 770.833,478.167 769.5,477.5 Z"/></g>
<g><path style="opacity:0.325" fill="#e0dfe0" d="M 779.5,476.5 C 779.5,477.167 779.5,477.833 779.5,478.5C 778.833,479.167 778.167,479.833 777.5,480.5C 777.229,478.62 777.896,477.287 779.5,476.5 Z"/></g>
<g><path style="opacity:0.012" fill="#f2f6f4" d="M 357.5,478.5 C 356.833,479.167 356.833,479.167 357.5,478.5 Z"/></g>
<g><path style="opacity:0.008" fill="#f6f5f3" d="M 631.5,478.5 C 632.833,479.167 632.833,479.167 631.5,478.5 Z"/></g>
<g><path style="opacity:0.004" fill="#f1f1ef" d="M 647.5,478.5 C 648.833,479.167 648.833,479.167 647.5,478.5 Z"/></g>
<g><path style="opacity:0.008" fill="#eef1ef" d="M 766.5,478.5 C 767.833,479.167 767.833,479.167 766.5,478.5 Z"/></g>
<g><path style="opacity:0.992" fill="#5b5c5c" d="M 851.5,445.5 C 851.5,446.167 851.833,446.5 852.5,446.5C 858.385,448.109 863.718,450.776 868.5,454.5C 870.142,455.803 871.809,457.136 873.5,458.5C 873.833,459.167 874.167,459.833 874.5,460.5C 874.833,461.5 875.5,462.167 876.5,462.5C 883.813,470.628 888.147,480.628 889.5,492.5C 889.167,492.5 888.833,492.5 888.5,492.5C 879.501,458.193 857.168,441.859 821.5,443.5C 831.623,441.878 841.623,442.544 851.5,445.5 Z"/></g>
<g><path style="opacity:0.004" fill="#f2f0f1" d="M 408.5,479.5 C 409.833,480.167 409.833,480.167 408.5,479.5 Z"/></g>
<g><path style="opacity:0.851" fill="#606061" d="M 751.5,452.5 C 751.833,452.5 752.167,452.5 752.5,452.5C 753.922,452.709 755.255,453.209 756.5,454C 758.703,456.372 761.037,458.539 763.5,460.5C 764.026,462.23 765.026,463.564 766.5,464.5C 768.066,467.412 770.066,470.079 772.5,472.5C 770.897,474.954 768.897,476.954 766.5,478.5C 762.345,479.742 758.678,481.742 755.5,484.5C 753.139,485.435 750.972,486.768 749,488.5C 740.93,475.751 729.43,470.251 714.5,472C 712.942,472.21 711.609,472.71 710.5,473.5C 709.5,474.167 708.5,474.833 707.5,475.5C 707.167,474.167 706.833,474.167 706.5,475.5C 705.833,475.5 705.5,475.833 705.5,476.5C 699.845,480.481 696.178,485.815 694.5,492.5C 694.737,491.209 694.404,490.209 693.5,489.5C 695.832,483.997 699.166,479.164 703.5,475C 721.709,465.291 736.876,468.791 749,485.5C 755.564,482.134 762.064,478.634 768.5,475C 769.517,473.951 769.684,472.784 769,471.5C 764.008,464.344 758.175,458.01 751.5,452.5 Z"/></g>
<g><path style="opacity:0.004" fill="#f2f5f1" d="M 737.5,478.5 C 738.833,479.167 738.833,479.167 737.5,478.5 Z"/></g>
<g><path style="opacity:0.004" fill="#f3f4f3" d="M 729.5,478.5 C 730.833,479.167 730.833,479.167 729.5,478.5 Z"/></g>
<g><path style="opacity:0.004" fill="#f3f1f1" d="M 709.5,477.5 C 710.833,478.167 710.833,478.167 709.5,477.5 Z"/></g>
<g><path style="opacity:0.009" fill="#f2f1f1" d="M 706.5,475.5 C 706.833,475.5 707.167,475.5 707.5,475.5C 707.33,476.822 707.663,477.989 708.5,479C 706.511,479.519 705.511,478.686 705.5,476.5C 706.167,476.5 706.5,476.167 706.5,475.5 Z"/></g>
<g><path style="opacity:0.008" fill="#f2f4f3" d="M 732.5,475.5 C 733.833,476.167 733.833,476.167 732.5,475.5 Z"/></g>
<g><path style="opacity:0.004" fill="#f3f4f5" d="M 732.5,475.5 C 731.761,475.631 731.094,475.464 730.5,475C 731.437,474.308 732.103,474.475 732.5,475.5 Z"/></g>
<g><path style="opacity:0.004" fill="#f7f8f5" d="M 727.5,473.5 C 728.833,474.167 728.833,474.167 727.5,473.5 Z"/></g>
<g><path style="opacity:0.008" fill="#f9fffa" d="M 710.5,473.5 C 711.833,474.167 711.833,474.167 710.5,473.5 Z"/></g>
<g><path style="opacity:0.886" fill="#5e5f5f" d="M 544.5,484.5 C 543.833,484.5 543.167,484.5 542.5,484.5C 537.13,474.319 528.796,469.653 517.5,470.5C 517.167,470.5 516.833,470.5 516.5,470.5C 512.115,469.833 507.782,470.666 503.5,473C 501,475.5 498.5,478 496,480.5C 494.188,482.304 494.354,483.304 496.5,483.5C 496.5,483.833 496.5,484.167 496.5,484.5C 495.833,484.5 495.5,484.833 495.5,485.5C 494.153,486.028 492.819,486.195 491.5,486C 500.83,467.779 514.83,463.112 533.5,472C 538.434,475.098 542.101,479.265 544.5,484.5 Z M 516.5,470.5 C 516.833,470.5 517.167,470.5 517.5,470.5C 528.796,469.653 537.13,474.319 542.5,484.5C 541.391,484.443 540.391,484.11 539.5,483.5C 539.167,482.167 538.833,482.167 538.5,483.5C 530.432,483.677 522.432,483.677 514.5,483.5C 508.895,484.561 503.228,484.561 497.5,483.5C 497.167,482.167 496.833,482.167 496.5,483.5C 494.354,483.304 494.188,482.304 496,480.5C 498.5,478 501,475.5 503.5,473C 507.782,470.666 512.115,469.833 516.5,470.5 Z"/></g>
<g><path style="opacity:1" fill="#393839" d="M 779.5,478.5 C 778.185,483.094 777.185,487.761 776.5,492.5C 775.596,491.791 775.263,490.791 775.5,489.5C 775.756,486.402 776.422,483.402 777.5,480.5C 778.167,479.833 778.833,479.167 779.5,478.5 Z"/></g>
<g><path style="opacity:0.004" fill="#f3f4f2" d="M 145.5,483.5 C 145.897,482.475 146.563,482.308 147.5,483C 146.906,483.464 146.239,483.631 145.5,483.5 Z"/></g>
<g><path style="opacity:0.004" fill="#f3f1f1" d="M 408.5,483.5 C 407.833,482.167 407.833,482.167 408.5,483.5 Z"/></g>
<g><path style="opacity:0.016" fill="#dedfdd" d="M 665.5,481.5 C 665.5,482.167 665.5,482.833 665.5,483.5C 664.833,484.5 664.167,485.5 663.5,486.5C 663.077,484.219 663.744,482.552 665.5,481.5 Z"/></g>
<g><path style="opacity:0.008" fill="#f4f5f5" d="M 855.5,481.5 C 856.401,482.29 857.068,483.29 857.5,484.5C 856.833,484.5 856.167,484.5 855.5,484.5C 855.5,483.5 855.5,482.5 855.5,481.5 Z"/></g>
<g><path style="opacity:0.004" fill="#f5f5f2" d="M 408.5,483.5 C 409.833,484.167 409.833,484.167 408.5,483.5 Z"/></g>
<g><path style="opacity:0.682" fill="#585958" d="M 548.5,450.5 C 548.5,451.167 548.833,451.5 549.5,451.5C 559.263,457.929 566.93,466.262 572.5,476.5C 574.597,482.651 575.93,488.984 576.5,495.5C 575.833,499.167 575.167,502.833 574.5,506.5C 575.469,496.097 573.969,486.097 570,476.5C 555.981,451.77 534.814,440.77 506.5,443.5C 513.117,442.411 519.783,442.244 526.5,443C 533.634,443.875 539.634,445.708 544.5,448.5C 545.086,448.291 545.586,447.957 546,447.5C 546.377,448.942 547.21,449.942 548.5,450.5 Z"/></g>
<g><path style="opacity:0.016" fill="#f8fbf9" d="M 818.5,484.5 C 815.833,484.5 813.167,484.5 810.5,484.5C 812.893,483.79 815.393,483.123 818,482.5C 818.464,483.094 818.631,483.761 818.5,484.5 Z"/></g>
<g><path style="opacity:0.91" fill="#454648" d="M 497.5,483.5 C 503.228,484.561 508.895,484.561 514.5,483.5C 522.432,483.677 530.432,483.677 538.5,483.5C 538.833,484.833 539.167,484.833 539.5,483.5C 540.391,484.11 541.391,484.443 542.5,484.5C 543.167,484.5 543.833,484.5 544.5,484.5C 544.631,485.239 544.464,485.906 544,486.5C 527.911,485.509 511.744,485.175 495.5,485.5C 495.5,484.833 495.833,484.5 496.5,484.5C 497.167,484.5 497.5,484.167 497.5,483.5 Z"/></g>
<g><path style="opacity:0.008" fill="#f5f3f2" d="M 755.5,484.5 C 756.833,485.167 756.833,485.167 755.5,484.5 Z"/></g>
<g><path style="opacity:0.922" fill="#2c2d2f" d="M 855.5,484.5 C 856.167,484.5 856.833,484.5 857.5,484.5C 857.833,484.5 858.167,484.5 858.5,484.5C 841.864,485.192 824.531,485.859 806.5,486.5C 805.227,485.743 805.227,485.077 806.5,484.5C 807.167,484.5 807.833,484.5 808.5,484.5C 809.167,484.5 809.833,484.5 810.5,484.5C 813.167,484.5 815.833,484.5 818.5,484.5C 830.891,483.443 843.224,483.443 855.5,484.5 Z"/></g>
<g><path style="opacity:0.004" fill="#ebefec" d="M 903.5,484.5 C 904.833,485.167 904.833,485.167 903.5,484.5 Z"/></g>
<g><path style="opacity:0.004" fill="#f3f5f2" d="M 143.5,486.5 C 144.833,487.167 144.833,487.167 143.5,486.5 Z"/></g>
<g><path style="opacity:0.012" fill="#f3f3f1" d="M 408.5,487.5 C 407.833,486.167 407.833,486.167 408.5,487.5 Z"/></g>
<g><path style="opacity:0.004" fill="#f7f4f2" d="M 445.5,485.5 C 448.001,485.511 448.168,486.178 446,487.5C 445.536,486.906 445.369,486.239 445.5,485.5 Z"/></g>
<g><path style="opacity:0.008" fill="#f2f4f4" d="M 269.5,487.5 C 270.833,488.167 270.833,488.167 269.5,487.5 Z"/></g>
<g><path style="opacity:0.024" fill="#f5f5f2" d="M 359.5,488.5 C 359.897,487.475 360.563,487.308 361.5,488C 360.906,488.464 360.239,488.631 359.5,488.5 Z"/></g>
<g><path style="opacity:0.004" fill="#f3f2f0" d="M 442.5,488.5 C 443.833,489.167 443.833,489.167 442.5,488.5 Z"/></g>
<g><path style="opacity:0.004" fill="#f1f1f1" d="M 459.5,488.5 C 460.833,489.167 460.833,489.167 459.5,488.5 Z"/></g>
<g><path style="opacity:0.008" fill="#f5f5f5" d="M 268.5,489.5 C 269.833,490.167 269.833,490.167 268.5,489.5 Z"/></g>
<g><path style="opacity:0.004" fill="#f6f6f3" d="M 364.5,491.5 C 363.614,492.776 362.614,492.776 361.5,491.5C 362.233,490.913 363.233,490.913 364.5,491.5 Z"/></g>
<g><path style="opacity:0.004" fill="#f4f4f4" d="M 400.5,490.5 C 401.833,491.167 401.833,491.167 400.5,490.5 Z"/></g>
<g><path style="opacity:0.941" fill="#535353" d="M 447.5,474.5 C 447.833,474.5 448.167,474.5 448.5,474.5C 445.085,481.665 441.418,488.665 437.5,495.5C 437.5,494.833 437.5,494.167 437.5,493.5C 440.073,486.685 443.406,480.351 447.5,474.5 Z"/></g>
<g><path style="opacity:0.988" fill="#232323" d="M 665.5,483.5 C 665.167,486.167 664.833,488.833 664.5,491.5C 663.566,490.432 663.232,489.099 663.5,487.5C 663.5,487.167 663.5,486.833 663.5,486.5C 664.167,485.5 664.833,484.5 665.5,483.5 Z"/></g>
<g><path style="opacity:0.004" fill="#f8f5f4" d="M 359.5,490.5 C 360.525,490.897 360.692,491.563 360,492.5C 359.536,491.906 359.369,491.239 359.5,490.5 Z"/></g>
<g><path style="opacity:0.004" fill="#f0efed" d="M 903.5,491.5 C 904.525,491.897 904.692,492.563 904,493.5C 903.536,492.906 903.369,492.239 903.5,491.5 Z"/></g>
<g><path style="opacity:0.024" fill="#f8f7f5" d="M 365.5,493.5 C 365.5,494.167 365.833,494.5 366.5,494.5C 367.167,494.5 367.5,494.833 367.5,495.5C 365.897,495.688 364.563,495.188 363.5,494C 364.094,493.536 364.761,493.369 365.5,493.5 Z"/></g>
<g><path style="opacity:0.008" fill="#f2f3f2" d="M 405.5,494.5 C 405.672,495.492 405.338,496.158 404.5,496.5C 402.989,494.162 403.323,493.496 405.5,494.5 Z"/></g>
<g><path style="opacity:0.988" fill="#9d9c9e" d="M 663.5,487.5 C 663.232,489.099 663.566,490.432 664.5,491.5C 664.784,493.415 664.451,495.081 663.5,496.5C 663.768,494.901 663.434,493.568 662.5,492.5C 662.216,490.585 662.549,488.919 663.5,487.5 Z"/></g>
<g><path style="opacity:0.976" fill="#737474" d="M 775.5,489.5 C 775.263,490.791 775.596,491.791 776.5,492.5C 776.5,497.167 776.5,501.833 776.5,506.5C 775.596,507.209 775.263,508.209 775.5,509.5C 774.549,508.081 774.216,506.415 774.5,504.5C 774.5,502.167 774.5,499.833 774.5,497.5C 774.194,494.615 774.527,491.948 775.5,489.5 Z"/></g>
<g><path style="opacity:0.008" fill="#f2f0f4" d="M 274.5,497.5 C 273.833,496.167 273.833,496.167 274.5,497.5 Z"/></g>
<g><path style="opacity:0.004" fill="#eff1ee" d="M 659.5,496.5 C 660.833,497.167 660.833,497.167 659.5,496.5 Z"/></g>
<g><path style="opacity:0.012" fill="#f5f4f2" d="M 276.5,498.5 C 276.511,495.999 277.178,495.832 278.5,498C 277.906,498.464 277.239,498.631 276.5,498.5 Z"/></g>
<g><path style="opacity:0.004" fill="#f4f6f0" d="M 437.5,497.5 C 438.833,498.167 438.833,498.167 437.5,497.5 Z"/></g>
<g><path style="opacity:0.004" fill="#eef0ee" d="M 458.5,497.5 C 459.833,498.167 459.833,498.167 458.5,497.5 Z"/></g>
<g><path style="opacity:0.016" fill="#f6f6f6" d="M 135.5,498.5 C 136.833,499.167 136.833,499.167 135.5,498.5 Z"/></g>
<g><path style="opacity:0.008" fill="#f4f4f3" d="M 274.5,497.5 C 275.167,497.833 275.833,498.167 276.5,498.5C 276.167,499.5 275.5,500.167 274.5,500.5C 274.5,499.5 274.5,498.5 274.5,497.5 Z"/></g>
<g><path style="opacity:0.004" fill="#f1f3f0" d="M 772.5,499.5 C 771.833,498.167 771.833,498.167 772.5,499.5 Z"/></g>
<g><path style="opacity:0.004" fill="#f0efec" d="M 903.5,498.5 C 904.833,499.167 904.833,499.167 903.5,498.5 Z"/></g>
<g><path style="opacity:0.004" fill="#f4f3f1" d="M 278.5,499.5 C 279.833,500.167 279.833,500.167 278.5,499.5 Z"/></g>
<g><path style="opacity:0.004" fill="#f1f1ef" d="M 436.5,499.5 C 437.833,500.167 437.833,500.167 436.5,499.5 Z"/></g>
<g><path style="opacity:0.204" fill="#b4b4b2" d="M 461.5,492.5 C 461.5,497.167 461.5,501.833 461.5,506.5C 460.807,502.435 460.14,498.268 459.5,494C 460.044,493.283 460.711,492.783 461.5,492.5 Z"/></g>
<g><path style="opacity:0.004" fill="#eff2ee" d="M 659.5,498.5 C 660.525,498.897 660.692,499.563 660,500.5C 659.536,499.906 659.369,499.239 659.5,498.5 Z"/></g>
<g><path style="opacity:0.03" fill="#fafbfb" d="M 774.5,497.5 C 774.5,499.833 774.5,502.167 774.5,504.5C 773.691,502.972 773.024,501.306 772.5,499.5C 773.167,498.833 773.833,498.167 774.5,497.5 Z"/></g>
<g><path style="opacity:0.012" fill="#f1f3f2" d="M 367.5,501.5 C 368.833,502.167 368.833,502.167 367.5,501.5 Z"/></g>
<g><path style="opacity:0.008" fill="#ecf0ee" d="M 659.5,501.5 C 660.833,502.167 660.833,502.167 659.5,501.5 Z"/></g>
<g><path style="opacity:0.004" fill="#f7f5f4" d="M 277.5,502.5 C 278.833,503.167 278.833,503.167 277.5,502.5 Z"/></g>
<g><path style="opacity:0.918" fill="#1d1e1f" d="M 906.5,409.5 C 906.833,409.5 907.167,409.5 907.5,409.5C 908.5,409.5 909.5,409.5 910.5,409.5C 918.167,409.5 925.833,409.5 933.5,409.5C 933.5,409.833 933.5,410.167 933.5,410.5C 924.833,410.5 916.167,410.5 907.5,410.5C 907.5,457.167 907.5,503.833 907.5,550.5C 916.5,550.5 925.5,550.5 934.5,550.5C 935.167,505.5 935.833,460.5 936.5,415.5C 936.5,461.167 936.5,506.833 936.5,552.5C 926.494,552.666 916.494,552.5 906.5,552C 905.5,551.667 904.5,551.333 903.5,551C 904.737,550.768 905.737,550.268 906.5,549.5C 906.5,510.167 906.5,470.833 906.5,431.5C 906.5,431.167 906.5,430.833 906.5,430.5C 906.5,428.167 906.5,425.833 906.5,423.5C 906.5,423.167 906.5,422.833 906.5,422.5C 906.5,420.833 906.5,419.167 906.5,417.5C 906.167,416.833 905.833,416.167 905.5,415.5C 905.517,413.627 905.851,411.627 906.5,409.5 Z"/></g>
<g><path style="opacity:0.004" fill="#f1f4f1" d="M 656.5,503.5 C 657.833,504.167 657.833,504.167 656.5,503.5 Z"/></g>
<g><path style="opacity:0.006" fill="#f2f2f0" d="M 659.5,503.5 C 660.525,503.897 660.692,504.563 660,505.5C 659.536,504.906 659.369,504.239 659.5,503.5 Z"/></g>
<g><path style="opacity:0.004" fill="#eeeceb" d="M 903.5,504.5 C 904.833,505.167 904.833,505.167 903.5,504.5 Z"/></g>
<g><path style="opacity:0.004" fill="#f4f5f4" d="M 370.5,505.5 C 371.833,506.167 371.833,506.167 370.5,505.5 Z"/></g>
<g><path style="opacity:0.004" fill="#f2f3f4" d="M 367.5,506.5 C 368.833,507.167 368.833,507.167 367.5,506.5 Z"/></g>
<g><path style="opacity:0.969" fill="#0d0d0e" d="M 576.5,495.5 C 576.817,499.702 576.483,503.702 575.5,507.5C 547.833,507.5 520.167,507.5 492.5,507.5C 491.833,507.5 491.167,507.5 490.5,507.5C 518.328,506.502 546.328,506.169 574.5,506.5C 575.167,502.833 575.833,499.167 576.5,495.5 Z"/></g>
<g><path style="opacity:0.978" fill="#1e1e1f" d="M 888.5,492.5 C 888.833,492.5 889.167,492.5 889.5,492.5C 890.751,497.631 890.751,502.631 889.5,507.5C 861.833,507.5 834.167,507.5 806.5,507.5C 805.833,507.833 805.167,508.167 804.5,508.5C 832.147,506.508 860.147,505.842 888.5,506.5C 888.5,501.833 888.5,497.167 888.5,492.5 Z"/></g>
<g><path style="opacity:0.004" fill="#f3f5f5" d="M 373.5,507.5 C 372.833,508.167 372.833,508.167 373.5,507.5 Z"/></g>
<g><path style="opacity:0.106" fill="#dcdbdb" d="M 492.5,507.5 C 520.167,507.5 547.833,507.5 575.5,507.5C 547.985,507.836 520.651,508.836 493.5,510.5C 492.596,509.791 492.263,508.791 492.5,507.5 Z"/></g>
<g><path style="opacity:0.004" fill="#edefee" d="M 659.5,507.5 C 660.833,508.167 660.833,508.167 659.5,507.5 Z"/></g>
<g><path style="opacity:0.157" fill="#dbdbda" d="M 806.5,508.5 C 806.5,508.167 806.5,507.833 806.5,507.5C 834.167,507.5 861.833,507.5 889.5,507.5C 889.217,508.289 888.717,508.956 888,509.5C 866.493,509.494 845.16,509.16 824,508.5C 821.5,508.667 819,508.833 816.5,509C 817.696,509.654 817.696,510.154 816.5,510.5C 813.444,508.711 810.111,508.044 806.5,508.5 Z"/></g>
<g><path style="opacity:0.963" fill="#565b5b" d="M 933.5,410.5 C 933.5,410.167 933.5,409.833 933.5,409.5C 934.167,409.5 934.833,409.5 935.5,409.5C 936.167,409.5 936.833,409.5 937.5,409.5C 936.659,411.379 936.325,413.379 936.5,415.5C 935.833,460.5 935.167,505.5 934.5,550.5C 934.832,503.664 934.499,456.997 933.5,410.5 Z"/></g>
<g><path style="opacity:0.004" fill="#f1f1f1" d="M 622.5,508.5 C 623.525,508.897 623.692,509.563 623,510.5C 622.536,509.906 622.369,509.239 622.5,508.5 Z"/></g>
<g><path style="opacity:0.004" fill="#f0f1f1" d="M 744.5,508.5 C 745.833,509.167 745.833,509.167 744.5,508.5 Z"/></g>
<g><path style="opacity:0.008" fill="#f1f2f1" d="M 459.5,509.5 C 460.833,510.167 460.833,510.167 459.5,509.5 Z"/></g>
<g><path style="opacity:0.008" fill="#ebebeb" d="M 500.5,509.5 C 501.833,510.167 501.833,510.167 500.5,509.5 Z"/></g>
<g><path style="opacity:0.004" fill="#f0f0ed" d="M 520.5,509.5 C 521.833,510.167 521.833,510.167 520.5,509.5 Z"/></g>
<g><path style="opacity:0.004" fill="#edeced" d="M 522.5,510.5 C 523.251,509.427 524.251,509.26 525.5,510C 524.552,510.483 523.552,510.649 522.5,510.5 Z"/></g>
<g><path style="opacity:0.004" fill="#f2f4f0" d="M 533.5,509.5 C 534.833,510.167 534.833,510.167 533.5,509.5 Z"/></g>
<g><path style="opacity:0.004" fill="#ededed" d="M 538.5,509.5 C 539.833,510.167 539.833,510.167 538.5,509.5 Z"/></g>
<g><path style="opacity:0.004" fill="#edefec" d="M 548.5,509.5 C 549.833,510.167 549.833,510.167 548.5,509.5 Z"/></g>
<g><path style="opacity:0.005" fill="#eff0f0" d="M 551.5,510.5 C 552.601,509.402 553.934,509.235 555.5,510C 554.207,510.49 552.873,510.657 551.5,510.5 Z"/></g>
<g><path style="opacity:0.012" fill="#eff1f2" d="M 560.5,509.5 C 561.833,510.167 561.833,510.167 560.5,509.5 Z"/></g>
<g><path style="opacity:0.008" fill="#eaebea" d="M 564.5,509.5 C 565.833,510.167 565.833,510.167 564.5,509.5 Z"/></g>
<g><path style="opacity:0.012" fill="#eae8e5" d="M 572.5,509.5 C 573.833,510.167 573.833,510.167 572.5,509.5 Z"/></g>
<g><path style="opacity:0.055" fill="#f4f6f7" d="M 749.5,510.5 C 748.833,510.5 748.167,510.5 747.5,510.5C 747.786,508.067 748.452,508.067 749.5,510.5 Z"/></g>
<g><path style="opacity:0.004" fill="#eef0f0" d="M 772.5,509.5 C 773.833,510.167 773.833,510.167 772.5,509.5 Z"/></g>
<g><path style="opacity:0.005" fill="#efeff0" d="M 818.5,510.5 C 819.601,509.402 820.934,509.235 822.5,510C 821.207,510.49 819.873,510.657 818.5,510.5 Z"/></g>
<g><path style="opacity:0.004" fill="#eeeded" d="M 834.5,510.5 C 834.897,509.475 835.563,509.308 836.5,510C 835.906,510.464 835.239,510.631 834.5,510.5 Z"/></g>
<g><path style="opacity:0.004" fill="#ecf0ec" d="M 844.5,509.5 C 845.833,510.167 845.833,510.167 844.5,509.5 Z"/></g>
<g><path style="opacity:0.008" fill="#ecedef" d="M 851.5,509.5 C 852.833,510.167 852.833,510.167 851.5,509.5 Z"/></g>
<g><path style="opacity:0.004" fill="#efeded" d="M 859.5,509.5 C 860.833,510.167 860.833,510.167 859.5,509.5 Z"/></g>
<g><path style="opacity:0.004" fill="#eceeea" d="M 868.5,510.5 C 868.897,509.475 869.563,509.308 870.5,510C 869.906,510.464 869.239,510.631 868.5,510.5 Z"/></g>
<g><path style="opacity:0.004" fill="#ebecec" d="M 882.5,510.5 C 883.251,509.427 884.251,509.26 885.5,510C 884.552,510.483 883.552,510.649 882.5,510.5 Z"/></g>
<g><path style="opacity:0.012" fill="#f2f1f2" d="M 660.5,510.5 C 661.833,511.167 661.833,511.167 660.5,510.5 Z"/></g>
<g><path style="opacity:0.004" fill="#ebeaea" d="M 888.5,510.5 C 889.833,511.167 889.833,511.167 888.5,510.5 Z"/></g>
<g><path style="opacity:0.008" fill="#edf1ec" d="M 891.5,510.5 C 892.833,511.167 892.833,511.167 891.5,510.5 Z"/></g>
<g><path style="opacity:0.008" fill="#f2f3f1" d="M 285.5,511.5 C 286.833,512.167 286.833,512.167 285.5,511.5 Z"/></g>
<g><path style="opacity:0.008" fill="#f2f4f3" d="M 543.5,511.5 C 544.833,512.167 544.833,512.167 543.5,511.5 Z"/></g>
<g><path style="opacity:0.012" fill="#f3f4f1" d="M 545.5,511.5 C 546.833,512.167 546.833,512.167 545.5,511.5 Z"/></g>
<g><path style="opacity:0.024" fill="#f3f1f1" d="M 549.5,511.5 C 550.833,512.167 550.833,512.167 549.5,511.5 Z"/></g>
<g><path style="opacity:0.004" fill="#f1f3f3" d="M 622.5,511.5 C 623.833,512.167 623.833,512.167 622.5,511.5 Z"/></g>
<g><path style="opacity:0.008" fill="#f3f4f1" d="M 811.5,511.5 C 812.833,512.167 812.833,512.167 811.5,511.5 Z"/></g>
<g><path style="opacity:0.937" fill="#4a4b4b" d="M 662.5,492.5 C 663.434,493.568 663.768,494.901 663.5,496.5C 662.524,510.894 666.191,523.894 674.5,535.5C 674.167,535.5 673.833,535.5 673.5,535.5C 669.732,530.965 666.732,525.965 664.5,520.5C 661.576,511.31 660.91,501.977 662.5,492.5 Z"/></g>
<g><path style="opacity:0.992" fill="#4b4b4b" d="M 693.5,489.5 C 694.404,490.209 694.737,491.209 694.5,492.5C 694.037,499.98 694.703,507.314 696.5,514.5C 696.5,515.167 696.167,515.5 695.5,515.5C 692.374,507.069 691.707,498.402 693.5,489.5 Z"/></g>
<g><path style="opacity:0.004" fill="#f1f3f2" d="M 699.5,512.5 C 700.833,513.167 700.833,513.167 699.5,512.5 Z"/></g>
<g><path style="opacity:0.012" fill="#f0f5f3" d="M 762.5,512.5 C 763.833,513.167 763.833,513.167 762.5,512.5 Z"/></g>
<g><path style="opacity:0.004" fill="#f1f3f4" d="M 861.5,512.5 C 862.833,513.167 862.833,513.167 861.5,512.5 Z"/></g>
<g><path style="opacity:0.024" fill="#d5d6d4" d="M 906.5,431.5 C 906.5,470.833 906.5,510.167 906.5,549.5C 905.761,549.631 905.094,549.464 904.5,549C 905.602,546.599 905.769,544.099 905,541.5C 904.444,543.595 903.944,543.762 903.5,542C 904.738,537.81 905.404,533.477 905.5,529C 904.837,515.346 904.837,502.013 905.5,489C 905.4,486.698 904.733,484.698 903.5,483C 904.802,478.418 905.469,473.585 905.5,468.5C 905.179,458.394 904.845,448.228 904.5,438C 905.117,435.723 905.784,433.556 906.5,431.5 Z"/></g>
<g><path style="opacity:0.008" fill="#f1f1f0" d="M 545.5,513.5 C 546.833,514.167 546.833,514.167 545.5,513.5 Z"/></g>
<g><path style="opacity:0.008" fill="#f3f4f4" d="M 547.5,513.5 C 548.833,514.167 548.833,514.167 547.5,513.5 Z"/></g>
<g><path style="opacity:0.988" fill="#3e3f40" d="M 590.5,445.5 C 600.5,445.5 610.5,445.5 620.5,445.5C 620.5,446.167 620.167,446.5 619.5,446.5C 610.5,446.5 601.5,446.5 592.5,446.5C 592.5,481.167 592.5,515.833 592.5,550.5C 601.5,550.5 610.5,550.5 619.5,550.5C 610.584,551.499 600.918,551.832 590.5,551.5C 589.943,516.79 589.943,481.456 590.5,445.5 Z"/></g>
<g><path style="opacity:0.004" fill="#f6f7f3" d="M 128.5,515.5 C 127.833,514.167 127.833,514.167 128.5,515.5 Z"/></g>
<g><path style="opacity:0.008" fill="#f5f5f4" d="M 283.5,514.5 C 284.833,515.167 284.833,515.167 283.5,514.5 Z"/></g>
<g><path style="opacity:0.017" fill="#f6f5f5" d="M 377.5,514.5 C 377.328,515.492 377.662,516.158 378.5,516.5C 378.167,517.5 377.5,518.167 376.5,518.5C 376.232,516.901 376.566,515.568 377.5,514.5 Z"/></g>
<g><path style="opacity:0.004" fill="#f1f5f1" d="M 622.5,514.5 C 623.833,515.167 623.833,515.167 622.5,514.5 Z"/></g>
<g><path style="opacity:0.004" fill="#f4f7f2" d="M 811.5,514.5 C 812.833,515.167 812.833,515.167 811.5,514.5 Z"/></g>
<g><path style="opacity:0.012" fill="#f6f5f5" d="M 855.5,514.5 C 856.833,515.167 856.833,515.167 855.5,514.5 Z"/></g>
<g><path style="opacity:0.004" fill="#f4f4f3" d="M 858.5,515.5 C 857.475,515.103 857.308,514.437 858,513.5C 858.464,514.094 858.631,514.761 858.5,515.5 Z"/></g>
<g><path style="opacity:0.008" fill="#f5f4f5" d="M 763.5,515.5 C 764.833,516.167 764.833,516.167 763.5,515.5 Z"/></g>
<g><path style="opacity:0.008" fill="#f4f6f2" d="M 285.5,517.5 C 284.833,516.167 284.833,516.167 285.5,517.5 Z"/></g>
<g><path style="opacity:0.004" fill="#f6f2f2" d="M 286.5,516.5 C 287.833,517.167 287.833,517.167 286.5,516.5 Z"/></g>
<g><path style="opacity:0.392" fill="#e6e8e6" d="M 547.5,516.5 C 546.508,516.328 545.842,516.662 545.5,517.5C 544.833,517.833 544.167,518.167 543.5,518.5C 543.958,515.691 545.291,515.024 547.5,516.5 Z"/></g>
<g><path style="opacity:0.004" fill="#f1f3f1" d="M 622.5,516.5 C 623.833,517.167 623.833,517.167 622.5,516.5 Z"/></g>
<g><path style="opacity:0.004" fill="#f4f5f3" d="M 285.5,517.5 C 285.833,517.5 286.167,517.5 286.5,517.5C 286.315,518.17 285.981,518.17 285.5,517.5 Z"/></g>
<g><path style="opacity:0.941" fill="#474748" d="M 437.5,493.5 C 437.5,494.167 437.5,494.833 437.5,495.5C 437.5,496.167 437.5,496.833 437.5,497.5C 431.322,507.359 425.989,517.693 421.5,528.5C 415.718,537.731 410.718,547.397 406.5,557.5C 406.167,557.5 405.833,557.5 405.5,557.5C 404.957,557.44 404.624,557.107 404.5,556.5C 415.274,535.281 426.274,514.281 437.5,493.5 Z"/></g>
<g><path style="opacity:0.773" fill="#5d5d5d" d="M 747.5,510.5 C 748.167,510.5 748.833,510.5 749.5,510.5C 754.167,512.5 758.833,514.5 763.5,516.5C 766.899,518.038 770.233,519.871 773.5,522C 766.317,538.995 753.65,550.495 735.5,556.5C 731.613,556.646 727.946,557.313 724.5,558.5C 719.311,558.43 713.978,558.096 708.5,557.5C 701.05,555.458 693.717,552.792 686.5,549.5C 684.54,547.844 682.54,546.177 680.5,544.5C 679.833,543.167 678.833,542.167 677.5,541.5C 676.89,540.609 676.557,539.609 676.5,538.5C 692.255,553.279 710.922,558.779 732.5,555C 750.376,550.412 763.043,539.745 770.5,523C 764.384,519.44 758.051,516.107 751.5,513C 750.056,512.219 748.723,512.386 747.5,513.5C 743.578,520.246 737.911,525.08 730.5,528C 715.696,532.234 704.029,528.068 695.5,515.5C 696.167,515.5 696.5,515.167 696.5,514.5C 699.205,518.205 702.538,521.205 706.5,523.5C 715.923,528.649 725.589,528.816 735.5,524C 740.386,520.281 744.386,515.781 747.5,510.5 Z"/></g>
<g><path style="opacity:0.004" fill="#eef0ef" d="M 698.5,514.5 C 699.833,515.167 699.833,515.167 698.5,514.5 Z"/></g>
<g><path style="opacity:0.008" fill="#f2f5f2" d="M 376.5,518.5 C 375.833,519.167 375.833,519.167 376.5,518.5 Z"/></g>
<g><path style="opacity:0.004" fill="#f0f1f1" d="M 461.5,518.5 C 462.833,519.167 462.833,519.167 461.5,518.5 Z"/></g>
<g><path style="opacity:0.004" fill="#f3f2f0" d="M 286.5,519.5 C 287.833,520.167 287.833,520.167 286.5,519.5 Z"/></g>
<g><path style="opacity:0.008" fill="#f3f5f0" d="M 735.5,519.5 C 736.833,520.167 736.833,520.167 735.5,519.5 Z"/></g>
<g><path style="opacity:0.004" fill="#f1f4f2" d="M 847.5,519.5 C 848.833,520.167 848.833,520.167 847.5,519.5 Z"/></g>
<g><path style="opacity:0.008" fill="#f3f6f2" d="M 849.5,519.5 C 850.833,520.167 850.833,520.167 849.5,519.5 Z"/></g>
<g><path style="opacity:0.004" fill="#f3f5f1" d="M 872.5,519.5 C 873.833,520.167 873.833,520.167 872.5,519.5 Z"/></g>
<g><path style="opacity:0.004" fill="#f1f1f1" d="M 122.5,521.5 C 121.833,520.167 121.833,520.167 122.5,521.5 Z"/></g>
<g><path style="opacity:0.008" fill="#f3f0f1" d="M 562.5,521.5 C 561.833,520.167 561.833,520.167 562.5,521.5 Z"/></g>
<g><path style="opacity:0.012" fill="#eff1f0" d="M 664.5,520.5 C 663.833,521.167 663.833,521.167 664.5,520.5 Z"/></g>
<g><path style="opacity:0.004" fill="#f4f4f3" d="M 818.5,520.5 C 819.833,521.167 819.833,521.167 818.5,520.5 Z"/></g>
<g><path style="opacity:0.012" fill="#f6f8f6" d="M 122.5,521.5 C 123.833,522.167 123.833,522.167 122.5,521.5 Z"/></g>
<g><path style="opacity:0.004" fill="#eeefee" d="M 562.5,521.5 C 563.167,521.5 563.5,521.833 563.5,522.5C 563.167,522.167 562.833,521.833 562.5,521.5 Z"/></g>
<g><path style="opacity:0.008" fill="#f4f3f4" d="M 622.5,521.5 C 623.833,522.167 623.833,522.167 622.5,521.5 Z"/></g>
<g><path style="opacity:0.004" fill="#f0f2f1" d="M 851.5,522.5 C 850.833,521.167 850.833,521.167 851.5,522.5 Z"/></g>
<g><path style="opacity:0.004" fill="#f6f3f1" d="M 876.5,521.5 C 877.833,522.167 877.833,522.167 876.5,521.5 Z"/></g>
<g><path style="opacity:0.012" fill="#f3f5f4" d="M 463.5,522.5 C 464.833,523.167 464.833,523.167 463.5,522.5 Z"/></g>
<g><path style="opacity:0.004" fill="#eff0ee" d="M 563.5,522.5 C 564.833,523.167 564.833,523.167 563.5,522.5 Z"/></g>
<g><path style="opacity:0.004" fill="#f4f5f3" d="M 588.5,522.5 C 589.833,523.167 589.833,523.167 588.5,522.5 Z"/></g>
<g><path style="opacity:0.012" fill="#f0f1f0" d="M 663.5,522.5 C 664.833,523.167 664.833,523.167 663.5,522.5 Z"/></g>
<g><path style="opacity:0.004" fill="#f4f2f2" d="M 706.5,523.5 C 706.897,522.475 707.563,522.308 708.5,523C 707.906,523.464 707.239,523.631 706.5,523.5 Z"/></g>
<g><path style="opacity:0.004" fill="#f3f1f1" d="M 727.5,521.5 C 728.525,521.897 728.692,522.563 728,523.5C 727.536,522.906 727.369,522.239 727.5,521.5 Z"/></g>
<g><path style="opacity:0.004" fill="#f1f2ef" d="M 817.5,522.5 C 818.833,523.167 818.833,523.167 817.5,522.5 Z"/></g>
<g><path style="opacity:0.004" fill="#f0efee" d="M 903.5,522.5 C 904.833,523.167 904.833,523.167 903.5,522.5 Z"/></g>
<g><path style="opacity:0.004" fill="#f6f3f2" d="M 120.5,523.5 C 121.833,524.167 121.833,524.167 120.5,523.5 Z"/></g>
<g><path style="opacity:0.004" fill="#f3f5f4" d="M 380.5,523.5 C 381.833,524.167 381.833,524.167 380.5,523.5 Z"/></g>
<g><path style="opacity:0.984" fill="#5a5a59" d="M 806.5,507.5 C 806.5,507.833 806.5,508.167 806.5,508.5C 808.216,516.21 812.549,521.877 819.5,525.5C 821.679,526.677 824.013,527.677 826.5,528.5C 826.5,528.833 826.5,529.167 826.5,529.5C 814.655,527.324 807.322,520.324 804.5,508.5C 805.167,508.167 805.833,507.833 806.5,507.5 Z"/></g>
<g><path style="opacity:0.992" fill="#626262" d="M 490.5,507.5 C 491.167,507.5 491.833,507.5 492.5,507.5C 492.263,508.791 492.596,509.791 493.5,510.5C 494.322,514.086 496.322,517.419 499.5,520.5C 499.833,521.5 500.5,522.167 501.5,522.5C 503.253,524.223 505.253,525.723 507.5,527C 521.624,531.554 533.624,528.721 543.5,518.5C 544.167,518.167 544.833,517.833 545.5,517.5C 544.797,519.716 543.464,521.549 541.5,523C 538.498,525.503 535.165,527.503 531.5,529C 511.043,534.581 497.376,527.414 490.5,507.5 Z"/></g>
<g><path style="opacity:0.008" fill="#f5f8f5" d="M 502.5,521.5 C 501.833,522.167 501.833,522.167 502.5,521.5 Z"/></g>
<g><path style="opacity:0.004" fill="#f4f0ef" d="M 502.5,520.5 C 503.833,521.167 503.833,521.167 502.5,520.5 Z"/></g>
<g><path style="opacity:0.012" fill="#f5f4f1" d="M 502.5,520.5 C 501.833,519.167 501.833,519.167 502.5,520.5 Z"/></g>
<g><path style="opacity:0.012" fill="#eef2f3" d="M 499.5,519.5 C 500.833,520.167 500.833,520.167 499.5,519.5 Z"/></g>
<g><path style="opacity:0.827" fill="#555656" d="M 569.5,527.5 C 569.5,528.5 569.5,529.5 569.5,530.5C 565.252,537.418 559.919,543.418 553.5,548.5C 552.508,548.328 551.842,548.662 551.5,549.5C 546.858,552.272 541.858,554.272 536.5,555.5C 535.209,555.263 534.209,555.596 533.5,556.5C 531.621,557.341 529.621,557.675 527.5,557.5C 527.5,557.167 527.5,556.833 527.5,556.5C 545.134,553.535 558.8,544.535 568.5,529.5C 561.221,524.694 553.554,520.694 545.5,517.5C 545.842,516.662 546.508,516.328 547.5,516.5C 554.412,519.956 561.745,523.623 569.5,527.5 Z"/></g>
<g><path style="opacity:0.008" fill="#eef2f0" d="M 777.5,524.5 C 778.833,525.167 778.833,525.167 777.5,524.5 Z"/></g>
<g><path style="opacity:0.016" fill="#f6f8f3" d="M 819.5,524.5 C 820.833,525.167 820.833,525.167 819.5,524.5 Z"/></g>
<g><path style="opacity:0.008" fill="#eaebea" d="M 903.5,524.5 C 904.833,525.167 904.833,525.167 903.5,524.5 Z"/></g>
<g><path style="opacity:0.008" fill="#f0eeef" d="M 776.5,526.5 C 775.761,526.631 775.094,526.464 774.5,526C 775.437,525.308 776.103,525.475 776.5,526.5 Z"/></g>
<g><path style="opacity:0.012" fill="#f1f1f2" d="M 422.5,526.5 C 423.833,527.167 423.833,527.167 422.5,526.5 Z"/></g>
<g><path style="opacity:0.004" fill="#eff0ee" d="M 466.5,526.5 C 465.833,527.167 465.833,527.167 466.5,526.5 Z"/></g>
<g><path style="opacity:0.004" fill="#eff0ef" d="M 776.5,526.5 C 777.833,527.167 777.833,527.167 776.5,526.5 Z"/></g>
<g><path style="opacity:0.008" fill="#f4f3f2" d="M 294.5,528.5 C 295.833,529.167 295.833,529.167 294.5,528.5 Z"/></g>
<g><path style="opacity:0.004" fill="#f1f1f0" d="M 421.5,528.5 C 422.833,529.167 422.833,529.167 421.5,528.5 Z"/></g>
<g><path style="opacity:0.004" fill="#eff2ef" d="M 466.5,528.5 C 467.833,529.167 467.833,529.167 466.5,528.5 Z"/></g>
<g><path style="opacity:0.035" fill="#dedfde" d="M 569.5,527.5 C 571.557,527.957 571.557,528.957 569.5,530.5C 569.5,529.5 569.5,528.5 569.5,527.5 Z"/></g>
<g><path style="opacity:0.004" fill="#efeeee" d="M 572.5,528.5 C 573.833,529.167 573.833,529.167 572.5,528.5 Z"/></g>
<g><path style="opacity:0.008" fill="#f4f7f6" d="M 622.5,528.5 C 623.833,529.167 623.833,529.167 622.5,528.5 Z"/></g>
<g><path style="opacity:0.033" fill="#e9eae9" d="M 839.5,528.5 C 835.366,529.485 831.032,529.818 826.5,529.5C 826.5,529.167 826.5,528.833 826.5,528.5C 830.871,527.462 835.205,527.462 839.5,528.5 Z"/></g>
<g><path style="opacity:0.012" fill="#f1f3ec" d="M 420.5,530.5 C 421.833,531.167 421.833,531.167 420.5,530.5 Z"/></g>
<g><path style="opacity:0.004" fill="#f1f1f1" d="M 463.5,530.5 C 464.833,531.167 464.833,531.167 463.5,530.5 Z"/></g>
<g><path style="opacity:0.004" fill="#f4f5f3" d="M 467.5,530.5 C 468.833,531.167 468.833,531.167 467.5,530.5 Z"/></g>
<g><path style="opacity:0.012" fill="#f2f5f3" d="M 622.5,530.5 C 623.833,531.167 623.833,531.167 622.5,530.5 Z"/></g>
<g><path style="opacity:0.016" fill="#f2eff4" d="M 294.5,531.5 C 295.833,532.167 295.833,532.167 294.5,531.5 Z"/></g>
<g><path style="opacity:0.008" fill="#f1f2f3" d="M 384.5,530.5 C 385.525,530.897 385.692,531.563 385,532.5C 384.536,531.906 384.369,531.239 384.5,530.5 Z"/></g>
<g><path style="opacity:0.996" fill="#4c4d4d" d="M 350.5,465.5 C 351.167,465.833 351.833,466.167 352.5,466.5C 368.591,493.676 383.924,521.342 398.5,549.5C 398.5,550.167 398.5,550.833 398.5,551.5C 397.655,550.329 396.989,548.995 396.5,547.5C 396.068,546.29 395.401,545.29 394.5,544.5C 394.5,543.833 394.167,543.5 393.5,543.5C 388.752,534.336 383.752,525.336 378.5,516.5C 378.672,515.508 378.338,514.842 377.5,514.5C 376.905,511.683 375.572,509.35 373.5,507.5C 371.513,503.527 369.513,499.527 367.5,495.5C 367.5,494.833 367.167,494.5 366.5,494.5C 365.833,494.5 365.5,494.167 365.5,493.5C 365.672,492.508 365.338,491.842 364.5,491.5C 362.561,486.91 360.227,482.577 357.5,478.5C 356.737,476.632 355.737,474.965 354.5,473.5C 353.167,470.833 351.833,468.167 350.5,465.5 Z"/></g>
<g><path style="opacity:0.004" fill="#f1f1f0" d="M 468.5,532.5 C 469.833,533.167 469.833,533.167 468.5,532.5 Z"/></g>
<g><path style="opacity:0.004" fill="#f2f4f3" d="M 622.5,532.5 C 623.833,533.167 623.833,533.167 622.5,532.5 Z"/></g>
<g><path style="opacity:0.004" fill="#ececec" d="M 769.5,532.5 C 770.833,533.167 770.833,533.167 769.5,532.5 Z"/></g>
<g><path style="opacity:0.012" fill="#f2f1f1" d="M 383.5,534.5 C 384.601,533.402 385.934,533.235 387.5,534C 386.122,535.334 384.789,535.501 383.5,534.5 Z"/></g>
<g><path style="opacity:0.008" fill="#f1f0f1" d="M 419.5,533.5 C 420.525,533.897 420.692,534.563 420,535.5C 419.536,534.906 419.369,534.239 419.5,533.5 Z"/></g>
<g><path style="opacity:0.004" fill="#f0f2f1" d="M 468.5,533.5 C 467.833,534.167 467.833,534.167 468.5,533.5 Z"/></g>
<g><path style="opacity:0.004" fill="#edefed" d="M 668.5,533.5 C 669.833,534.167 669.833,534.167 668.5,533.5 Z"/></g>
<g><path style="opacity:0.812" fill="#565758" d="M 776.5,506.5 C 778.456,521.749 785.122,534.415 796.5,544.5C 796.167,544.5 795.833,544.5 795.5,544.5C 792.482,542.474 789.482,540.474 786.5,538.5C 787.815,537.105 787.481,536.105 785.5,535.5C 779.83,527.533 776.497,518.866 775.5,509.5C 775.263,508.209 775.596,507.209 776.5,506.5 Z"/></g>
<g><path style="opacity:0.004" fill="#eaeceb" d="M 573.5,534.5 C 574.833,535.167 574.833,535.167 573.5,534.5 Z"/></g>
<g><path style="opacity:0.004" fill="#f0efec" d="M 886.5,534.5 C 887.833,535.167 887.833,535.167 886.5,534.5 Z"/></g>
<g><path style="opacity:1" fill="#9c9d9c" d="M 673.5,535.5 C 673.833,535.5 674.167,535.5 674.5,535.5C 675.906,535.973 676.573,536.973 676.5,538.5C 676.557,539.609 676.89,540.609 677.5,541.5C 676.352,542.895 675.352,542.728 674.5,541C 675.646,538.443 674.646,537.11 671.5,537C 672.416,536.722 673.082,536.222 673.5,535.5 Z"/></g>
<g><path style="opacity:0.004" fill="#f4faf2" d="M 785.5,535.5 C 784.833,536.167 784.833,536.167 785.5,535.5 Z"/></g>
<g><path style="opacity:0.004" fill="#f3f4f3" d="M 471.5,536.5 C 472.833,537.167 472.833,537.167 471.5,536.5 Z"/></g>
<g><path style="opacity:0.004" fill="#f5f6f3" d="M 297.5,538.5 C 298.833,539.167 298.833,539.167 297.5,538.5 Z"/></g>
<g><path style="opacity:0.004" fill="#f0f2f2" d="M 672.5,539.5 C 671.833,538.167 671.833,538.167 672.5,539.5 Z"/></g>
<g><path style="opacity:0.008" fill="#f4eff2" d="M 786.5,538.5 C 785.833,539.167 785.833,539.167 786.5,538.5 Z"/></g>
<g><path style="opacity:0.004" fill="#ecedeb" d="M 903.5,537.5 C 904.525,537.897 904.692,538.563 904,539.5C 903.536,538.906 903.369,538.239 903.5,537.5 Z"/></g>
<g><path style="opacity:0.008" fill="#f1f4f0" d="M 473.5,540.5 C 472.833,539.167 472.833,539.167 473.5,540.5 Z"/></g>
<g><path style="opacity:0.008" fill="#eef0f0" d="M 672.5,539.5 C 673.833,540.167 673.833,540.167 672.5,539.5 Z"/></g>
<g><path style="opacity:0.004" fill="#ecefec" d="M 763.5,539.5 C 764.833,540.167 764.833,540.167 763.5,539.5 Z"/></g>
<g><path style="opacity:0.004" fill="#efeced" d="M 473.5,540.5 C 474.833,541.167 474.833,541.167 473.5,540.5 Z"/></g>
<g><path style="opacity:0.004" fill="#f1f3f1" d="M 476.5,540.5 C 475.833,541.167 475.833,541.167 476.5,540.5 Z"/></g>
<g><path style="opacity:0.004" fill="#ecece9" d="M 563.5,540.5 C 564.833,541.167 564.833,541.167 563.5,540.5 Z"/></g>
<g><path style="opacity:0.004" fill="#f1f5f2" d="M 784.5,540.5 C 785.833,541.167 785.833,541.167 784.5,540.5 Z"/></g>
<g><path style="opacity:0.004" fill="#eff1ee" d="M 763.5,541.5 C 764.833,542.167 764.833,542.167 763.5,541.5 Z"/></g>
<g><path style="opacity:0.004" fill="#ededeb" d="M 766.5,541.5 C 767.833,542.167 767.833,542.167 766.5,541.5 Z"/></g>
<g><path style="opacity:0.012" fill="#eff2ee" d="M 471.5,542.5 C 472.833,543.167 472.833,543.167 471.5,542.5 Z"/></g>
<g><path style="opacity:0.008" fill="#f2f2f0" d="M 787.5,541.5 C 788.525,541.897 788.692,542.563 788,543.5C 787.536,542.906 787.369,542.239 787.5,541.5 Z"/></g>
<g><path style="opacity:0.004" fill="#eae7e8" d="M 878.5,542.5 C 879.833,543.167 879.833,543.167 878.5,542.5 Z"/></g>
<g><path style="opacity:0.004" fill="#ebebeb" d="M 104.5,543.5 C 105.833,544.167 105.833,544.167 104.5,543.5 Z"/></g>
<g><path style="opacity:0.008" fill="#f2f2f1" d="M 109.5,543.5 C 110.833,544.167 110.833,544.167 109.5,543.5 Z"/></g>
<g><path style="opacity:0.004" fill="#edeeec" d="M 106.5,544.5 C 107.833,545.167 107.833,545.167 106.5,544.5 Z"/></g>
<g><path style="opacity:0.008" fill="#f1f3f1" d="M 393.5,543.5 C 393.631,544.239 393.464,544.906 393,545.5C 392.308,544.563 392.475,543.897 393.5,543.5 Z"/></g>
<g><path style="opacity:0.82" fill="#555657" d="M 462.5,506.5 C 467.196,532.181 482.196,548.514 507.5,555.5C 507.5,555.833 507.5,556.167 507.5,556.5C 504.518,556.037 501.518,555.704 498.5,555.5C 490.544,551.514 483.211,546.514 476.5,540.5C 473.154,535.796 469.821,531.129 466.5,526.5C 463.931,521.187 462.264,515.187 461.5,508.5C 462.338,508.158 462.672,507.492 462.5,506.5 Z"/></g>
<g><path style="opacity:0.024" fill="#f5f5f2" d="M 680.5,544.5 C 679.833,545.167 679.833,545.167 680.5,544.5 Z"/></g>
<g><path style="opacity:0.004" fill="#f2f1f0" d="M 793.5,545.5 C 792.833,544.167 792.833,544.167 793.5,545.5 Z"/></g>
<g><path style="opacity:0.004" fill="#edecec" d="M 104.5,544.5 C 104.842,545.338 105.508,545.672 106.5,545.5C 106.189,546.478 105.522,547.145 104.5,547.5C 103.224,546.386 103.224,545.386 104.5,544.5 Z"/></g>
<g><path style="opacity:0.004" fill="#efefee" d="M 391.5,546.5 C 392.833,547.167 392.833,547.167 391.5,546.5 Z"/></g>
<g><path style="opacity:0.008" fill="#f0f1ef" d="M 394.5,544.5 C 395.401,545.29 396.068,546.29 396.5,547.5C 393.685,548.332 393.018,547.332 394.5,544.5 Z"/></g>
<g><path style="opacity:0.012" fill="#eceeec" d="M 679.5,546.5 C 680.833,547.167 680.833,547.167 679.5,546.5 Z"/></g>
<g><path style="opacity:0.008" fill="#eef1ed" d="M 755.5,546.5 C 756.833,547.167 756.833,547.167 755.5,546.5 Z"/></g>
<g><path style="opacity:0.008" fill="#ebebea" d="M 795.5,544.5 C 795.833,544.5 796.167,544.5 796.5,544.5C 796.833,545.167 797.167,545.833 797.5,546.5C 796.833,546.5 796.5,546.833 796.5,547.5C 795.041,547.433 793.708,547.766 792.5,548.5C 792.389,547.883 792.056,547.383 791.5,547C 792.416,546.722 793.082,546.222 793.5,545.5C 794.925,547.031 795.591,546.698 795.5,544.5 Z"/></g>
<g><path style="opacity:0.004" fill="#f2f5f4" d="M 796.5,547.5 C 796.833,547.5 797.167,547.5 797.5,547.5C 797.315,548.17 796.981,548.17 796.5,547.5 Z"/></g>
<g><path style="opacity:0.004" fill="#edeeed" d="M 392.5,548.5 C 393.833,549.167 393.833,549.167 392.5,548.5 Z"/></g>
<g><path style="opacity:0.008" fill="#eff0ed" d="M 479.5,546.5 C 480.239,546.369 480.906,546.536 481.5,547C 480.119,553.02 479.453,552.853 479.5,546.5 Z"/></g>
<g><path style="opacity:0.004" fill="#ecedeb" d="M 753.5,548.5 C 754.833,549.167 754.833,549.167 753.5,548.5 Z"/></g>
<g><path style="opacity:0.004" fill="#eeeeec" d="M 755.5,548.5 C 756.833,549.167 756.833,549.167 755.5,548.5 Z"/></g>
<g><path style="opacity:0.004" fill="#efefee" d="M 792.5,548.5 C 792.5,548.833 792.5,549.167 792.5,549.5C 791.83,549.019 791.83,548.685 792.5,548.5 Z"/></g>
<g><path style="opacity:0.004" fill="#f3f3f1" d="M 551.5,549.5 C 552.833,550.167 552.833,550.167 551.5,549.5 Z"/></g>
<g><path style="opacity:0.004" fill="#eeedec" d="M 553.5,548.5 C 556.001,548.511 556.168,549.178 554,550.5C 553.536,549.906 553.369,549.239 553.5,548.5 Z"/></g>
<g><path style="opacity:0.004" fill="#efefee" d="M 679.5,548.5 C 680.525,548.897 680.692,549.563 680,550.5C 679.536,549.906 679.369,549.239 679.5,548.5 Z"/></g>
<g><path style="opacity:0.008" fill="#eff0ef" d="M 686.5,549.5 C 685.749,550.573 684.749,550.74 683.5,550C 684.448,549.517 685.448,549.351 686.5,549.5 Z"/></g>
<g><path style="opacity:0.004" fill="#edf0ef" d="M 792.5,549.5 C 793.833,550.167 793.833,550.167 792.5,549.5 Z"/></g>
<g><path style="opacity:0.004" fill="#f0f3f1" d="M 795.5,550.5 C 795.897,549.475 796.563,549.308 797.5,550C 796.906,550.464 796.239,550.631 795.5,550.5 Z"/></g>
<g><path style="opacity:0.012" fill="#ecefeb" d="M 800.5,549.5 C 799.833,550.167 799.833,550.167 800.5,549.5 Z"/></g>
<g><path style="opacity:0.004" fill="#eceded" d="M 411.5,550.5 C 412.833,551.167 412.833,551.167 411.5,550.5 Z"/></g>
<g><path style="opacity:0.004" fill="#ededed" d="M 751.5,550.5 C 752.833,551.167 752.833,551.167 751.5,550.5 Z"/></g>
<g><path style="opacity:0.004" fill="#eeefee" d="M 792.5,550.5 C 791.833,551.167 791.833,551.167 792.5,550.5 Z"/></g>
<g><path style="opacity:0.008" fill="#f2f3f1" d="M 799.5,550.5 C 798.833,551.167 798.833,551.167 799.5,550.5 Z"/></g>
<g><path style="opacity:0.012" fill="#eaebeb" d="M 867.5,550.5 C 868.833,551.167 868.833,551.167 867.5,550.5 Z"/></g>
<g><path style="opacity:0.004" fill="#f2f1f0" d="M 103.5,552.5 C 103.897,551.475 104.563,551.308 105.5,552C 104.906,552.464 104.239,552.631 103.5,552.5 Z"/></g>
<g><path style="opacity:0.992" fill="#484848" d="M 398.5,549.5 C 400.515,551.676 402.182,554.176 403.5,557C 403.272,557.399 402.938,557.565 402.5,557.5C 400.684,555.882 399.351,553.882 398.5,551.5C 398.5,550.833 398.5,550.167 398.5,549.5 Z"/></g>
<g><path style="opacity:0.004" fill="#e9ebe8" d="M 859.5,552.5 C 860.833,553.167 860.833,553.167 859.5,552.5 Z"/></g>
<g><path style="opacity:0.753" fill="#5a5a5a" d="M 858.5,515.5 C 867.466,518.947 876.133,523.114 884.5,528C 878.744,538.863 870.41,547.03 859.5,552.5C 855.873,553.321 852.54,554.654 849.5,556.5C 845.316,556.851 841.316,557.518 837.5,558.5C 831.98,557.784 826.647,557.451 821.5,557.5C 820.081,556.549 818.415,556.216 816.5,556.5C 814.698,555.542 812.698,554.875 810.5,554.5C 807.211,552.842 803.877,551.175 800.5,549.5C 800.027,548.094 799.027,547.427 797.5,547.5C 797.5,547.167 797.5,546.833 797.5,546.5C 797.167,545.833 796.833,545.167 796.5,544.5C 807.762,552.112 820.262,556.112 834,556.5C 854.614,555.682 870.448,546.682 881.5,529.5C 874.698,525.262 867.698,521.262 860.5,517.5C 856.601,521.569 852.267,525.069 847.5,528C 840.491,530.501 833.491,531.001 826.5,529.5C 831.032,529.818 835.366,529.485 839.5,528.5C 844.265,527.814 848.265,525.814 851.5,522.5C 852.239,522.631 852.906,522.464 853.5,522C 855.054,519.713 856.721,517.546 858.5,515.5 Z"/></g>
<g><path style="opacity:0.031" fill="#efefec" d="M 104.5,555.5 C 103.833,554.167 103.833,554.167 104.5,555.5 Z"/></g>
<g><path style="opacity:0.016" fill="#efeded" d="M 495.5,554.5 C 496.833,555.167 496.833,555.167 495.5,554.5 Z"/></g>
<g><path style="opacity:0.014" fill="#f0eff0" d="M 810.5,554.5 C 810.103,555.525 809.437,555.692 808.5,555C 809.094,554.536 809.761,554.369 810.5,554.5 Z"/></g>
<g><path style="opacity:0.01" fill="#f1f2f0" d="M 695.5,554.5 C 696.598,555.601 696.765,556.934 696,558.5C 695.51,557.207 695.343,555.873 695.5,554.5 Z"/></g>
<g><path style="opacity:0.024" fill="#ebeeed" d="M 739.5,555.5 C 740.833,556.167 740.833,556.167 739.5,555.5 Z"/></g>
<g><path style="opacity:0.004" fill="#edede9" d="M 854.5,555.5 C 855.833,556.167 855.833,556.167 854.5,555.5 Z"/></g>
<g><path style="opacity:0.945" fill="#353635" d="M 507.5,555.5 C 514.153,556.054 520.82,556.388 527.5,556.5C 527.5,556.833 527.5,557.167 527.5,557.5C 526.833,557.5 526.167,557.5 525.5,557.5C 521.833,557.5 518.167,557.5 514.5,557.5C 511.941,557.802 509.607,557.468 507.5,556.5C 507.5,556.167 507.5,555.833 507.5,555.5 Z"/></g>
<g><path style="opacity:0.004" fill="#ecebeb" d="M 533.5,556.5 C 534.209,555.596 535.209,555.263 536.5,555.5C 537.739,556.212 538.239,557.212 538,558.5C 536.67,557.418 535.17,556.751 533.5,556.5 Z"/></g>
<g><path style="opacity:0.008" fill="#ecebec" d="M 542.5,556.5 C 543.833,557.167 543.833,557.167 542.5,556.5 Z"/></g>
<g><path style="opacity:0.008" fill="#e7ecea" d="M 735.5,556.5 C 736.833,557.167 736.833,557.167 735.5,556.5 Z"/></g>
<g><path style="opacity:0.004" fill="#eaebeb" d="M 737.5,556.5 C 738.833,557.167 738.833,557.167 737.5,556.5 Z"/></g>
<g><path style="opacity:0.004" fill="#edeef0" d="M 742.5,556.5 C 743.833,557.167 743.833,557.167 742.5,556.5 Z"/></g>
<g><path style="opacity:0.012" fill="#f2f2f2" d="M 816.5,556.5 C 816.5,556.833 816.5,557.167 816.5,557.5C 813.833,557.167 813.833,556.833 816.5,556.5 Z"/></g>
<g><path style="opacity:0.004" fill="#e5e8e7" d="M 849.5,556.5 C 850.833,557.167 850.833,557.167 849.5,556.5 Z"/></g>
<g><path style="opacity:0.008" fill="#eae9e7" d="M 852.5,557.5 C 851.833,556.167 851.833,556.167 852.5,557.5 Z"/></g>
<g><path style="opacity:0.012" fill="#e4ebe8" d="M 399.5,557.5 C 400.833,558.167 400.833,558.167 399.5,557.5 Z"/></g>
<g><path style="opacity:0.004" fill="#edf6f1" d="M 406.5,557.5 C 407.833,558.167 407.833,558.167 406.5,557.5 Z"/></g>
<g><path style="opacity:0.008" fill="#f1f0ee" d="M 495.5,557.5 C 496.525,557.897 496.692,558.563 496,559.5C 495.536,558.906 495.369,558.239 495.5,557.5 Z"/></g>
<g><path style="opacity:0.006" fill="#f2eff0" d="M 498.5,555.5 C 499.087,556.767 499.087,557.767 498.5,558.5C 497.224,557.386 497.224,556.386 498.5,555.5 Z"/></g>
<g><path style="opacity:0.004" fill="#f0f3f0" d="M 503.5,557.5 C 504.833,558.167 504.833,558.167 503.5,557.5 Z"/></g>
<g><path style="opacity:0.043" fill="#f0f1ef" d="M 514.5,557.5 C 518.167,557.5 521.833,557.5 525.5,557.5C 522.772,558.205 519.939,558.872 517,559.5C 516.005,558.934 515.172,558.267 514.5,557.5 Z"/></g>
<g><path style="opacity:0.004" fill="#eceeee" d="M 539.5,558.5 C 539.897,557.475 540.563,557.308 541.5,558C 540.906,558.464 540.239,558.631 539.5,558.5 Z"/></g>
<g><path style="opacity:0.008" fill="#edf0f0" d="M 708.5,557.5 C 708.103,558.525 707.437,558.692 706.5,558C 707.094,557.536 707.761,557.369 708.5,557.5 Z"/></g>
<g><path style="opacity:0.008" fill="#ecedee" d="M 739.5,558.5 C 739.897,557.475 740.563,557.308 741.5,558C 740.906,558.464 740.239,558.631 739.5,558.5 Z"/></g>
<g><path style="opacity:0.008" fill="#eaefea" d="M 816.5,557.5 C 817.833,558.167 817.833,558.167 816.5,557.5 Z"/></g>
<g><path style="opacity:0.008" fill="#efefef" d="M 821.5,557.5 C 820.749,558.573 819.749,558.74 818.5,558C 819.448,557.517 820.448,557.351 821.5,557.5 Z"/></g>
<g><path style="opacity:0.004" fill="#e9ece9" d="M 852.5,557.5 C 853.833,558.167 853.833,558.167 852.5,557.5 Z"/></g>
<g><path style="opacity:0.008" fill="#f0ecee" d="M 402.5,558.5 C 401.833,559.167 401.833,559.167 402.5,558.5 Z"/></g>
<g><path style="opacity:0.008" fill="#eff1f0" d="M 500.5,558.5 C 501.833,559.167 501.833,559.167 500.5,558.5 Z"/></g>
<g><path style="opacity:0.004" fill="#eef0ef" d="M 508.5,558.5 C 509.833,559.167 509.833,559.167 508.5,558.5 Z"/></g>
<g><path style="opacity:0.004" fill="#f0eeee" d="M 701.5,558.5 C 702.833,559.167 702.833,559.167 701.5,558.5 Z"/></g>
<g><path style="opacity:0.01" fill="#eae9e8" d="M 724.5,558.5 C 725.239,558.369 725.906,558.536 726.5,559C 725.563,559.692 724.897,559.525 724.5,558.5 Z"/></g>
<g><path style="opacity:0.012" fill="#ecefea" d="M 807.5,558.5 C 808.833,559.167 808.833,559.167 807.5,558.5 Z"/></g>
<g><path style="opacity:0.012" fill="#eeeded" d="M 812.5,558.5 C 813.833,559.167 813.833,559.167 812.5,558.5 Z"/></g>
<g><path style="opacity:0.004" fill="#e8e8e8" d="M 823.5,558.5 C 824.833,559.167 824.833,559.167 823.5,558.5 Z"/></g>
<g><path style="opacity:0.004" fill="#e6e6e5" d="M 825.5,558.5 C 826.833,559.167 826.833,559.167 825.5,558.5 Z"/></g>
<g><path style="opacity:0.012" fill="#f4f3f2" d="M 837.5,558.5 C 838.833,559.167 838.833,559.167 837.5,558.5 Z"/></g>
<g><path style="opacity:0.004" fill="#e6ebe9" d="M 96.5,559.5 C 97.8333,560.167 97.8333,560.167 96.5,559.5 Z"/></g>
<g><path style="opacity:0.004" fill="#e7eaea" d="M 97.5,561.5 C 98.8333,562.167 98.8333,562.167 97.5,561.5 Z"/></g>
<g><path style="opacity:0.004" fill="#e5e9e4" d="M 96.5,569.5 C 95.8333,568.167 95.8333,568.167 96.5,569.5 Z"/></g>
<g><path style="opacity:0.004" fill="#e1e4e3" d="M 87.5,572.5 C 88.8333,573.167 88.8333,573.167 87.5,572.5 Z"/></g>
<g><path style="opacity:0.004" fill="#e2e5e4" d="M 88.5,576.5 C 89.8333,577.167 89.8333,577.167 88.5,576.5 Z"/></g>
<g><path style="opacity:0.024" fill="#f0f1f1" d="M 317.5,575.5 C 319.557,575.957 319.557,576.957 317.5,578.5C 317.5,578.167 317.5,577.833 317.5,577.5C 317.5,576.833 317.5,576.167 317.5,575.5 Z"/></g>
<g><path style="opacity:0.616" fill="#7e7d80" d="M 93.5,576.5 C 93.5,577.167 93.5,577.833 93.5,578.5C 92.9222,579.547 92.2555,579.38 91.5,578C 92.0442,577.283 92.7109,576.783 93.5,576.5 Z"/></g>
<g><path style="opacity:0.961" fill="#040405" d="M 93.5,575.5 C 94.1667,575.5 94.5,575.833 94.5,576.5C 168.331,577.499 242.331,577.833 316.5,577.5C 316.833,577.5 317.167,577.5 317.5,577.5C 317.5,577.833 317.5,578.167 317.5,578.5C 317.167,578.5 316.833,578.5 316.5,578.5C 242.5,578.5 168.5,578.5 94.5,578.5C 94.1667,578.5 93.8333,578.5 93.5,578.5C 93.5,577.833 93.5,577.167 93.5,576.5C 93.5,576.167 93.5,575.833 93.5,575.5 Z"/></g>
<g><path style="opacity:0.103" fill="#f2f2f1" d="M 94.5,578.5 C 168.5,578.5 242.5,578.5 316.5,578.5C 291.764,579.171 266.931,579.838 242,580.5C 193.312,580.009 144.145,579.342 94.5,578.5 Z"/></g>
<g><path style="opacity:0.004" fill="#e4e8e5" d="M 96.5,580.5 C 97.8333,581.167 97.8333,581.167 96.5,580.5 Z"/></g>
<g><path style="opacity:0.008" fill="#ebecee" d="M 127.5,580.5 C 128.833,581.167 128.833,581.167 127.5,580.5 Z"/></g>
<g><path style="opacity:0.004" fill="#edf1ef" d="M 143.5,580.5 C 144.833,581.167 144.833,581.167 143.5,580.5 Z"/></g>
<g><path style="opacity:0.004" fill="#f0f0f1" d="M 167.5,581.5 C 167.897,580.475 168.563,580.308 169.5,581C 168.906,581.464 168.239,581.631 167.5,581.5 Z"/></g>
<g><path style="opacity:0.004" fill="#efeff0" d="M 175.5,580.5 C 176.833,581.167 176.833,581.167 175.5,580.5 Z"/></g>
<g><path style="opacity:0.004" fill="#f1f2f3" d="M 177.5,580.5 C 178.833,581.167 178.833,581.167 177.5,580.5 Z"/></g>
<g><path style="opacity:0.004" fill="#f1f1f0" d="M 191.5,581.5 C 191.897,580.475 192.563,580.308 193.5,581C 192.906,581.464 192.239,581.631 191.5,581.5 Z"/></g>
<g><path style="opacity:0.004" fill="#f2f2f2" d="M 207.5,581.5 C 207.897,580.475 208.563,580.308 209.5,581C 208.906,581.464 208.239,581.631 207.5,581.5 Z"/></g>
<g><path style="opacity:0.004" fill="#f0f3ef" d="M 216.5,580.5 C 217.833,581.167 217.833,581.167 216.5,580.5 Z"/></g>
<g><path style="opacity:0.004" fill="#f0f1f0" d="M 239.5,580.5 C 240.833,581.167 240.833,581.167 239.5,580.5 Z"/></g>
<g><path style="opacity:0.004" fill="#f0f1f0" d="M 270.5,580.5 C 271.833,581.167 271.833,581.167 270.5,580.5 Z"/></g>
<g><path style="opacity:0.008" fill="#edeeed" d="M 295.5,580.5 C 296.833,581.167 296.833,581.167 295.5,580.5 Z"/></g>
<g><path style="opacity:0.005" fill="#e3e4e4" d="M 311.5,581.5 C 312.251,580.427 313.251,580.26 314.5,581C 313.552,581.483 312.552,581.649 311.5,581.5 Z"/></g>
<g><path style="opacity:0.004" fill="#f2f4f1" d="M 211.5,581.5 C 212.833,582.167 212.833,582.167 211.5,581.5 Z"/></g>
<g><path style="opacity:0.004" fill="#f3f3f1" d="M 226.5,582.5 C 226.897,581.475 227.563,581.308 228.5,582C 227.906,582.464 227.239,582.631 226.5,582.5 Z"/></g>
<g><path style="opacity:0.004" fill="#f1f3f1" d="M 255.5,580.5 C 256.525,580.897 256.692,581.563 256,582.5C 255.536,581.906 255.369,581.239 255.5,580.5 Z"/></g>
<g><path style="opacity:0.004" fill="#eff1f0" d="M 191.5,582.5 C 192.833,583.167 192.833,583.167 191.5,582.5 Z"/></g>
<g><path style="opacity:0.004" fill="#e8e8e8" d="M 311.5,582.5 C 312.833,583.167 312.833,583.167 311.5,582.5 Z"/></g>
<g><path style="opacity:0.004" fill="#929593" d="M 579.5,813.5 C 580.833,814.167 580.833,814.167 579.5,813.5 Z"/></g>
<g><path style="opacity:0.004" fill="#91918f" d="M 476.5,875.5 C 477.833,876.167 477.833,876.167 476.5,875.5 Z"/></g>
<g><path style="opacity:0.004" fill="#8c8e8b" d="M 107.5,901.5 C 108.833,902.167 108.833,902.167 107.5,901.5 Z"/></g>
<g><path style="opacity:0.004" fill="#8c8e8c" d="M 307.5,933.5 C 308.833,934.167 308.833,934.167 307.5,933.5 Z"/></g>
<g><path style="opacity:0.004" fill="#8c8d8a" d="M 643.5,957.5 C 644.833,958.167 644.833,958.167 643.5,957.5 Z"/></g>
<g><path style="opacity:0.004" fill="#888a88" d="M 819.5,973.5 C 820.833,974.167 820.833,974.167 819.5,973.5 Z"/></g>
<g><path style="opacity:0.004" fill="#8a8c8b" d="M 507.5,989.5 C 508.833,990.167 508.833,990.167 507.5,989.5 Z"/></g>
</svg>
