<?xml version="1.0" encoding="UTF-8"?>
<svg version="1.1" xmlns="http://www.w3.org/2000/svg" width="945" height="925">
<path d="M0 0 C3.0625 1.9375 3.0625 1.9375 5 5 C6.10994125 11.25603249 4.53105181 15.52734898 2.0625 21.25 C-3.96655577 35.27452745 -2.27235311 48.54647252 2.90234375 62.625 C4.38584335 65.83484968 5.78344901 68.3917245 9 70 C9.14888672 71.08861328 9.14888672 71.08861328 9.30078125 72.19921875 C10.25123192 76.00633119 12.46134168 78.14492242 15.1875 80.8125 C15.71996338 81.33658447 16.25242676 81.86066895 16.80102539 82.40063477 C29.09383565 94.02309018 44.95778263 98.94780406 60.9375 103.3125 C91.66235772 111.73114766 121.08701211 124.02843278 144.4296875 146.3203125 C146.91171312 148.27804533 146.91171312 148.27804533 150.03515625 147.9921875 C153.39749084 146.86697935 154.94380168 145.62314341 157.4375 143.125 C186.61051266 115.68847619 228.21454336 97.99624409 268 95 C268.70817871 94.94360352 269.41635742 94.88720703 270.14599609 94.82910156 C328.8129157 90.2527298 381.93732488 115.26361094 426 152.8125 C427.0376167 153.70959943 428.0741141 154.60799547 429.109375 155.5078125 C431.77418199 157.80530826 434.49413717 160.00096212 437.25 162.1875 C444.45872678 168.05506831 451.10089823 174.53727684 457.82910156 180.94238281 C461.82829193 184.73288848 465.87144058 188.47645147 469.91503906 192.21948242 C475.86945899 197.75499418 481.56726753 203.42244809 486.8671875 209.58984375 C488.53161486 211.47070763 490.21897076 213.30605077 491.9453125 215.12890625 C498.91374067 222.4895379 505.38245692 230.03373333 511.52832031 238.09130859 C513.09826688 240.127447 514.69819913 242.13711604 516.3046875 244.14453125 C525.21730885 255.3322626 533.29582054 266.95063367 541 279 C541.42619629 279.66563965 541.85239258 280.3312793 542.29150391 281.01708984 C552.6418117 297.34256486 561.46866966 314.78536699 568.96459961 332.59106445 C569.75460846 334.42907845 570.57645042 336.25344335 571.41235352 338.07104492 C575.42042067 346.96392423 578.0050294 355.71059012 580.1875 365.1875 C580.53248588 366.64871649 580.8776208 368.10989781 581.22290039 369.57104492 C594.39596974 425.95046198 588.86264257 485.26119633 558.390625 535.4296875 C556.07276664 539.0636684 553.58531393 542.55257984 551 546 C550.56864746 546.58249512 550.13729492 547.16499023 549.69287109 547.76513672 C522.77013209 583.86853955 484.61241042 606.98496657 439.9375 613.8125 C393.02059241 620.19046724 347.17614795 609.67131362 305 589 C304.22672363 588.62294922 303.45344727 588.24589844 302.65673828 587.85742188 C284.06070047 578.68549753 266.63810324 567.34168165 250 555 C248.50339844 553.89785156 248.50339844 553.89785156 246.9765625 552.7734375 C232.78680449 542.23353851 218.90915157 531.24566818 205.71875 519.47265625 C203.97301532 517.92098482 203.97301532 517.92098482 201.78125 516.49609375 C201.1934375 516.00238281 200.605625 515.50867188 200 515 C200 514.01 200 513.02 200 512 C199.40453369 511.89115479 198.80906738 511.78230957 198.19555664 511.67016602 C195.73934758 510.92043913 194.68494829 510.06571223 192.87109375 508.27734375 C192.31099609 507.73916016 191.75089844 507.20097656 191.17382812 506.64648438 C190.01233904 505.50328645 188.85088091 504.36005708 187.68945312 503.21679688 C184.43810178 499.81119609 184.43810178 499.81119609 180 499 C179.95875 498.45601562 179.9175 497.91203125 179.875 497.3515625 C178.55243954 493.79718127 175.79542836 491.79947474 173 489.375 C168.12952551 485.01790522 163.61296238 480.55330463 159.30859375 475.625 C157.10249575 473.11654339 154.84334357 470.67175043 152.56103516 468.2331543 C146.7649413 462.03004666 141.2478731 455.67911122 136 449 C135.50886719 448.37609375 135.01773438 447.7521875 134.51171875 447.109375 C96.72426338 398.93266791 70.74636195 340.46873097 78.1875 278.125 C82.97878529 242.12061194 97.32911202 210.00565006 119 181 C119.68191406 180.07316406 120.36382812 179.14632812 121.06640625 178.19140625 C124.68079971 173.39647264 128.63753101 169.12379287 133 165 C123.41180418 155.11811169 112.10053856 148.31942466 100 142 C99.36030273 141.6611377 98.72060547 141.32227539 98.06152344 140.97314453 C83.65372363 133.43828445 68.1472843 128.85328672 52.69824219 123.95263672 C23.96561723 114.81998544 -0.26468048 102.86726758 -14.97460938 75.16455078 C-23.39824326 58.16387245 -26.63077431 37.00030234 -20.984375 18.54296875 C-16.84415559 7.84740195 -12.92234437 -1.89379185 0 0 Z M257 116 C257 116.66 257 117.32 257 118 C255.989375 118.103125 254.97875 118.20625 253.9375 118.3125 C227.85039309 121.60820212 204.29102234 132.81436424 183 148 C182.41911621 148.41411133 181.83823242 148.82822266 181.23974609 149.25488281 C175.25422263 153.5644597 169.5184265 158.10866742 164 163 C167.37304958 167.67126797 170.68100471 172.16089308 175 176 C175.66 176 176.32 176 177 176 C177.33 176.99 177.66 177.98 178 179 C179.67668793 180.92711259 179.67668793 180.92711259 181.75 182.75 C182.76320313 183.70132813 182.76320313 183.70132813 183.796875 184.671875 C185.93215851 186.2461914 185.93215851 186.2461914 188.515625 185.828125 C190.83824003 185.05391999 192.85680641 184.17529971 195 183 C203.65117754 178.25580586 216.92689435 178.58256245 226.375 181.0625 C235.20823696 184.27185944 242.49198333 190.081872 249.22265625 196.49609375 C250.86642269 198.21531408 250.86642269 198.21531408 253 198 C253 198.66 253 199.32 253 200 C253.66 200 254.32 200 255 200 C255 200.66 255 201.32 255 202 C255.66 202 256.32 202 257 202 C257.33 202.99 257.66 203.98 258 205 C259.59066286 206.61244386 259.59066286 206.61244386 261.5625 208.1875 C266.77813857 212.61657908 271.82649138 217.2337163 276.0625 222.625 C277.7185445 224.65499003 279.17165617 226.00496113 281.1875 227.625 C292.46087368 237.0878747 302.31427067 251.14783739 304 266 C304.19901064 274.69589968 303.4029161 282.57775102 299.9375 290.66796875 C298.91545486 293.21030603 298.1664289 295.25392321 298 298 C299.4432903 300.17143265 299.4432903 300.17143265 301.625 302 C302.35976563 302.680625 303.09453125 303.36125 303.8515625 304.0625 C304.91503906 305.0215625 304.91503906 305.0215625 306 306 C307.00713409 306.99281465 308.00863261 307.99144127 309 309 C309.66 309.66 310.32 310.32 311 311 C315.47840426 309.6315987 317.25249773 307.72242243 320 304 C321.31200404 302.64567325 322.64631404 301.31266518 324 300 C324.721875 299.278125 325.44375 298.55625 326.1875 297.8125 C327.78129308 296.21870692 329.38191116 294.63148923 331.00390625 293.06640625 C336.29502939 287.90411046 341.08007201 282.50777421 345.65576172 276.70361328 C346.61702963 275.48535548 347.58270202 274.27056786 348.55126953 273.05810547 C370.11787653 246.04786761 389.22590605 216.59612547 404.30859375 185.46484375 C406.16735048 181.65718273 408.14929937 177.92528997 410.1875 174.2109375 C411.29833575 171.18818254 411.49982825 169.19724845 411 166 C408.67729442 163.42251872 408.67729442 163.42251872 405.4375 161.25 C404.85033203 160.82444824 404.26316406 160.39889648 403.65820312 159.96044922 C401.78718062 158.61744231 399.8962 157.30715102 398 156 C397.42266113 155.59233398 396.84532227 155.18466797 396.25048828 154.76464844 C355.04627717 125.7000213 307.64369153 108.98008236 257 116 Z M146.46484375 178.0390625 C114.7623132 210.95780266 96.82156335 255.4270411 95.75 301 C95.85478703 306.29174524 96.3541888 311.54808411 96.875 316.8125 C96.99246582 318.01422852 96.99246582 318.01422852 97.11230469 319.24023438 C97.63287427 324.02309204 98.62488908 328.37511522 100 333 C100.39376734 335.33023963 100.76753879 337.66391547 101.125 340 C106.09246791 368.32908789 120.53018439 395.5557313 137.3125 418.625 C138.07175781 419.66914062 138.83101562 420.71328125 139.61328125 421.7890625 C141.81135323 424.19268887 141.81135323 424.19268887 144.70703125 424.625 C149.42661816 423.72923024 153.18523861 421.671939 157.375 419.375 C158.28910645 418.88427002 159.20321289 418.39354004 160.14501953 417.88793945 C171.25616725 411.86806962 182.14324322 405.46393219 193 399 C193.91410645 398.46068848 194.82821289 397.92137695 195.77001953 397.36572266 C208.66544038 389.74961954 221.21468691 381.65918309 233.6875 373.375 C234.42112762 372.88942627 235.15475525 372.40385254 235.91061401 371.90356445 C238.01049492 370.5114486 240.10562951 369.11249276 242.19921875 367.7109375 C242.82737488 367.29480194 243.45553101 366.87866638 244.10272217 366.44992065 C247.41904362 364.21565646 250.21448623 361.8556595 253 359 C254.66063426 358.05571777 256.32278833 357.11373287 258 356.19921875 C262.69622472 353.38331838 267.15844848 349.9113908 270.95703125 345.96875 C273.14839874 343.85699242 275.39299486 342.55624276 278 341 C279.67730259 339.55661599 281.32258741 338.0753644 282.9375 336.5625 C286.4815458 333.30894976 289.93089743 330.54318911 294 328 C294.66 327.34 295.32 326.68 296 326 C295.67958603 323.39719432 295.67958603 323.39719432 295 321 C294.01 320.67 293.02 320.34 292 320 C292 319.01 292 318.02 292 317 C291.34 317 290.68 317 290 317 C290 316.34 290 315.68 290 315 C289.01 315 288.02 315 287 315 C286.34 313.68 285.68 312.36 285 311 C280.96703772 311 278.59352161 311.72340654 274.8125 313 C269.13458589 314.67311576 264.03903544 315.3854546 258.125 315.375 C257.09209839 315.37693359 257.09209839 315.37693359 256.03833008 315.37890625 C246.36850373 315.17427845 239.25580094 311.84998218 231 307 C230.23945313 306.57332031 229.47890625 306.14664063 228.6953125 305.70703125 C224.79207937 303.43137269 222.09795843 301.21180756 219.3125 297.57421875 C217.84247243 295.81106069 216.25450846 294.41786651 214.5 292.9375 C206.29454867 285.93094763 198.62623135 278.1242941 191.671875 269.87890625 C189.7231426 267.68885885 187.62370261 265.70786809 185.5 263.6875 C173.60790249 251.91675043 167.79924566 238.11688439 167.59741211 221.62011719 C167.68162336 215.55429596 169.15809014 210.91419214 172.00390625 205.515625 C173.21606318 202.45433454 173.08312967 201.08467344 172 198 C170.64790686 195.95325854 170.64790686 195.95325854 168.875 194.125 C167.93720703 193.10792969 167.93720703 193.10792969 166.98046875 192.0703125 C166.32691406 191.38710938 165.67335938 190.70390625 165 190 C164.35675781 189.31679688 163.71351563 188.63359375 163.05078125 187.9296875 C160.60784093 185.37689755 160.60784093 185.37689755 158 183 C157.34 183 156.68 183 156 183 C155.71125 182.38125 155.4225 181.7625 155.125 181.125 C154.06279958 178.86674235 154.06279958 178.86674235 152 177 C148.24313622 176.6263187 148.24313622 176.6263187 146.46484375 178.0390625 Z M427 181 C426.46596558 182.09163452 426.46596558 182.09163452 425.92114258 183.20532227 C408.62162573 218.46003891 389.55692387 252.95864144 364 283 C363.07893143 284.10635838 362.15838908 285.21315499 361.23828125 286.3203125 C355.61609594 293.03456359 349.76558367 299.38116323 343.51586914 305.51586914 C340.04363971 308.92806002 336.77724425 312.4358846 333.62890625 316.15234375 C331.09668135 319.02462763 328.35015669 321.67224197 325.6015625 324.3359375 C323.91371276 325.92422733 323.91371276 325.92422733 323 328 C322.27683594 328.4125 321.55367187 328.825 320.80859375 329.25 C317.37992218 331.38636282 314.82135335 334.09411514 312.0625 337 C306.1120718 343.08837726 299.83205969 348.37463883 293.02832031 353.4765625 C290.78782113 355.159364 288.56196964 356.86061288 286.3359375 358.5625 C277.24125361 365.4823293 268.03335918 372.17476341 258.53051758 378.52490234 C253.86992819 381.65197409 249.43619719 384.9735141 245.02856445 388.44726562 C242.67992624 390.24499568 240.25672903 391.78667479 237.6875 393.25 C235.38325756 394.57095057 233.21940174 395.82447861 231.14453125 397.484375 C229 399 229 399 226.0625 400.1953125 C220.6439005 402.41854892 215.78350207 405.67444461 210.81832886 408.74957275 C200.25465768 415.28779785 189.59957382 421.61352975 178.72460938 427.62451172 C174.08627116 430.20030306 169.49946386 432.84945627 164.97265625 435.6171875 C164.069104 436.16745605 163.16555176 436.71772461 162.23461914 437.28466797 C159.92538823 439.05727328 159.03449834 440.31536137 158 443 C161.21106876 448.2190029 165.07530166 452.4656261 169.3125 456.875 C173.1334983 460.87721619 176.9275564 464.87962858 180.546875 469.06640625 C183.86267608 472.88848289 187.34623686 476.49977471 190.9375 480.0625 C191.55085205 480.67319336 192.1642041 481.28388672 192.79614258 481.91308594 C196.42348402 485.50249753 200.10025203 488.98663534 204 492.28125 C207.55573653 495.33696108 210.95725526 498.56942458 214.38671875 501.765625 C216.87670735 504.0258469 216.87670735 504.0258469 219.51953125 505.484375 C222.4892397 507.29893701 224.58131769 509.50317565 227 512 C276.83902391 556.94281482 346.71998193 598.28630625 415.83105469 595.90234375 C456.148698 593.79246372 492.06484864 579.32727003 521 551 C521.73476563 550.31550781 522.46953125 549.63101562 523.2265625 548.92578125 C533.92203735 538.76294957 543.13863223 526.08051196 548.04296875 512.12890625 C549 510 549 510 550.4453125 508.60375977 C566.67780945 491.85889914 567.292746 454.46221186 568 433 C568.06574219 431.32671631 568.06574219 431.32671631 568.1328125 429.61962891 C568.93000439 407.25507487 567.73793541 381.82675592 557.95703125 361.3125 C556.88911947 358.73207644 556.29120065 356.22591213 555.6875 353.5 C552.59968026 340.61522338 546.57667542 328.85411656 540.5625 317.125 C540.03736816 316.09157471 539.51223633 315.05814941 538.97119141 313.9934082 C535.69220922 307.71648508 531.99898497 302.0702612 527.75170898 296.40722656 C525.75823101 293.66775717 524.2149999 290.86458313 522.75 287.8125 C517.21925991 277.18231606 509.60844098 267.69891803 501.57421875 258.84765625 C499.06802954 255.90614882 496.94514159 252.7117065 494.76171875 249.52734375 C490.93414624 244.03634727 486.97155381 238.51591242 482 234 C481.34 234 480.68 234 480 234 C479.72736328 232.98873047 479.72736328 232.98873047 479.44921875 231.95703125 C477.36782342 227.71008715 474.20565748 224.92985048 470.8125 221.6875 C466.25093873 217.2802602 461.90180214 212.81352522 457.76196289 208.0065918 C448.93213143 197.95083666 439.25013418 188.32377632 428 181 C427.67 181 427.34 181 427 181 Z M200 202 C198.2675 202.5878125 198.2675 202.5878125 196.5 203.1875 C190.72221651 206.17956645 188.18669718 211.30296095 185.625 217.125 C184.1822403 223.76169463 185.01269023 229.01352606 188 235 C189.13499335 236.75923969 190.32658509 238.42156851 191.62109375 240.06640625 C193 242 193 242 194.58935547 245.10131836 C197.30548315 249.87028543 201.06794028 253.47961943 204.94921875 257.3125 C205.72127151 258.08505127 206.49332428 258.85760254 207.28877258 259.65356445 C208.91833015 261.28078983 210.55156148 262.90434353 212.18823242 264.52441406 C214.67082165 266.98347968 217.13989651 269.45551643 219.60742188 271.9296875 C221.19973177 273.51641723 222.79280646 275.10237993 224.38671875 276.6875 C225.47940315 277.78155151 225.47940315 277.78155151 226.59416199 278.89770508 C235.85376844 288.03249802 245.93497997 296.88593842 259.5625 297.3125 C266.64808089 297.2391286 272.7625241 294.82987768 278.875 291.375 C284.30053605 285.31116559 287.47522512 277.34827936 287.33984375 269.1953125 C286.67577796 264.90560015 284.26827445 261.61903677 282 258 C281.51748779 257.1759668 281.03497559 256.35193359 280.5378418 255.50292969 C276.15459314 248.20896681 270.97552096 242.460271 264.875 236.5625 C263.99457031 235.69173828 263.11414063 234.82097656 262.20703125 233.92382812 C258.27314973 230.05818135 254.31935664 226.4318738 250 223 C248.92454899 221.82163502 247.88121372 220.61301165 246.875 219.375 C238.63605433 209.8370413 227.78194912 199.03249434 214.51171875 197.76171875 C208.29249352 197.5982813 205.01127637 198.01375743 200 202 Z " fill="#FE4343" transform="translate(160,158)"/>
</svg>
