<?xml version="1.0" standalone="no"?>
<!DOCTYPE svg PUBLIC "-//W3C//DTD SVG 20010904//EN"
 "http://www.w3.org/TR/2001/REC-SVG-20010904/DTD/svg10.dtd">
<svg version="1.0" xmlns="http://www.w3.org/2000/svg"
 width="1024.000000pt" height="1536.000000pt" viewBox="0 0 1024.000000 1536.000000"
 preserveAspectRatio="xMidYMid meet">

<g transform="translate(0.000000,1536.000000) scale(0.100000,-0.100000)"
fill="#FF4444" stroke="none">
<path d="M4255 12634 c-461 -45 -815 -157 -1166 -370 -471 -284 -838 -690
-1059 -1172 -135 -295 -206 -577 -251 -1007 -28 -263 -13 -1035 25 -1332 7
-54 12 -100 10 -102 -2 -2 -47 42 -100 99 -273 286 -523 416 -734 381 -196
-32 -371 -160 -515 -376 -97 -147 -156 -282 -205 -470 -66 -256 -75 -561 -20
-707 31 -84 97 -138 167 -138 76 0 117 43 172 183 48 120 68 155 101 172 67
35 100 10 169 -131 57 -116 87 -145 161 -152 79 -7 140 35 209 145 36 58 84
103 109 103 38 0 72 -53 109 -170 19 -63 43 -131 53 -150 69 -136 241 -172
351 -73 21 19 59 64 84 99 39 55 70 84 88 84 3 0 13 -35 22 -77 44 -200 163
-580 267 -858 216 -572 525 -1140 790 -1450 300 -350 597 -533 932 -575 95
-12 266 0 358 24 l58 16 92 -61 c169 -111 373 -195 533 -220 39 -7 129 -9 205
-6 121 4 146 8 241 40 120 40 239 101 382 195 l98 65 118 -56 c230 -111 449
-168 641 -168 149 0 261 26 384 88 118 59 241 168 339 298 33 44 63 83 66 87
3 4 54 -8 112 -27 405 -128 850 -127 1119 3 151 73 232 191 216 315 -18 140
-110 222 -324 291 -380 122 -703 371 -942 725 -162 242 -291 564 -370 925 -93
423 -136 915 -155 1791 -28 1275 -39 1433 -125 1777 -50 199 -92 315 -185 503
-180 367 -424 660 -765 920 -360 273 -760 433 -1250 500 -109 15 -525 28 -615
19z m545 -105 c519 -55 944 -227 1335 -540 473 -379 775 -889 890 -1499 42
-221 60 -507 70 -1080 14 -881 48 -1528 101 -1910 101 -739 315 -1251 683
-1633 207 -215 474 -385 741 -472 126 -41 159 -55 208 -92 68 -51 92 -155 53
-232 -101 -197 -601 -273 -1056 -160 -210 52 -445 146 -646 259 -59 33 -115
60 -123 60 -20 0 -39 -36 -31 -59 8 -25 297 -182 404 -219 l32 -11 -16 -29
c-36 -61 -124 -159 -195 -219 -91 -76 -206 -135 -320 -164 -117 -30 -311 -23
-448 15 -288 80 -593 245 -872 469 -117 95 -326 304 -413 415 -35 44 -65 72
-77 72 -17 0 -50 -24 -50 -36 0 -42 246 -316 413 -460 116 -100 286 -226 369
-272 26 -15 48 -31 48 -37 0 -14 -132 -98 -236 -150 -159 -78 -261 -107 -403
-113 -145 -6 -224 6 -366 55 -224 77 -421 209 -640 428 -83 83 -170 174 -194
203 -30 38 -49 52 -64 50 -29 -4 -43 -32 -32 -62 15 -38 193 -234 295 -323 49
-43 86 -81 81 -86 -13 -13 -222 -24 -307 -16 -416 41 -816 372 -1176 974 -510
854 -845 1947 -978 3195 -37 354 -41 1050 -6 1305 51 367 96 557 187 788 181
454 489 837 919 1143 453 321 991 476 1585 458 77 -3 183 -9 235 -15z m-3540
-3535 c149 -71 313 -207 490 -406 l87 -98 12 -87 c21 -150 70 -420 108 -592
l36 -165 -24 -15 c-28 -17 -69 -62 -131 -141 -27 -35 -61 -64 -91 -79 -44 -22
-52 -23 -90 -11 -66 20 -91 56 -139 202 -45 138 -78 196 -131 228 -81 50 -138
16 -246 -141 -95 -141 -148 -135 -228 24 -25 51 -55 105 -66 121 -28 40 -99
70 -145 61 -88 -16 -131 -64 -188 -212 -43 -111 -74 -153 -112 -153 -71 1
-104 81 -110 271 -10 328 84 676 250 916 59 85 193 217 262 257 95 56 141 67
261 63 105 -3 114 -5 195 -43z"/>
<path d="M4830 11695 c-17 -21 -7 -62 35 -147 50 -99 89 -153 170 -233 114
-115 237 -190 393 -239 103 -32 167 -34 182 -6 19 36 -3 56 -82 75 -84 21
-196 63 -253 96 -164 95 -330 284 -361 412 -6 27 -38 57 -60 57 -6 0 -17 -7
-24 -15z"/>
<path d="M3009 11415 c-118 -111 -263 -211 -424 -291 -113 -56 -116 -58 -113
-88 5 -53 44 -47 190 27 157 80 307 185 421 297 85 85 100 113 75 138 -24 24
-51 10 -149 -83z"/>
<path d="M4648 11025 c-126 -46 -220 -170 -270 -357 -18 -68 -22 -109 -21
-223 0 -202 30 -327 122 -520 181 -377 547 -637 826 -586 345 63 499 466 344
896 -126 347 -511 735 -787 794 -70 15 -168 13 -214 -4z"/>
<path d="M3131 10975 c-245 -69 -539 -390 -647 -707 -62 -183 -71 -389 -23
-533 41 -124 158 -215 276 -215 123 0 243 59 372 184 313 303 504 727 448 993
-40 188 -135 281 -296 289 -49 3 -95 -1 -130 -11z"/>
<path d="M3689 9787 c-101 -34 -176 -84 -275 -182 -224 -221 -345 -526 -361
-905 -9 -229 31 -394 112 -455 82 -63 225 -34 278 58 14 23 41 92 60 153 50
158 93 237 173 318 91 90 196 88 267 -6 38 -49 66 -129 93 -263 14 -66 34
-139 45 -162 79 -164 284 -140 377 44 50 98 57 146 57 373 0 189 -3 228 -23
320 -71 316 -240 577 -442 680 -107 54 -249 65 -361 27z"/>
<path d="M2705 9409 c-16 -5 -75 -8 -130 -7 l-100 3 -3 -32 c-5 -46 33 -63
140 -62 110 0 172 23 176 63 5 44 -21 54 -83 35z"/>
<path d="M5607 9260 c-72 -57 -214 -81 -291 -51 -25 10 -32 9 -49 -7 -48 -49
24 -92 152 -92 94 0 165 21 216 63 42 34 57 64 43 90 -12 23 -39 22 -71 -3z"/>
<path d="M5895 8839 c-32 -5 -81 -16 -107 -25 -62 -20 -186 -101 -255 -167
-188 -177 -360 -521 -455 -907 -19 -79 -23 -122 -23 -250 0 -143 2 -159 24
-203 29 -59 70 -87 129 -87 78 0 118 33 222 188 93 139 153 172 202 114 13
-16 41 -70 62 -120 44 -105 91 -166 142 -182 53 -18 119 -7 168 27 38 26 63
59 158 213 21 33 52 69 70 80 78 47 130 10 174 -123 59 -180 108 -240 207
-253 87 -12 132 9 227 105 99 101 131 151 111 175 -24 29 -57 19 -92 -26 -50
-66 -121 -138 -151 -154 -15 -8 -46 -14 -69 -14 -64 0 -105 48 -154 182 -28
79 -50 120 -80 155 -39 44 -44 47 -101 51 -104 7 -161 -36 -240 -179 -88 -162
-165 -205 -237 -133 -14 14 -43 68 -63 120 -45 114 -89 169 -147 185 -89 24
-154 -21 -261 -180 -98 -145 -141 -176 -185 -132 -62 62 -53 271 23 536 43
149 81 247 156 398 74 148 141 245 227 330 83 81 104 97 168 130 92 46 159 60
266 55 90 -5 103 -8 190 -51 128 -62 234 -143 361 -276 93 -96 111 -110 127
-102 50 27 31 67 -100 202 -140 144 -321 264 -460 303 -73 21 -162 26 -234 15z"/>
<path d="M3671 8235 c-85 -38 -223 -173 -238 -232 -6 -25 15 -53 40 -53 6 0
46 38 89 85 89 94 141 125 212 125 64 0 88 -15 201 -120 95 -88 124 -105 162
-98 30 5 29 52 -2 76 -14 11 -58 50 -98 88 -39 37 -96 83 -126 103 -49 32 -62
36 -130 39 -51 1 -87 -3 -110 -13z"/>
<path d="M8631 12626 c-6 -7 -20 -62 -31 -122 -29 -158 -46 -200 -98 -251 -55
-54 -196 -124 -312 -155 -69 -18 -112 -22 -225 -23 -137 0 -141 1 -200 31 -67
34 -112 86 -170 196 -41 77 -65 97 -89 72 -30 -29 -24 -44 104 -244 70 -109
204 -334 443 -745 77 -132 204 -348 282 -480 78 -132 199 -339 270 -460 70
-121 187 -319 260 -440 72 -121 151 -257 175 -302 34 -65 49 -83 66 -83 40 0
47 23 20 71 -44 79 -59 161 -53 284 12 247 122 482 324 693 112 116 146 127
309 98 159 -29 152 -28 163 -7 25 46 1 58 -179 86 -130 20 -148 30 -224 135
-81 109 -125 217 -146 353 -13 89 0 220 31 302 23 63 85 124 212 208 66 44 77
56 75 77 -6 47 -43 37 -166 -45 -62 -41 -124 -78 -137 -81 -37 -9 -160 14
-239 44 -164 64 -343 217 -408 350 -43 87 -47 158 -18 307 18 93 20 118 10
130 -15 19 -34 19 -49 1z m-131 -627 c-32 -149 -50 -191 -102 -234 -69 -58
-221 -115 -307 -115 -90 0 -116 23 -219 196 -51 86 -91 158 -89 160 2 3 48 -1
101 -7 121 -15 252 -1 378 41 86 29 204 84 243 114 31 23 30 4 -5 -155z m149
105 c78 -147 299 -309 501 -367 45 -13 81 -27 81 -31 0 -3 -31 -27 -68 -53
-38 -25 -97 -68 -132 -95 -72 -54 -95 -63 -150 -55 -100 13 -256 131 -305 230
-33 65 -33 114 0 265 14 64 26 125 27 135 2 30 21 19 46 -29z m-215 -441 c-2
-16 -20 -107 -38 -203 -18 -96 -42 -219 -52 -272 -10 -54 -21 -98 -25 -98 -4
0 -62 96 -130 213 -67 116 -131 224 -141 239 -10 14 -18 29 -18 32 0 3 31 6
68 6 89 0 171 22 257 70 39 21 73 39 77 39 4 1 5 -11 2 -26z m107 -19 c24 -46
136 -140 214 -179 41 -21 75 -40 75 -42 0 -15 -417 -329 -425 -321 -2 2 18
114 44 248 27 135 51 262 55 283 8 44 17 47 37 11z m712 -109 c-33 -195 24
-427 142 -583 26 -35 45 -66 42 -69 -9 -8 -277 27 -312 41 -33 14 -96 79 -118
123 -26 49 -57 164 -57 207 0 81 27 147 83 201 46 45 227 179 233 172 1 -1 -5
-42 -13 -92z m-367 -278 c1 -113 19 -179 74 -269 17 -28 29 -53 26 -55 -6 -6
-75 4 -350 48 -99 16 -181 31 -184 33 -2 3 -1 9 3 15 5 10 230 183 373 288 31
23 57 42 57 42 0 1 0 -45 1 -102z m-219 -357 c131 -22 246 -40 255 -40 9 0 28
-4 42 -10 l25 -9 -42 -46 c-93 -101 -173 -256 -202 -389 l-6 -29 -23 34 c-13
19 -65 106 -116 194 -51 88 -115 197 -141 242 -47 78 -60 111 -40 98 5 -3 117
-23 248 -45z m695 -92 l58 -11 -83 -86 c-170 -180 -278 -385 -322 -615 -8 -43
-15 -95 -15 -117 0 -21 -3 -39 -7 -39 -12 1 -150 240 -168 289 -29 85 -12 217
42 325 57 115 172 248 229 266 34 11 183 4 266 -12z"/>
<path d="M5255 3685 c-922 -50 -1458 -153 -1575 -302 -13 -17 -20 -41 -20 -68
0 -87 104 -152 343 -216 272 -72 827 -144 1262 -164 77 -4 156 -8 175 -11 19
-2 222 -7 450 -10 1140 -18 2304 103 2580 268 126 76 135 184 21 257 -172 111
-652 193 -1416 242 -260 17 -1539 20 -1820 4z m1585 -85 c652 -25 1092 -74
1409 -156 122 -32 219 -79 227 -110 13 -52 -29 -82 -186 -133 -236 -76 -619
-127 -1290 -173 -439 -30 -1333 -33 -1735 -5 -567 39 -950 88 -1223 156 -187
48 -302 101 -302 141 0 17 62 59 117 80 254 97 813 171 1488 199 281 12 1202
12 1495 1z"/>
</g>
</svg>
